M48
; DRILL file {KiCad 8.0.8} date 2025-02-25T20:31:51-0500
; FORMAT={-:-/ absolute / inch / decimal}
; #@! TF.CreationDate,2025-02-25T20:31:51-05:00
; #@! TF.GenerationSoftware,Kicad,Pcbnew,8.0.8
; #@! TF.FileFunction,NonPlated,1,2,NPTH
FMAT,2
INCH
; #@! TA.AperFunction,NonPlated,NPTH,ComponentDrill
T1C0.0400
; #@! TA.AperFunction,NonPlated,NPTH,ComponentDrill
T2C0.0551
; #@! TA.AperFunction,NonPlated,NPTH,ComponentDrill
T3C0.0670
; #@! TA.AperFunction,NonPlated,NPTH,ComponentDrill
T4C0.1181
; #@! TA.AperFunction,NonPlated,NPTH,ComponentDrill
T5C0.1200
; #@! TA.AperFunction,NonPlated,NPTH,ComponentDrill
T6C0.1570
%
G90
G05
T1
X7.8252Y-5.415
T2
X7.8252Y-3.615
X8.4252Y-3.615
X8.4252Y-5.415
T3
X3.3433Y-4.7244
X3.7433Y-4.7244
X4.8394Y-7.7756
X5.2394Y-7.7756
X6.3748Y-4.7244
X6.7748Y-4.7244
X9.4063Y-4.7244
X9.8063Y-4.7244
X10.9417Y-7.7756
X11.3417Y-7.7756
X12.4378Y-4.7244
X12.8378Y-4.7244
T4
X3.4433Y-4.9244
X3.6933Y-4.8244
X4.9394Y-7.9756
X5.1894Y-7.8756
X6.4748Y-4.9244
X6.7248Y-4.8244
X9.5063Y-4.9244
X9.7563Y-4.8244
X11.0417Y-7.9756
X11.2917Y-7.8756
X12.5378Y-4.9244
X12.7878Y-4.8244
T5
X2.7933Y-3.662
X2.7933Y-5.2368
X4.2933Y-3.662
X4.2933Y-5.2368
X4.5694Y-7.5006
X5.5094Y-7.5006
X5.8248Y-3.662
X5.8248Y-5.2368
X7.3248Y-3.662
X7.3248Y-5.2368
X8.8563Y-3.662
X8.8563Y-5.2368
X10.3563Y-3.662
X10.3563Y-5.2368
X10.6717Y-7.5006
X11.6117Y-7.5006
X11.8878Y-3.662
X11.8878Y-5.2368
X13.3878Y-3.662
X13.3878Y-5.2368
T6
X2.7933Y-4.2608
X2.7933Y-5.8356
X3.5433Y-4.7244
X4.2933Y-4.2608
X4.2933Y-5.8356
X4.5694Y-8.0994
X5.0394Y-7.7756
X5.5094Y-8.0994
X5.8248Y-4.2608
X5.8248Y-5.8356
X6.5748Y-4.7244
X7.3248Y-4.2608
X7.3248Y-5.8356
X8.8563Y-4.2608
X8.8563Y-5.8356
X9.6063Y-4.7244
X10.3563Y-4.2608
X10.3563Y-5.8356
X10.6717Y-8.0994
X11.1417Y-7.7756
X11.6117Y-8.0994
X11.8878Y-4.2608
X11.8878Y-5.8356
X12.6378Y-4.7244
X13.3878Y-4.2608
X13.3878Y-5.8356
M30
