%TF.GenerationSoftware,KiCad,Pcbnew,8.0.8*%
%TF.CreationDate,2025-02-25T20:31:50-05:00*%
%TF.ProjectId,keyboard,6b657962-6f61-4726-942e-6b696361645f,rev?*%
%TF.SameCoordinates,Original*%
%TF.FileFunction,Soldermask,Bot*%
%TF.FilePolarity,Negative*%
%FSLAX46Y46*%
G04 Gerber Fmt 4.6, Leading zero omitted, Abs format (unit mm)*
G04 Created by KiCad (PCBNEW 8.0.8) date 2025-02-25 20:31:50*
%MOMM*%
%LPD*%
G01*
G04 APERTURE LIST*
G04 Aperture macros list*
%AMRoundRect*
0 Rectangle with rounded corners*
0 $1 Rounding radius*
0 $2 $3 $4 $5 $6 $7 $8 $9 X,Y pos of 4 corners*
0 Add a 4 corners polygon primitive as box body*
4,1,4,$2,$3,$4,$5,$6,$7,$8,$9,$2,$3,0*
0 Add four circle primitives for the rounded corners*
1,1,$1+$1,$2,$3*
1,1,$1+$1,$4,$5*
1,1,$1+$1,$6,$7*
1,1,$1+$1,$8,$9*
0 Add four rect primitives between the rounded corners*
20,1,$1+$1,$2,$3,$4,$5,0*
20,1,$1+$1,$4,$5,$6,$7,0*
20,1,$1+$1,$6,$7,$8,$9,0*
20,1,$1+$1,$8,$9,$2,$3,0*%
G04 Aperture macros list end*
%ADD10R,2.550000X2.500000*%
%ADD11C,3.000000*%
%ADD12C,3.987800*%
%ADD13C,1.701800*%
%ADD14C,3.048000*%
%ADD15RoundRect,0.250000X1.330000X1.850000X-1.330000X1.850000X-1.330000X-1.850000X1.330000X-1.850000X0*%
%ADD16O,3.160000X4.200000*%
%ADD17C,1.400000*%
%ADD18O,1.727200X1.727200*%
%ADD19C,1.016000*%
%ADD20R,1.727200X1.727200*%
%ADD21C,1.727200*%
G04 APERTURE END LIST*
D10*
%TO.C,K4*%
X314710000Y-125080000D03*
D11*
X318460000Y-125080000D03*
X324810000Y-122540000D03*
D12*
X321000000Y-120000000D03*
D13*
X315920000Y-120000000D03*
X326080000Y-120000000D03*
D10*
X328560000Y-122540000D03*
%TD*%
%TO.C,K1*%
X83710000Y-125080000D03*
D11*
X87460000Y-125080000D03*
X93810000Y-122540000D03*
D12*
X90000000Y-120000000D03*
D13*
X84920000Y-120000000D03*
X95080000Y-120000000D03*
D10*
X97560000Y-122540000D03*
%TD*%
%TO.C,K6*%
X276710000Y-202580000D03*
D11*
X280460000Y-202580000D03*
X286810000Y-200040000D03*
D12*
X283000000Y-197500000D03*
D13*
X277920000Y-197500000D03*
X288080000Y-197500000D03*
D10*
X290560000Y-200040000D03*
%TD*%
%TO.C,K5*%
X121710000Y-202580000D03*
D11*
X125460000Y-202580000D03*
X131810000Y-200040000D03*
D12*
X128000000Y-197500000D03*
D13*
X122920000Y-197500000D03*
X133080000Y-197500000D03*
D10*
X135560000Y-200040000D03*
%TD*%
%TO.C,K3*%
X237710000Y-125080000D03*
D11*
X241460000Y-125080000D03*
X247810000Y-122540000D03*
D12*
X244000000Y-120000000D03*
D13*
X238920000Y-120000000D03*
X249080000Y-120000000D03*
D10*
X251560000Y-122540000D03*
%TD*%
%TO.C,K2*%
X160710000Y-125080000D03*
D11*
X164460000Y-125080000D03*
X170810000Y-122540000D03*
D12*
X167000000Y-120000000D03*
D13*
X161920000Y-120000000D03*
X172080000Y-120000000D03*
D10*
X174560000Y-122540000D03*
%TD*%
D14*
%TO.C,REF\u002A\u002A*%
X224950000Y-133015000D03*
D12*
X224950000Y-148225000D03*
D14*
X263050000Y-133015000D03*
D12*
X263050000Y-148225000D03*
%TD*%
D14*
%TO.C,REF\u002A\u002A*%
X147950000Y-133015000D03*
D12*
X147950000Y-148225000D03*
D14*
X186050000Y-133015000D03*
D12*
X186050000Y-148225000D03*
%TD*%
D14*
%TO.C,REF\u002A\u002A*%
X70950000Y-133015000D03*
D12*
X70950000Y-148225000D03*
D14*
X109050000Y-133015000D03*
D12*
X109050000Y-148225000D03*
%TD*%
D14*
%TO.C,REF\u002A\u002A*%
X147950000Y-93015000D03*
D12*
X147950000Y-108225000D03*
D14*
X186050000Y-93015000D03*
D12*
X186050000Y-108225000D03*
%TD*%
D14*
%TO.C,REF\u002A\u002A*%
X224950000Y-93015000D03*
D12*
X224950000Y-108225000D03*
D14*
X263050000Y-93015000D03*
D12*
X263050000Y-108225000D03*
%TD*%
D14*
%TO.C,REF\u002A\u002A*%
X116062000Y-190515000D03*
D12*
X116062000Y-205725000D03*
D14*
X139938000Y-190515000D03*
D12*
X139938000Y-205725000D03*
%TD*%
D14*
%TO.C,REF\u002A\u002A*%
X70950000Y-93015000D03*
D12*
X70950000Y-108225000D03*
D14*
X109050000Y-93015000D03*
D12*
X109050000Y-108225000D03*
%TD*%
D14*
%TO.C,REF\u002A\u002A*%
X301950000Y-133015000D03*
D12*
X301950000Y-148225000D03*
D14*
X340050000Y-133015000D03*
D12*
X340050000Y-148225000D03*
%TD*%
D14*
%TO.C,REF\u002A\u002A*%
X271062000Y-190515000D03*
D12*
X271062000Y-205725000D03*
D14*
X294938000Y-190515000D03*
D12*
X294938000Y-205725000D03*
%TD*%
D14*
%TO.C,REF\u002A\u002A*%
X301950000Y-93015000D03*
D12*
X301950000Y-108225000D03*
D14*
X340050000Y-93015000D03*
D12*
X340050000Y-108225000D03*
%TD*%
D15*
%TO.C,ENC_R1*%
X289000000Y-100000000D03*
D16*
X285040000Y-100000000D03*
X281080000Y-100000000D03*
X277120000Y-100000000D03*
%TD*%
D15*
%TO.C,ENC_L1*%
X136000000Y-100000000D03*
D16*
X132040000Y-100000000D03*
X128080000Y-100000000D03*
X124120000Y-100000000D03*
%TD*%
D17*
%TO.C,A1*%
X214000000Y-91820000D03*
X198760000Y-91820000D03*
D18*
X214000000Y-117220000D03*
X214000000Y-119760000D03*
D17*
X214000000Y-137540000D03*
D19*
X198760000Y-137540000D03*
D18*
X214000000Y-96900000D03*
X214000000Y-122300000D03*
X214000000Y-101980000D03*
X214000000Y-104520000D03*
X214000000Y-107060000D03*
X214000000Y-109600000D03*
X214000000Y-112140000D03*
X214000000Y-114680000D03*
X214000000Y-99440000D03*
X198760000Y-127380000D03*
X198760000Y-129920000D03*
X198760000Y-119760000D03*
X198760000Y-117220000D03*
X198760000Y-114680000D03*
X198760000Y-112140000D03*
X198760000Y-109600000D03*
X198760000Y-107060000D03*
X198760000Y-104520000D03*
X198760000Y-101980000D03*
X198760000Y-99440000D03*
X198760000Y-96900000D03*
X198760000Y-94360000D03*
X214000000Y-94360000D03*
D20*
X214000000Y-127380000D03*
X198760000Y-122300000D03*
D18*
X214000000Y-132460000D03*
D21*
X198760000Y-135000000D03*
D18*
X214000000Y-124840000D03*
X198760000Y-124840000D03*
X214000000Y-135000000D03*
X198760000Y-132460000D03*
X214000000Y-129920000D03*
%TD*%
M02*
