M48
; DRILL file {KiCad 8.0.8} date 2025-02-27T04:46:13-0500
; FORMAT={-:-/ absolute / inch / decimal}
; #@! TF.CreationDate,2025-02-27T04:46:13-05:00
; #@! TF.GenerationSoftware,Kicad,Pcbnew,8.0.8
; #@! TF.FileFunction,NonPlated,1,2,NPTH
FMAT,2
INCH
; #@! TA.AperFunction,NonPlated,NPTH,ComponentDrill
T1C0.0400
; #@! TA.AperFunction,NonPlated,NPTH,ComponentDrill
T2C0.0551
; #@! TA.AperFunction,NonPlated,NPTH,ComponentDrill
T3C0.0670
; #@! TA.AperFunction,NonPlated,NPTH,ComponentDrill
T4C0.1181
; #@! TA.AperFunction,NonPlated,NPTH,ComponentDrill
T5C0.1200
; #@! TA.AperFunction,NonPlated,NPTH,ComponentDrill
T6C0.1260
; #@! TA.AperFunction,NonPlated,NPTH,ComponentDrill
T7C0.1570
%
G90
G05
T1
X0.9094Y-1.0874
T2
X-0.8906Y-0.4874
X-0.8906Y-1.0874
X0.9094Y-0.4874
T3
X-0.2Y0.0
X0.2Y0.0
T4
X-0.1Y-0.2
X0.15Y-0.1
T5
X-0.75Y0.9049
X-0.75Y-0.3549
X-0.47Y0.275
X0.47Y0.275
X0.75Y0.9049
X0.75Y-0.3549
T6
X-0.3543Y0.7874
X-0.3543Y-0.7874
X0.3543Y0.7874
X0.3543Y-0.7874
T7
X-0.75Y0.3061
X-0.75Y-0.9537
X-0.47Y-0.3238
X0.0Y0.0
X0.47Y-0.3238
X0.75Y0.3061
X0.75Y-0.9537
M30
