M48
; DRILL file {KiCad 8.0.8} date 2025-02-27T04:46:13-0500
; FORMAT={-:-/ absolute / inch / decimal}
; #@! TF.CreationDate,2025-02-27T04:46:13-05:00
; #@! TF.GenerationSoftware,Kicad,Pcbnew,8.0.8
; #@! TF.FileFunction,Plated,1,2,PTH
FMAT,2
INCH
; #@! TA.AperFunction,Plated,PTH,ViaDrill
T1C0.0118
; #@! TA.AperFunction,Plated,PTH,ComponentDrill
T2C0.0394
; #@! TA.AperFunction,Plated,PTH,ComponentDrill
T3C0.0400
%
G90
G05
T1
X-0.2382Y0.3341
X0.2736Y0.3341
X0.3524Y-0.3746
T2
X-0.8512Y0.6299
X-0.7512Y0.6299
X-0.748Y0.1181
X-0.748Y-0.0394
X-0.748Y-0.1969
X-0.6512Y0.6299
X-0.5512Y0.6299
X0.0Y0.6299
X0.548Y0.6299
X0.648Y0.6299
X0.748Y0.6299
X0.748Y0.1181
X0.748Y-0.0394
X0.748Y-0.1969
X0.848Y0.6299
T3
X-0.7906Y-0.4874
X-0.7906Y-1.0874
X-0.6906Y-0.4874
X-0.6906Y-1.0874
X-0.5906Y-0.4874
X-0.5906Y-1.0874
X-0.4906Y-0.4874
X-0.4906Y-1.0874
X-0.3906Y-0.4874
X-0.3906Y-1.0874
X-0.2906Y-0.4874
X-0.2906Y-1.0874
X-0.1906Y-0.4874
X-0.1906Y-1.0874
X-0.0906Y-0.4874
X-0.0906Y-1.0874
X0.0094Y-0.4874
X0.0094Y-1.0874
X0.1094Y-0.4874
X0.1094Y-1.0874
X0.2094Y-0.4874
X0.2094Y-1.0874
X0.3094Y-0.4874
X0.3094Y-1.0874
X0.4094Y-0.4874
X0.4094Y-1.0874
X0.5094Y-0.4874
X0.5094Y-1.0874
X0.6094Y-0.4874
X0.6094Y-1.0874
X0.7094Y-0.4874
X0.7094Y-1.0874
X0.8094Y-0.4874
X0.8094Y-1.0874
M30
