%TF.GenerationSoftware,KiCad,Pcbnew,8.0.8*%
%TF.CreationDate,2025-02-26T23:57:33-05:00*%
%TF.ProjectId,keyboard,6b657962-6f61-4726-942e-6b696361645f,rev?*%
%TF.SameCoordinates,Original*%
%TF.FileFunction,Soldermask,Top*%
%TF.FilePolarity,Negative*%
%FSLAX46Y46*%
G04 Gerber Fmt 4.6, Leading zero omitted, Abs format (unit mm)*
G04 Created by KiCad (PCBNEW 8.0.8) date 2025-02-26 23:57:33*
%MOMM*%
%LPD*%
G01*
G04 APERTURE LIST*
G04 Aperture macros list*
%AMRoundRect*
0 Rectangle with rounded corners*
0 $1 Rounding radius*
0 $2 $3 $4 $5 $6 $7 $8 $9 X,Y pos of 4 corners*
0 Add a 4 corners polygon primitive as box body*
4,1,4,$2,$3,$4,$5,$6,$7,$8,$9,$2,$3,0*
0 Add four circle primitives for the rounded corners*
1,1,$1+$1,$2,$3*
1,1,$1+$1,$4,$5*
1,1,$1+$1,$6,$7*
1,1,$1+$1,$8,$9*
0 Add four rect primitives between the rounded corners*
20,1,$1+$1,$2,$3,$4,$5,0*
20,1,$1+$1,$4,$5,$6,$7,0*
20,1,$1+$1,$6,$7,$8,$9,0*
20,1,$1+$1,$8,$9,$2,$3,0*%
G04 Aperture macros list end*
%ADD10C,3.048000*%
%ADD11C,3.987800*%
%ADD12C,1.701800*%
%ADD13C,3.000000*%
%ADD14RoundRect,0.250000X1.330000X1.850000X-1.330000X1.850000X-1.330000X-1.850000X1.330000X-1.850000X0*%
%ADD15O,3.160000X4.200000*%
%ADD16C,1.400000*%
%ADD17O,1.727200X1.727200*%
%ADD18C,1.016000*%
%ADD19R,1.727200X1.727200*%
%ADD20C,1.727200*%
G04 APERTURE END LIST*
D10*
%TO.C,REF\u002A\u002A*%
X224950000Y-129015000D03*
D11*
X224950000Y-144225000D03*
D10*
X263050000Y-129015000D03*
D11*
X263050000Y-144225000D03*
%TD*%
D12*
%TO.C,K4*%
X326080000Y-120000000D03*
D13*
X324810000Y-122540000D03*
D11*
X321000000Y-120000000D03*
D13*
X318460000Y-125080000D03*
D12*
X315920000Y-120000000D03*
%TD*%
D10*
%TO.C,REF\u002A\u002A*%
X147950000Y-129015000D03*
D11*
X147950000Y-144225000D03*
D10*
X186050000Y-129015000D03*
D11*
X186050000Y-144225000D03*
%TD*%
%TO.C,REF\u002A\u002A*%
X109050000Y-144225000D03*
D10*
X109050000Y-129015000D03*
D11*
X70950000Y-144225000D03*
D10*
X70950000Y-129015000D03*
%TD*%
%TO.C,REF\u002A\u002A*%
X147950000Y-97015000D03*
D11*
X147950000Y-112225000D03*
D10*
X186050000Y-97015000D03*
D11*
X186050000Y-112225000D03*
%TD*%
D10*
%TO.C,REF\u002A\u002A*%
X224950000Y-97015000D03*
D11*
X224950000Y-112225000D03*
D10*
X263050000Y-97015000D03*
D11*
X263050000Y-112225000D03*
%TD*%
D12*
%TO.C,K1*%
X95080000Y-120000000D03*
D13*
X93810000Y-122540000D03*
D11*
X90000000Y-120000000D03*
D13*
X87460000Y-125080000D03*
D12*
X84920000Y-120000000D03*
%TD*%
D10*
%TO.C,REF\u002A\u002A*%
X116062000Y-190515000D03*
D11*
X116062000Y-205725000D03*
D10*
X139938000Y-190515000D03*
D11*
X139938000Y-205725000D03*
%TD*%
D12*
%TO.C,K6*%
X288080000Y-197500000D03*
D13*
X286810000Y-200040000D03*
D11*
X283000000Y-197500000D03*
D13*
X280460000Y-202580000D03*
D12*
X277920000Y-197500000D03*
%TD*%
D10*
%TO.C,REF\u002A\u002A*%
X70950000Y-97015000D03*
D11*
X70950000Y-112225000D03*
D10*
X109050000Y-97015000D03*
D11*
X109050000Y-112225000D03*
%TD*%
D12*
%TO.C,K5*%
X133080000Y-197500000D03*
D13*
X131810000Y-200040000D03*
D11*
X128000000Y-197500000D03*
D13*
X125460000Y-202580000D03*
D12*
X122920000Y-197500000D03*
%TD*%
D10*
%TO.C,REF\u002A\u002A*%
X301950000Y-129015000D03*
D11*
X301950000Y-144225000D03*
D10*
X340050000Y-129015000D03*
D11*
X340050000Y-144225000D03*
%TD*%
D10*
%TO.C,REF\u002A\u002A*%
X271062000Y-190515000D03*
D11*
X271062000Y-205725000D03*
D10*
X294938000Y-190515000D03*
D11*
X294938000Y-205725000D03*
%TD*%
D12*
%TO.C,K3*%
X249080000Y-120000000D03*
D13*
X247810000Y-122540000D03*
D11*
X244000000Y-120000000D03*
D13*
X241460000Y-125080000D03*
D12*
X238920000Y-120000000D03*
%TD*%
%TO.C,K2*%
X172080000Y-120000000D03*
D13*
X170810000Y-122540000D03*
D11*
X167000000Y-120000000D03*
D13*
X164460000Y-125080000D03*
D12*
X161920000Y-120000000D03*
%TD*%
D10*
%TO.C,REF\u002A\u002A*%
X301950000Y-97015000D03*
D11*
X301950000Y-112225000D03*
D10*
X340050000Y-97015000D03*
D11*
X340050000Y-112225000D03*
%TD*%
D14*
%TO.C,ENC_R1*%
X289000000Y-100000000D03*
D15*
X285040000Y-100000000D03*
X281080000Y-100000000D03*
X277120000Y-100000000D03*
%TD*%
D14*
%TO.C,ENC_L1*%
X136000000Y-100000000D03*
D15*
X132040000Y-100000000D03*
X128080000Y-100000000D03*
X124120000Y-100000000D03*
%TD*%
D16*
%TO.C,A1*%
X214000000Y-91820000D03*
X198760000Y-91820000D03*
D17*
X214000000Y-117220000D03*
X214000000Y-119760000D03*
D16*
X214000000Y-137540000D03*
D18*
X198760000Y-137540000D03*
D17*
X214000000Y-96900000D03*
X214000000Y-122300000D03*
X214000000Y-101980000D03*
X214000000Y-104520000D03*
X214000000Y-107060000D03*
X214000000Y-109600000D03*
X214000000Y-112140000D03*
X214000000Y-114680000D03*
X214000000Y-99440000D03*
X198760000Y-127380000D03*
X198760000Y-129920000D03*
X198760000Y-119760000D03*
X198760000Y-117220000D03*
X198760000Y-114680000D03*
X198760000Y-112140000D03*
X198760000Y-109600000D03*
X198760000Y-107060000D03*
X198760000Y-104520000D03*
X198760000Y-101980000D03*
X198760000Y-99440000D03*
X198760000Y-96900000D03*
X198760000Y-94360000D03*
X214000000Y-94360000D03*
D19*
X214000000Y-127380000D03*
X198760000Y-122300000D03*
D17*
X214000000Y-132460000D03*
D20*
X198760000Y-135000000D03*
D17*
X214000000Y-124840000D03*
X198760000Y-124840000D03*
X214000000Y-135000000D03*
X198760000Y-132460000D03*
X214000000Y-129920000D03*
%TD*%
M02*
