M48
; DRILL file {KiCad 8.0.8} date 2025-02-26T23:57:36-0500
; FORMAT={-:-/ absolute / inch / decimal}
; #@! TF.CreationDate,2025-02-26T23:57:36-05:00
; #@! TF.GenerationSoftware,Kicad,Pcbnew,8.0.8
; #@! TF.FileFunction,Plated,1,2,PTH
FMAT,2
INCH
; #@! TA.AperFunction,Plated,PTH,ViaDrill
T1C0.0118
; #@! TA.AperFunction,Plated,PTH,ComponentDrill
T2C0.0400
; #@! TA.AperFunction,Plated,PTH,ComponentDrill
T3C0.0709
%
G90
G05
T1
X3.3858Y-5.0787
X4.7244Y-7.874
X5.2756Y-5.0787
X5.3543Y-3.5433
X5.4331Y-5.0787
X6.063Y-4.4882
X6.2205Y-4.3307
X6.2205Y-4.8031
X7.0079Y-4.4882
X7.3622Y-4.0945
X7.5591Y-4.4882
X7.6378Y-4.2126
X7.6378Y-4.4488
X7.6772Y-4.252
X7.6772Y-4.4488
X8.9764Y-4.9606
X9.3701Y-5.2362
X10.4724Y-4.5276
X10.7087Y-4.5276
X10.748Y-7.874
X12.4016Y-5.1181
T2
X7.8252Y-3.715
X7.8252Y-3.815
X7.8252Y-3.915
X7.8252Y-4.015
X7.8252Y-4.115
X7.8252Y-4.215
X7.8252Y-4.315
X7.8252Y-4.415
X7.8252Y-4.515
X7.8252Y-4.615
X7.8252Y-4.715
X7.8252Y-4.815
X7.8252Y-4.915
X7.8252Y-5.015
X7.8252Y-5.115
X7.8252Y-5.215
X7.8252Y-5.315
X8.4252Y-3.715
X8.4252Y-3.815
X8.4252Y-3.915
X8.4252Y-4.015
X8.4252Y-4.115
X8.4252Y-4.215
X8.4252Y-4.315
X8.4252Y-4.415
X8.4252Y-4.515
X8.4252Y-4.615
X8.4252Y-4.715
X8.4252Y-4.815
X8.4252Y-4.915
X8.4252Y-5.015
X8.4252Y-5.115
X8.4252Y-5.215
X8.4252Y-5.315
T3
X4.8866Y-3.937
X5.0425Y-3.937
X5.1984Y-3.937
X5.3543Y-3.937
X10.9102Y-3.937
X11.0661Y-3.937
X11.222Y-3.937
X11.378Y-3.937
M30
