%TF.GenerationSoftware,KiCad,Pcbnew,8.0.8*%
%TF.CreationDate,2025-02-27T23:17:26-05:00*%
%TF.ProjectId,modular_sdvx_pcb_nostabs,6d6f6475-6c61-4725-9f73-6476785f7063,rev?*%
%TF.SameCoordinates,Original*%
%TF.FileFunction,Copper,L2,Bot*%
%TF.FilePolarity,Positive*%
%FSLAX46Y46*%
G04 Gerber Fmt 4.6, Leading zero omitted, Abs format (unit mm)*
G04 Created by KiCad (PCBNEW 8.0.8) date 2025-02-27 23:17:26*
%MOMM*%
%LPD*%
G01*
G04 APERTURE LIST*
%TA.AperFunction,ComponentPad*%
%ADD10R,1.700000X1.700000*%
%TD*%
%TA.AperFunction,ComponentPad*%
%ADD11O,1.700000X1.700000*%
%TD*%
%TA.AperFunction,SMDPad,CuDef*%
%ADD12R,2.550000X2.500000*%
%TD*%
%TA.AperFunction,ComponentPad*%
%ADD13O,1.727200X1.727200*%
%TD*%
%TA.AperFunction,ComponentPad*%
%ADD14R,1.727200X1.727200*%
%TD*%
%TA.AperFunction,ComponentPad*%
%ADD15C,1.727200*%
%TD*%
%TA.AperFunction,ViaPad*%
%ADD16C,0.600000*%
%TD*%
%TA.AperFunction,Conductor*%
%ADD17C,0.200000*%
%TD*%
G04 APERTURE END LIST*
D10*
%TO.P,ENC_R1,1,Pin_1*%
%TO.N,/5V*%
X3750000Y14000000D03*
D11*
%TO.P,ENC_R1,2,Pin_2*%
%TO.N,GND*%
X3750000Y16540000D03*
%TO.P,ENC_R1,3,Pin_3*%
%TO.N,/ENC_R_A*%
X3750000Y19080000D03*
%TO.P,ENC_R1,4,Pin_4*%
%TO.N,/ENC_R_B*%
X3750000Y21620000D03*
%TD*%
D12*
%TO.P,Key1,1*%
%TO.N,Net-(SW_OUT1-Pin_1)*%
X-6290000Y-5080000D03*
%TO.P,Key1,2*%
%TO.N,GND*%
X7560000Y-2540000D03*
%TD*%
D10*
%TO.P,SW_D_in1,1,Pin_1*%
%TO.N,Net-(SW_D_in1-Pin_1)*%
X-2000000Y-21000000D03*
%TD*%
%TO.P,SW_B_in1,1,Pin_1*%
%TO.N,Net-(SW_B_in1-Pin_1)*%
X6000000Y-21000000D03*
%TD*%
%TO.P,ENC_L1,1,Pin_1*%
%TO.N,/5V*%
X-3775000Y13950000D03*
D11*
%TO.P,ENC_L1,2,Pin_2*%
%TO.N,GND*%
X-3775000Y16490000D03*
%TO.P,ENC_L1,3,Pin_3*%
%TO.N,/ENC_L_A*%
X-3775000Y19030000D03*
%TO.P,ENC_L1,4,Pin_4*%
%TO.N,/ENC_L_B*%
X-3775000Y21570000D03*
%TD*%
D10*
%TO.P,SW_C_in1,1,Pin_1*%
%TO.N,Net-(A1-D7_INT4)*%
X2000000Y-21000000D03*
%TD*%
%TO.P,SW_L_in1,1,Pin_1*%
%TO.N,Net-(SW_L_in1-Pin_1)*%
X-6000000Y-21000000D03*
%TD*%
%TO.P,SW_R_in1,1,Pin_1*%
%TO.N,Net-(SW_R_in1-Pin_1)*%
X-10000000Y-21000000D03*
%TD*%
%TO.P,SW_OUT1,1,Pin_1*%
%TO.N,Net-(SW_OUT1-Pin_1)*%
X0Y21500000D03*
%TD*%
%TO.P,SW_A_in1,1,Pin_1*%
%TO.N,Net-(SW_A_in1-Pin_1)*%
X10000000Y-21000000D03*
%TD*%
D13*
%TO.P,A1,*%
%TO.N,*%
X2930000Y7250000D03*
X5470000Y7250000D03*
%TO.P,A1,3V3,3.3V*%
%TO.N,unconnected-(A1-3.3V-Pad3V3)*%
X-17390000Y7250000D03*
%TO.P,A1,5V,5V*%
%TO.N,/5V*%
X8010000Y7250000D03*
%TO.P,A1,A0,A0*%
%TO.N,/ENC_L_A*%
X-12310000Y7250000D03*
%TO.P,A1,A1,A1*%
%TO.N,/ENC_L_B*%
X-9770000Y7250000D03*
%TO.P,A1,A2,A2*%
%TO.N,/ENC_R_A*%
X-7230000Y7250000D03*
%TO.P,A1,A3,A3*%
%TO.N,/ENC_R_B*%
X-4690000Y7250000D03*
%TO.P,A1,A4,A4*%
%TO.N,unconnected-(A1-PadA4)*%
X-2150000Y7250000D03*
%TO.P,A1,A5,A5*%
%TO.N,unconnected-(A1-PadA5)*%
X390000Y7250000D03*
%TO.P,A1,AREF,AREF*%
%TO.N,unconnected-(A1-PadAREF)*%
X-14850000Y7250000D03*
%TO.P,A1,D0,D0/RX*%
%TO.N,unconnected-(A1-D0{slash}RX-PadD0)*%
X13090000Y-7990000D03*
%TO.P,A1,D1,D1/TX*%
%TO.N,unconnected-(A1-D1{slash}TX-PadD1)*%
X15630000Y-7990000D03*
%TO.P,A1,D2,D2/SDA*%
%TO.N,unconnected-(A1-D2{slash}SDA-PadD2)*%
X5470000Y-7990000D03*
%TO.P,A1,D3,D3/SCL*%
%TO.N,unconnected-(A1-D3{slash}SCL-PadD3)*%
X2930000Y-7990000D03*
%TO.P,A1,D4,D4*%
%TO.N,unconnected-(A1-PadD4)*%
X390000Y-7990000D03*
%TO.P,A1,D5,D5*%
%TO.N,Net-(SW_A_in1-Pin_1)*%
X-2150000Y-7990000D03*
%TO.P,A1,D6,D6*%
%TO.N,Net-(SW_B_in1-Pin_1)*%
X-4690000Y-7990000D03*
%TO.P,A1,D7,D7_INT4*%
%TO.N,Net-(A1-D7_INT4)*%
X-7230000Y-7990000D03*
%TO.P,A1,D8,D8*%
%TO.N,Net-(SW_D_in1-Pin_1)*%
X-9770000Y-7990000D03*
%TO.P,A1,D9,D9*%
%TO.N,Net-(SW_L_in1-Pin_1)*%
X-12310000Y-7990000D03*
%TO.P,A1,D10,D10*%
%TO.N,Net-(SW_R_in1-Pin_1)*%
X-14850000Y-7990000D03*
%TO.P,A1,D11,D11*%
%TO.N,unconnected-(A1-PadD11)*%
X-17390000Y-7990000D03*
%TO.P,A1,D12,D12*%
%TO.N,unconnected-(A1-PadD12)*%
X-19930000Y-7990000D03*
%TO.P,A1,D13,D13*%
%TO.N,unconnected-(A1-PadD13)*%
X-19930000Y7250000D03*
D14*
%TO.P,A1,GND1,GND*%
%TO.N,GND*%
X13090000Y7250000D03*
%TO.P,A1,GND2,GND*%
X8010000Y-7990000D03*
D13*
%TO.P,A1,MISO,SPI_MISO*%
%TO.N,unconnected-(A1-SPI_MISO-PadMISO)*%
X18170000Y7250000D03*
D15*
%TO.P,A1,MOSI,SPI_MOSI*%
%TO.N,unconnected-(A1-SPI_MOSI-PadMOSI)*%
X20710000Y-7990000D03*
D13*
%TO.P,A1,RST1,RESET*%
%TO.N,unconnected-(A1-RESET-PadRST1)*%
X10550000Y7250000D03*
%TO.P,A1,RST2,RESET*%
%TO.N,unconnected-(A1-RESET-PadRST2)*%
X10550000Y-7990000D03*
%TO.P,A1,SCK,SPI_SCK*%
%TO.N,unconnected-(A1-SPI_SCK-PadSCK)*%
X20710000Y7250000D03*
%TO.P,A1,SS,SPI_CS*%
%TO.N,unconnected-(A1-SPI_CS-PadSS)*%
X18170000Y-7990000D03*
%TO.P,A1,VIN,VIN*%
%TO.N,unconnected-(A1-PadVIN)*%
X15630000Y7250000D03*
%TD*%
D16*
%TO.N,/ENC_R_B*%
X1500000Y19680000D03*
X1500000Y12500000D03*
%TO.N,/ENC_R_A*%
X-1000000Y13350000D03*
X-1000000Y17090000D03*
%TD*%
D17*
%TO.N,/ENC_L_A*%
X-11750000Y7250000D02*
X-12310000Y7250000D01*
X-6000000Y13000000D02*
X-11750000Y7250000D01*
X-6000000Y16805000D02*
X-6000000Y13000000D01*
X-3775000Y19030000D02*
X-6000000Y16805000D01*
%TO.N,/ENC_R_B*%
X1500000Y19680000D02*
X1500000Y12500000D01*
%TO.N,/ENC_R_A*%
X-1000000Y17090000D02*
X-1000000Y13350000D01*
%TO.N,Net-(SW_OUT1-Pin_1)*%
X0Y10000000D02*
X0Y21500000D01*
X-773600Y9226400D02*
X0Y10000000D01*
X-773600Y6768021D02*
X-773600Y9226400D01*
X-6290000Y1251621D02*
X-773600Y6768021D01*
X-6290000Y-5080000D02*
X-6290000Y1251621D01*
%TO.N,GND*%
X8010000Y-3890000D02*
X8010000Y-7990000D01*
X7560000Y-3440000D02*
X8010000Y-3890000D01*
X7560000Y-2540000D02*
X7560000Y-3440000D01*
X7560000Y1720000D02*
X13090000Y7250000D01*
X7560000Y-2540000D02*
X7560000Y1720000D01*
%TD*%
%TA.AperFunction,Conductor*%
%TO.N,GND*%
G36*
X24442539Y24479815D02*
G01*
X24488294Y24427011D01*
X24499500Y24375500D01*
X24499500Y-24375500D01*
X24479815Y-24442539D01*
X24427011Y-24488294D01*
X24375500Y-24499500D01*
X-24375500Y-24499500D01*
X-24442539Y-24479815D01*
X-24488294Y-24427011D01*
X-24499500Y-24375500D01*
X-24499500Y-20102127D01*
X-11350500Y-20102127D01*
X-11350499Y-21897872D01*
X-11344091Y-21957483D01*
X-11293796Y-22092331D01*
X-11207546Y-22207546D01*
X-11092331Y-22293796D01*
X-10957483Y-22344091D01*
X-10897873Y-22350500D01*
X-9102128Y-22350499D01*
X-9053757Y-22345299D01*
X-9042516Y-22344091D01*
X-8907671Y-22293797D01*
X-8907664Y-22293793D01*
X-8792455Y-22207547D01*
X-8792452Y-22207544D01*
X-8706206Y-22092335D01*
X-8706202Y-22092328D01*
X-8655908Y-21957482D01*
X-8649501Y-21897883D01*
X-8649500Y-21897881D01*
X-8649500Y-21897873D01*
X-8649500Y-21897864D01*
X-8649500Y-20102129D01*
X-8649500Y-20102127D01*
X-7350500Y-20102127D01*
X-7350499Y-21897872D01*
X-7344091Y-21957483D01*
X-7293796Y-22092331D01*
X-7207546Y-22207546D01*
X-7092331Y-22293796D01*
X-6957483Y-22344091D01*
X-6897873Y-22350500D01*
X-5102128Y-22350499D01*
X-5053757Y-22345299D01*
X-5042516Y-22344091D01*
X-4907671Y-22293797D01*
X-4907664Y-22293793D01*
X-4792455Y-22207547D01*
X-4792452Y-22207544D01*
X-4706206Y-22092335D01*
X-4706202Y-22092328D01*
X-4655908Y-21957482D01*
X-4649501Y-21897883D01*
X-4649500Y-21897881D01*
X-4649500Y-21897873D01*
X-4649500Y-21897864D01*
X-4649500Y-20102129D01*
X-4649500Y-20102127D01*
X-3350500Y-20102127D01*
X-3350499Y-21897872D01*
X-3344091Y-21957483D01*
X-3293796Y-22092331D01*
X-3207546Y-22207546D01*
X-3092331Y-22293796D01*
X-2957483Y-22344091D01*
X-2897873Y-22350500D01*
X-1102128Y-22350499D01*
X-1053757Y-22345299D01*
X-1042516Y-22344091D01*
X-907671Y-22293797D01*
X-907664Y-22293793D01*
X-792455Y-22207547D01*
X-792452Y-22207544D01*
X-706206Y-22092335D01*
X-706202Y-22092328D01*
X-655908Y-21957482D01*
X-649501Y-21897883D01*
X-649500Y-21897881D01*
X-649500Y-21897873D01*
X-649500Y-21897864D01*
X-649500Y-20102135D01*
X649500Y-20102135D01*
X649500Y-21897870D01*
X649501Y-21897876D01*
X655908Y-21957483D01*
X706202Y-22092328D01*
X706206Y-22092335D01*
X792452Y-22207544D01*
X792455Y-22207547D01*
X907664Y-22293793D01*
X907671Y-22293797D01*
X1042517Y-22344091D01*
X1042516Y-22344091D01*
X1049444Y-22344835D01*
X1102127Y-22350500D01*
X2897872Y-22350499D01*
X2957483Y-22344091D01*
X3092331Y-22293796D01*
X3207546Y-22207546D01*
X3293796Y-22092331D01*
X3344091Y-21957483D01*
X3350500Y-21897873D01*
X3350499Y-20102135D01*
X4649500Y-20102135D01*
X4649500Y-21897870D01*
X4649501Y-21897876D01*
X4655908Y-21957483D01*
X4706202Y-22092328D01*
X4706206Y-22092335D01*
X4792452Y-22207544D01*
X4792455Y-22207547D01*
X4907664Y-22293793D01*
X4907671Y-22293797D01*
X5042517Y-22344091D01*
X5042516Y-22344091D01*
X5049444Y-22344835D01*
X5102127Y-22350500D01*
X6897872Y-22350499D01*
X6957483Y-22344091D01*
X7092331Y-22293796D01*
X7207546Y-22207546D01*
X7293796Y-22092331D01*
X7344091Y-21957483D01*
X7350500Y-21897873D01*
X7350499Y-20102135D01*
X8649500Y-20102135D01*
X8649500Y-21897870D01*
X8649501Y-21897876D01*
X8655908Y-21957483D01*
X8706202Y-22092328D01*
X8706206Y-22092335D01*
X8792452Y-22207544D01*
X8792455Y-22207547D01*
X8907664Y-22293793D01*
X8907671Y-22293797D01*
X9042517Y-22344091D01*
X9042516Y-22344091D01*
X9049444Y-22344835D01*
X9102127Y-22350500D01*
X10897872Y-22350499D01*
X10957483Y-22344091D01*
X11092331Y-22293796D01*
X11207546Y-22207546D01*
X11293796Y-22092331D01*
X11344091Y-21957483D01*
X11350500Y-21897873D01*
X11350499Y-20102128D01*
X11344091Y-20042517D01*
X11293796Y-19907669D01*
X11293795Y-19907668D01*
X11293793Y-19907664D01*
X11207547Y-19792455D01*
X11207544Y-19792452D01*
X11092335Y-19706206D01*
X11092328Y-19706202D01*
X10957482Y-19655908D01*
X10957483Y-19655908D01*
X10897883Y-19649501D01*
X10897881Y-19649500D01*
X10897873Y-19649500D01*
X10897864Y-19649500D01*
X9102129Y-19649500D01*
X9102123Y-19649501D01*
X9042516Y-19655908D01*
X8907671Y-19706202D01*
X8907664Y-19706206D01*
X8792455Y-19792452D01*
X8792452Y-19792455D01*
X8706206Y-19907664D01*
X8706202Y-19907671D01*
X8655908Y-20042517D01*
X8649501Y-20102116D01*
X8649501Y-20102123D01*
X8649500Y-20102135D01*
X7350499Y-20102135D01*
X7350499Y-20102128D01*
X7344091Y-20042517D01*
X7293796Y-19907669D01*
X7293795Y-19907668D01*
X7293793Y-19907664D01*
X7207547Y-19792455D01*
X7207544Y-19792452D01*
X7092335Y-19706206D01*
X7092328Y-19706202D01*
X6957482Y-19655908D01*
X6957483Y-19655908D01*
X6897883Y-19649501D01*
X6897881Y-19649500D01*
X6897873Y-19649500D01*
X6897864Y-19649500D01*
X5102129Y-19649500D01*
X5102123Y-19649501D01*
X5042516Y-19655908D01*
X4907671Y-19706202D01*
X4907664Y-19706206D01*
X4792455Y-19792452D01*
X4792452Y-19792455D01*
X4706206Y-19907664D01*
X4706202Y-19907671D01*
X4655908Y-20042517D01*
X4649501Y-20102116D01*
X4649501Y-20102123D01*
X4649500Y-20102135D01*
X3350499Y-20102135D01*
X3350499Y-20102128D01*
X3344091Y-20042517D01*
X3293796Y-19907669D01*
X3293795Y-19907668D01*
X3293793Y-19907664D01*
X3207547Y-19792455D01*
X3207544Y-19792452D01*
X3092335Y-19706206D01*
X3092328Y-19706202D01*
X2957482Y-19655908D01*
X2957483Y-19655908D01*
X2897883Y-19649501D01*
X2897881Y-19649500D01*
X2897873Y-19649500D01*
X2897864Y-19649500D01*
X1102129Y-19649500D01*
X1102123Y-19649501D01*
X1042516Y-19655908D01*
X907671Y-19706202D01*
X907664Y-19706206D01*
X792455Y-19792452D01*
X792452Y-19792455D01*
X706206Y-19907664D01*
X706202Y-19907671D01*
X655908Y-20042517D01*
X649501Y-20102116D01*
X649501Y-20102123D01*
X649500Y-20102135D01*
X-649500Y-20102135D01*
X-649500Y-20102129D01*
X-649501Y-20102123D01*
X-655908Y-20042516D01*
X-706202Y-19907671D01*
X-706206Y-19907664D01*
X-792452Y-19792455D01*
X-792455Y-19792452D01*
X-907664Y-19706206D01*
X-907671Y-19706202D01*
X-1042517Y-19655908D01*
X-1042516Y-19655908D01*
X-1102116Y-19649501D01*
X-1102119Y-19649500D01*
X-1102127Y-19649500D01*
X-1102134Y-19649500D01*
X-1102135Y-19649500D01*
X-2897870Y-19649500D01*
X-2897876Y-19649501D01*
X-2957483Y-19655908D01*
X-3092328Y-19706202D01*
X-3092335Y-19706206D01*
X-3207544Y-19792452D01*
X-3207547Y-19792455D01*
X-3293793Y-19907664D01*
X-3293795Y-19907668D01*
X-3293796Y-19907669D01*
X-3344091Y-20042517D01*
X-3350500Y-20102127D01*
X-4649500Y-20102127D01*
X-4649501Y-20102123D01*
X-4655908Y-20042516D01*
X-4706202Y-19907671D01*
X-4706206Y-19907664D01*
X-4792452Y-19792455D01*
X-4792455Y-19792452D01*
X-4907664Y-19706206D01*
X-4907671Y-19706202D01*
X-5042517Y-19655908D01*
X-5042516Y-19655908D01*
X-5102116Y-19649501D01*
X-5102119Y-19649500D01*
X-5102127Y-19649500D01*
X-5102134Y-19649500D01*
X-5102135Y-19649500D01*
X-6897870Y-19649500D01*
X-6897876Y-19649501D01*
X-6957483Y-19655908D01*
X-7092328Y-19706202D01*
X-7092335Y-19706206D01*
X-7207544Y-19792452D01*
X-7207547Y-19792455D01*
X-7293793Y-19907664D01*
X-7293795Y-19907668D01*
X-7293796Y-19907669D01*
X-7344091Y-20042517D01*
X-7350500Y-20102127D01*
X-8649500Y-20102127D01*
X-8649501Y-20102123D01*
X-8655908Y-20042516D01*
X-8706202Y-19907671D01*
X-8706206Y-19907664D01*
X-8792452Y-19792455D01*
X-8792455Y-19792452D01*
X-8907664Y-19706206D01*
X-8907671Y-19706202D01*
X-9042517Y-19655908D01*
X-9042516Y-19655908D01*
X-9102116Y-19649501D01*
X-9102119Y-19649500D01*
X-9102127Y-19649500D01*
X-9102134Y-19649500D01*
X-9102135Y-19649500D01*
X-10897870Y-19649500D01*
X-10897876Y-19649501D01*
X-10957483Y-19655908D01*
X-11092328Y-19706202D01*
X-11092335Y-19706206D01*
X-11207544Y-19792452D01*
X-11207547Y-19792455D01*
X-11293793Y-19907664D01*
X-11293795Y-19907668D01*
X-11293796Y-19907669D01*
X-11344091Y-20042517D01*
X-11350500Y-20102127D01*
X-24499500Y-20102127D01*
X-24499500Y-14845535D01*
X-20750500Y-14845535D01*
X-20750500Y-15154465D01*
X-20715911Y-15461452D01*
X-20647168Y-15762636D01*
X-20545135Y-16054229D01*
X-20411095Y-16332565D01*
X-20246735Y-16594143D01*
X-20054120Y-16835674D01*
X-19835674Y-17054120D01*
X-19594143Y-17246735D01*
X-19332565Y-17411095D01*
X-19054229Y-17545135D01*
X-18762636Y-17647168D01*
X-18461452Y-17715911D01*
X-18461442Y-17715912D01*
X-18461437Y-17715913D01*
X-18311356Y-17732822D01*
X-18154469Y-17750499D01*
X-18154468Y-17750500D01*
X-18154465Y-17750500D01*
X-17845532Y-17750500D01*
X-17845529Y-17750499D01*
X-17743206Y-17738970D01*
X-17538562Y-17715913D01*
X-17538554Y-17715911D01*
X-17538548Y-17715911D01*
X-17237364Y-17647168D01*
X-17237352Y-17647164D01*
X-16945777Y-17545137D01*
X-16945778Y-17545137D01*
X-16945771Y-17545135D01*
X-16667435Y-17411095D01*
X-16405857Y-17246735D01*
X-16164326Y-17054120D01*
X-15945880Y-16835674D01*
X-15753265Y-16594143D01*
X-15588905Y-16332565D01*
X-15588903Y-16332562D01*
X-15454868Y-16054236D01*
X-15454862Y-16054222D01*
X-15352835Y-15762647D01*
X-15352831Y-15762635D01*
X-15284089Y-15461455D01*
X-15284086Y-15461437D01*
X-15249500Y-15154471D01*
X-15249500Y-14878712D01*
X-10850500Y-14878712D01*
X-10850500Y-15121288D01*
X-10818838Y-15361789D01*
X-10756054Y-15596100D01*
X-10663224Y-15820212D01*
X-10541936Y-16030289D01*
X-10394265Y-16222738D01*
X-10222738Y-16394265D01*
X-10030289Y-16541936D01*
X-9820212Y-16663224D01*
X-9596100Y-16756054D01*
X-9361789Y-16818838D01*
X-9169388Y-16844167D01*
X-9121289Y-16850500D01*
X-9121288Y-16850500D01*
X-8878711Y-16850500D01*
X-8818586Y-16842584D01*
X-8638211Y-16818838D01*
X-8403900Y-16756054D01*
X-8179788Y-16663224D01*
X-7969711Y-16541936D01*
X-7777262Y-16394265D01*
X-7777256Y-16394260D01*
X-7605739Y-16222743D01*
X-7605733Y-16222736D01*
X-7458067Y-16030293D01*
X-7458066Y-16030292D01*
X-7458064Y-16030289D01*
X-7336776Y-15820212D01*
X-7312927Y-15762635D01*
X-7243947Y-15596104D01*
X-7181161Y-15361785D01*
X-7149500Y-15121288D01*
X-7149500Y-14878711D01*
X7149500Y-14878711D01*
X7149500Y-15121288D01*
X7181161Y-15361785D01*
X7243947Y-15596104D01*
X7312927Y-15762635D01*
X7336776Y-15820212D01*
X7458064Y-16030289D01*
X7458066Y-16030292D01*
X7458067Y-16030293D01*
X7605733Y-16222736D01*
X7605739Y-16222743D01*
X7777256Y-16394260D01*
X7777262Y-16394265D01*
X7969711Y-16541936D01*
X8179788Y-16663224D01*
X8403900Y-16756054D01*
X8638211Y-16818838D01*
X8818586Y-16842584D01*
X8878711Y-16850500D01*
X8878712Y-16850500D01*
X9121289Y-16850500D01*
X9169388Y-16844167D01*
X9361789Y-16818838D01*
X9596100Y-16756054D01*
X9820212Y-16663224D01*
X10030289Y-16541936D01*
X10222738Y-16394265D01*
X10394265Y-16222738D01*
X10541936Y-16030289D01*
X10663224Y-15820212D01*
X10756054Y-15596100D01*
X10818838Y-15361789D01*
X10850500Y-15121288D01*
X10850500Y-14878712D01*
X10846131Y-14845528D01*
X15249500Y-14845528D01*
X15249500Y-15154471D01*
X15284086Y-15461437D01*
X15284089Y-15461455D01*
X15352831Y-15762635D01*
X15352835Y-15762647D01*
X15454862Y-16054222D01*
X15454868Y-16054236D01*
X15588903Y-16332562D01*
X15588905Y-16332565D01*
X15753265Y-16594143D01*
X15945880Y-16835674D01*
X16164326Y-17054120D01*
X16405857Y-17246735D01*
X16667435Y-17411095D01*
X16945771Y-17545135D01*
X16945777Y-17545137D01*
X17237352Y-17647164D01*
X17237364Y-17647168D01*
X17538548Y-17715911D01*
X17538554Y-17715911D01*
X17538562Y-17715913D01*
X17743206Y-17738970D01*
X17845529Y-17750499D01*
X17845532Y-17750500D01*
X17845535Y-17750500D01*
X18154468Y-17750500D01*
X18154469Y-17750499D01*
X18311356Y-17732822D01*
X18461437Y-17715913D01*
X18461442Y-17715912D01*
X18461452Y-17715911D01*
X18762636Y-17647168D01*
X19054229Y-17545135D01*
X19332565Y-17411095D01*
X19594143Y-17246735D01*
X19835674Y-17054120D01*
X20054120Y-16835674D01*
X20246735Y-16594143D01*
X20411095Y-16332565D01*
X20545135Y-16054229D01*
X20647168Y-15762636D01*
X20715911Y-15461452D01*
X20750500Y-15154465D01*
X20750500Y-14845535D01*
X20715911Y-14538548D01*
X20647168Y-14237364D01*
X20545135Y-13945771D01*
X20411095Y-13667435D01*
X20246735Y-13405857D01*
X20054120Y-13164326D01*
X19835674Y-12945880D01*
X19594143Y-12753265D01*
X19332565Y-12588905D01*
X19332562Y-12588903D01*
X19054236Y-12454868D01*
X19054222Y-12454862D01*
X18762647Y-12352835D01*
X18762635Y-12352831D01*
X18461455Y-12284089D01*
X18461437Y-12284086D01*
X18154471Y-12249500D01*
X18154465Y-12249500D01*
X17845535Y-12249500D01*
X17845528Y-12249500D01*
X17538562Y-12284086D01*
X17538544Y-12284089D01*
X17237364Y-12352831D01*
X17237352Y-12352835D01*
X16945777Y-12454862D01*
X16945763Y-12454868D01*
X16667437Y-12588903D01*
X16405858Y-12753264D01*
X16164326Y-12945879D01*
X15945879Y-13164326D01*
X15753264Y-13405858D01*
X15588903Y-13667437D01*
X15454868Y-13945763D01*
X15454862Y-13945777D01*
X15352835Y-14237352D01*
X15352831Y-14237364D01*
X15284089Y-14538544D01*
X15284086Y-14538562D01*
X15249500Y-14845528D01*
X10846131Y-14845528D01*
X10818838Y-14638211D01*
X10756054Y-14403900D01*
X10663224Y-14179788D01*
X10541936Y-13969711D01*
X10394265Y-13777262D01*
X10394260Y-13777256D01*
X10222743Y-13605739D01*
X10222736Y-13605733D01*
X10030293Y-13458067D01*
X10030292Y-13458066D01*
X10030289Y-13458064D01*
X9820212Y-13336776D01*
X9820205Y-13336773D01*
X9596104Y-13243947D01*
X9361785Y-13181161D01*
X9121289Y-13149500D01*
X9121288Y-13149500D01*
X8878712Y-13149500D01*
X8878711Y-13149500D01*
X8638214Y-13181161D01*
X8403895Y-13243947D01*
X8179794Y-13336773D01*
X8179785Y-13336777D01*
X7969706Y-13458067D01*
X7777263Y-13605733D01*
X7777256Y-13605739D01*
X7605739Y-13777256D01*
X7605733Y-13777263D01*
X7458067Y-13969706D01*
X7336777Y-14179785D01*
X7336773Y-14179794D01*
X7243947Y-14403895D01*
X7181161Y-14638214D01*
X7149500Y-14878711D01*
X-7149500Y-14878711D01*
X-7181161Y-14638214D01*
X-7243947Y-14403895D01*
X-7336773Y-14179794D01*
X-7336777Y-14179785D01*
X-7458067Y-13969706D01*
X-7605733Y-13777263D01*
X-7605739Y-13777256D01*
X-7777256Y-13605739D01*
X-7777263Y-13605733D01*
X-7969706Y-13458067D01*
X-8179785Y-13336777D01*
X-8179794Y-13336773D01*
X-8403895Y-13243947D01*
X-8638214Y-13181161D01*
X-8878711Y-13149500D01*
X-8878712Y-13149500D01*
X-9121288Y-13149500D01*
X-9121289Y-13149500D01*
X-9361785Y-13181161D01*
X-9596104Y-13243947D01*
X-9820205Y-13336773D01*
X-9820212Y-13336776D01*
X-10030289Y-13458064D01*
X-10030292Y-13458066D01*
X-10030293Y-13458067D01*
X-10222736Y-13605733D01*
X-10222743Y-13605739D01*
X-10394260Y-13777256D01*
X-10394265Y-13777262D01*
X-10541936Y-13969711D01*
X-10663224Y-14179788D01*
X-10756054Y-14403900D01*
X-10818838Y-14638211D01*
X-10850500Y-14878712D01*
X-15249500Y-14878712D01*
X-15249500Y-14845528D01*
X-15284086Y-14538562D01*
X-15284089Y-14538544D01*
X-15352831Y-14237364D01*
X-15352835Y-14237352D01*
X-15454862Y-13945777D01*
X-15454868Y-13945763D01*
X-15588903Y-13667437D01*
X-15753264Y-13405858D01*
X-15945879Y-13164326D01*
X-16164326Y-12945879D01*
X-16405858Y-12753264D01*
X-16667437Y-12588903D01*
X-16945763Y-12454868D01*
X-16945777Y-12454862D01*
X-17237352Y-12352835D01*
X-17237364Y-12352831D01*
X-17538544Y-12284089D01*
X-17538562Y-12284086D01*
X-17845528Y-12249500D01*
X-17845535Y-12249500D01*
X-18154465Y-12249500D01*
X-18154471Y-12249500D01*
X-18461437Y-12284086D01*
X-18461455Y-12284089D01*
X-18762635Y-12352831D01*
X-18762647Y-12352835D01*
X-19054222Y-12454862D01*
X-19054236Y-12454868D01*
X-19332562Y-12588903D01*
X-19332565Y-12588905D01*
X-19594143Y-12753265D01*
X-19835674Y-12945880D01*
X-20054120Y-13164326D01*
X-20246735Y-13405857D01*
X-20411095Y-13667435D01*
X-20545135Y-13945771D01*
X-20647168Y-14237364D01*
X-20715911Y-14538548D01*
X-20750500Y-14845535D01*
X-24499500Y-14845535D01*
X-24499500Y154467D01*
X-17250500Y154467D01*
X-17250500Y-154467D01*
X-17250499Y-154471D01*
X-17218464Y-438800D01*
X-17215911Y-461452D01*
X-17147168Y-762636D01*
X-17045135Y-1054229D01*
X-16911095Y-1332565D01*
X-16746735Y-1594143D01*
X-16554120Y-1835674D01*
X-16335674Y-2054120D01*
X-16094143Y-2246735D01*
X-15832565Y-2411095D01*
X-15554229Y-2545135D01*
X-15262636Y-2647168D01*
X-14961452Y-2715911D01*
X-14961442Y-2715912D01*
X-14961437Y-2715913D01*
X-14811356Y-2732822D01*
X-14654469Y-2750499D01*
X-14654468Y-2750500D01*
X-14654465Y-2750500D01*
X-14345532Y-2750500D01*
X-14345529Y-2750499D01*
X-14243206Y-2738970D01*
X-14038562Y-2715913D01*
X-14038554Y-2715911D01*
X-14038548Y-2715911D01*
X-13737364Y-2647168D01*
X-13737352Y-2647164D01*
X-13445777Y-2545137D01*
X-13445778Y-2545137D01*
X-13445771Y-2545135D01*
X-13167435Y-2411095D01*
X-12905857Y-2246735D01*
X-12664326Y-2054120D01*
X-12445880Y-1835674D01*
X-12253265Y-1594143D01*
X-12088905Y-1332565D01*
X-12088903Y-1332562D01*
X-11954868Y-1054236D01*
X-11954862Y-1054222D01*
X-11852835Y-762647D01*
X-11852831Y-762635D01*
X-11784089Y-461455D01*
X-11784086Y-461437D01*
X-11749500Y-154471D01*
X-11749500Y154471D01*
X-11784086Y461437D01*
X-11784089Y461455D01*
X-11852831Y762635D01*
X-11852835Y762647D01*
X-11954862Y1054222D01*
X-11954868Y1054236D01*
X-12088903Y1332562D01*
X-12183436Y1483011D01*
X-12253265Y1594143D01*
X-12445880Y1835674D01*
X-12664326Y2054120D01*
X-12905857Y2246735D01*
X-13167435Y2411095D01*
X-13445771Y2545135D01*
X-13542968Y2579146D01*
X-13737352Y2647164D01*
X-13737364Y2647168D01*
X-14038544Y2715910D01*
X-14038548Y2715911D01*
X-14038554Y2715911D01*
X-14038562Y2715913D01*
X-14243206Y2738970D01*
X-14345530Y2750499D01*
X-14345533Y2750500D01*
X-14345535Y2750500D01*
X-14654465Y2750500D01*
X-14654467Y2750500D01*
X-14654468Y2750499D01*
X-14811356Y2732822D01*
X-14961437Y2715913D01*
X-14961442Y2715912D01*
X-14961452Y2715911D01*
X-15262636Y2647168D01*
X-15554229Y2545135D01*
X-15832565Y2411095D01*
X-16094143Y2246735D01*
X-16335674Y2054120D01*
X-16554120Y1835674D01*
X-16746735Y1594143D01*
X-16911095Y1332565D01*
X-17045135Y1054229D01*
X-17147168Y762636D01*
X-17189478Y577260D01*
X-17215910Y461455D01*
X-17215913Y461437D01*
X-17250499Y154471D01*
X-17250500Y154467D01*
X-24499500Y154467D01*
X-24499500Y7343616D01*
X-23420500Y7343616D01*
X-23420500Y7156384D01*
X-23383973Y6972749D01*
X-23330435Y6843498D01*
X-23312323Y6799771D01*
X-23312318Y6799762D01*
X-23208302Y6644092D01*
X-23208299Y6644088D01*
X-23075911Y6511700D01*
X-23075907Y6511697D01*
X-22920237Y6407681D01*
X-22920228Y6407676D01*
X-22747251Y6336027D01*
X-22747243Y6336025D01*
X-22563620Y6299500D01*
X-22563616Y6299500D01*
X-22376379Y6299500D01*
X-22192756Y6336025D01*
X-22192748Y6336027D01*
X-22019771Y6407676D01*
X-22019762Y6407681D01*
X-21864092Y6511697D01*
X-21864088Y6511700D01*
X-21731700Y6644088D01*
X-21731697Y6644092D01*
X-21627681Y6799762D01*
X-21627676Y6799771D01*
X-21556027Y6972748D01*
X-21556025Y6972754D01*
X-21530480Y7101177D01*
X-21498095Y7163088D01*
X-21437379Y7197662D01*
X-21367609Y7193921D01*
X-21310938Y7153055D01*
X-21285356Y7088037D01*
X-21285317Y7087585D01*
X-21280107Y7024707D01*
X-21224611Y6805559D01*
X-21196731Y6742000D01*
X-21133801Y6598533D01*
X-21010157Y6409283D01*
X-21010149Y6409272D01*
X-20857049Y6242963D01*
X-20857046Y6242960D01*
X-20678649Y6104107D01*
X-20678647Y6104106D01*
X-20479832Y5996512D01*
X-20479827Y5996510D01*
X-20266017Y5923109D01*
X-20098778Y5895202D01*
X-20043033Y5885900D01*
X-20043032Y5885900D01*
X-19816968Y5885900D01*
X-19816967Y5885900D01*
X-19772370Y5893341D01*
X-19593982Y5923109D01*
X-19380172Y5996510D01*
X-19380167Y5996512D01*
X-19181352Y6104106D01*
X-19002955Y6242959D01*
X-19002950Y6242963D01*
X-18849850Y6409272D01*
X-18849842Y6409283D01*
X-18763808Y6540968D01*
X-18710662Y6586325D01*
X-18641430Y6595748D01*
X-18578095Y6566246D01*
X-18556192Y6540968D01*
X-18470157Y6409283D01*
X-18470149Y6409272D01*
X-18317049Y6242963D01*
X-18317046Y6242960D01*
X-18138649Y6104107D01*
X-18138647Y6104106D01*
X-17939832Y5996512D01*
X-17939827Y5996510D01*
X-17726017Y5923109D01*
X-17558778Y5895202D01*
X-17503033Y5885900D01*
X-17503032Y5885900D01*
X-17276968Y5885900D01*
X-17276967Y5885900D01*
X-17232370Y5893341D01*
X-17053982Y5923109D01*
X-16840172Y5996510D01*
X-16840167Y5996512D01*
X-16641352Y6104106D01*
X-16462955Y6242959D01*
X-16462950Y6242963D01*
X-16309850Y6409272D01*
X-16309842Y6409283D01*
X-16223808Y6540968D01*
X-16170662Y6586325D01*
X-16101430Y6595748D01*
X-16038095Y6566246D01*
X-16016192Y6540968D01*
X-15930157Y6409283D01*
X-15930149Y6409272D01*
X-15777049Y6242963D01*
X-15777046Y6242960D01*
X-15598649Y6104107D01*
X-15598647Y6104106D01*
X-15399832Y5996512D01*
X-15399827Y5996510D01*
X-15186017Y5923109D01*
X-15018778Y5895202D01*
X-14963033Y5885900D01*
X-14963032Y5885900D01*
X-14736968Y5885900D01*
X-14736967Y5885900D01*
X-14692370Y5893341D01*
X-14513982Y5923109D01*
X-14300172Y5996510D01*
X-14300167Y5996512D01*
X-14101352Y6104106D01*
X-13922955Y6242959D01*
X-13922950Y6242963D01*
X-13769850Y6409272D01*
X-13769842Y6409283D01*
X-13683808Y6540968D01*
X-13630662Y6586325D01*
X-13561430Y6595748D01*
X-13498095Y6566246D01*
X-13476192Y6540968D01*
X-13390157Y6409283D01*
X-13390149Y6409272D01*
X-13237049Y6242963D01*
X-13237046Y6242960D01*
X-13058649Y6104107D01*
X-13058647Y6104106D01*
X-12859832Y5996512D01*
X-12859827Y5996510D01*
X-12646017Y5923109D01*
X-12478778Y5895202D01*
X-12423033Y5885900D01*
X-12423032Y5885900D01*
X-12196968Y5885900D01*
X-12196967Y5885900D01*
X-12152370Y5893341D01*
X-11973982Y5923109D01*
X-11760172Y5996510D01*
X-11760167Y5996512D01*
X-11561352Y6104106D01*
X-11382955Y6242959D01*
X-11382950Y6242963D01*
X-11229850Y6409272D01*
X-11229842Y6409283D01*
X-11143808Y6540968D01*
X-11090662Y6586325D01*
X-11021430Y6595748D01*
X-10958095Y6566246D01*
X-10936192Y6540968D01*
X-10850157Y6409283D01*
X-10850149Y6409272D01*
X-10697049Y6242963D01*
X-10697046Y6242960D01*
X-10518649Y6104107D01*
X-10518647Y6104106D01*
X-10319832Y5996512D01*
X-10319827Y5996510D01*
X-10106017Y5923109D01*
X-9938778Y5895202D01*
X-9883033Y5885900D01*
X-9883032Y5885900D01*
X-9656968Y5885900D01*
X-9656967Y5885900D01*
X-9612370Y5893341D01*
X-9433982Y5923109D01*
X-9220172Y5996510D01*
X-9220167Y5996512D01*
X-9021352Y6104106D01*
X-8842955Y6242959D01*
X-8842950Y6242963D01*
X-8689850Y6409272D01*
X-8689842Y6409283D01*
X-8603808Y6540968D01*
X-8550662Y6586325D01*
X-8481430Y6595748D01*
X-8418095Y6566246D01*
X-8396192Y6540968D01*
X-8310157Y6409283D01*
X-8310149Y6409272D01*
X-8157049Y6242963D01*
X-8157046Y6242960D01*
X-7978649Y6104107D01*
X-7978647Y6104106D01*
X-7779832Y5996512D01*
X-7779827Y5996510D01*
X-7566017Y5923109D01*
X-7398778Y5895202D01*
X-7343033Y5885900D01*
X-7343032Y5885900D01*
X-7116968Y5885900D01*
X-7116967Y5885900D01*
X-7072370Y5893341D01*
X-6893982Y5923109D01*
X-6680172Y5996510D01*
X-6680167Y5996512D01*
X-6481352Y6104106D01*
X-6302955Y6242959D01*
X-6302950Y6242963D01*
X-6149850Y6409272D01*
X-6149842Y6409283D01*
X-6063808Y6540968D01*
X-6010662Y6586325D01*
X-5941430Y6595748D01*
X-5878095Y6566246D01*
X-5856192Y6540968D01*
X-5770157Y6409283D01*
X-5770149Y6409272D01*
X-5617049Y6242963D01*
X-5617046Y6242960D01*
X-5438649Y6104107D01*
X-5438647Y6104106D01*
X-5239832Y5996512D01*
X-5239827Y5996510D01*
X-5026017Y5923109D01*
X-4858778Y5895202D01*
X-4803033Y5885900D01*
X-4803032Y5885900D01*
X-4576968Y5885900D01*
X-4576967Y5885900D01*
X-4532370Y5893341D01*
X-4353982Y5923109D01*
X-4140172Y5996510D01*
X-4140167Y5996512D01*
X-3941352Y6104106D01*
X-3762955Y6242959D01*
X-3762950Y6242963D01*
X-3609850Y6409272D01*
X-3609842Y6409283D01*
X-3523808Y6540968D01*
X-3470662Y6586325D01*
X-3401430Y6595748D01*
X-3338095Y6566246D01*
X-3316192Y6540968D01*
X-3230157Y6409283D01*
X-3230149Y6409272D01*
X-3077049Y6242963D01*
X-3077046Y6242960D01*
X-2898649Y6104107D01*
X-2898647Y6104106D01*
X-2699832Y5996512D01*
X-2699826Y5996510D01*
X-2660295Y5982939D01*
X-2603279Y5942553D01*
X-2577149Y5877753D01*
X-2590201Y5809114D01*
X-2612874Y5777980D01*
X-6648504Y1742351D01*
X-6648507Y1742349D01*
X-6658714Y1732141D01*
X-6658716Y1732141D01*
X-6770520Y1620337D01*
X-6820639Y1533525D01*
X-6849577Y1483406D01*
X-6890501Y1330678D01*
X-6890501Y1330675D01*
X-6890501Y1164969D01*
X-6890500Y1164951D01*
X-6890500Y-3205500D01*
X-6910185Y-3272539D01*
X-6962989Y-3318294D01*
X-7014500Y-3329500D01*
X-7612870Y-3329500D01*
X-7612876Y-3329501D01*
X-7672483Y-3335908D01*
X-7807328Y-3386202D01*
X-7807335Y-3386206D01*
X-7922544Y-3472452D01*
X-7922547Y-3472455D01*
X-8008793Y-3587664D01*
X-8008795Y-3587668D01*
X-8008796Y-3587669D01*
X-8059091Y-3722517D01*
X-8065500Y-3782127D01*
X-8065499Y-6377872D01*
X-8059091Y-6437483D01*
X-8008796Y-6572331D01*
X-7941397Y-6662364D01*
X-7916980Y-6727826D01*
X-7931831Y-6796100D01*
X-7975407Y-6839676D01*
X-7974348Y-6841297D01*
X-7978646Y-6844105D01*
X-7978647Y-6844106D01*
X-7978649Y-6844107D01*
X-8157046Y-6982960D01*
X-8157048Y-6982962D01*
X-8157049Y-6982963D01*
X-8310149Y-7149272D01*
X-8310157Y-7149283D01*
X-8396192Y-7280968D01*
X-8449338Y-7326325D01*
X-8518570Y-7335748D01*
X-8581905Y-7306246D01*
X-8603808Y-7280968D01*
X-8689842Y-7149283D01*
X-8689850Y-7149272D01*
X-8842950Y-6982963D01*
X-8842955Y-6982959D01*
X-9021352Y-6844106D01*
X-9220167Y-6736512D01*
X-9220172Y-6736510D01*
X-9433982Y-6663109D01*
X-9615612Y-6632801D01*
X-9656967Y-6625900D01*
X-9883033Y-6625900D01*
X-9924388Y-6632801D01*
X-10106017Y-6663109D01*
X-10319827Y-6736510D01*
X-10319832Y-6736512D01*
X-10400700Y-6780276D01*
X-10518649Y-6844107D01*
X-10697046Y-6982960D01*
X-10697048Y-6982962D01*
X-10697049Y-6982963D01*
X-10850149Y-7149272D01*
X-10850157Y-7149283D01*
X-10936192Y-7280968D01*
X-10989338Y-7326325D01*
X-11058570Y-7335748D01*
X-11121905Y-7306246D01*
X-11143808Y-7280968D01*
X-11229842Y-7149283D01*
X-11229850Y-7149272D01*
X-11382950Y-6982963D01*
X-11382955Y-6982959D01*
X-11561352Y-6844106D01*
X-11760167Y-6736512D01*
X-11760172Y-6736510D01*
X-11973982Y-6663109D01*
X-12155612Y-6632801D01*
X-12196967Y-6625900D01*
X-12423033Y-6625900D01*
X-12464388Y-6632801D01*
X-12646017Y-6663109D01*
X-12859827Y-6736510D01*
X-12859832Y-6736512D01*
X-12940700Y-6780276D01*
X-13058649Y-6844107D01*
X-13237046Y-6982960D01*
X-13237048Y-6982962D01*
X-13237049Y-6982963D01*
X-13390149Y-7149272D01*
X-13390157Y-7149283D01*
X-13476192Y-7280968D01*
X-13529338Y-7326325D01*
X-13598570Y-7335748D01*
X-13661905Y-7306246D01*
X-13683808Y-7280968D01*
X-13769842Y-7149283D01*
X-13769850Y-7149272D01*
X-13922950Y-6982963D01*
X-13922955Y-6982959D01*
X-14101352Y-6844106D01*
X-14300167Y-6736512D01*
X-14300172Y-6736510D01*
X-14513982Y-6663109D01*
X-14695612Y-6632801D01*
X-14736967Y-6625900D01*
X-14963033Y-6625900D01*
X-15004388Y-6632801D01*
X-15186017Y-6663109D01*
X-15399827Y-6736510D01*
X-15399832Y-6736512D01*
X-15480700Y-6780276D01*
X-15598649Y-6844107D01*
X-15777046Y-6982960D01*
X-15777048Y-6982962D01*
X-15777049Y-6982963D01*
X-15930149Y-7149272D01*
X-15930157Y-7149283D01*
X-16016192Y-7280968D01*
X-16069338Y-7326325D01*
X-16138570Y-7335748D01*
X-16201905Y-7306246D01*
X-16223808Y-7280968D01*
X-16309842Y-7149283D01*
X-16309850Y-7149272D01*
X-16462950Y-6982963D01*
X-16462955Y-6982959D01*
X-16641352Y-6844106D01*
X-16840167Y-6736512D01*
X-16840172Y-6736510D01*
X-17053982Y-6663109D01*
X-17235612Y-6632801D01*
X-17276967Y-6625900D01*
X-17503033Y-6625900D01*
X-17544388Y-6632801D01*
X-17726017Y-6663109D01*
X-17939827Y-6736510D01*
X-17939832Y-6736512D01*
X-18020700Y-6780276D01*
X-18138649Y-6844107D01*
X-18317046Y-6982960D01*
X-18317048Y-6982962D01*
X-18317049Y-6982963D01*
X-18470149Y-7149272D01*
X-18470157Y-7149283D01*
X-18556192Y-7280968D01*
X-18609338Y-7326325D01*
X-18678570Y-7335748D01*
X-18741905Y-7306246D01*
X-18763808Y-7280968D01*
X-18849842Y-7149283D01*
X-18849850Y-7149272D01*
X-19002950Y-6982963D01*
X-19002955Y-6982959D01*
X-19181352Y-6844106D01*
X-19380167Y-6736512D01*
X-19380172Y-6736510D01*
X-19593982Y-6663109D01*
X-19775612Y-6632801D01*
X-19816967Y-6625900D01*
X-20043033Y-6625900D01*
X-20084388Y-6632801D01*
X-20266017Y-6663109D01*
X-20479827Y-6736510D01*
X-20479832Y-6736512D01*
X-20560700Y-6780276D01*
X-20678649Y-6844107D01*
X-20857046Y-6982960D01*
X-20857048Y-6982962D01*
X-20857049Y-6982963D01*
X-21010149Y-7149272D01*
X-21010157Y-7149283D01*
X-21082916Y-7260649D01*
X-21133802Y-7338535D01*
X-21224611Y-7545559D01*
X-21280107Y-7764707D01*
X-21285287Y-7827226D01*
X-21310439Y-7892408D01*
X-21366840Y-7933647D01*
X-21436584Y-7937847D01*
X-21497526Y-7903673D01*
X-21530318Y-7841977D01*
X-21530480Y-7841177D01*
X-21556025Y-7712754D01*
X-21556027Y-7712748D01*
X-21627676Y-7539771D01*
X-21627681Y-7539762D01*
X-21731697Y-7384092D01*
X-21731700Y-7384088D01*
X-21864088Y-7251700D01*
X-21864092Y-7251697D01*
X-22019762Y-7147681D01*
X-22019771Y-7147676D01*
X-22192748Y-7076027D01*
X-22192756Y-7076025D01*
X-22376379Y-7039500D01*
X-22376384Y-7039500D01*
X-22563616Y-7039500D01*
X-22563620Y-7039500D01*
X-22747243Y-7076025D01*
X-22747251Y-7076027D01*
X-22920228Y-7147676D01*
X-22920237Y-7147681D01*
X-23075907Y-7251697D01*
X-23075911Y-7251700D01*
X-23208299Y-7384088D01*
X-23208302Y-7384092D01*
X-23312318Y-7539762D01*
X-23312321Y-7539768D01*
X-23312322Y-7539769D01*
X-23383973Y-7712749D01*
X-23420500Y-7896384D01*
X-23420500Y-8083616D01*
X-23383973Y-8267251D01*
X-23312322Y-8440231D01*
X-23208302Y-8595908D01*
X-23075908Y-8728302D01*
X-22920231Y-8832322D01*
X-22747251Y-8903973D01*
X-22563618Y-8940499D01*
X-22563617Y-8940500D01*
X-22563616Y-8940500D01*
X-22376383Y-8940500D01*
X-22376379Y-8940499D01*
X-22361538Y-8937547D01*
X-22192749Y-8903973D01*
X-22019769Y-8832322D01*
X-22019768Y-8832321D01*
X-22019762Y-8832318D01*
X-21864092Y-8728302D01*
X-21864088Y-8728299D01*
X-21731700Y-8595911D01*
X-21731697Y-8595907D01*
X-21627681Y-8440237D01*
X-21627676Y-8440228D01*
X-21556027Y-8267251D01*
X-21556025Y-8267245D01*
X-21530480Y-8138822D01*
X-21498095Y-8076911D01*
X-21437379Y-8042337D01*
X-21367610Y-8046077D01*
X-21310938Y-8086944D01*
X-21285356Y-8151962D01*
X-21285319Y-8152386D01*
X-21280107Y-8215293D01*
X-21224611Y-8434441D01*
X-21133802Y-8641465D01*
X-21010156Y-8830719D01*
X-21010151Y-8830724D01*
X-21010149Y-8830727D01*
X-20956832Y-8888643D01*
X-20857046Y-8997040D01*
X-20678649Y-9135893D01*
X-20479831Y-9243488D01*
X-20266014Y-9316891D01*
X-20043033Y-9354100D01*
X-20043032Y-9354100D01*
X-19816968Y-9354100D01*
X-19816967Y-9354100D01*
X-19593986Y-9316891D01*
X-19593984Y-9316890D01*
X-19593982Y-9316890D01*
X-19380172Y-9243489D01*
X-19380169Y-9243488D01*
X-19181351Y-9135893D01*
X-19002954Y-8997040D01*
X-19002950Y-8997036D01*
X-18849850Y-8830727D01*
X-18849849Y-8830724D01*
X-18849844Y-8830719D01*
X-18763806Y-8699028D01*
X-18710662Y-8653675D01*
X-18641431Y-8644251D01*
X-18578095Y-8673753D01*
X-18556195Y-8699025D01*
X-18470156Y-8830719D01*
X-18470149Y-8830726D01*
X-18470149Y-8830727D01*
X-18416832Y-8888643D01*
X-18317046Y-8997040D01*
X-18138649Y-9135893D01*
X-17939831Y-9243488D01*
X-17726014Y-9316891D01*
X-17503033Y-9354100D01*
X-17503032Y-9354100D01*
X-17276968Y-9354100D01*
X-17276967Y-9354100D01*
X-17053986Y-9316891D01*
X-17053984Y-9316890D01*
X-17053982Y-9316890D01*
X-16840172Y-9243489D01*
X-16840169Y-9243488D01*
X-16641351Y-9135893D01*
X-16462954Y-8997040D01*
X-16462950Y-8997036D01*
X-16309850Y-8830727D01*
X-16309849Y-8830724D01*
X-16309844Y-8830719D01*
X-16223806Y-8699028D01*
X-16170662Y-8653675D01*
X-16101431Y-8644251D01*
X-16038095Y-8673753D01*
X-16016195Y-8699025D01*
X-15930156Y-8830719D01*
X-15930149Y-8830726D01*
X-15930149Y-8830727D01*
X-15876832Y-8888643D01*
X-15777046Y-8997040D01*
X-15598649Y-9135893D01*
X-15399831Y-9243488D01*
X-15186014Y-9316891D01*
X-14963033Y-9354100D01*
X-14963032Y-9354100D01*
X-14736968Y-9354100D01*
X-14736967Y-9354100D01*
X-14513986Y-9316891D01*
X-14513984Y-9316890D01*
X-14513982Y-9316890D01*
X-14300172Y-9243489D01*
X-14300169Y-9243488D01*
X-14101351Y-9135893D01*
X-13922954Y-8997040D01*
X-13922950Y-8997036D01*
X-13769850Y-8830727D01*
X-13769849Y-8830724D01*
X-13769844Y-8830719D01*
X-13683806Y-8699028D01*
X-13630662Y-8653675D01*
X-13561431Y-8644251D01*
X-13498095Y-8673753D01*
X-13476195Y-8699025D01*
X-13390156Y-8830719D01*
X-13390149Y-8830726D01*
X-13390149Y-8830727D01*
X-13336832Y-8888643D01*
X-13237046Y-8997040D01*
X-13058649Y-9135893D01*
X-12859831Y-9243488D01*
X-12646014Y-9316891D01*
X-12423033Y-9354100D01*
X-12423032Y-9354100D01*
X-12196968Y-9354100D01*
X-12196967Y-9354100D01*
X-11973986Y-9316891D01*
X-11973984Y-9316890D01*
X-11973982Y-9316890D01*
X-11760172Y-9243489D01*
X-11760169Y-9243488D01*
X-11561351Y-9135893D01*
X-11382954Y-8997040D01*
X-11382950Y-8997036D01*
X-11229850Y-8830727D01*
X-11229849Y-8830724D01*
X-11229844Y-8830719D01*
X-11143806Y-8699028D01*
X-11090662Y-8653675D01*
X-11021431Y-8644251D01*
X-10958095Y-8673753D01*
X-10936195Y-8699025D01*
X-10850156Y-8830719D01*
X-10850149Y-8830726D01*
X-10850149Y-8830727D01*
X-10796832Y-8888643D01*
X-10697046Y-8997040D01*
X-10518649Y-9135893D01*
X-10319831Y-9243488D01*
X-10106014Y-9316891D01*
X-9883033Y-9354100D01*
X-9883032Y-9354100D01*
X-9656968Y-9354100D01*
X-9656967Y-9354100D01*
X-9433986Y-9316891D01*
X-9433984Y-9316890D01*
X-9433982Y-9316890D01*
X-9220172Y-9243489D01*
X-9220169Y-9243488D01*
X-9021351Y-9135893D01*
X-8842954Y-8997040D01*
X-8842950Y-8997036D01*
X-8689850Y-8830727D01*
X-8689849Y-8830724D01*
X-8689844Y-8830719D01*
X-8603806Y-8699028D01*
X-8550662Y-8653675D01*
X-8481431Y-8644251D01*
X-8418095Y-8673753D01*
X-8396195Y-8699025D01*
X-8310156Y-8830719D01*
X-8310149Y-8830726D01*
X-8310149Y-8830727D01*
X-8256832Y-8888643D01*
X-8157046Y-8997040D01*
X-7978649Y-9135893D01*
X-7779831Y-9243488D01*
X-7566014Y-9316891D01*
X-7343033Y-9354100D01*
X-7343032Y-9354100D01*
X-7116968Y-9354100D01*
X-7116967Y-9354100D01*
X-6893986Y-9316891D01*
X-6893984Y-9316890D01*
X-6893982Y-9316890D01*
X-6680172Y-9243489D01*
X-6680169Y-9243488D01*
X-6481351Y-9135893D01*
X-6302954Y-8997040D01*
X-6302950Y-8997036D01*
X-6149850Y-8830727D01*
X-6149849Y-8830724D01*
X-6149844Y-8830719D01*
X-6063806Y-8699028D01*
X-6010662Y-8653675D01*
X-5941431Y-8644251D01*
X-5878095Y-8673753D01*
X-5856195Y-8699025D01*
X-5770156Y-8830719D01*
X-5770149Y-8830726D01*
X-5770149Y-8830727D01*
X-5716832Y-8888643D01*
X-5617046Y-8997040D01*
X-5438649Y-9135893D01*
X-5239831Y-9243488D01*
X-5026014Y-9316891D01*
X-4803033Y-9354100D01*
X-4803032Y-9354100D01*
X-4576968Y-9354100D01*
X-4576967Y-9354100D01*
X-4353986Y-9316891D01*
X-4353984Y-9316890D01*
X-4353982Y-9316890D01*
X-4140172Y-9243489D01*
X-4140169Y-9243488D01*
X-3941351Y-9135893D01*
X-3762954Y-8997040D01*
X-3762950Y-8997036D01*
X-3609850Y-8830727D01*
X-3609849Y-8830724D01*
X-3609844Y-8830719D01*
X-3523806Y-8699028D01*
X-3470662Y-8653675D01*
X-3401431Y-8644251D01*
X-3338095Y-8673753D01*
X-3316195Y-8699025D01*
X-3230156Y-8830719D01*
X-3230149Y-8830726D01*
X-3230149Y-8830727D01*
X-3176832Y-8888643D01*
X-3077046Y-8997040D01*
X-2898649Y-9135893D01*
X-2699831Y-9243488D01*
X-2486014Y-9316891D01*
X-2263033Y-9354100D01*
X-2263032Y-9354100D01*
X-2036968Y-9354100D01*
X-2036967Y-9354100D01*
X-1813986Y-9316891D01*
X-1813984Y-9316890D01*
X-1813982Y-9316890D01*
X-1600172Y-9243489D01*
X-1600169Y-9243488D01*
X-1401351Y-9135893D01*
X-1222954Y-8997040D01*
X-1222950Y-8997036D01*
X-1069850Y-8830727D01*
X-1069849Y-8830724D01*
X-1069844Y-8830719D01*
X-983806Y-8699028D01*
X-930662Y-8653675D01*
X-861431Y-8644251D01*
X-798095Y-8673753D01*
X-776195Y-8699025D01*
X-690156Y-8830719D01*
X-690149Y-8830726D01*
X-690149Y-8830727D01*
X-636832Y-8888643D01*
X-537046Y-8997040D01*
X-358649Y-9135893D01*
X-159831Y-9243488D01*
X-52922Y-9280189D01*
X53982Y-9316890D01*
X53984Y-9316890D01*
X53986Y-9316891D01*
X276967Y-9354100D01*
X276968Y-9354100D01*
X503032Y-9354100D01*
X503033Y-9354100D01*
X726014Y-9316891D01*
X939831Y-9243488D01*
X1138649Y-9135893D01*
X1317046Y-8997040D01*
X1416832Y-8888643D01*
X1470149Y-8830727D01*
X1470149Y-8830726D01*
X1470156Y-8830719D01*
X1556193Y-8699028D01*
X1609338Y-8653675D01*
X1678569Y-8644251D01*
X1741905Y-8673753D01*
X1763804Y-8699025D01*
X1849844Y-8830719D01*
X1849849Y-8830724D01*
X1849850Y-8830727D01*
X2002950Y-8997036D01*
X2002954Y-8997040D01*
X2181351Y-9135893D01*
X2380169Y-9243488D01*
X2380172Y-9243489D01*
X2593982Y-9316890D01*
X2593984Y-9316890D01*
X2593986Y-9316891D01*
X2816967Y-9354100D01*
X2816968Y-9354100D01*
X3043032Y-9354100D01*
X3043033Y-9354100D01*
X3266014Y-9316891D01*
X3479831Y-9243488D01*
X3678649Y-9135893D01*
X3857046Y-8997040D01*
X3956832Y-8888643D01*
X4010149Y-8830727D01*
X4010149Y-8830726D01*
X4010156Y-8830719D01*
X4096193Y-8699028D01*
X4149338Y-8653675D01*
X4218569Y-8644251D01*
X4281905Y-8673753D01*
X4303804Y-8699025D01*
X4389844Y-8830719D01*
X4389849Y-8830724D01*
X4389850Y-8830727D01*
X4542950Y-8997036D01*
X4542954Y-8997040D01*
X4721351Y-9135893D01*
X4920169Y-9243488D01*
X4920172Y-9243489D01*
X5133982Y-9316890D01*
X5133984Y-9316890D01*
X5133986Y-9316891D01*
X5356967Y-9354100D01*
X5356968Y-9354100D01*
X5583032Y-9354100D01*
X5583033Y-9354100D01*
X5806014Y-9316891D01*
X6019831Y-9243488D01*
X6218649Y-9135893D01*
X6397046Y-8997040D01*
X6451815Y-8937545D01*
X6511699Y-8901557D01*
X6581537Y-8903657D01*
X6639153Y-8943180D01*
X6659224Y-8978196D01*
X6703046Y-9095688D01*
X6703049Y-9095693D01*
X6789209Y-9210787D01*
X6789212Y-9210790D01*
X6904306Y-9296950D01*
X6904313Y-9296954D01*
X7039020Y-9347196D01*
X7039027Y-9347198D01*
X7098555Y-9353599D01*
X7098572Y-9353600D01*
X7760000Y-9353600D01*
X7760000Y-8432251D01*
X7813919Y-8463381D01*
X7943120Y-8498000D01*
X8076880Y-8498000D01*
X8206081Y-8463381D01*
X8260000Y-8432251D01*
X8260000Y-9353600D01*
X8921428Y-9353600D01*
X8921444Y-9353599D01*
X8980972Y-9347198D01*
X8980979Y-9347196D01*
X9115686Y-9296954D01*
X9115693Y-9296950D01*
X9230787Y-9210790D01*
X9230790Y-9210787D01*
X9316950Y-9095693D01*
X9316954Y-9095686D01*
X9360775Y-8978197D01*
X9402646Y-8922263D01*
X9468110Y-8897846D01*
X9536383Y-8912698D01*
X9568186Y-8937547D01*
X9622950Y-8997036D01*
X9622954Y-8997040D01*
X9801351Y-9135893D01*
X10000169Y-9243488D01*
X10000172Y-9243489D01*
X10213982Y-9316890D01*
X10213984Y-9316890D01*
X10213986Y-9316891D01*
X10436967Y-9354100D01*
X10436968Y-9354100D01*
X10663032Y-9354100D01*
X10663033Y-9354100D01*
X10886014Y-9316891D01*
X11099831Y-9243488D01*
X11298649Y-9135893D01*
X11477046Y-8997040D01*
X11576832Y-8888643D01*
X11630149Y-8830727D01*
X11630149Y-8830726D01*
X11630156Y-8830719D01*
X11716193Y-8699028D01*
X11769338Y-8653675D01*
X11838569Y-8644251D01*
X11901905Y-8673753D01*
X11923804Y-8699025D01*
X12009844Y-8830719D01*
X12009849Y-8830724D01*
X12009850Y-8830727D01*
X12162950Y-8997036D01*
X12162954Y-8997040D01*
X12341351Y-9135893D01*
X12540169Y-9243488D01*
X12540172Y-9243489D01*
X12753982Y-9316890D01*
X12753984Y-9316890D01*
X12753986Y-9316891D01*
X12976967Y-9354100D01*
X12976968Y-9354100D01*
X13203032Y-9354100D01*
X13203033Y-9354100D01*
X13426014Y-9316891D01*
X13639831Y-9243488D01*
X13838649Y-9135893D01*
X14017046Y-8997040D01*
X14116832Y-8888643D01*
X14170149Y-8830727D01*
X14170149Y-8830726D01*
X14170156Y-8830719D01*
X14256193Y-8699028D01*
X14309338Y-8653675D01*
X14378569Y-8644251D01*
X14441905Y-8673753D01*
X14463804Y-8699025D01*
X14549844Y-8830719D01*
X14549849Y-8830724D01*
X14549850Y-8830727D01*
X14702950Y-8997036D01*
X14702954Y-8997040D01*
X14881351Y-9135893D01*
X15080169Y-9243488D01*
X15080172Y-9243489D01*
X15293982Y-9316890D01*
X15293984Y-9316890D01*
X15293986Y-9316891D01*
X15516967Y-9354100D01*
X15516968Y-9354100D01*
X15743032Y-9354100D01*
X15743033Y-9354100D01*
X15966014Y-9316891D01*
X16179831Y-9243488D01*
X16378649Y-9135893D01*
X16557046Y-8997040D01*
X16656832Y-8888643D01*
X16710149Y-8830727D01*
X16710149Y-8830726D01*
X16710156Y-8830719D01*
X16796193Y-8699028D01*
X16849338Y-8653675D01*
X16918569Y-8644251D01*
X16981905Y-8673753D01*
X17003804Y-8699025D01*
X17089844Y-8830719D01*
X17089849Y-8830724D01*
X17089850Y-8830727D01*
X17242950Y-8997036D01*
X17242954Y-8997040D01*
X17421351Y-9135893D01*
X17620169Y-9243488D01*
X17620172Y-9243489D01*
X17833982Y-9316890D01*
X17833984Y-9316890D01*
X17833986Y-9316891D01*
X18056967Y-9354100D01*
X18056968Y-9354100D01*
X18283032Y-9354100D01*
X18283033Y-9354100D01*
X18506014Y-9316891D01*
X18719831Y-9243488D01*
X18918649Y-9135893D01*
X19097046Y-8997040D01*
X19196832Y-8888643D01*
X19250149Y-8830727D01*
X19250149Y-8830726D01*
X19250156Y-8830719D01*
X19336193Y-8699028D01*
X19389338Y-8653675D01*
X19458569Y-8644251D01*
X19521905Y-8673753D01*
X19543804Y-8699025D01*
X19629844Y-8830719D01*
X19629849Y-8830724D01*
X19629850Y-8830727D01*
X19782950Y-8997036D01*
X19782954Y-8997040D01*
X19961351Y-9135893D01*
X20160169Y-9243488D01*
X20160172Y-9243489D01*
X20373982Y-9316890D01*
X20373984Y-9316890D01*
X20373986Y-9316891D01*
X20596967Y-9354100D01*
X20596968Y-9354100D01*
X20823032Y-9354100D01*
X20823033Y-9354100D01*
X21046014Y-9316891D01*
X21259831Y-9243488D01*
X21458649Y-9135893D01*
X21637046Y-8997040D01*
X21736832Y-8888643D01*
X21790149Y-8830727D01*
X21790151Y-8830724D01*
X21790156Y-8830719D01*
X21913802Y-8641465D01*
X22004611Y-8434441D01*
X22060107Y-8215293D01*
X22071018Y-8083616D01*
X22072585Y-8064708D01*
X22491499Y-8064708D01*
X22520647Y-8211240D01*
X22520650Y-8211250D01*
X22577822Y-8349277D01*
X22577829Y-8349290D01*
X22660834Y-8473515D01*
X22660837Y-8473519D01*
X22766480Y-8579162D01*
X22766484Y-8579165D01*
X22890709Y-8662170D01*
X22890722Y-8662177D01*
X23028749Y-8719349D01*
X23028754Y-8719351D01*
X23028758Y-8719351D01*
X23028759Y-8719352D01*
X23175291Y-8748500D01*
X23175294Y-8748500D01*
X23324708Y-8748500D01*
X23426262Y-8728299D01*
X23471246Y-8719351D01*
X23609284Y-8662174D01*
X23733516Y-8579165D01*
X23839165Y-8473516D01*
X23922174Y-8349284D01*
X23979351Y-8211246D01*
X23990982Y-8152776D01*
X24008500Y-8064708D01*
X24008500Y-7915291D01*
X23979352Y-7768759D01*
X23979351Y-7768758D01*
X23979351Y-7768754D01*
X23941793Y-7678080D01*
X23922177Y-7630722D01*
X23922170Y-7630709D01*
X23839165Y-7506484D01*
X23839162Y-7506480D01*
X23733519Y-7400837D01*
X23733515Y-7400834D01*
X23609290Y-7317829D01*
X23609277Y-7317822D01*
X23471250Y-7260650D01*
X23471240Y-7260647D01*
X23324708Y-7231500D01*
X23324706Y-7231500D01*
X23175294Y-7231500D01*
X23175292Y-7231500D01*
X23028759Y-7260647D01*
X23028749Y-7260650D01*
X22890722Y-7317822D01*
X22890709Y-7317829D01*
X22766484Y-7400834D01*
X22766480Y-7400837D01*
X22660837Y-7506480D01*
X22660834Y-7506484D01*
X22577829Y-7630709D01*
X22577822Y-7630722D01*
X22520650Y-7768749D01*
X22520647Y-7768759D01*
X22491500Y-7915291D01*
X22491500Y-7915294D01*
X22491500Y-8064706D01*
X22491500Y-8064708D01*
X22491499Y-8064708D01*
X22072585Y-8064708D01*
X22078775Y-7990006D01*
X22078775Y-7989993D01*
X22065287Y-7827223D01*
X22060107Y-7764707D01*
X22004611Y-7545559D01*
X21913802Y-7338535D01*
X21862916Y-7260649D01*
X21790157Y-7149283D01*
X21790149Y-7149272D01*
X21637049Y-6982963D01*
X21637048Y-6982962D01*
X21637046Y-6982960D01*
X21458649Y-6844107D01*
X21340700Y-6780276D01*
X21259832Y-6736512D01*
X21259827Y-6736510D01*
X21046017Y-6663109D01*
X20864388Y-6632801D01*
X20823033Y-6625900D01*
X20596967Y-6625900D01*
X20555612Y-6632801D01*
X20373982Y-6663109D01*
X20160172Y-6736510D01*
X20160167Y-6736512D01*
X19961352Y-6844106D01*
X19782955Y-6982959D01*
X19782950Y-6982963D01*
X19629850Y-7149272D01*
X19629842Y-7149283D01*
X19543808Y-7280968D01*
X19490662Y-7326325D01*
X19421430Y-7335748D01*
X19358095Y-7306246D01*
X19336192Y-7280968D01*
X19250157Y-7149283D01*
X19250149Y-7149272D01*
X19097049Y-6982963D01*
X19097048Y-6982962D01*
X19097046Y-6982960D01*
X18918649Y-6844107D01*
X18800700Y-6780276D01*
X18719832Y-6736512D01*
X18719827Y-6736510D01*
X18506017Y-6663109D01*
X18324388Y-6632801D01*
X18283033Y-6625900D01*
X18056967Y-6625900D01*
X18015612Y-6632801D01*
X17833982Y-6663109D01*
X17620172Y-6736510D01*
X17620167Y-6736512D01*
X17421352Y-6844106D01*
X17242955Y-6982959D01*
X17242950Y-6982963D01*
X17089850Y-7149272D01*
X17089842Y-7149283D01*
X17003808Y-7280968D01*
X16950662Y-7326325D01*
X16881430Y-7335748D01*
X16818095Y-7306246D01*
X16796192Y-7280968D01*
X16710157Y-7149283D01*
X16710149Y-7149272D01*
X16557049Y-6982963D01*
X16557048Y-6982962D01*
X16557046Y-6982960D01*
X16378649Y-6844107D01*
X16260700Y-6780276D01*
X16179832Y-6736512D01*
X16179827Y-6736510D01*
X15966017Y-6663109D01*
X15784388Y-6632801D01*
X15743033Y-6625900D01*
X15516967Y-6625900D01*
X15475612Y-6632801D01*
X15293982Y-6663109D01*
X15080172Y-6736510D01*
X15080167Y-6736512D01*
X14881352Y-6844106D01*
X14702955Y-6982959D01*
X14702950Y-6982963D01*
X14549850Y-7149272D01*
X14549842Y-7149283D01*
X14463808Y-7280968D01*
X14410662Y-7326325D01*
X14341430Y-7335748D01*
X14278095Y-7306246D01*
X14256192Y-7280968D01*
X14170157Y-7149283D01*
X14170149Y-7149272D01*
X14017049Y-6982963D01*
X14017048Y-6982962D01*
X14017046Y-6982960D01*
X13838649Y-6844107D01*
X13720700Y-6780276D01*
X13639832Y-6736512D01*
X13639827Y-6736510D01*
X13426017Y-6663109D01*
X13244388Y-6632801D01*
X13203033Y-6625900D01*
X12976967Y-6625900D01*
X12935612Y-6632801D01*
X12753982Y-6663109D01*
X12540172Y-6736510D01*
X12540167Y-6736512D01*
X12341352Y-6844106D01*
X12162955Y-6982959D01*
X12162950Y-6982963D01*
X12009850Y-7149272D01*
X12009842Y-7149283D01*
X11923808Y-7280968D01*
X11870662Y-7326325D01*
X11801430Y-7335748D01*
X11738095Y-7306246D01*
X11716192Y-7280968D01*
X11630157Y-7149283D01*
X11630149Y-7149272D01*
X11477049Y-6982963D01*
X11477048Y-6982962D01*
X11477046Y-6982960D01*
X11298649Y-6844107D01*
X11180700Y-6780276D01*
X11099832Y-6736512D01*
X11099827Y-6736510D01*
X10886017Y-6663109D01*
X10704388Y-6632801D01*
X10663033Y-6625900D01*
X10436967Y-6625900D01*
X10395612Y-6632801D01*
X10213982Y-6663109D01*
X10000172Y-6736510D01*
X10000167Y-6736512D01*
X9801352Y-6844106D01*
X9622955Y-6982958D01*
X9568186Y-7042453D01*
X9508298Y-7078443D01*
X9438460Y-7076342D01*
X9380845Y-7036817D01*
X9360775Y-7001802D01*
X9316954Y-6884313D01*
X9316950Y-6884306D01*
X9230790Y-6769212D01*
X9230787Y-6769209D01*
X9115693Y-6683049D01*
X9115686Y-6683045D01*
X8980979Y-6632803D01*
X8980972Y-6632801D01*
X8921444Y-6626400D01*
X8260000Y-6626400D01*
X8260000Y-7547748D01*
X8206081Y-7516619D01*
X8076880Y-7482000D01*
X7943120Y-7482000D01*
X7813919Y-7516619D01*
X7760000Y-7547748D01*
X7760000Y-6626400D01*
X7098555Y-6626400D01*
X7039027Y-6632801D01*
X7039020Y-6632803D01*
X6904313Y-6683045D01*
X6904306Y-6683049D01*
X6789212Y-6769209D01*
X6789209Y-6769212D01*
X6703049Y-6884306D01*
X6703046Y-6884312D01*
X6659224Y-7001803D01*
X6617352Y-7057736D01*
X6551887Y-7082153D01*
X6483615Y-7067301D01*
X6451813Y-7042452D01*
X6397049Y-6982963D01*
X6397048Y-6982962D01*
X6397046Y-6982960D01*
X6218649Y-6844107D01*
X6100700Y-6780276D01*
X6019832Y-6736512D01*
X6019827Y-6736510D01*
X5806017Y-6663109D01*
X5624388Y-6632801D01*
X5583033Y-6625900D01*
X5356967Y-6625900D01*
X5315612Y-6632801D01*
X5133982Y-6663109D01*
X4920172Y-6736510D01*
X4920167Y-6736512D01*
X4721352Y-6844106D01*
X4542955Y-6982959D01*
X4542950Y-6982963D01*
X4389850Y-7149272D01*
X4389842Y-7149283D01*
X4303808Y-7280968D01*
X4250662Y-7326325D01*
X4181430Y-7335748D01*
X4118095Y-7306246D01*
X4096192Y-7280968D01*
X4010157Y-7149283D01*
X4010149Y-7149272D01*
X3857049Y-6982963D01*
X3857048Y-6982962D01*
X3857046Y-6982960D01*
X3678649Y-6844107D01*
X3560700Y-6780276D01*
X3479832Y-6736512D01*
X3479827Y-6736510D01*
X3266017Y-6663109D01*
X3084388Y-6632801D01*
X3043033Y-6625900D01*
X2816967Y-6625900D01*
X2775612Y-6632801D01*
X2593982Y-6663109D01*
X2380172Y-6736510D01*
X2380167Y-6736512D01*
X2181352Y-6844106D01*
X2002955Y-6982959D01*
X2002950Y-6982963D01*
X1849850Y-7149272D01*
X1849842Y-7149283D01*
X1763808Y-7280968D01*
X1710662Y-7326325D01*
X1641430Y-7335748D01*
X1578095Y-7306246D01*
X1556192Y-7280968D01*
X1470157Y-7149283D01*
X1470149Y-7149272D01*
X1317049Y-6982963D01*
X1317048Y-6982962D01*
X1317046Y-6982960D01*
X1138649Y-6844107D01*
X1020700Y-6780276D01*
X939832Y-6736512D01*
X939827Y-6736510D01*
X726017Y-6663109D01*
X544388Y-6632801D01*
X503033Y-6625900D01*
X276967Y-6625900D01*
X235612Y-6632801D01*
X53982Y-6663109D01*
X-159827Y-6736510D01*
X-159832Y-6736512D01*
X-240700Y-6780276D01*
X-358649Y-6844107D01*
X-537046Y-6982960D01*
X-537048Y-6982962D01*
X-537049Y-6982963D01*
X-690149Y-7149272D01*
X-690157Y-7149283D01*
X-776192Y-7280968D01*
X-829338Y-7326325D01*
X-898570Y-7335748D01*
X-961905Y-7306246D01*
X-983808Y-7280968D01*
X-1069842Y-7149283D01*
X-1069850Y-7149272D01*
X-1222950Y-6982963D01*
X-1222955Y-6982959D01*
X-1401352Y-6844106D01*
X-1564101Y-6756031D01*
X-1613691Y-6706811D01*
X-1628799Y-6638595D01*
X-1604629Y-6573039D01*
X-1568662Y-6540996D01*
X-1568754Y-6540860D01*
X-1567777Y-6540207D01*
X-1567084Y-6539590D01*
X-1565388Y-6538611D01*
X-1565385Y-6538608D01*
X-1565382Y-6538607D01*
X-1383338Y-6398918D01*
X-1383330Y-6398911D01*
X-1221089Y-6236670D01*
X-1221081Y-6236661D01*
X-1081392Y-6054617D01*
X-966657Y-5855890D01*
X-966650Y-5855876D01*
X-878842Y-5643887D01*
X-819453Y-5422240D01*
X-819452Y-5422238D01*
X-805743Y-5318112D01*
X-789500Y-5194741D01*
X-789500Y-4965258D01*
X-819451Y-4737770D01*
X-819453Y-4737759D01*
X-878842Y-4516112D01*
X-966650Y-4304123D01*
X-966657Y-4304109D01*
X-1081392Y-4105382D01*
X-1221081Y-3923338D01*
X-1383338Y-3761081D01*
X-1565382Y-3621392D01*
X-1764109Y-3506657D01*
X-1764123Y-3506650D01*
X-1976112Y-3418842D01*
X-2104076Y-3384554D01*
X-2197762Y-3359452D01*
X-2208715Y-3358009D01*
X-2425258Y-3329500D01*
X-2425266Y-3329500D01*
X-2654734Y-3329500D01*
X-2654741Y-3329500D01*
X-2844215Y-3354446D01*
X-2882238Y-3359452D01*
X-3103887Y-3418842D01*
X-3315876Y-3506650D01*
X-3315888Y-3506656D01*
X-3456210Y-3587671D01*
X-3514617Y-3621392D01*
X-3696661Y-3761081D01*
X-3696670Y-3761089D01*
X-3858911Y-3923330D01*
X-3858918Y-3923338D01*
X-3998607Y-4105382D01*
X-3998608Y-4105385D01*
X-3998611Y-4105388D01*
X-4113344Y-4304112D01*
X-4201158Y-4516113D01*
X-4260548Y-4737762D01*
X-4267561Y-4791035D01*
X-4295827Y-4854930D01*
X-4354151Y-4893402D01*
X-4424016Y-4894234D01*
X-4483240Y-4857162D01*
X-4513019Y-4793956D01*
X-4514500Y-4774849D01*
X-4514500Y-3782129D01*
X-4514501Y-3782123D01*
X-4520908Y-3722516D01*
X-4571202Y-3587671D01*
X-4571206Y-3587664D01*
X-4657452Y-3472455D01*
X-4657455Y-3472452D01*
X-4772664Y-3386206D01*
X-4772671Y-3386202D01*
X-4907517Y-3335908D01*
X-4907516Y-3335908D01*
X-4967116Y-3329501D01*
X-4967119Y-3329500D01*
X-4967127Y-3329500D01*
X-4967135Y-3329500D01*
X-5565500Y-3329500D01*
X-5632539Y-3309815D01*
X-5678294Y-3257011D01*
X-5689500Y-3205500D01*
X-5689500Y-2425258D01*
X2059500Y-2425258D01*
X2059500Y-2654741D01*
X2077308Y-2790000D01*
X2089452Y-2882238D01*
X2089453Y-2882240D01*
X2148842Y-3103887D01*
X2236650Y-3315876D01*
X2236657Y-3315890D01*
X2351392Y-3514617D01*
X2491081Y-3696661D01*
X2491089Y-3696670D01*
X2653330Y-3858911D01*
X2653338Y-3858918D01*
X2835382Y-3998607D01*
X2835385Y-3998608D01*
X2835388Y-3998611D01*
X3034112Y-4113344D01*
X3034117Y-4113346D01*
X3034123Y-4113349D01*
X3115816Y-4147187D01*
X3246113Y-4201158D01*
X3467762Y-4260548D01*
X3684312Y-4289057D01*
X3691460Y-4289999D01*
X3695266Y-4290500D01*
X3695273Y-4290500D01*
X3924727Y-4290500D01*
X3924734Y-4290500D01*
X4152238Y-4260548D01*
X4373887Y-4201158D01*
X4585888Y-4113344D01*
X4784612Y-3998611D01*
X4966661Y-3858919D01*
X4966665Y-3858914D01*
X4966670Y-3858911D01*
X5128911Y-3696670D01*
X5128914Y-3696665D01*
X5128919Y-3696661D01*
X5268611Y-3514612D01*
X5383344Y-3315888D01*
X5471158Y-3103887D01*
X5530548Y-2882238D01*
X5538061Y-2825170D01*
X5566328Y-2761275D01*
X5624652Y-2722804D01*
X5694517Y-2721973D01*
X5753740Y-2759045D01*
X5783519Y-2822251D01*
X5785000Y-2841357D01*
X5785000Y-3837844D01*
X5791401Y-3897372D01*
X5791403Y-3897379D01*
X5841645Y-4032086D01*
X5841649Y-4032093D01*
X5927809Y-4147187D01*
X5927812Y-4147190D01*
X6042906Y-4233350D01*
X6042913Y-4233354D01*
X6177620Y-4283596D01*
X6177627Y-4283598D01*
X6237155Y-4289999D01*
X6237172Y-4290000D01*
X7310000Y-4290000D01*
X7810000Y-4290000D01*
X8882828Y-4290000D01*
X8882844Y-4289999D01*
X8942372Y-4283598D01*
X8942379Y-4283596D01*
X9077086Y-4233354D01*
X9077093Y-4233350D01*
X9192187Y-4147190D01*
X9192190Y-4147187D01*
X9278350Y-4032093D01*
X9278354Y-4032086D01*
X9328596Y-3897379D01*
X9328598Y-3897372D01*
X9334999Y-3837844D01*
X9335000Y-3837827D01*
X9335000Y-2790000D01*
X7810000Y-2790000D01*
X7810000Y-4290000D01*
X7310000Y-4290000D01*
X7310000Y-2290000D01*
X7810000Y-2290000D01*
X9335000Y-2290000D01*
X9335000Y-1242172D01*
X9334999Y-1242155D01*
X9328598Y-1182627D01*
X9328596Y-1182620D01*
X9278354Y-1047913D01*
X9278350Y-1047906D01*
X9192190Y-932812D01*
X9192187Y-932809D01*
X9077093Y-846649D01*
X9077086Y-846645D01*
X8942379Y-796403D01*
X8942372Y-796401D01*
X8882844Y-790000D01*
X7810000Y-790000D01*
X7810000Y-2290000D01*
X7310000Y-2290000D01*
X7310000Y-790000D01*
X6237155Y-790000D01*
X6177627Y-796401D01*
X6177616Y-796404D01*
X6131229Y-813705D01*
X6061537Y-818689D01*
X6000214Y-785203D01*
X5966730Y-723879D01*
X5971716Y-654188D01*
X5987576Y-624642D01*
X6022002Y-577260D01*
X6100708Y-422791D01*
X6154280Y-257912D01*
X6171831Y-147099D01*
X6181400Y-86687D01*
X6181400Y86687D01*
X6170663Y154471D01*
X11749500Y154471D01*
X11749500Y-154471D01*
X11784086Y-461437D01*
X11784089Y-461455D01*
X11852831Y-762635D01*
X11852835Y-762647D01*
X11954862Y-1054222D01*
X11954868Y-1054236D01*
X12088903Y-1332562D01*
X12088905Y-1332565D01*
X12253265Y-1594143D01*
X12445880Y-1835674D01*
X12664326Y-2054120D01*
X12905857Y-2246735D01*
X13167435Y-2411095D01*
X13445771Y-2545135D01*
X13445777Y-2545137D01*
X13737352Y-2647164D01*
X13737364Y-2647168D01*
X14038548Y-2715911D01*
X14038554Y-2715911D01*
X14038562Y-2715913D01*
X14243206Y-2738970D01*
X14345529Y-2750499D01*
X14345532Y-2750500D01*
X14345535Y-2750500D01*
X14654468Y-2750500D01*
X14654469Y-2750499D01*
X14811356Y-2732822D01*
X14961437Y-2715913D01*
X14961442Y-2715912D01*
X14961452Y-2715911D01*
X15262636Y-2647168D01*
X15554229Y-2545135D01*
X15832565Y-2411095D01*
X16094143Y-2246735D01*
X16335674Y-2054120D01*
X16554120Y-1835674D01*
X16746735Y-1594143D01*
X16911095Y-1332565D01*
X17045135Y-1054229D01*
X17147168Y-762636D01*
X17215911Y-461452D01*
X17218464Y-438800D01*
X17250499Y-154471D01*
X17250500Y-154467D01*
X17250500Y154467D01*
X17250499Y154471D01*
X17215913Y461437D01*
X17215910Y461455D01*
X17189478Y577260D01*
X17147168Y762636D01*
X17045135Y1054229D01*
X16911095Y1332565D01*
X16746735Y1594143D01*
X16554120Y1835674D01*
X16335674Y2054120D01*
X16094143Y2246735D01*
X15832565Y2411095D01*
X15554229Y2545135D01*
X15262636Y2647168D01*
X14961452Y2715911D01*
X14961442Y2715912D01*
X14961437Y2715913D01*
X14811356Y2732822D01*
X14654468Y2750499D01*
X14654467Y2750500D01*
X14654465Y2750500D01*
X14345535Y2750500D01*
X14345533Y2750500D01*
X14345530Y2750499D01*
X14243206Y2738970D01*
X14038562Y2715913D01*
X14038554Y2715911D01*
X14038548Y2715911D01*
X14038544Y2715910D01*
X13737364Y2647168D01*
X13737352Y2647164D01*
X13542968Y2579146D01*
X13445771Y2545135D01*
X13167435Y2411095D01*
X12905857Y2246735D01*
X12664326Y2054120D01*
X12445880Y1835674D01*
X12253265Y1594143D01*
X12183436Y1483011D01*
X12088903Y1332562D01*
X11954868Y1054236D01*
X11954862Y1054222D01*
X11852835Y762647D01*
X11852831Y762635D01*
X11784089Y461455D01*
X11784086Y461437D01*
X11749500Y154471D01*
X6170663Y154471D01*
X6168252Y169695D01*
X6154280Y257912D01*
X6100708Y422791D01*
X6022002Y577260D01*
X5920101Y717514D01*
X5797514Y840101D01*
X5657260Y942002D01*
X5502791Y1020708D01*
X5337912Y1074280D01*
X5249695Y1088252D01*
X5166687Y1101400D01*
X5166682Y1101400D01*
X4993318Y1101400D01*
X4993313Y1101400D01*
X4901391Y1086840D01*
X4822088Y1074280D01*
X4739648Y1047494D01*
X4657211Y1020709D01*
X4657208Y1020708D01*
X4606350Y994794D01*
X4502740Y942002D01*
X4362486Y840101D01*
X4239899Y717514D01*
X4137998Y577260D01*
X4059291Y422791D01*
X4059290Y422788D01*
X4005720Y257913D01*
X3978600Y86687D01*
X3978600Y-86687D01*
X4005720Y-257913D01*
X4059290Y-422788D01*
X4059291Y-422791D01*
X4137998Y-577260D01*
X4161420Y-609497D01*
X4184900Y-675303D01*
X4169075Y-743357D01*
X4118970Y-792052D01*
X4050492Y-805928D01*
X4044917Y-805322D01*
X3924744Y-789501D01*
X3924739Y-789500D01*
X3924734Y-789500D01*
X3695266Y-789500D01*
X3695258Y-789500D01*
X3478715Y-818009D01*
X3467762Y-819452D01*
X3390709Y-840098D01*
X3246112Y-878842D01*
X3034123Y-966650D01*
X3034109Y-966657D01*
X2835382Y-1081392D01*
X2653338Y-1221081D01*
X2491081Y-1383338D01*
X2351392Y-1565382D01*
X2236657Y-1764109D01*
X2236650Y-1764123D01*
X2148842Y-1976112D01*
X2089453Y-2197759D01*
X2089451Y-2197770D01*
X2059500Y-2425258D01*
X-5689500Y-2425258D01*
X-5689500Y-1127925D01*
X-5669815Y-1060886D01*
X-5617011Y-1015131D01*
X-5547853Y-1005187D01*
X-5509204Y-1017440D01*
X-5502791Y-1020708D01*
X-5337912Y-1074280D01*
X-5249695Y-1088252D01*
X-5166687Y-1101400D01*
X-5166682Y-1101400D01*
X-4993313Y-1101400D01*
X-4896351Y-1086042D01*
X-4822088Y-1074280D01*
X-4739648Y-1047494D01*
X-4657211Y-1020709D01*
X-4657208Y-1020708D01*
X-4551126Y-966656D01*
X-4502740Y-942002D01*
X-4362486Y-840101D01*
X-4239899Y-717514D01*
X-4137998Y-577260D01*
X-4078992Y-461455D01*
X-4059291Y-422791D01*
X-4059290Y-422788D01*
X-4005720Y-257913D01*
X-3978600Y-86687D01*
X-3978600Y86687D01*
X-3988170Y147106D01*
X-2244400Y147106D01*
X-2244400Y-147106D01*
X-2205998Y-438800D01*
X-2129850Y-722987D01*
X-2113427Y-762635D01*
X-2028920Y-966657D01*
X-2017261Y-994803D01*
X-1870155Y-1249597D01*
X-1691050Y-1483011D01*
X-1483011Y-1691050D01*
X-1249597Y-1870155D01*
X-994803Y-2017261D01*
X-994797Y-2017263D01*
X-994794Y-2017265D01*
X-905817Y-2054120D01*
X-722987Y-2129850D01*
X-438800Y-2205998D01*
X-147106Y-2244400D01*
X-147099Y-2244400D01*
X147099Y-2244400D01*
X147106Y-2244400D01*
X438800Y-2205998D01*
X722987Y-2129850D01*
X905817Y-2054120D01*
X994794Y-2017265D01*
X994797Y-2017263D01*
X994803Y-2017261D01*
X1249597Y-1870155D01*
X1483011Y-1691050D01*
X1691050Y-1483011D01*
X1870155Y-1249597D01*
X2017261Y-994803D01*
X2028920Y-966657D01*
X2113427Y-762635D01*
X2129850Y-722987D01*
X2205998Y-438800D01*
X2244400Y-147106D01*
X2244400Y147106D01*
X2205998Y438800D01*
X2129850Y722987D01*
X2017261Y994803D01*
X1870155Y1249597D01*
X1691050Y1483011D01*
X1483011Y1691050D01*
X1249597Y1870155D01*
X994803Y2017261D01*
X994797Y2017263D01*
X994794Y2017265D01*
X722994Y2129847D01*
X722987Y2129850D01*
X438800Y2205998D01*
X147106Y2244400D01*
X-147106Y2244400D01*
X-438800Y2205998D01*
X-722987Y2129850D01*
X-722994Y2129847D01*
X-994794Y2017265D01*
X-994797Y2017263D01*
X-994803Y2017261D01*
X-1249597Y1870155D01*
X-1483011Y1691050D01*
X-1691050Y1483011D01*
X-1870155Y1249597D01*
X-2017261Y994803D01*
X-2129850Y722987D01*
X-2205998Y438800D01*
X-2244400Y147106D01*
X-3988170Y147106D01*
X-4005720Y257913D01*
X-4059290Y422788D01*
X-4059291Y422791D01*
X-4137998Y577260D01*
X-4239899Y717514D01*
X-4362486Y840101D01*
X-4502740Y942002D01*
X-4606350Y994794D01*
X-4657208Y1020708D01*
X-4657211Y1020709D01*
X-4739648Y1047494D01*
X-4822088Y1074280D01*
X-4901391Y1086840D01*
X-4993313Y1101400D01*
X-4993318Y1101400D01*
X-5166682Y1101400D01*
X-5166686Y1101400D01*
X-5218190Y1093241D01*
X-5293902Y1081250D01*
X-5363192Y1090204D01*
X-5416645Y1135200D01*
X-5437285Y1201951D01*
X-5418561Y1269265D01*
X-5400979Y1291404D01*
X-565204Y6127179D01*
X-503881Y6160664D01*
X-434189Y6155680D01*
X-401361Y6137351D01*
X-358652Y6104109D01*
X-358648Y6104106D01*
X-159832Y5996512D01*
X-159827Y5996510D01*
X53982Y5923109D01*
X232370Y5893341D01*
X276967Y5885900D01*
X276968Y5885900D01*
X503032Y5885900D01*
X503033Y5885900D01*
X558778Y5895202D01*
X726017Y5923109D01*
X939827Y5996510D01*
X939832Y5996512D01*
X1138647Y6104106D01*
X1138649Y6104107D01*
X1317046Y6242960D01*
X1317049Y6242963D01*
X1470149Y6409272D01*
X1470157Y6409283D01*
X1556192Y6540968D01*
X1609338Y6586325D01*
X1678570Y6595748D01*
X1741905Y6566246D01*
X1763808Y6540968D01*
X1849842Y6409283D01*
X1849850Y6409272D01*
X2002950Y6242963D01*
X2002955Y6242959D01*
X2181352Y6104106D01*
X2380167Y5996512D01*
X2380172Y5996510D01*
X2593982Y5923109D01*
X2772370Y5893341D01*
X2816967Y5885900D01*
X2816968Y5885900D01*
X3043032Y5885900D01*
X3043033Y5885900D01*
X3098778Y5895202D01*
X3266017Y5923109D01*
X3479827Y5996510D01*
X3479832Y5996512D01*
X3678647Y6104106D01*
X3678649Y6104107D01*
X3857046Y6242960D01*
X3857049Y6242963D01*
X4010149Y6409272D01*
X4010157Y6409283D01*
X4096192Y6540968D01*
X4149338Y6586325D01*
X4218570Y6595748D01*
X4281905Y6566246D01*
X4303808Y6540968D01*
X4389842Y6409283D01*
X4389850Y6409272D01*
X4542950Y6242963D01*
X4542955Y6242959D01*
X4721352Y6104106D01*
X4920167Y5996512D01*
X4920172Y5996510D01*
X5133982Y5923109D01*
X5312370Y5893341D01*
X5356967Y5885900D01*
X5356968Y5885900D01*
X5583032Y5885900D01*
X5583033Y5885900D01*
X5638778Y5895202D01*
X5806017Y5923109D01*
X6019827Y5996510D01*
X6019832Y5996512D01*
X6218647Y6104106D01*
X6218649Y6104107D01*
X6397046Y6242960D01*
X6397049Y6242963D01*
X6550149Y6409272D01*
X6550157Y6409283D01*
X6636192Y6540968D01*
X6689338Y6586325D01*
X6758570Y6595748D01*
X6821905Y6566246D01*
X6843808Y6540968D01*
X6929842Y6409283D01*
X6929850Y6409272D01*
X7082950Y6242963D01*
X7082955Y6242959D01*
X7261352Y6104106D01*
X7460167Y5996512D01*
X7460172Y5996510D01*
X7673982Y5923109D01*
X7852370Y5893341D01*
X7896967Y5885900D01*
X7896968Y5885900D01*
X8123032Y5885900D01*
X8123033Y5885900D01*
X8178778Y5895202D01*
X8346017Y5923109D01*
X8559827Y5996510D01*
X8559832Y5996512D01*
X8758647Y6104106D01*
X8758649Y6104107D01*
X8937046Y6242960D01*
X8937049Y6242963D01*
X9090149Y6409272D01*
X9090157Y6409283D01*
X9176192Y6540968D01*
X9229338Y6586325D01*
X9298570Y6595748D01*
X9361905Y6566246D01*
X9383808Y6540968D01*
X9469842Y6409283D01*
X9469850Y6409272D01*
X9622950Y6242963D01*
X9622955Y6242959D01*
X9801352Y6104106D01*
X10000167Y5996512D01*
X10000172Y5996510D01*
X10213982Y5923109D01*
X10392370Y5893341D01*
X10436967Y5885900D01*
X10436968Y5885900D01*
X10663032Y5885900D01*
X10663033Y5885900D01*
X10718778Y5895202D01*
X10886017Y5923109D01*
X11099827Y5996510D01*
X11099832Y5996512D01*
X11298647Y6104106D01*
X11298649Y6104107D01*
X11477046Y6242960D01*
X11477049Y6242963D01*
X11531813Y6302452D01*
X11591700Y6338443D01*
X11661538Y6336342D01*
X11719154Y6296818D01*
X11739224Y6261803D01*
X11783046Y6144312D01*
X11783049Y6144306D01*
X11869209Y6029212D01*
X11869212Y6029209D01*
X11984306Y5943049D01*
X11984313Y5943045D01*
X12119020Y5892803D01*
X12119027Y5892801D01*
X12178555Y5886400D01*
X12840000Y5886400D01*
X12840000Y6807748D01*
X12893919Y6776619D01*
X13023120Y6742000D01*
X13156880Y6742000D01*
X13286081Y6776619D01*
X13340000Y6807748D01*
X13340000Y5886400D01*
X14001444Y5886400D01*
X14060972Y5892801D01*
X14060979Y5892803D01*
X14195686Y5943045D01*
X14195693Y5943049D01*
X14310787Y6029209D01*
X14310790Y6029212D01*
X14396950Y6144306D01*
X14396954Y6144313D01*
X14440775Y6261802D01*
X14482646Y6317736D01*
X14548111Y6342153D01*
X14616384Y6327301D01*
X14648186Y6302453D01*
X14702955Y6242958D01*
X14881352Y6104106D01*
X15080167Y5996512D01*
X15080172Y5996510D01*
X15293982Y5923109D01*
X15472370Y5893341D01*
X15516967Y5885900D01*
X15516968Y5885900D01*
X15743032Y5885900D01*
X15743033Y5885900D01*
X15798778Y5895202D01*
X15966017Y5923109D01*
X16179827Y5996510D01*
X16179832Y5996512D01*
X16378647Y6104106D01*
X16378649Y6104107D01*
X16557046Y6242960D01*
X16557049Y6242963D01*
X16710149Y6409272D01*
X16710157Y6409283D01*
X16796192Y6540968D01*
X16849338Y6586325D01*
X16918570Y6595748D01*
X16981905Y6566246D01*
X17003808Y6540968D01*
X17089842Y6409283D01*
X17089850Y6409272D01*
X17242950Y6242963D01*
X17242955Y6242959D01*
X17421352Y6104106D01*
X17620167Y5996512D01*
X17620172Y5996510D01*
X17833982Y5923109D01*
X18012370Y5893341D01*
X18056967Y5885900D01*
X18056968Y5885900D01*
X18283032Y5885900D01*
X18283033Y5885900D01*
X18338778Y5895202D01*
X18506017Y5923109D01*
X18719827Y5996510D01*
X18719832Y5996512D01*
X18918647Y6104106D01*
X18918649Y6104107D01*
X19097046Y6242960D01*
X19097049Y6242963D01*
X19250149Y6409272D01*
X19250157Y6409283D01*
X19336192Y6540968D01*
X19389338Y6586325D01*
X19458570Y6595748D01*
X19521905Y6566246D01*
X19543808Y6540968D01*
X19629842Y6409283D01*
X19629850Y6409272D01*
X19782950Y6242963D01*
X19782955Y6242959D01*
X19961352Y6104106D01*
X20160167Y5996512D01*
X20160172Y5996510D01*
X20373982Y5923109D01*
X20552370Y5893341D01*
X20596967Y5885900D01*
X20596968Y5885900D01*
X20823032Y5885900D01*
X20823033Y5885900D01*
X20878778Y5895202D01*
X21046017Y5923109D01*
X21259827Y5996510D01*
X21259832Y5996512D01*
X21458647Y6104106D01*
X21458649Y6104107D01*
X21637046Y6242960D01*
X21637049Y6242963D01*
X21790149Y6409272D01*
X21790157Y6409283D01*
X21913801Y6598533D01*
X21976731Y6742000D01*
X22004611Y6805559D01*
X22060107Y7024707D01*
X22065287Y7087226D01*
X22090439Y7152408D01*
X22146840Y7193647D01*
X22216584Y7197847D01*
X22277526Y7163673D01*
X22310318Y7101977D01*
X22310480Y7101177D01*
X22336025Y6972754D01*
X22336027Y6972748D01*
X22407676Y6799771D01*
X22407681Y6799762D01*
X22511697Y6644092D01*
X22511700Y6644088D01*
X22644088Y6511700D01*
X22644092Y6511697D01*
X22799762Y6407681D01*
X22799771Y6407676D01*
X22972748Y6336027D01*
X22972756Y6336025D01*
X23156379Y6299500D01*
X23156384Y6299500D01*
X23343620Y6299500D01*
X23527243Y6336025D01*
X23527251Y6336027D01*
X23700228Y6407676D01*
X23700237Y6407681D01*
X23855907Y6511697D01*
X23855911Y6511700D01*
X23988299Y6644088D01*
X23988302Y6644092D01*
X24092318Y6799762D01*
X24092323Y6799771D01*
X24110435Y6843498D01*
X24163973Y6972749D01*
X24200500Y7156384D01*
X24200500Y7343616D01*
X24163973Y7527251D01*
X24092322Y7700231D01*
X23988302Y7855908D01*
X23855908Y7988302D01*
X23700231Y8092322D01*
X23527251Y8163973D01*
X23343618Y8200499D01*
X23343617Y8200500D01*
X23343616Y8200500D01*
X23156384Y8200500D01*
X23156383Y8200500D01*
X23156379Y8200499D01*
X22972749Y8163973D01*
X22838956Y8108554D01*
X22799771Y8092323D01*
X22799762Y8092318D01*
X22644092Y7988302D01*
X22644088Y7988299D01*
X22511700Y7855911D01*
X22511697Y7855907D01*
X22407681Y7700237D01*
X22407676Y7700228D01*
X22336027Y7527251D01*
X22336025Y7527245D01*
X22310480Y7398822D01*
X22278095Y7336911D01*
X22217379Y7302337D01*
X22147610Y7306077D01*
X22090938Y7346944D01*
X22065356Y7411962D01*
X22065319Y7412386D01*
X22060107Y7475293D01*
X22004611Y7694441D01*
X21913802Y7901465D01*
X21790156Y8090719D01*
X21788680Y8092322D01*
X21724946Y8161556D01*
X21637046Y8257040D01*
X21458649Y8395893D01*
X21259831Y8503488D01*
X21046014Y8576891D01*
X20823033Y8614100D01*
X20596967Y8614100D01*
X20373986Y8576891D01*
X20373984Y8576890D01*
X20373982Y8576890D01*
X20301987Y8552174D01*
X20160169Y8503488D01*
X19961351Y8395893D01*
X19782954Y8257040D01*
X19782951Y8257036D01*
X19782950Y8257036D01*
X19629850Y8090727D01*
X19629849Y8090724D01*
X19629844Y8090719D01*
X19543806Y7959028D01*
X19490662Y7913675D01*
X19421431Y7904251D01*
X19358095Y7933753D01*
X19336195Y7959025D01*
X19250156Y8090719D01*
X19248680Y8092322D01*
X19184946Y8161556D01*
X19097046Y8257040D01*
X18918649Y8395893D01*
X18719831Y8503488D01*
X18506014Y8576891D01*
X18283033Y8614100D01*
X18056967Y8614100D01*
X17833986Y8576891D01*
X17833984Y8576890D01*
X17833982Y8576890D01*
X17761987Y8552174D01*
X17620169Y8503488D01*
X17421351Y8395893D01*
X17242954Y8257040D01*
X17242951Y8257036D01*
X17242950Y8257036D01*
X17089850Y8090727D01*
X17089849Y8090724D01*
X17089844Y8090719D01*
X17003806Y7959028D01*
X16950662Y7913675D01*
X16881431Y7904251D01*
X16818095Y7933753D01*
X16796195Y7959025D01*
X16710156Y8090719D01*
X16708680Y8092322D01*
X16644946Y8161556D01*
X16557046Y8257040D01*
X16378649Y8395893D01*
X16179831Y8503488D01*
X15966014Y8576891D01*
X15743033Y8614100D01*
X15516967Y8614100D01*
X15293986Y8576891D01*
X15293984Y8576890D01*
X15293982Y8576890D01*
X15221987Y8552174D01*
X15080169Y8503488D01*
X14881351Y8395893D01*
X14702954Y8257040D01*
X14702951Y8257036D01*
X14702950Y8257036D01*
X14648186Y8197547D01*
X14588299Y8161556D01*
X14518461Y8163657D01*
X14460845Y8203181D01*
X14440775Y8238197D01*
X14396954Y8355686D01*
X14396950Y8355693D01*
X14310790Y8470787D01*
X14310787Y8470790D01*
X14195693Y8556950D01*
X14195686Y8556954D01*
X14060979Y8607196D01*
X14060972Y8607198D01*
X14001444Y8613599D01*
X14001428Y8613600D01*
X13340000Y8613600D01*
X13340000Y7692251D01*
X13286081Y7723381D01*
X13156880Y7758000D01*
X13023120Y7758000D01*
X12893919Y7723381D01*
X12840000Y7692251D01*
X12840000Y8613600D01*
X12178572Y8613600D01*
X12178555Y8613599D01*
X12119027Y8607198D01*
X12119020Y8607196D01*
X11984313Y8556954D01*
X11984306Y8556950D01*
X11869212Y8470790D01*
X11869209Y8470787D01*
X11783049Y8355693D01*
X11783046Y8355688D01*
X11739224Y8238196D01*
X11697352Y8182263D01*
X11631888Y8157846D01*
X11563615Y8172698D01*
X11531817Y8197543D01*
X11477046Y8257040D01*
X11298649Y8395893D01*
X11099831Y8503488D01*
X10886014Y8576891D01*
X10663033Y8614100D01*
X10436967Y8614100D01*
X10213986Y8576891D01*
X10213984Y8576890D01*
X10213982Y8576890D01*
X10141987Y8552174D01*
X10000169Y8503488D01*
X9801351Y8395893D01*
X9622954Y8257040D01*
X9622951Y8257036D01*
X9622950Y8257036D01*
X9469850Y8090727D01*
X9469849Y8090724D01*
X9469844Y8090719D01*
X9383806Y7959028D01*
X9330662Y7913675D01*
X9261431Y7904251D01*
X9198095Y7933753D01*
X9176195Y7959025D01*
X9090156Y8090719D01*
X9088680Y8092322D01*
X9024946Y8161556D01*
X8937046Y8257040D01*
X8758649Y8395893D01*
X8559831Y8503488D01*
X8346014Y8576891D01*
X8123033Y8614100D01*
X7896967Y8614100D01*
X7673986Y8576891D01*
X7673984Y8576890D01*
X7673982Y8576890D01*
X7601987Y8552174D01*
X7460169Y8503488D01*
X7261351Y8395893D01*
X7082954Y8257040D01*
X7082951Y8257036D01*
X7082950Y8257036D01*
X6929850Y8090727D01*
X6929849Y8090724D01*
X6929844Y8090719D01*
X6843806Y7959028D01*
X6790662Y7913675D01*
X6721431Y7904251D01*
X6658095Y7933753D01*
X6636195Y7959025D01*
X6550156Y8090719D01*
X6548680Y8092322D01*
X6484946Y8161556D01*
X6397046Y8257040D01*
X6218649Y8395893D01*
X6019831Y8503488D01*
X5806014Y8576891D01*
X5583033Y8614100D01*
X5356967Y8614100D01*
X5133986Y8576891D01*
X5133984Y8576890D01*
X5133982Y8576890D01*
X5061987Y8552174D01*
X4920169Y8503488D01*
X4721351Y8395893D01*
X4542954Y8257040D01*
X4542951Y8257036D01*
X4542950Y8257036D01*
X4389850Y8090727D01*
X4389849Y8090724D01*
X4389844Y8090719D01*
X4303806Y7959028D01*
X4250662Y7913675D01*
X4181431Y7904251D01*
X4118095Y7933753D01*
X4096195Y7959025D01*
X4010156Y8090719D01*
X4008680Y8092322D01*
X3944946Y8161556D01*
X3857046Y8257040D01*
X3678649Y8395893D01*
X3479831Y8503488D01*
X3266014Y8576891D01*
X3043033Y8614100D01*
X2816967Y8614100D01*
X2593986Y8576891D01*
X2593984Y8576890D01*
X2593982Y8576890D01*
X2521987Y8552174D01*
X2380169Y8503488D01*
X2181351Y8395893D01*
X2002954Y8257040D01*
X2002951Y8257036D01*
X2002950Y8257036D01*
X1849850Y8090727D01*
X1849849Y8090724D01*
X1849844Y8090719D01*
X1763806Y7959028D01*
X1710662Y7913675D01*
X1641431Y7904251D01*
X1578095Y7933753D01*
X1556195Y7959025D01*
X1470156Y8090719D01*
X1468680Y8092322D01*
X1404946Y8161556D01*
X1317046Y8257040D01*
X1138649Y8395893D01*
X939831Y8503488D01*
X726014Y8576891D01*
X503033Y8614100D01*
X276967Y8614100D01*
X53986Y8576891D01*
X53984Y8576890D01*
X53982Y8576890D01*
X-8837Y8555324D01*
X-78635Y8552174D01*
X-139057Y8587260D01*
X-170917Y8649442D01*
X-173100Y8672605D01*
X-173100Y8926302D01*
X-153415Y8993341D01*
X-136781Y9013983D01*
X480518Y9631282D01*
X480524Y9631290D01*
X559573Y9768209D01*
X559576Y9768214D01*
X600501Y9920944D01*
X600501Y10089047D01*
X600500Y10089060D01*
X600500Y11996523D01*
X620185Y12063562D01*
X672989Y12109317D01*
X742147Y12119261D01*
X805703Y12090236D01*
X829493Y12062496D01*
X870182Y11997739D01*
X997737Y11870184D01*
X1150476Y11774211D01*
X1320745Y11714631D01*
X1320750Y11714630D01*
X1499996Y11694435D01*
X1500000Y11694435D01*
X1500004Y11694435D01*
X1679249Y11714630D01*
X1679254Y11714631D01*
X1849523Y11774211D01*
X2002262Y11870184D01*
X2129815Y11997737D01*
X2129817Y11997739D01*
X2225789Y12150478D01*
X2285368Y12320745D01*
X2285369Y12320750D01*
X2305565Y12499996D01*
X2305565Y12500003D01*
X2285369Y12679249D01*
X2285366Y12679262D01*
X2250938Y12777652D01*
X2247376Y12847431D01*
X2248294Y12849035D01*
X2207298Y12879725D01*
X2201572Y12888063D01*
X2189256Y12907664D01*
X2129816Y13002262D01*
X2129810Y13002267D01*
X2127555Y13005097D01*
X2126665Y13007275D01*
X2126111Y13008158D01*
X2126265Y13008255D01*
X2101145Y13069783D01*
X2100500Y13082412D01*
X2100500Y19097587D01*
X2120185Y19164626D01*
X2127550Y19174896D01*
X2129813Y19177734D01*
X2173773Y19247695D01*
X2226108Y19293986D01*
X2295162Y19304634D01*
X2359010Y19276259D01*
X2397382Y19217869D01*
X2402295Y19170916D01*
X2394341Y19080001D01*
X2394341Y19079999D01*
X2414936Y18844596D01*
X2414938Y18844586D01*
X2476094Y18616344D01*
X2476098Y18616335D01*
X2575965Y18402169D01*
X2575967Y18402165D01*
X2711501Y18208604D01*
X2711506Y18208597D01*
X2878597Y18041506D01*
X2878599Y18041505D01*
X3064595Y17911269D01*
X3108219Y17856692D01*
X3115412Y17787193D01*
X3083890Y17724839D01*
X3064594Y17708119D01*
X2878926Y17578113D01*
X2878920Y17578108D01*
X2711891Y17411079D01*
X2711886Y17411073D01*
X2576400Y17217579D01*
X2576399Y17217577D01*
X2476570Y17003492D01*
X2476567Y17003486D01*
X2419364Y16790000D01*
X3316988Y16790000D01*
X3284075Y16732993D01*
X3250000Y16605826D01*
X3250000Y16474174D01*
X3284075Y16347007D01*
X3316988Y16290000D01*
X2419364Y16290000D01*
X2476567Y16076513D01*
X2476570Y16076507D01*
X2576399Y15862421D01*
X2711891Y15668921D01*
X2833947Y15546865D01*
X2867431Y15485542D01*
X2862447Y15415850D01*
X2820575Y15359917D01*
X2789599Y15343002D01*
X2719902Y15317007D01*
X2657671Y15293797D01*
X2657664Y15293793D01*
X2542455Y15207547D01*
X2542452Y15207544D01*
X2456206Y15092335D01*
X2456202Y15092328D01*
X2405908Y14957482D01*
X2400533Y14907483D01*
X2399501Y14897876D01*
X2399500Y14897864D01*
X2399500Y13102129D01*
X2399501Y13102123D01*
X2405908Y13042516D01*
X2422748Y12997368D01*
X2427732Y12927676D01*
X2425981Y12924469D01*
X2467245Y12892919D01*
X2542455Y12792452D01*
X2657664Y12706206D01*
X2657671Y12706202D01*
X2792517Y12655908D01*
X2792516Y12655908D01*
X2852116Y12649501D01*
X2852119Y12649500D01*
X2852127Y12649500D01*
X2852134Y12649500D01*
X2852135Y12649500D01*
X4647870Y12649500D01*
X4647876Y12649501D01*
X4707483Y12655908D01*
X4842328Y12706202D01*
X4842335Y12706206D01*
X4957544Y12792452D01*
X4957547Y12792455D01*
X5043793Y12907664D01*
X5043797Y12907671D01*
X5094091Y13042517D01*
X5095125Y13052135D01*
X5100500Y13102127D01*
X5100499Y14897872D01*
X5094091Y14957483D01*
X5043796Y15092331D01*
X5022119Y15121288D01*
X7149500Y15121288D01*
X7149500Y14878711D01*
X7181161Y14638214D01*
X7243947Y14403895D01*
X7336773Y14179794D01*
X7336777Y14179785D01*
X7458067Y13969706D01*
X7605733Y13777263D01*
X7605739Y13777256D01*
X7777256Y13605739D01*
X7777263Y13605733D01*
X7969706Y13458067D01*
X8179785Y13336777D01*
X8179794Y13336773D01*
X8403895Y13243947D01*
X8638214Y13181161D01*
X8878711Y13149500D01*
X8878712Y13149500D01*
X9121289Y13149500D01*
X9361785Y13181161D01*
X9596104Y13243947D01*
X9820205Y13336773D01*
X9820214Y13336777D01*
X9858661Y13358974D01*
X10030289Y13458064D01*
X10030293Y13458067D01*
X10222736Y13605733D01*
X10222743Y13605739D01*
X10394260Y13777256D01*
X10394266Y13777263D01*
X10481018Y13890321D01*
X10541936Y13969711D01*
X10663224Y14179788D01*
X10756054Y14403900D01*
X10818838Y14638211D01*
X10850500Y14878712D01*
X10850500Y15121288D01*
X10846131Y15154471D01*
X15249500Y15154471D01*
X15249500Y14845528D01*
X15284086Y14538562D01*
X15284089Y14538544D01*
X15352831Y14237364D01*
X15352835Y14237352D01*
X15454862Y13945777D01*
X15454868Y13945763D01*
X15588903Y13667437D01*
X15753264Y13405858D01*
X15945879Y13164326D01*
X16164326Y12945879D01*
X16405858Y12753264D01*
X16667437Y12588903D01*
X16945763Y12454868D01*
X16945777Y12454862D01*
X17237352Y12352835D01*
X17237364Y12352831D01*
X17538544Y12284089D01*
X17538562Y12284086D01*
X17845528Y12249500D01*
X17845535Y12249500D01*
X18154471Y12249500D01*
X18461437Y12284086D01*
X18461455Y12284089D01*
X18762635Y12352831D01*
X18762647Y12352835D01*
X19054222Y12454862D01*
X19054236Y12454868D01*
X19332562Y12588903D01*
X19476347Y12679249D01*
X19594143Y12753265D01*
X19835674Y12945880D01*
X20054120Y13164326D01*
X20246735Y13405857D01*
X20411095Y13667435D01*
X20545135Y13945771D01*
X20647168Y14237364D01*
X20715911Y14538548D01*
X20750500Y14845535D01*
X20750500Y15154465D01*
X20726683Y15365850D01*
X20715913Y15461437D01*
X20715910Y15461455D01*
X20710412Y15485542D01*
X20647168Y15762636D01*
X20545135Y16054229D01*
X20411095Y16332565D01*
X20246735Y16594143D01*
X20054120Y16835674D01*
X19835674Y17054120D01*
X19594143Y17246735D01*
X19332565Y17411095D01*
X19054229Y17545135D01*
X18762636Y17647168D01*
X18461452Y17715911D01*
X18461442Y17715912D01*
X18461437Y17715913D01*
X18311356Y17732822D01*
X18154468Y17750499D01*
X18154467Y17750500D01*
X18154465Y17750500D01*
X17845535Y17750500D01*
X17845533Y17750500D01*
X17845530Y17750499D01*
X17743206Y17738970D01*
X17538562Y17715913D01*
X17538554Y17715911D01*
X17538548Y17715911D01*
X17504409Y17708119D01*
X17237364Y17647168D01*
X17237352Y17647164D01*
X17080452Y17592262D01*
X16945771Y17545135D01*
X16667435Y17411095D01*
X16405857Y17246735D01*
X16164326Y17054120D01*
X15945880Y16835674D01*
X15753265Y16594143D01*
X15697191Y16504901D01*
X15588903Y16332562D01*
X15454868Y16054236D01*
X15454862Y16054222D01*
X15352835Y15762647D01*
X15352831Y15762635D01*
X15284089Y15461455D01*
X15284086Y15461437D01*
X15249500Y15154471D01*
X10846131Y15154471D01*
X10818838Y15361789D01*
X10756054Y15596100D01*
X10663224Y15820212D01*
X10541936Y16030289D01*
X10394265Y16222738D01*
X10222738Y16394265D01*
X10030289Y16541936D01*
X9820212Y16663224D01*
X9596100Y16756054D01*
X9361789Y16818838D01*
X9169388Y16844167D01*
X9121289Y16850500D01*
X9121288Y16850500D01*
X8878712Y16850500D01*
X8878711Y16850500D01*
X8818586Y16842584D01*
X8638211Y16818838D01*
X8403900Y16756054D01*
X8179788Y16663224D01*
X7969711Y16541936D01*
X7921446Y16504901D01*
X7777263Y16394266D01*
X7777256Y16394260D01*
X7605739Y16222743D01*
X7605733Y16222736D01*
X7542172Y16139901D01*
X7458064Y16030289D01*
X7361145Y15862421D01*
X7336777Y15820214D01*
X7336773Y15820205D01*
X7243947Y15596104D01*
X7181161Y15361785D01*
X7149500Y15121288D01*
X5022119Y15121288D01*
X4957546Y15207546D01*
X4842331Y15293796D01*
X4824359Y15300499D01*
X4799108Y15309917D01*
X4710401Y15343002D01*
X4654468Y15384872D01*
X4630050Y15450337D01*
X4644901Y15518610D01*
X4666053Y15546865D01*
X4788105Y15668917D01*
X4923600Y15862421D01*
X5023429Y16076507D01*
X5023432Y16076513D01*
X5080636Y16290000D01*
X4183012Y16290000D01*
X4215925Y16347007D01*
X4250000Y16474174D01*
X4250000Y16605826D01*
X4215925Y16732993D01*
X4183012Y16790000D01*
X5080635Y16790000D01*
X5023432Y17003486D01*
X5023429Y17003492D01*
X4923600Y17217577D01*
X4923599Y17217579D01*
X4788113Y17411073D01*
X4788108Y17411079D01*
X4621082Y17578105D01*
X4435405Y17708119D01*
X4391781Y17762696D01*
X4384588Y17832195D01*
X4416110Y17894549D01*
X4435405Y17911269D01*
X4523654Y17973062D01*
X4621401Y18041505D01*
X4788495Y18208599D01*
X4889025Y18352170D01*
X4924032Y18402165D01*
X4924034Y18402169D01*
X4924035Y18402170D01*
X5023903Y18616337D01*
X5085063Y18844592D01*
X5105659Y19080000D01*
X5085063Y19315408D01*
X5023903Y19543663D01*
X4924035Y19757829D01*
X4788495Y19951401D01*
X4621401Y20118495D01*
X4435842Y20248425D01*
X4392217Y20303002D01*
X4385023Y20372500D01*
X4416546Y20434855D01*
X4435842Y20451575D01*
X4621396Y20581501D01*
X4621402Y20581506D01*
X4788493Y20748597D01*
X4788495Y20748599D01*
X4889025Y20892170D01*
X4924032Y20942165D01*
X4924034Y20942169D01*
X4924035Y20942170D01*
X5023903Y21156337D01*
X5085063Y21384592D01*
X5105659Y21620000D01*
X5085063Y21855408D01*
X5023903Y22083663D01*
X4924035Y22297829D01*
X4788495Y22491401D01*
X4621401Y22658495D01*
X4427830Y22794035D01*
X4213663Y22893903D01*
X3985408Y22955063D01*
X3789234Y22972226D01*
X3750001Y22975659D01*
X3749999Y22975659D01*
X3702918Y22971539D01*
X3514592Y22955063D01*
X3286337Y22893903D01*
X3072171Y22794035D01*
X3072169Y22794034D01*
X2878597Y22658494D01*
X2711505Y22491402D01*
X2575965Y22297830D01*
X2575964Y22297828D01*
X2552650Y22247830D01*
X2476097Y22083663D01*
X2476096Y22083659D01*
X2476094Y22083655D01*
X2414938Y21855413D01*
X2414936Y21855403D01*
X2394341Y21620000D01*
X2394341Y21619999D01*
X2414936Y21384596D01*
X2414938Y21384586D01*
X2476094Y21156344D01*
X2476098Y21156335D01*
X2575965Y20942169D01*
X2575967Y20942165D01*
X2711501Y20748604D01*
X2711506Y20748597D01*
X2878597Y20581506D01*
X2878599Y20581505D01*
X3064159Y20451574D01*
X3107784Y20396997D01*
X3114976Y20327498D01*
X3083454Y20265144D01*
X3064159Y20248425D01*
X2992750Y20198424D01*
X2878596Y20118493D01*
X2711505Y19951402D01*
X2575965Y19757830D01*
X2575964Y19757828D01*
X2537380Y19675085D01*
X2491207Y19622646D01*
X2424014Y19603494D01*
X2357132Y19623710D01*
X2311798Y19676876D01*
X2301778Y19713607D01*
X2285369Y19859250D01*
X2285368Y19859254D01*
X2270620Y19901402D01*
X2225789Y20029522D01*
X2129816Y20182262D01*
X2002262Y20309816D01*
X1849522Y20405789D01*
X1679255Y20465368D01*
X1679252Y20465368D01*
X1679249Y20465369D01*
X1500004Y20485565D01*
X1500001Y20485565D01*
X1500000Y20485564D01*
X1500000Y20485565D01*
X1488383Y20484256D01*
X1419563Y20496309D01*
X1368183Y20543657D01*
X1350499Y20607472D01*
X1350499Y22397872D01*
X1344091Y22457483D01*
X1293796Y22592331D01*
X1207546Y22707546D01*
X1092331Y22793796D01*
X957483Y22844091D01*
X897873Y22850500D01*
X-897872Y22850499D01*
X-957483Y22844091D01*
X-1092331Y22793796D01*
X-1207546Y22707546D01*
X-1293796Y22592331D01*
X-1344091Y22457483D01*
X-1350500Y22397873D01*
X-1350499Y20602128D01*
X-1345299Y20553757D01*
X-1344091Y20542516D01*
X-1293797Y20407671D01*
X-1293793Y20407664D01*
X-1207547Y20292455D01*
X-1207544Y20292452D01*
X-1092335Y20206206D01*
X-1092328Y20206202D01*
X-957482Y20155908D01*
X-957483Y20155908D01*
X-897883Y20149501D01*
X-897881Y20149500D01*
X-897873Y20149500D01*
X-724500Y20149500D01*
X-657461Y20129815D01*
X-611706Y20077011D01*
X-600500Y20025500D01*
X-600500Y17973062D01*
X-620185Y17906023D01*
X-672989Y17860268D01*
X-742147Y17850324D01*
X-765448Y17856018D01*
X-820745Y17875368D01*
X-820748Y17875368D01*
X-820750Y17875369D01*
X-999996Y17895565D01*
X-1000004Y17895565D01*
X-1179249Y17875369D01*
X-1179252Y17875368D01*
X-1179255Y17875368D01*
X-1349522Y17815789D01*
X-1502262Y17719816D01*
X-1629816Y17592262D01*
X-1725789Y17439522D01*
X-1785368Y17269255D01*
X-1785368Y17269254D01*
X-1785369Y17269249D01*
X-1805565Y17090003D01*
X-1805565Y17089999D01*
X-1788676Y16940099D01*
X-1785368Y16910745D01*
X-1731239Y16756052D01*
X-1725788Y16740476D01*
X-1702668Y16703681D01*
X-1632860Y16592582D01*
X-1629813Y16587734D01*
X-1627550Y16584896D01*
X-1626659Y16582715D01*
X-1626111Y16581842D01*
X-1626264Y16581745D01*
X-1601144Y16520209D01*
X-1600500Y16507587D01*
X-1600500Y13932412D01*
X-1620185Y13865373D01*
X-1627555Y13855097D01*
X-1629810Y13852267D01*
X-1629816Y13852262D01*
X-1725789Y13699522D01*
X-1758605Y13605739D01*
X-1785368Y13529254D01*
X-1785369Y13529249D01*
X-1805565Y13350003D01*
X-1805565Y13349996D01*
X-1793616Y13243947D01*
X-1785368Y13170745D01*
X-1725789Y13000478D01*
X-1650443Y12880565D01*
X-1629815Y12847737D01*
X-1502262Y12720184D01*
X-1349523Y12624211D01*
X-1179254Y12564631D01*
X-1179249Y12564630D01*
X-1000004Y12544435D01*
X-1000000Y12544435D01*
X-999996Y12544435D01*
X-820750Y12564630D01*
X-820739Y12564633D01*
X-765453Y12583978D01*
X-695674Y12587539D01*
X-635047Y12552809D01*
X-602821Y12490816D01*
X-600500Y12466936D01*
X-600500Y10300096D01*
X-620185Y10233057D01*
X-636815Y10212419D01*
X-1132106Y9717127D01*
X-1132111Y9717124D01*
X-1142314Y9706920D01*
X-1142316Y9706920D01*
X-1254120Y9595116D01*
X-1297788Y9519480D01*
X-1333177Y9458185D01*
X-1374101Y9305457D01*
X-1374101Y9305454D01*
X-1374101Y9139748D01*
X-1374100Y9139730D01*
X-1374100Y8589244D01*
X-1393785Y8522205D01*
X-1446589Y8476450D01*
X-1515747Y8466506D01*
X-1557116Y8480189D01*
X-1600169Y8503488D01*
X-1741987Y8552174D01*
X-1813982Y8576890D01*
X-1813984Y8576890D01*
X-1813986Y8576891D01*
X-2036967Y8614100D01*
X-2263033Y8614100D01*
X-2486014Y8576891D01*
X-2699831Y8503488D01*
X-2898649Y8395893D01*
X-3077046Y8257040D01*
X-3164946Y8161556D01*
X-3228680Y8092322D01*
X-3230156Y8090719D01*
X-3316193Y7959028D01*
X-3369338Y7913675D01*
X-3438569Y7904251D01*
X-3501905Y7933753D01*
X-3523804Y7959025D01*
X-3609844Y8090719D01*
X-3609849Y8090724D01*
X-3609850Y8090727D01*
X-3762950Y8257036D01*
X-3762951Y8257036D01*
X-3762954Y8257040D01*
X-3941351Y8395893D01*
X-4140169Y8503488D01*
X-4281987Y8552174D01*
X-4353982Y8576890D01*
X-4353984Y8576890D01*
X-4353986Y8576891D01*
X-4576967Y8614100D01*
X-4803033Y8614100D01*
X-5026014Y8576891D01*
X-5239831Y8503488D01*
X-5438649Y8395893D01*
X-5617046Y8257040D01*
X-5704946Y8161556D01*
X-5768680Y8092322D01*
X-5770156Y8090719D01*
X-5856193Y7959028D01*
X-5909338Y7913675D01*
X-5978569Y7904251D01*
X-6041905Y7933753D01*
X-6063804Y7959025D01*
X-6149844Y8090719D01*
X-6149849Y8090724D01*
X-6149850Y8090727D01*
X-6302950Y8257036D01*
X-6302951Y8257036D01*
X-6302954Y8257040D01*
X-6481351Y8395893D01*
X-6680169Y8503488D01*
X-6821987Y8552174D01*
X-6893982Y8576890D01*
X-6893984Y8576890D01*
X-6893986Y8576891D01*
X-7116967Y8614100D01*
X-7343033Y8614100D01*
X-7566014Y8576891D01*
X-7779831Y8503488D01*
X-7978649Y8395893D01*
X-8157046Y8257040D01*
X-8244946Y8161556D01*
X-8308680Y8092322D01*
X-8310156Y8090719D01*
X-8396193Y7959028D01*
X-8449338Y7913675D01*
X-8518569Y7904251D01*
X-8581905Y7933753D01*
X-8603804Y7959025D01*
X-8689844Y8090719D01*
X-8689849Y8090724D01*
X-8689850Y8090727D01*
X-8842950Y8257036D01*
X-8842951Y8257036D01*
X-8842954Y8257040D01*
X-9021351Y8395893D01*
X-9220169Y8503488D01*
X-9275058Y8522331D01*
X-9350241Y8548142D01*
X-9407256Y8588527D01*
X-9433387Y8653327D01*
X-9420336Y8721967D01*
X-9397659Y8753104D01*
X-5631286Y12519478D01*
X-5519481Y12631282D01*
X-5519479Y12631284D01*
X-5476227Y12706202D01*
X-5458270Y12737304D01*
X-5449055Y12753265D01*
X-5440423Y12768214D01*
X-5416455Y12857664D01*
X-5399499Y12920943D01*
X-5399499Y13079057D01*
X-5399499Y13089046D01*
X-5399500Y13089059D01*
X-5399500Y16504901D01*
X-5379815Y16571940D01*
X-5363181Y16592582D01*
X-5252082Y16703681D01*
X-5190759Y16737166D01*
X-5164401Y16740000D01*
X-4208012Y16740000D01*
X-4240925Y16682993D01*
X-4275000Y16555826D01*
X-4275000Y16424174D01*
X-4240925Y16297007D01*
X-4208012Y16240000D01*
X-5105636Y16240000D01*
X-5048432Y16026513D01*
X-5048429Y16026507D01*
X-4948600Y15812421D01*
X-4813105Y15618917D01*
X-4691053Y15496865D01*
X-4657568Y15435542D01*
X-4662552Y15365850D01*
X-4704424Y15309917D01*
X-4735400Y15293002D01*
X-4867331Y15243796D01*
X-4982546Y15157546D01*
X-5068796Y15042331D01*
X-5119091Y14907483D01*
X-5125500Y14847873D01*
X-5125499Y13052128D01*
X-5123290Y13031578D01*
X-5119091Y12992516D01*
X-5068797Y12857671D01*
X-5068793Y12857664D01*
X-4982547Y12742455D01*
X-4982544Y12742452D01*
X-4867335Y12656206D01*
X-4867328Y12656202D01*
X-4732482Y12605908D01*
X-4732483Y12605908D01*
X-4672883Y12599501D01*
X-4672881Y12599500D01*
X-4672873Y12599500D01*
X-4672864Y12599500D01*
X-2877129Y12599500D01*
X-2877123Y12599501D01*
X-2817516Y12605908D01*
X-2682671Y12656202D01*
X-2682664Y12656206D01*
X-2567455Y12742452D01*
X-2567452Y12742455D01*
X-2481206Y12857664D01*
X-2481202Y12857671D01*
X-2430908Y12992517D01*
X-2424501Y13052116D01*
X-2424500Y13052119D01*
X-2424500Y13052127D01*
X-2424500Y13945777D01*
X-2424500Y14847870D01*
X-2424501Y14847876D01*
X-2430908Y14907483D01*
X-2481202Y15042328D01*
X-2481206Y15042335D01*
X-2567452Y15157544D01*
X-2567455Y15157547D01*
X-2682664Y15243793D01*
X-2682671Y15243797D01*
X-2744902Y15267007D01*
X-2814598Y15293002D01*
X-2870531Y15334873D01*
X-2894949Y15400337D01*
X-2880098Y15468610D01*
X-2858947Y15496865D01*
X-2736891Y15618921D01*
X-2601399Y15812421D01*
X-2501570Y16026507D01*
X-2501567Y16026513D01*
X-2444364Y16240000D01*
X-3341988Y16240000D01*
X-3309075Y16297007D01*
X-3275000Y16424174D01*
X-3275000Y16555826D01*
X-3309075Y16682993D01*
X-3341988Y16740000D01*
X-2444364Y16740000D01*
X-2501567Y16953486D01*
X-2501570Y16953492D01*
X-2601399Y17167577D01*
X-2601400Y17167579D01*
X-2736886Y17361073D01*
X-2736891Y17361079D01*
X-2903917Y17528105D01*
X-3089594Y17658119D01*
X-3133219Y17712697D01*
X-3140411Y17782195D01*
X-3108889Y17844550D01*
X-3089594Y17861269D01*
X-2903599Y17991505D01*
X-2903597Y17991506D01*
X-2736506Y18158597D01*
X-2736501Y18158604D01*
X-2600967Y18352165D01*
X-2600965Y18352169D01*
X-2501098Y18566335D01*
X-2501094Y18566344D01*
X-2439938Y18794586D01*
X-2439936Y18794596D01*
X-2419341Y19029999D01*
X-2419341Y19030000D01*
X-2439936Y19265403D01*
X-2439938Y19265413D01*
X-2501094Y19493655D01*
X-2501096Y19493659D01*
X-2501097Y19493663D01*
X-2587988Y19680000D01*
X-2600964Y19707828D01*
X-2600965Y19707830D01*
X-2736505Y19901402D01*
X-2903597Y20068493D01*
X-2903599Y20068495D01*
X-3089158Y20198425D01*
X-3132782Y20253002D01*
X-3139975Y20322501D01*
X-3108453Y20384855D01*
X-3089158Y20401575D01*
X-2903599Y20531505D01*
X-2903597Y20531506D01*
X-2736506Y20698597D01*
X-2736501Y20698604D01*
X-2600967Y20892165D01*
X-2600965Y20892169D01*
X-2501098Y21106335D01*
X-2501094Y21106344D01*
X-2439938Y21334586D01*
X-2439936Y21334596D01*
X-2419341Y21569999D01*
X-2419341Y21570000D01*
X-2439936Y21805403D01*
X-2439938Y21805413D01*
X-2501094Y22033655D01*
X-2501096Y22033659D01*
X-2501097Y22033663D01*
X-2551031Y22140746D01*
X-2600964Y22247828D01*
X-2600965Y22247830D01*
X-2736505Y22441402D01*
X-2903597Y22608493D01*
X-2903598Y22608494D01*
X-2903599Y22608495D01*
X-3045058Y22707546D01*
X-3097165Y22744032D01*
X-3097169Y22744034D01*
X-3097170Y22744035D01*
X-3311337Y22843903D01*
X-3312039Y22844091D01*
X-3366285Y22858626D01*
X-3539592Y22905063D01*
X-3727918Y22921539D01*
X-3774999Y22925659D01*
X-3775001Y22925659D01*
X-3814234Y22922226D01*
X-4010408Y22905063D01*
X-4238663Y22843903D01*
X-4452829Y22744035D01*
X-4646401Y22608495D01*
X-4813495Y22441401D01*
X-4949035Y22247829D01*
X-5048903Y22033663D01*
X-5110063Y21805408D01*
X-5130659Y21570000D01*
X-5110063Y21334592D01*
X-5048903Y21106337D01*
X-4949035Y20892170D01*
X-4949034Y20892169D01*
X-4949032Y20892165D01*
X-4881265Y20795384D01*
X-4813495Y20698599D01*
X-4646401Y20531505D01*
X-4460842Y20401575D01*
X-4460840Y20401574D01*
X-4417216Y20346997D01*
X-4410023Y20277498D01*
X-4441545Y20215144D01*
X-4460835Y20198429D01*
X-4646401Y20068495D01*
X-4813495Y19901401D01*
X-4949035Y19707829D01*
X-5048903Y19493663D01*
X-5110063Y19265408D01*
X-5130659Y19030000D01*
X-5110063Y18794592D01*
X-5075671Y18666239D01*
X-5077334Y18596393D01*
X-5107763Y18546470D01*
X-6358506Y17295728D01*
X-6358511Y17295724D01*
X-6368714Y17285520D01*
X-6368716Y17285520D01*
X-6480520Y17173716D01*
X-6528853Y17090000D01*
X-6559577Y17036785D01*
X-6600501Y16884057D01*
X-6600501Y16884054D01*
X-6600501Y16718348D01*
X-6600500Y16718330D01*
X-6600500Y13300096D01*
X-6620185Y13233057D01*
X-6636814Y13212420D01*
X-11425889Y8423344D01*
X-11487210Y8389861D01*
X-11556902Y8394845D01*
X-11572573Y8401966D01*
X-11760169Y8503488D01*
X-11901987Y8552174D01*
X-11973982Y8576890D01*
X-11973984Y8576890D01*
X-11973986Y8576891D01*
X-12196967Y8614100D01*
X-12423033Y8614100D01*
X-12646014Y8576891D01*
X-12859831Y8503488D01*
X-13058649Y8395893D01*
X-13237046Y8257040D01*
X-13324946Y8161556D01*
X-13388680Y8092322D01*
X-13390156Y8090719D01*
X-13476193Y7959028D01*
X-13529338Y7913675D01*
X-13598569Y7904251D01*
X-13661905Y7933753D01*
X-13683804Y7959025D01*
X-13769844Y8090719D01*
X-13769849Y8090724D01*
X-13769850Y8090727D01*
X-13922950Y8257036D01*
X-13922951Y8257036D01*
X-13922954Y8257040D01*
X-14101351Y8395893D01*
X-14300169Y8503488D01*
X-14441987Y8552174D01*
X-14513982Y8576890D01*
X-14513984Y8576890D01*
X-14513986Y8576891D01*
X-14736967Y8614100D01*
X-14963033Y8614100D01*
X-15186014Y8576891D01*
X-15399831Y8503488D01*
X-15598649Y8395893D01*
X-15777046Y8257040D01*
X-15864946Y8161556D01*
X-15928680Y8092322D01*
X-15930156Y8090719D01*
X-16016193Y7959028D01*
X-16069338Y7913675D01*
X-16138569Y7904251D01*
X-16201905Y7933753D01*
X-16223804Y7959025D01*
X-16309844Y8090719D01*
X-16309849Y8090724D01*
X-16309850Y8090727D01*
X-16462950Y8257036D01*
X-16462951Y8257036D01*
X-16462954Y8257040D01*
X-16641351Y8395893D01*
X-16840169Y8503488D01*
X-16981987Y8552174D01*
X-17053982Y8576890D01*
X-17053984Y8576890D01*
X-17053986Y8576891D01*
X-17276967Y8614100D01*
X-17503033Y8614100D01*
X-17726014Y8576891D01*
X-17939831Y8503488D01*
X-18138649Y8395893D01*
X-18317046Y8257040D01*
X-18404946Y8161556D01*
X-18468680Y8092322D01*
X-18470156Y8090719D01*
X-18556193Y7959028D01*
X-18609338Y7913675D01*
X-18678569Y7904251D01*
X-18741905Y7933753D01*
X-18763804Y7959025D01*
X-18849844Y8090719D01*
X-18849849Y8090724D01*
X-18849850Y8090727D01*
X-19002950Y8257036D01*
X-19002951Y8257036D01*
X-19002954Y8257040D01*
X-19181351Y8395893D01*
X-19380169Y8503488D01*
X-19521987Y8552174D01*
X-19593982Y8576890D01*
X-19593984Y8576890D01*
X-19593986Y8576891D01*
X-19816967Y8614100D01*
X-20043033Y8614100D01*
X-20266014Y8576891D01*
X-20479831Y8503488D01*
X-20678649Y8395893D01*
X-20857046Y8257040D01*
X-20944946Y8161556D01*
X-21008680Y8092322D01*
X-21010156Y8090719D01*
X-21133802Y7901465D01*
X-21224611Y7694441D01*
X-21280107Y7475293D01*
X-21285287Y7412771D01*
X-21310439Y7347591D01*
X-21366840Y7306352D01*
X-21436584Y7302152D01*
X-21497526Y7336326D01*
X-21530318Y7398022D01*
X-21530480Y7398822D01*
X-21556025Y7527245D01*
X-21556027Y7527251D01*
X-21627676Y7700228D01*
X-21627681Y7700237D01*
X-21731697Y7855907D01*
X-21731700Y7855911D01*
X-21864088Y7988299D01*
X-21864092Y7988302D01*
X-22019762Y8092318D01*
X-22019771Y8092323D01*
X-22058956Y8108554D01*
X-22192749Y8163973D01*
X-22376379Y8200499D01*
X-22376383Y8200500D01*
X-22376384Y8200500D01*
X-22563616Y8200500D01*
X-22563617Y8200500D01*
X-22563618Y8200499D01*
X-22747251Y8163973D01*
X-22920231Y8092322D01*
X-23075908Y7988302D01*
X-23208302Y7855908D01*
X-23312322Y7700231D01*
X-23383973Y7527251D01*
X-23420500Y7343616D01*
X-24499500Y7343616D01*
X-24499500Y15154465D01*
X-20750500Y15154465D01*
X-20750500Y14845535D01*
X-20715911Y14538548D01*
X-20647168Y14237364D01*
X-20545135Y13945771D01*
X-20411095Y13667435D01*
X-20246735Y13405857D01*
X-20054120Y13164326D01*
X-19835674Y12945880D01*
X-19594143Y12753265D01*
X-19476347Y12679249D01*
X-19332562Y12588903D01*
X-19054236Y12454868D01*
X-19054222Y12454862D01*
X-18762647Y12352835D01*
X-18762635Y12352831D01*
X-18461455Y12284089D01*
X-18461437Y12284086D01*
X-18154471Y12249500D01*
X-18154465Y12249500D01*
X-17845528Y12249500D01*
X-17538562Y12284086D01*
X-17538544Y12284089D01*
X-17237364Y12352831D01*
X-17237352Y12352835D01*
X-16945777Y12454862D01*
X-16945763Y12454868D01*
X-16667437Y12588903D01*
X-16405858Y12753264D01*
X-16164326Y12945879D01*
X-15945879Y13164326D01*
X-15753264Y13405858D01*
X-15588903Y13667437D01*
X-15454868Y13945763D01*
X-15454862Y13945777D01*
X-15352835Y14237352D01*
X-15352831Y14237364D01*
X-15284089Y14538544D01*
X-15284086Y14538562D01*
X-15249500Y14845528D01*
X-15249500Y15121288D01*
X-10850500Y15121288D01*
X-10850500Y14878712D01*
X-10818838Y14638211D01*
X-10756054Y14403900D01*
X-10663224Y14179788D01*
X-10541936Y13969711D01*
X-10481018Y13890321D01*
X-10394266Y13777263D01*
X-10394260Y13777256D01*
X-10222743Y13605739D01*
X-10222736Y13605733D01*
X-10030293Y13458067D01*
X-10030289Y13458064D01*
X-9858661Y13358974D01*
X-9820214Y13336777D01*
X-9820205Y13336773D01*
X-9596104Y13243947D01*
X-9361785Y13181161D01*
X-9121289Y13149500D01*
X-9121288Y13149500D01*
X-8878711Y13149500D01*
X-8638214Y13181161D01*
X-8403895Y13243947D01*
X-8179794Y13336773D01*
X-8179785Y13336777D01*
X-7969706Y13458067D01*
X-7777263Y13605733D01*
X-7777256Y13605739D01*
X-7605739Y13777256D01*
X-7605733Y13777263D01*
X-7458067Y13969706D01*
X-7336777Y14179785D01*
X-7336773Y14179794D01*
X-7243947Y14403895D01*
X-7181161Y14638214D01*
X-7149500Y14878711D01*
X-7149500Y15121288D01*
X-7181161Y15361785D01*
X-7243947Y15596104D01*
X-7336773Y15820205D01*
X-7336777Y15820214D01*
X-7361145Y15862421D01*
X-7458064Y16030289D01*
X-7542172Y16139901D01*
X-7605733Y16222736D01*
X-7605739Y16222743D01*
X-7777256Y16394260D01*
X-7777263Y16394266D01*
X-7921446Y16504901D01*
X-7969711Y16541936D01*
X-8179788Y16663224D01*
X-8403900Y16756054D01*
X-8638211Y16818838D01*
X-8818586Y16842584D01*
X-8878711Y16850500D01*
X-8878712Y16850500D01*
X-9121288Y16850500D01*
X-9121289Y16850500D01*
X-9169388Y16844167D01*
X-9361789Y16818838D01*
X-9596100Y16756054D01*
X-9820212Y16663224D01*
X-10030289Y16541936D01*
X-10222738Y16394265D01*
X-10394265Y16222738D01*
X-10541936Y16030289D01*
X-10663224Y15820212D01*
X-10756054Y15596100D01*
X-10818838Y15361789D01*
X-10850500Y15121288D01*
X-15249500Y15121288D01*
X-15249500Y15154471D01*
X-15284086Y15461437D01*
X-15284089Y15461455D01*
X-15352831Y15762635D01*
X-15352835Y15762647D01*
X-15454862Y16054222D01*
X-15454868Y16054236D01*
X-15588903Y16332562D01*
X-15697191Y16504901D01*
X-15753265Y16594143D01*
X-15945880Y16835674D01*
X-16164326Y17054120D01*
X-16405857Y17246735D01*
X-16667435Y17411095D01*
X-16945771Y17545135D01*
X-17080452Y17592262D01*
X-17237352Y17647164D01*
X-17237364Y17647168D01*
X-17504409Y17708119D01*
X-17538548Y17715911D01*
X-17538554Y17715911D01*
X-17538562Y17715913D01*
X-17743206Y17738970D01*
X-17845530Y17750499D01*
X-17845533Y17750500D01*
X-17845535Y17750500D01*
X-18154465Y17750500D01*
X-18154467Y17750500D01*
X-18154468Y17750499D01*
X-18311356Y17732822D01*
X-18461437Y17715913D01*
X-18461442Y17715912D01*
X-18461452Y17715911D01*
X-18762636Y17647168D01*
X-19054229Y17545135D01*
X-19332565Y17411095D01*
X-19594143Y17246735D01*
X-19835674Y17054120D01*
X-20054120Y16835674D01*
X-20246735Y16594143D01*
X-20411095Y16332565D01*
X-20545135Y16054229D01*
X-20647168Y15762636D01*
X-20710412Y15485542D01*
X-20715910Y15461455D01*
X-20715913Y15461437D01*
X-20726683Y15365850D01*
X-20750500Y15154465D01*
X-24499500Y15154465D01*
X-24499500Y24375500D01*
X-24479815Y24442539D01*
X-24427011Y24488294D01*
X-24375500Y24499500D01*
X24375500Y24499500D01*
X24442539Y24479815D01*
G37*
%TD.AperFunction*%
%TD*%
M02*
