M48
; DRILL file {KiCad 8.0.8} date 2025-02-27T23:17:28-0500
; FORMAT={-:-/ absolute / inch / decimal}
; #@! TF.CreationDate,2025-02-27T23:17:28-05:00
; #@! TF.GenerationSoftware,Kicad,Pcbnew,8.0.8
; #@! TF.FileFunction,Plated,1,2,PTH
FMAT,2
INCH
; #@! TA.AperFunction,Plated,PTH,ViaDrill
T1C0.0118
; #@! TA.AperFunction,Plated,PTH,ComponentDrill
T2C0.0394
; #@! TA.AperFunction,Plated,PTH,ComponentDrill
T3C0.0400
%
G90
G05
T1
X-0.0394Y0.6728
X-0.0394Y0.5256
X0.0591Y0.7748
X0.0591Y0.4921
T2
X-0.3937Y-0.8268
X-0.2362Y-0.8268
X-0.1486Y0.8492
X-0.1486Y0.7492
X-0.1486Y0.6492
X-0.1486Y0.5492
X-0.0787Y-0.8268
X0.0Y0.8465
X0.0787Y-0.8268
X0.1476Y0.8512
X0.1476Y0.7512
X0.1476Y0.6512
X0.1476Y0.5512
X0.2362Y-0.8268
X0.3937Y-0.8268
T3
X-0.7846Y0.2854
X-0.7846Y-0.3146
X-0.6846Y0.2854
X-0.6846Y-0.3146
X-0.5846Y0.2854
X-0.5846Y-0.3146
X-0.4846Y0.2854
X-0.4846Y-0.3146
X-0.3846Y0.2854
X-0.3846Y-0.3146
X-0.2846Y0.2854
X-0.2846Y-0.3146
X-0.1846Y0.2854
X-0.1846Y-0.3146
X-0.0846Y0.2854
X-0.0846Y-0.3146
X0.0154Y0.2854
X0.0154Y-0.3146
X0.1154Y0.2854
X0.1154Y-0.3146
X0.2154Y0.2854
X0.2154Y-0.3146
X0.3154Y0.2854
X0.3154Y-0.3146
X0.4154Y0.2854
X0.4154Y-0.3146
X0.5154Y0.2854
X0.5154Y-0.3146
X0.6154Y0.2854
X0.6154Y-0.3146
X0.7154Y0.2854
X0.7154Y-0.3146
X0.8154Y0.2854
X0.8154Y-0.3146
M30
