%TF.GenerationSoftware,KiCad,Pcbnew,8.0.8*%
%TF.CreationDate,2025-02-27T19:37:01-05:00*%
%TF.ProjectId,modular_sdvx_pcb_nostabs,6d6f6475-6c61-4725-9f73-6476785f7063,rev?*%
%TF.SameCoordinates,Original*%
%TF.FileFunction,Copper,L1,Top*%
%TF.FilePolarity,Positive*%
%FSLAX46Y46*%
G04 Gerber Fmt 4.6, Leading zero omitted, Abs format (unit mm)*
G04 Created by KiCad (PCBNEW 8.0.8) date 2025-02-27 19:37:01*
%MOMM*%
%LPD*%
G01*
G04 APERTURE LIST*
%TA.AperFunction,ComponentPad*%
%ADD10R,1.700000X1.700000*%
%TD*%
%TA.AperFunction,ComponentPad*%
%ADD11O,1.700000X1.700000*%
%TD*%
%TA.AperFunction,ComponentPad*%
%ADD12O,1.727200X1.727200*%
%TD*%
%TA.AperFunction,ComponentPad*%
%ADD13R,1.727200X1.727200*%
%TD*%
%TA.AperFunction,ComponentPad*%
%ADD14C,1.727200*%
%TD*%
%TA.AperFunction,ViaPad*%
%ADD15C,0.600000*%
%TD*%
%TA.AperFunction,Conductor*%
%ADD16C,0.200000*%
%TD*%
G04 APERTURE END LIST*
D10*
%TO.P,ENC_R1,1,Pin_1*%
%TO.N,/5V*%
X3750000Y14000000D03*
D11*
%TO.P,ENC_R1,2,Pin_2*%
%TO.N,GND*%
X3750000Y16540000D03*
%TO.P,ENC_R1,3,Pin_3*%
%TO.N,/ENC_R_A*%
X3750000Y19080000D03*
%TO.P,ENC_R1,4,Pin_4*%
%TO.N,/ENC_R_B*%
X3750000Y21620000D03*
%TD*%
D10*
%TO.P,SW_D_in1,1,Pin_1*%
%TO.N,Net-(SW_D_in1-Pin_1)*%
X-2250000Y-13500000D03*
%TD*%
%TO.P,SW_B_in1,1,Pin_1*%
%TO.N,Net-(SW_B_in1-Pin_1)*%
X5250000Y-13500000D03*
%TD*%
%TO.P,ENC_L1,1,Pin_1*%
%TO.N,/5V*%
X-3775000Y13950000D03*
D11*
%TO.P,ENC_L1,2,Pin_2*%
%TO.N,GND*%
X-3775000Y16490000D03*
%TO.P,ENC_L1,3,Pin_3*%
%TO.N,/ENC_L_A*%
X-3775000Y19030000D03*
%TO.P,ENC_L1,4,Pin_4*%
%TO.N,/ENC_L_B*%
X-3775000Y21570000D03*
%TD*%
D10*
%TO.P,SW_C_in1,1,Pin_1*%
%TO.N,Net-(A1-D7_INT4)*%
X1500000Y-13500000D03*
%TD*%
%TO.P,SW_L_in1,1,Pin_1*%
%TO.N,Net-(SW_L_in1-Pin_1)*%
X-6000000Y-13500000D03*
%TD*%
%TO.P,SW_R_in1,1,Pin_1*%
%TO.N,Net-(SW_R_in1-Pin_1)*%
X-9750000Y-13500000D03*
%TD*%
%TO.P,SW_OUT1,1,Pin_1*%
%TO.N,Net-(SW_OUT1-Pin_1)*%
X0Y21500000D03*
%TD*%
%TO.P,SW_A_in1,1,Pin_1*%
%TO.N,Net-(SW_A_in1-Pin_1)*%
X9000000Y-13500000D03*
%TD*%
D12*
%TO.P,A1,*%
%TO.N,*%
X2930000Y7250000D03*
X5470000Y7250000D03*
%TO.P,A1,3V3,3.3V*%
%TO.N,unconnected-(A1-3.3V-Pad3V3)*%
X-17390000Y7250000D03*
%TO.P,A1,5V,5V*%
%TO.N,/5V*%
X8010000Y7250000D03*
%TO.P,A1,A0,A0*%
%TO.N,/ENC_L_A*%
X-12310000Y7250000D03*
%TO.P,A1,A1,A1*%
%TO.N,/ENC_L_B*%
X-9770000Y7250000D03*
%TO.P,A1,A2,A2*%
%TO.N,/ENC_R_A*%
X-7230000Y7250000D03*
%TO.P,A1,A3,A3*%
%TO.N,/ENC_R_B*%
X-4690000Y7250000D03*
%TO.P,A1,A4,A4*%
%TO.N,unconnected-(A1-PadA4)*%
X-2150000Y7250000D03*
%TO.P,A1,A5,A5*%
%TO.N,unconnected-(A1-PadA5)*%
X390000Y7250000D03*
%TO.P,A1,AREF,AREF*%
%TO.N,unconnected-(A1-PadAREF)*%
X-14850000Y7250000D03*
%TO.P,A1,D0,D0/RX*%
%TO.N,unconnected-(A1-D0{slash}RX-PadD0)*%
X13090000Y-7990000D03*
%TO.P,A1,D1,D1/TX*%
%TO.N,unconnected-(A1-D1{slash}TX-PadD1)*%
X15630000Y-7990000D03*
%TO.P,A1,D2,D2/SDA*%
%TO.N,unconnected-(A1-D2{slash}SDA-PadD2)*%
X5470000Y-7990000D03*
%TO.P,A1,D3,D3/SCL*%
%TO.N,unconnected-(A1-D3{slash}SCL-PadD3)*%
X2930000Y-7990000D03*
%TO.P,A1,D4,D4*%
%TO.N,unconnected-(A1-PadD4)*%
X390000Y-7990000D03*
%TO.P,A1,D5,D5*%
%TO.N,Net-(SW_A_in1-Pin_1)*%
X-2150000Y-7990000D03*
%TO.P,A1,D6,D6*%
%TO.N,Net-(SW_B_in1-Pin_1)*%
X-4690000Y-7990000D03*
%TO.P,A1,D7,D7_INT4*%
%TO.N,Net-(A1-D7_INT4)*%
X-7230000Y-7990000D03*
%TO.P,A1,D8,D8*%
%TO.N,Net-(SW_D_in1-Pin_1)*%
X-9770000Y-7990000D03*
%TO.P,A1,D9,D9*%
%TO.N,Net-(SW_L_in1-Pin_1)*%
X-12310000Y-7990000D03*
%TO.P,A1,D10,D10*%
%TO.N,Net-(SW_R_in1-Pin_1)*%
X-14850000Y-7990000D03*
%TO.P,A1,D11,D11*%
%TO.N,unconnected-(A1-PadD11)*%
X-17390000Y-7990000D03*
%TO.P,A1,D12,D12*%
%TO.N,unconnected-(A1-PadD12)*%
X-19930000Y-7990000D03*
%TO.P,A1,D13,D13*%
%TO.N,unconnected-(A1-PadD13)*%
X-19930000Y7250000D03*
D13*
%TO.P,A1,GND1,GND*%
%TO.N,GND*%
X13090000Y7250000D03*
%TO.P,A1,GND2,GND*%
X8010000Y-7990000D03*
D12*
%TO.P,A1,MISO,SPI_MISO*%
%TO.N,unconnected-(A1-SPI_MISO-PadMISO)*%
X18170000Y7250000D03*
D14*
%TO.P,A1,MOSI,SPI_MOSI*%
%TO.N,unconnected-(A1-SPI_MOSI-PadMOSI)*%
X20710000Y-7990000D03*
D12*
%TO.P,A1,RST1,RESET*%
%TO.N,unconnected-(A1-RESET-PadRST1)*%
X10550000Y7250000D03*
%TO.P,A1,RST2,RESET*%
%TO.N,unconnected-(A1-RESET-PadRST2)*%
X10550000Y-7990000D03*
%TO.P,A1,SCK,SPI_SCK*%
%TO.N,unconnected-(A1-SPI_SCK-PadSCK)*%
X20710000Y7250000D03*
%TO.P,A1,SS,SPI_CS*%
%TO.N,unconnected-(A1-SPI_CS-PadSS)*%
X18170000Y-7990000D03*
%TO.P,A1,VIN,VIN*%
%TO.N,unconnected-(A1-PadVIN)*%
X15630000Y7250000D03*
%TD*%
D15*
%TO.N,/ENC_R_B*%
X-1000000Y17750000D03*
X-1000000Y12750000D03*
%TO.N,/ENC_R_A*%
X1000000Y5000000D03*
X-3000000Y5000000D03*
%TD*%
D16*
%TO.N,Net-(SW_A_in1-Pin_1)*%
X9000000Y-13500000D02*
X4653600Y-9153600D01*
X4653600Y-9153600D02*
X-986400Y-9153600D01*
X-986400Y-9153600D02*
X-2150000Y-7990000D01*
%TO.N,Net-(SW_B_in1-Pin_1)*%
X1850000Y-10350000D02*
X-2330000Y-10350000D01*
X5000000Y-13500000D02*
X1850000Y-10350000D01*
X-2330000Y-10350000D02*
X-4690000Y-7990000D01*
X5250000Y-13500000D02*
X5000000Y-13500000D01*
%TO.N,Net-(SW_D_in1-Pin_1)*%
X-8875579Y-7990000D02*
X-9770000Y-7990000D01*
X-2250000Y-13500000D02*
X-3365579Y-13500000D01*
X-3365579Y-13500000D02*
X-8875579Y-7990000D01*
%TO.N,Net-(SW_L_in1-Pin_1)*%
X-6800000Y-13500000D02*
X-12310000Y-7990000D01*
X-6000000Y-13500000D02*
X-6800000Y-13500000D01*
%TO.N,Net-(A1-D7_INT4)*%
X1500000Y-13500000D02*
X1000000Y-13500000D01*
X-4470000Y-10750000D02*
X-7230000Y-7990000D01*
X1000000Y-13500000D02*
X-1750000Y-10750000D01*
X-1750000Y-10750000D02*
X-4470000Y-10750000D01*
%TO.N,Net-(SW_R_in1-Pin_1)*%
X-9750000Y-13090000D02*
X-14850000Y-7990000D01*
X-9750000Y-13500000D02*
X-9750000Y-13090000D01*
%TO.N,/ENC_R_B*%
X-4690000Y10310000D02*
X-4690000Y7250000D01*
X-2250000Y12750000D02*
X-4690000Y10310000D01*
X-1000000Y17750000D02*
X-120000Y17750000D01*
X-1000000Y12750000D02*
X-2250000Y12750000D01*
X-120000Y17750000D02*
X3750000Y21620000D01*
%TO.N,/ENC_R_A*%
X1000000Y5000000D02*
X-3000000Y5000000D01*
%TO.N,/ENC_L_B*%
X-3775000Y21570000D02*
X-3775000Y21225000D01*
X-3775000Y21225000D02*
X-9770000Y15230000D01*
X-9770000Y15230000D02*
X-9770000Y7250000D01*
%TO.N,/5V*%
X1310000Y13950000D02*
X3750000Y11510000D01*
X3750000Y14000000D02*
X3750000Y11510000D01*
X3750000Y11510000D02*
X8010000Y7250000D01*
X-3775000Y13950000D02*
X1310000Y13950000D01*
%TO.N,GND*%
X3700000Y16490000D02*
X3750000Y16540000D01*
X-3775000Y16490000D02*
X3700000Y16490000D01*
X3750000Y16540000D02*
X13040000Y7250000D01*
X13040000Y7250000D02*
X13090000Y7250000D01*
%TO.N,/ENC_L_A*%
X-3775000Y19030000D02*
X-8500000Y14305000D01*
X-11060000Y6000000D02*
X-12310000Y7250000D01*
X-8500000Y6874421D02*
X-9374421Y6000000D01*
X-8500000Y14305000D02*
X-8500000Y6874421D01*
X-9374421Y6000000D02*
X-11060000Y6000000D01*
%TD*%
%TA.AperFunction,Conductor*%
%TO.N,GND*%
G36*
X24442539Y24479815D02*
G01*
X24488294Y24427011D01*
X24499500Y24375500D01*
X24499500Y-24375500D01*
X24479815Y-24442539D01*
X24427011Y-24488294D01*
X24375500Y-24499500D01*
X-24375500Y-24499500D01*
X-24442539Y-24479815D01*
X-24488294Y-24427011D01*
X-24499500Y-24375500D01*
X-24499500Y-17845532D01*
X-20750500Y-17845532D01*
X-20750500Y-18154467D01*
X-20750499Y-18154471D01*
X-20716293Y-18458067D01*
X-20715911Y-18461452D01*
X-20647168Y-18762636D01*
X-20545135Y-19054229D01*
X-20411095Y-19332565D01*
X-20246735Y-19594143D01*
X-20054120Y-19835674D01*
X-19835674Y-20054120D01*
X-19594143Y-20246735D01*
X-19332565Y-20411095D01*
X-19054229Y-20545135D01*
X-18762636Y-20647168D01*
X-18461452Y-20715911D01*
X-18461442Y-20715912D01*
X-18461437Y-20715913D01*
X-18311356Y-20732822D01*
X-18154469Y-20750499D01*
X-18154468Y-20750500D01*
X-18154465Y-20750500D01*
X-17845532Y-20750500D01*
X-17845529Y-20750499D01*
X-17743206Y-20738970D01*
X-17538562Y-20715913D01*
X-17538554Y-20715911D01*
X-17538548Y-20715911D01*
X-17237364Y-20647168D01*
X-17237352Y-20647164D01*
X-16945777Y-20545137D01*
X-16945778Y-20545137D01*
X-16945771Y-20545135D01*
X-16667435Y-20411095D01*
X-16405857Y-20246735D01*
X-16164326Y-20054120D01*
X-15988918Y-19878712D01*
X-10850500Y-19878712D01*
X-10850500Y-20121288D01*
X-10818838Y-20361789D01*
X-10756054Y-20596100D01*
X-10663224Y-20820212D01*
X-10541936Y-21030289D01*
X-10394265Y-21222738D01*
X-10222738Y-21394265D01*
X-10030289Y-21541936D01*
X-9820212Y-21663224D01*
X-9596100Y-21756054D01*
X-9361789Y-21818838D01*
X-9169388Y-21844167D01*
X-9121289Y-21850500D01*
X-9121288Y-21850500D01*
X-8878711Y-21850500D01*
X-8818586Y-21842584D01*
X-8638211Y-21818838D01*
X-8403900Y-21756054D01*
X-8179788Y-21663224D01*
X-7969711Y-21541936D01*
X-7777262Y-21394265D01*
X-7777256Y-21394260D01*
X-7605739Y-21222743D01*
X-7605733Y-21222736D01*
X-7458067Y-21030293D01*
X-7458066Y-21030292D01*
X-7458064Y-21030289D01*
X-7336776Y-20820212D01*
X-7293573Y-20715911D01*
X-7243947Y-20596104D01*
X-7181161Y-20361785D01*
X-7149500Y-20121288D01*
X-7149500Y-19878711D01*
X7149500Y-19878711D01*
X7149500Y-20121288D01*
X7181161Y-20361785D01*
X7243947Y-20596104D01*
X7293573Y-20715911D01*
X7336776Y-20820212D01*
X7458064Y-21030289D01*
X7458066Y-21030292D01*
X7458067Y-21030293D01*
X7605733Y-21222736D01*
X7605739Y-21222743D01*
X7777256Y-21394260D01*
X7777262Y-21394265D01*
X7969711Y-21541936D01*
X8179788Y-21663224D01*
X8403900Y-21756054D01*
X8638211Y-21818838D01*
X8818586Y-21842584D01*
X8878711Y-21850500D01*
X8878712Y-21850500D01*
X9121289Y-21850500D01*
X9169388Y-21844167D01*
X9361789Y-21818838D01*
X9596100Y-21756054D01*
X9820212Y-21663224D01*
X10030289Y-21541936D01*
X10222738Y-21394265D01*
X10394265Y-21222738D01*
X10541936Y-21030289D01*
X10663224Y-20820212D01*
X10756054Y-20596100D01*
X10818838Y-20361789D01*
X10850500Y-20121288D01*
X10850500Y-19878712D01*
X10818838Y-19638211D01*
X10756054Y-19403900D01*
X10663224Y-19179788D01*
X10541936Y-18969711D01*
X10394265Y-18777262D01*
X10394260Y-18777256D01*
X10222743Y-18605739D01*
X10222736Y-18605733D01*
X10030293Y-18458067D01*
X10030292Y-18458066D01*
X10030289Y-18458064D01*
X9820212Y-18336776D01*
X9820205Y-18336773D01*
X9596104Y-18243947D01*
X9361785Y-18181161D01*
X9121289Y-18149500D01*
X9121288Y-18149500D01*
X8878712Y-18149500D01*
X8878711Y-18149500D01*
X8638214Y-18181161D01*
X8403895Y-18243947D01*
X8179794Y-18336773D01*
X8179785Y-18336777D01*
X7969706Y-18458067D01*
X7777263Y-18605733D01*
X7777256Y-18605739D01*
X7605739Y-18777256D01*
X7605733Y-18777263D01*
X7458067Y-18969706D01*
X7336777Y-19179785D01*
X7336773Y-19179794D01*
X7243947Y-19403895D01*
X7181161Y-19638214D01*
X7149500Y-19878711D01*
X-7149500Y-19878711D01*
X-7181161Y-19638214D01*
X-7243947Y-19403895D01*
X-7336773Y-19179794D01*
X-7336777Y-19179785D01*
X-7458067Y-18969706D01*
X-7605733Y-18777263D01*
X-7605739Y-18777256D01*
X-7777256Y-18605739D01*
X-7777263Y-18605733D01*
X-7969706Y-18458067D01*
X-8179785Y-18336777D01*
X-8179794Y-18336773D01*
X-8403895Y-18243947D01*
X-8638214Y-18181161D01*
X-8878711Y-18149500D01*
X-8878712Y-18149500D01*
X-9121288Y-18149500D01*
X-9121289Y-18149500D01*
X-9361785Y-18181161D01*
X-9596104Y-18243947D01*
X-9820205Y-18336773D01*
X-9820212Y-18336776D01*
X-10030289Y-18458064D01*
X-10030292Y-18458066D01*
X-10030293Y-18458067D01*
X-10222736Y-18605733D01*
X-10222743Y-18605739D01*
X-10394260Y-18777256D01*
X-10394265Y-18777262D01*
X-10541936Y-18969711D01*
X-10663224Y-19179788D01*
X-10756054Y-19403900D01*
X-10818838Y-19638211D01*
X-10850500Y-19878712D01*
X-15988918Y-19878712D01*
X-15945880Y-19835674D01*
X-15753265Y-19594143D01*
X-15588905Y-19332565D01*
X-15588903Y-19332562D01*
X-15454868Y-19054236D01*
X-15454862Y-19054222D01*
X-15352835Y-18762647D01*
X-15352831Y-18762635D01*
X-15284089Y-18461455D01*
X-15284086Y-18461437D01*
X-15249500Y-18154471D01*
X-15249500Y-17845528D01*
X15249500Y-17845528D01*
X15249500Y-18154471D01*
X15284086Y-18461437D01*
X15284089Y-18461455D01*
X15352831Y-18762635D01*
X15352835Y-18762647D01*
X15454862Y-19054222D01*
X15454868Y-19054236D01*
X15588903Y-19332562D01*
X15588905Y-19332565D01*
X15753265Y-19594143D01*
X15945880Y-19835674D01*
X16164326Y-20054120D01*
X16405857Y-20246735D01*
X16667435Y-20411095D01*
X16945771Y-20545135D01*
X16945777Y-20545137D01*
X17237352Y-20647164D01*
X17237364Y-20647168D01*
X17538548Y-20715911D01*
X17538554Y-20715911D01*
X17538562Y-20715913D01*
X17743206Y-20738970D01*
X17845529Y-20750499D01*
X17845532Y-20750500D01*
X17845535Y-20750500D01*
X18154468Y-20750500D01*
X18154469Y-20750499D01*
X18311356Y-20732822D01*
X18461437Y-20715913D01*
X18461442Y-20715912D01*
X18461452Y-20715911D01*
X18762636Y-20647168D01*
X19054229Y-20545135D01*
X19332565Y-20411095D01*
X19594143Y-20246735D01*
X19835674Y-20054120D01*
X20054120Y-19835674D01*
X20246735Y-19594143D01*
X20411095Y-19332565D01*
X20545135Y-19054229D01*
X20647168Y-18762636D01*
X20715911Y-18461452D01*
X20716293Y-18458067D01*
X20750499Y-18154471D01*
X20750500Y-18154467D01*
X20750500Y-17845532D01*
X20750499Y-17845528D01*
X20715913Y-17538562D01*
X20715910Y-17538544D01*
X20647168Y-17237364D01*
X20647164Y-17237352D01*
X20545137Y-16945777D01*
X20545135Y-16945771D01*
X20411095Y-16667435D01*
X20246735Y-16405857D01*
X20054120Y-16164326D01*
X19835674Y-15945880D01*
X19594143Y-15753265D01*
X19332565Y-15588905D01*
X19332562Y-15588903D01*
X19054236Y-15454868D01*
X19054222Y-15454862D01*
X18762647Y-15352835D01*
X18762635Y-15352831D01*
X18461455Y-15284089D01*
X18461437Y-15284086D01*
X18154471Y-15249500D01*
X18154465Y-15249500D01*
X17845535Y-15249500D01*
X17845528Y-15249500D01*
X17538562Y-15284086D01*
X17538544Y-15284089D01*
X17237364Y-15352831D01*
X17237352Y-15352835D01*
X16945777Y-15454862D01*
X16945763Y-15454868D01*
X16667437Y-15588903D01*
X16405858Y-15753264D01*
X16164326Y-15945879D01*
X15945879Y-16164326D01*
X15753264Y-16405858D01*
X15588903Y-16667437D01*
X15454868Y-16945763D01*
X15454862Y-16945777D01*
X15352835Y-17237352D01*
X15352831Y-17237364D01*
X15284089Y-17538544D01*
X15284086Y-17538562D01*
X15249500Y-17845528D01*
X-15249500Y-17845528D01*
X-15284086Y-17538562D01*
X-15284089Y-17538544D01*
X-15352831Y-17237364D01*
X-15352835Y-17237352D01*
X-15454862Y-16945777D01*
X-15454868Y-16945763D01*
X-15588903Y-16667437D01*
X-15753264Y-16405858D01*
X-15945879Y-16164326D01*
X-16164326Y-15945879D01*
X-16405858Y-15753264D01*
X-16667437Y-15588903D01*
X-16945763Y-15454868D01*
X-16945777Y-15454862D01*
X-17237352Y-15352835D01*
X-17237364Y-15352831D01*
X-17538544Y-15284089D01*
X-17538562Y-15284086D01*
X-17845528Y-15249500D01*
X-17845535Y-15249500D01*
X-18154465Y-15249500D01*
X-18154471Y-15249500D01*
X-18461437Y-15284086D01*
X-18461455Y-15284089D01*
X-18762635Y-15352831D01*
X-18762647Y-15352835D01*
X-19054222Y-15454862D01*
X-19054236Y-15454868D01*
X-19332562Y-15588903D01*
X-19332565Y-15588905D01*
X-19594143Y-15753265D01*
X-19835674Y-15945880D01*
X-20054120Y-16164326D01*
X-20246735Y-16405857D01*
X-20411095Y-16667435D01*
X-20545135Y-16945771D01*
X-20545137Y-16945777D01*
X-20647164Y-17237352D01*
X-20647168Y-17237364D01*
X-20715910Y-17538544D01*
X-20715913Y-17538562D01*
X-20750499Y-17845528D01*
X-20750500Y-17845532D01*
X-24499500Y-17845532D01*
X-24499500Y-7896384D01*
X-23420500Y-7896384D01*
X-23420500Y-8083616D01*
X-23383973Y-8267251D01*
X-23312322Y-8440231D01*
X-23208302Y-8595908D01*
X-23075908Y-8728302D01*
X-22920231Y-8832322D01*
X-22747251Y-8903973D01*
X-22563618Y-8940499D01*
X-22563617Y-8940500D01*
X-22563616Y-8940500D01*
X-22376383Y-8940500D01*
X-22376379Y-8940499D01*
X-22192749Y-8903973D01*
X-22019769Y-8832322D01*
X-22019768Y-8832321D01*
X-22019762Y-8832318D01*
X-21864092Y-8728302D01*
X-21864088Y-8728299D01*
X-21731700Y-8595911D01*
X-21731697Y-8595907D01*
X-21627681Y-8440237D01*
X-21627676Y-8440228D01*
X-21556027Y-8267251D01*
X-21556025Y-8267245D01*
X-21530480Y-8138822D01*
X-21498095Y-8076911D01*
X-21437379Y-8042337D01*
X-21367610Y-8046077D01*
X-21310938Y-8086944D01*
X-21285356Y-8151962D01*
X-21285319Y-8152386D01*
X-21280107Y-8215293D01*
X-21224611Y-8434441D01*
X-21133802Y-8641465D01*
X-21010156Y-8830719D01*
X-21010151Y-8830724D01*
X-21010149Y-8830727D01*
X-20956832Y-8888643D01*
X-20857046Y-8997040D01*
X-20678649Y-9135893D01*
X-20479831Y-9243488D01*
X-20266014Y-9316891D01*
X-20043033Y-9354100D01*
X-20043032Y-9354100D01*
X-19816968Y-9354100D01*
X-19816967Y-9354100D01*
X-19593986Y-9316891D01*
X-19593984Y-9316890D01*
X-19593982Y-9316890D01*
X-19380172Y-9243489D01*
X-19380169Y-9243488D01*
X-19181351Y-9135893D01*
X-19002954Y-8997040D01*
X-18990826Y-8983866D01*
X-18849850Y-8830727D01*
X-18849849Y-8830724D01*
X-18849844Y-8830719D01*
X-18763806Y-8699028D01*
X-18710662Y-8653675D01*
X-18641431Y-8644251D01*
X-18578095Y-8673753D01*
X-18556195Y-8699025D01*
X-18470156Y-8830719D01*
X-18470149Y-8830726D01*
X-18470149Y-8830727D01*
X-18416832Y-8888643D01*
X-18317046Y-8997040D01*
X-18138649Y-9135893D01*
X-17939831Y-9243488D01*
X-17726014Y-9316891D01*
X-17503033Y-9354100D01*
X-17503032Y-9354100D01*
X-17276968Y-9354100D01*
X-17276967Y-9354100D01*
X-17053986Y-9316891D01*
X-17053984Y-9316890D01*
X-17053982Y-9316890D01*
X-16840172Y-9243489D01*
X-16840169Y-9243488D01*
X-16641351Y-9135893D01*
X-16462954Y-8997040D01*
X-16450826Y-8983866D01*
X-16309850Y-8830727D01*
X-16309849Y-8830724D01*
X-16309844Y-8830719D01*
X-16223806Y-8699028D01*
X-16170662Y-8653675D01*
X-16101431Y-8644251D01*
X-16038095Y-8673753D01*
X-16016195Y-8699025D01*
X-15930156Y-8830719D01*
X-15930149Y-8830726D01*
X-15930149Y-8830727D01*
X-15876832Y-8888643D01*
X-15777046Y-8997040D01*
X-15598649Y-9135893D01*
X-15399831Y-9243488D01*
X-15186014Y-9316891D01*
X-14963033Y-9354100D01*
X-14963032Y-9354100D01*
X-14736968Y-9354100D01*
X-14736967Y-9354100D01*
X-14513986Y-9316891D01*
X-14481751Y-9305824D01*
X-14411955Y-9302674D01*
X-14353810Y-9335423D01*
X-11136816Y-12552417D01*
X-11103333Y-12613738D01*
X-11100499Y-12640086D01*
X-11100499Y-14397872D01*
X-11094091Y-14457483D01*
X-11043796Y-14592331D01*
X-10957546Y-14707546D01*
X-10842331Y-14793796D01*
X-10707483Y-14844091D01*
X-10647873Y-14850500D01*
X-8852128Y-14850499D01*
X-8803757Y-14845299D01*
X-8792516Y-14844091D01*
X-8657671Y-14793797D01*
X-8657664Y-14793793D01*
X-8542455Y-14707547D01*
X-8542452Y-14707544D01*
X-8456206Y-14592335D01*
X-8456202Y-14592328D01*
X-8405908Y-14457482D01*
X-8399501Y-14397883D01*
X-8399500Y-14397881D01*
X-8399500Y-14397873D01*
X-8399500Y-13049096D01*
X-8379815Y-12982057D01*
X-8327011Y-12936302D01*
X-8257853Y-12926358D01*
X-8194297Y-12955383D01*
X-8187821Y-12961412D01*
X-7386816Y-13762418D01*
X-7353333Y-13823739D01*
X-7350499Y-13850097D01*
X-7350499Y-14397872D01*
X-7344091Y-14457483D01*
X-7293796Y-14592331D01*
X-7207546Y-14707546D01*
X-7092331Y-14793796D01*
X-6957483Y-14844091D01*
X-6897873Y-14850500D01*
X-5102128Y-14850499D01*
X-5053757Y-14845299D01*
X-5042516Y-14844091D01*
X-4907671Y-14793797D01*
X-4907664Y-14793793D01*
X-4792455Y-14707547D01*
X-4792452Y-14707544D01*
X-4706206Y-14592335D01*
X-4706202Y-14592328D01*
X-4655908Y-14457482D01*
X-4649501Y-14397883D01*
X-4649500Y-14397881D01*
X-4649500Y-14397873D01*
X-4649500Y-13364676D01*
X-4629815Y-13297637D01*
X-4577011Y-13251882D01*
X-4507853Y-13241938D01*
X-4444297Y-13270963D01*
X-4437822Y-13276991D01*
X-3734295Y-13980520D01*
X-3662500Y-14021970D01*
X-3614284Y-14072537D01*
X-3600499Y-14129358D01*
X-3600499Y-14397872D01*
X-3594091Y-14457483D01*
X-3543796Y-14592331D01*
X-3457546Y-14707546D01*
X-3342331Y-14793796D01*
X-3207483Y-14844091D01*
X-3147873Y-14850500D01*
X-1352128Y-14850499D01*
X-1303757Y-14845299D01*
X-1292516Y-14844091D01*
X-1157671Y-14793797D01*
X-1157664Y-14793793D01*
X-1042455Y-14707547D01*
X-1042452Y-14707544D01*
X-956206Y-14592335D01*
X-956202Y-14592328D01*
X-905908Y-14457482D01*
X-899501Y-14397883D01*
X-899500Y-14397881D01*
X-899500Y-14397873D01*
X-899500Y-13523739D01*
X-899500Y-12749095D01*
X-879815Y-12682056D01*
X-827011Y-12636301D01*
X-757853Y-12626357D01*
X-694297Y-12655382D01*
X-687837Y-12661396D01*
X-78272Y-13270963D01*
X113181Y-13462416D01*
X146666Y-13523739D01*
X149500Y-13550097D01*
X149500Y-14397870D01*
X149501Y-14397876D01*
X155908Y-14457483D01*
X206202Y-14592328D01*
X206206Y-14592335D01*
X292452Y-14707544D01*
X292455Y-14707547D01*
X407664Y-14793793D01*
X407671Y-14793797D01*
X542517Y-14844091D01*
X542516Y-14844091D01*
X549444Y-14844835D01*
X602127Y-14850500D01*
X2397872Y-14850499D01*
X2457483Y-14844091D01*
X2592331Y-14793796D01*
X2707546Y-14707546D01*
X2793796Y-14592331D01*
X2844091Y-14457483D01*
X2850500Y-14397873D01*
X2850499Y-12602128D01*
X2844091Y-12542517D01*
X2835577Y-12519689D01*
X2830593Y-12449997D01*
X2864078Y-12388674D01*
X2925402Y-12355190D01*
X2995093Y-12360175D01*
X3039438Y-12388673D01*
X3577122Y-12926358D01*
X3863181Y-13212417D01*
X3896666Y-13273740D01*
X3899500Y-13300098D01*
X3899500Y-14397870D01*
X3899501Y-14397876D01*
X3905908Y-14457483D01*
X3956202Y-14592328D01*
X3956206Y-14592335D01*
X4042452Y-14707544D01*
X4042455Y-14707547D01*
X4157664Y-14793793D01*
X4157671Y-14793797D01*
X4292517Y-14844091D01*
X4292516Y-14844091D01*
X4299444Y-14844835D01*
X4352127Y-14850500D01*
X6147872Y-14850499D01*
X6207483Y-14844091D01*
X6342331Y-14793796D01*
X6457546Y-14707546D01*
X6543796Y-14592331D01*
X6594091Y-14457483D01*
X6600500Y-14397873D01*
X6600499Y-12602128D01*
X6594091Y-12542517D01*
X6561420Y-12454922D01*
X6543797Y-12407671D01*
X6543793Y-12407664D01*
X6457547Y-12292455D01*
X6457544Y-12292452D01*
X6342335Y-12206206D01*
X6342328Y-12206202D01*
X6207482Y-12155908D01*
X6207483Y-12155908D01*
X6147883Y-12149501D01*
X6147881Y-12149500D01*
X6147873Y-12149500D01*
X6147865Y-12149500D01*
X4550098Y-12149500D01*
X4483059Y-12129815D01*
X4462417Y-12113181D01*
X2337590Y-9988355D01*
X2337588Y-9988352D01*
X2315017Y-9965781D01*
X2281532Y-9904458D01*
X2286516Y-9834766D01*
X2328388Y-9778833D01*
X2393852Y-9754416D01*
X2402698Y-9754100D01*
X4353503Y-9754100D01*
X4420542Y-9773785D01*
X4441184Y-9790419D01*
X7613181Y-12962416D01*
X7646666Y-13023739D01*
X7649500Y-13050097D01*
X7649500Y-14397870D01*
X7649501Y-14397876D01*
X7655908Y-14457483D01*
X7706202Y-14592328D01*
X7706206Y-14592335D01*
X7792452Y-14707544D01*
X7792455Y-14707547D01*
X7907664Y-14793793D01*
X7907671Y-14793797D01*
X8042517Y-14844091D01*
X8042516Y-14844091D01*
X8049444Y-14844835D01*
X8102127Y-14850500D01*
X9897872Y-14850499D01*
X9957483Y-14844091D01*
X10092331Y-14793796D01*
X10207546Y-14707546D01*
X10293796Y-14592331D01*
X10344091Y-14457483D01*
X10350500Y-14397873D01*
X10350499Y-12602128D01*
X10344091Y-12542517D01*
X10311420Y-12454922D01*
X10293797Y-12407671D01*
X10293793Y-12407664D01*
X10207547Y-12292455D01*
X10207544Y-12292452D01*
X10092335Y-12206206D01*
X10092328Y-12206202D01*
X9957482Y-12155908D01*
X9957483Y-12155908D01*
X9897883Y-12149501D01*
X9897881Y-12149500D01*
X9897873Y-12149500D01*
X9897865Y-12149500D01*
X8550097Y-12149500D01*
X8483058Y-12129815D01*
X8462416Y-12113181D01*
X5842339Y-9493104D01*
X5808854Y-9431781D01*
X5813838Y-9362089D01*
X5855710Y-9306156D01*
X5889758Y-9288142D01*
X5913642Y-9279942D01*
X6019831Y-9243488D01*
X6218649Y-9135893D01*
X6397046Y-8997040D01*
X6496832Y-8888643D01*
X6550149Y-8830727D01*
X6550151Y-8830724D01*
X6550156Y-8830719D01*
X6673802Y-8641465D01*
X6764611Y-8434441D01*
X6820107Y-8215293D01*
X6831018Y-8083616D01*
X6838775Y-7990006D01*
X6838775Y-7989993D01*
X9181225Y-7989993D01*
X9181225Y-7990006D01*
X9199892Y-8215289D01*
X9255388Y-8434439D01*
X9346198Y-8641466D01*
X9469842Y-8830716D01*
X9469850Y-8830727D01*
X9610826Y-8983866D01*
X9622954Y-8997040D01*
X9801351Y-9135893D01*
X10000169Y-9243488D01*
X10000172Y-9243489D01*
X10213982Y-9316890D01*
X10213984Y-9316890D01*
X10213986Y-9316891D01*
X10436967Y-9354100D01*
X10436968Y-9354100D01*
X10663032Y-9354100D01*
X10663033Y-9354100D01*
X10886014Y-9316891D01*
X11099831Y-9243488D01*
X11298649Y-9135893D01*
X11477046Y-8997040D01*
X11576832Y-8888643D01*
X11630149Y-8830727D01*
X11630149Y-8830726D01*
X11630156Y-8830719D01*
X11716193Y-8699028D01*
X11769338Y-8653675D01*
X11838569Y-8644251D01*
X11901905Y-8673753D01*
X11923804Y-8699025D01*
X12009844Y-8830719D01*
X12009849Y-8830724D01*
X12009850Y-8830727D01*
X12150826Y-8983866D01*
X12162954Y-8997040D01*
X12341351Y-9135893D01*
X12540169Y-9243488D01*
X12540172Y-9243489D01*
X12753982Y-9316890D01*
X12753984Y-9316890D01*
X12753986Y-9316891D01*
X12976967Y-9354100D01*
X12976968Y-9354100D01*
X13203032Y-9354100D01*
X13203033Y-9354100D01*
X13426014Y-9316891D01*
X13639831Y-9243488D01*
X13838649Y-9135893D01*
X14017046Y-8997040D01*
X14116832Y-8888643D01*
X14170149Y-8830727D01*
X14170149Y-8830726D01*
X14170156Y-8830719D01*
X14256193Y-8699028D01*
X14309338Y-8653675D01*
X14378569Y-8644251D01*
X14441905Y-8673753D01*
X14463804Y-8699025D01*
X14549844Y-8830719D01*
X14549849Y-8830724D01*
X14549850Y-8830727D01*
X14690826Y-8983866D01*
X14702954Y-8997040D01*
X14881351Y-9135893D01*
X15080169Y-9243488D01*
X15080172Y-9243489D01*
X15293982Y-9316890D01*
X15293984Y-9316890D01*
X15293986Y-9316891D01*
X15516967Y-9354100D01*
X15516968Y-9354100D01*
X15743032Y-9354100D01*
X15743033Y-9354100D01*
X15966014Y-9316891D01*
X16179831Y-9243488D01*
X16378649Y-9135893D01*
X16557046Y-8997040D01*
X16656832Y-8888643D01*
X16710149Y-8830727D01*
X16710149Y-8830726D01*
X16710156Y-8830719D01*
X16796193Y-8699028D01*
X16849338Y-8653675D01*
X16918569Y-8644251D01*
X16981905Y-8673753D01*
X17003804Y-8699025D01*
X17089844Y-8830719D01*
X17089849Y-8830724D01*
X17089850Y-8830727D01*
X17230826Y-8983866D01*
X17242954Y-8997040D01*
X17421351Y-9135893D01*
X17620169Y-9243488D01*
X17620172Y-9243489D01*
X17833982Y-9316890D01*
X17833984Y-9316890D01*
X17833986Y-9316891D01*
X18056967Y-9354100D01*
X18056968Y-9354100D01*
X18283032Y-9354100D01*
X18283033Y-9354100D01*
X18506014Y-9316891D01*
X18719831Y-9243488D01*
X18918649Y-9135893D01*
X19097046Y-8997040D01*
X19196832Y-8888643D01*
X19250149Y-8830727D01*
X19250149Y-8830726D01*
X19250156Y-8830719D01*
X19336193Y-8699028D01*
X19389338Y-8653675D01*
X19458569Y-8644251D01*
X19521905Y-8673753D01*
X19543804Y-8699025D01*
X19629844Y-8830719D01*
X19629849Y-8830724D01*
X19629850Y-8830727D01*
X19770826Y-8983866D01*
X19782954Y-8997040D01*
X19961351Y-9135893D01*
X20160169Y-9243488D01*
X20160172Y-9243489D01*
X20373982Y-9316890D01*
X20373984Y-9316890D01*
X20373986Y-9316891D01*
X20596967Y-9354100D01*
X20596968Y-9354100D01*
X20823032Y-9354100D01*
X20823033Y-9354100D01*
X21046014Y-9316891D01*
X21259831Y-9243488D01*
X21458649Y-9135893D01*
X21637046Y-8997040D01*
X21736832Y-8888643D01*
X21790149Y-8830727D01*
X21790151Y-8830724D01*
X21790156Y-8830719D01*
X21913802Y-8641465D01*
X22004611Y-8434441D01*
X22060107Y-8215293D01*
X22071018Y-8083616D01*
X22072585Y-8064708D01*
X22491499Y-8064708D01*
X22520647Y-8211240D01*
X22520650Y-8211250D01*
X22577822Y-8349277D01*
X22577829Y-8349290D01*
X22660834Y-8473515D01*
X22660837Y-8473519D01*
X22766480Y-8579162D01*
X22766484Y-8579165D01*
X22890709Y-8662170D01*
X22890722Y-8662177D01*
X23028749Y-8719349D01*
X23028754Y-8719351D01*
X23028758Y-8719351D01*
X23028759Y-8719352D01*
X23175291Y-8748500D01*
X23175294Y-8748500D01*
X23324708Y-8748500D01*
X23426262Y-8728299D01*
X23471246Y-8719351D01*
X23609284Y-8662174D01*
X23733516Y-8579165D01*
X23839165Y-8473516D01*
X23922174Y-8349284D01*
X23979351Y-8211246D01*
X23990982Y-8152776D01*
X24008500Y-8064708D01*
X24008500Y-7915291D01*
X23979352Y-7768759D01*
X23979351Y-7768758D01*
X23979351Y-7768754D01*
X23956153Y-7712748D01*
X23922177Y-7630722D01*
X23922170Y-7630709D01*
X23839165Y-7506484D01*
X23839162Y-7506480D01*
X23733519Y-7400837D01*
X23733515Y-7400834D01*
X23609290Y-7317829D01*
X23609277Y-7317822D01*
X23471250Y-7260650D01*
X23471240Y-7260647D01*
X23324708Y-7231500D01*
X23324706Y-7231500D01*
X23175294Y-7231500D01*
X23175292Y-7231500D01*
X23028759Y-7260647D01*
X23028749Y-7260650D01*
X22890722Y-7317822D01*
X22890709Y-7317829D01*
X22766484Y-7400834D01*
X22766480Y-7400837D01*
X22660837Y-7506480D01*
X22660834Y-7506484D01*
X22577829Y-7630709D01*
X22577822Y-7630722D01*
X22520650Y-7768749D01*
X22520647Y-7768759D01*
X22491500Y-7915291D01*
X22491500Y-7915294D01*
X22491500Y-8064706D01*
X22491500Y-8064708D01*
X22491499Y-8064708D01*
X22072585Y-8064708D01*
X22078775Y-7990006D01*
X22078775Y-7989993D01*
X22060107Y-7764710D01*
X22060107Y-7764707D01*
X22004611Y-7545559D01*
X21913802Y-7338535D01*
X21862916Y-7260649D01*
X21790157Y-7149283D01*
X21790149Y-7149272D01*
X21637049Y-6982963D01*
X21637048Y-6982962D01*
X21637046Y-6982960D01*
X21458649Y-6844107D01*
X21340700Y-6780276D01*
X21259832Y-6736512D01*
X21259827Y-6736510D01*
X21046017Y-6663109D01*
X20878778Y-6635202D01*
X20823033Y-6625900D01*
X20596967Y-6625900D01*
X20552370Y-6633341D01*
X20373982Y-6663109D01*
X20160172Y-6736510D01*
X20160167Y-6736512D01*
X19961352Y-6844106D01*
X19782955Y-6982959D01*
X19782950Y-6982963D01*
X19629850Y-7149272D01*
X19629842Y-7149283D01*
X19543808Y-7280968D01*
X19490662Y-7326325D01*
X19421430Y-7335748D01*
X19358095Y-7306246D01*
X19336192Y-7280968D01*
X19250157Y-7149283D01*
X19250149Y-7149272D01*
X19097049Y-6982963D01*
X19097048Y-6982962D01*
X19097046Y-6982960D01*
X18918649Y-6844107D01*
X18800700Y-6780276D01*
X18719832Y-6736512D01*
X18719827Y-6736510D01*
X18506017Y-6663109D01*
X18338778Y-6635202D01*
X18283033Y-6625900D01*
X18056967Y-6625900D01*
X18012370Y-6633341D01*
X17833982Y-6663109D01*
X17620172Y-6736510D01*
X17620167Y-6736512D01*
X17421352Y-6844106D01*
X17242955Y-6982959D01*
X17242950Y-6982963D01*
X17089850Y-7149272D01*
X17089842Y-7149283D01*
X17003808Y-7280968D01*
X16950662Y-7326325D01*
X16881430Y-7335748D01*
X16818095Y-7306246D01*
X16796192Y-7280968D01*
X16710157Y-7149283D01*
X16710149Y-7149272D01*
X16557049Y-6982963D01*
X16557048Y-6982962D01*
X16557046Y-6982960D01*
X16378649Y-6844107D01*
X16260700Y-6780276D01*
X16179832Y-6736512D01*
X16179827Y-6736510D01*
X15966017Y-6663109D01*
X15798778Y-6635202D01*
X15743033Y-6625900D01*
X15516967Y-6625900D01*
X15472370Y-6633341D01*
X15293982Y-6663109D01*
X15080172Y-6736510D01*
X15080167Y-6736512D01*
X14881352Y-6844106D01*
X14702955Y-6982959D01*
X14702950Y-6982963D01*
X14549850Y-7149272D01*
X14549842Y-7149283D01*
X14463808Y-7280968D01*
X14410662Y-7326325D01*
X14341430Y-7335748D01*
X14278095Y-7306246D01*
X14256192Y-7280968D01*
X14170157Y-7149283D01*
X14170149Y-7149272D01*
X14017049Y-6982963D01*
X14017048Y-6982962D01*
X14017046Y-6982960D01*
X13838649Y-6844107D01*
X13720700Y-6780276D01*
X13639832Y-6736512D01*
X13639827Y-6736510D01*
X13426017Y-6663109D01*
X13258778Y-6635202D01*
X13203033Y-6625900D01*
X12976967Y-6625900D01*
X12932370Y-6633341D01*
X12753982Y-6663109D01*
X12540172Y-6736510D01*
X12540167Y-6736512D01*
X12341352Y-6844106D01*
X12162955Y-6982959D01*
X12162950Y-6982963D01*
X12009850Y-7149272D01*
X12009842Y-7149283D01*
X11923808Y-7280968D01*
X11870662Y-7326325D01*
X11801430Y-7335748D01*
X11738095Y-7306246D01*
X11716192Y-7280968D01*
X11630157Y-7149283D01*
X11630149Y-7149272D01*
X11477049Y-6982963D01*
X11477048Y-6982962D01*
X11477046Y-6982960D01*
X11298649Y-6844107D01*
X11180700Y-6780276D01*
X11099832Y-6736512D01*
X11099827Y-6736510D01*
X10886017Y-6663109D01*
X10718778Y-6635202D01*
X10663033Y-6625900D01*
X10436967Y-6625900D01*
X10392370Y-6633341D01*
X10213982Y-6663109D01*
X10000172Y-6736510D01*
X10000167Y-6736512D01*
X9801352Y-6844106D01*
X9622955Y-6982959D01*
X9622950Y-6982963D01*
X9469850Y-7149272D01*
X9469842Y-7149283D01*
X9346198Y-7338533D01*
X9255388Y-7545560D01*
X9199892Y-7764710D01*
X9181225Y-7989993D01*
X6838775Y-7989993D01*
X6820107Y-7764710D01*
X6820107Y-7764707D01*
X6764611Y-7545559D01*
X6673802Y-7338535D01*
X6622916Y-7260649D01*
X6550157Y-7149283D01*
X6550149Y-7149272D01*
X6397049Y-6982963D01*
X6397048Y-6982962D01*
X6397046Y-6982960D01*
X6218649Y-6844107D01*
X6100700Y-6780276D01*
X6019832Y-6736512D01*
X6019827Y-6736510D01*
X5806017Y-6663109D01*
X5638778Y-6635202D01*
X5583033Y-6625900D01*
X5356967Y-6625900D01*
X5312370Y-6633341D01*
X5133982Y-6663109D01*
X4920172Y-6736510D01*
X4920167Y-6736512D01*
X4721352Y-6844106D01*
X4542955Y-6982959D01*
X4542950Y-6982963D01*
X4389850Y-7149272D01*
X4389842Y-7149283D01*
X4303808Y-7280968D01*
X4250662Y-7326325D01*
X4181430Y-7335748D01*
X4118095Y-7306246D01*
X4096192Y-7280968D01*
X4010157Y-7149283D01*
X4010149Y-7149272D01*
X3857049Y-6982963D01*
X3857048Y-6982962D01*
X3857046Y-6982960D01*
X3678649Y-6844107D01*
X3560700Y-6780276D01*
X3479832Y-6736512D01*
X3479827Y-6736510D01*
X3266017Y-6663109D01*
X3098778Y-6635202D01*
X3043033Y-6625900D01*
X2816967Y-6625900D01*
X2772370Y-6633341D01*
X2593982Y-6663109D01*
X2380172Y-6736510D01*
X2380167Y-6736512D01*
X2181352Y-6844106D01*
X2002955Y-6982959D01*
X2002950Y-6982963D01*
X1849850Y-7149272D01*
X1849842Y-7149283D01*
X1763808Y-7280968D01*
X1710662Y-7326325D01*
X1641430Y-7335748D01*
X1578095Y-7306246D01*
X1556192Y-7280968D01*
X1470157Y-7149283D01*
X1470149Y-7149272D01*
X1317049Y-6982963D01*
X1317048Y-6982962D01*
X1317046Y-6982960D01*
X1138649Y-6844107D01*
X1020700Y-6780276D01*
X939832Y-6736512D01*
X939827Y-6736510D01*
X726017Y-6663109D01*
X558778Y-6635202D01*
X503033Y-6625900D01*
X276967Y-6625900D01*
X232370Y-6633341D01*
X53982Y-6663109D01*
X-159827Y-6736510D01*
X-159832Y-6736512D01*
X-240700Y-6780276D01*
X-358649Y-6844107D01*
X-537046Y-6982960D01*
X-537048Y-6982962D01*
X-537049Y-6982963D01*
X-690149Y-7149272D01*
X-690157Y-7149283D01*
X-776192Y-7280968D01*
X-829338Y-7326325D01*
X-898570Y-7335748D01*
X-961905Y-7306246D01*
X-983808Y-7280968D01*
X-1069842Y-7149283D01*
X-1069850Y-7149272D01*
X-1222950Y-6982963D01*
X-1222955Y-6982959D01*
X-1401352Y-6844106D01*
X-1564101Y-6756031D01*
X-1613691Y-6706811D01*
X-1628799Y-6638595D01*
X-1604629Y-6573039D01*
X-1568662Y-6540996D01*
X-1568754Y-6540860D01*
X-1567777Y-6540207D01*
X-1567084Y-6539590D01*
X-1565388Y-6538611D01*
X-1565385Y-6538608D01*
X-1565382Y-6538607D01*
X-1383338Y-6398918D01*
X-1383330Y-6398911D01*
X-1221089Y-6236670D01*
X-1221081Y-6236661D01*
X-1081392Y-6054617D01*
X-966657Y-5855890D01*
X-966650Y-5855876D01*
X-878842Y-5643887D01*
X-819453Y-5422240D01*
X-819452Y-5422238D01*
X-814446Y-5384215D01*
X-789500Y-5194741D01*
X-789500Y-4965258D01*
X-819451Y-4737770D01*
X-819453Y-4737759D01*
X-878842Y-4516112D01*
X-966650Y-4304123D01*
X-966657Y-4304109D01*
X-1081392Y-4105382D01*
X-1221081Y-3923338D01*
X-1383338Y-3761081D01*
X-1565382Y-3621392D01*
X-1764109Y-3506657D01*
X-1764123Y-3506650D01*
X-1976112Y-3418842D01*
X-2104076Y-3384554D01*
X-2197762Y-3359452D01*
X-2208715Y-3358009D01*
X-2425258Y-3329500D01*
X-2425266Y-3329500D01*
X-2654734Y-3329500D01*
X-2654741Y-3329500D01*
X-2844215Y-3354446D01*
X-2882238Y-3359452D01*
X-3103887Y-3418842D01*
X-3315876Y-3506650D01*
X-3315890Y-3506657D01*
X-3514617Y-3621392D01*
X-3696661Y-3761081D01*
X-3696670Y-3761089D01*
X-3858911Y-3923330D01*
X-3858918Y-3923338D01*
X-3998607Y-4105382D01*
X-3998608Y-4105385D01*
X-3998611Y-4105388D01*
X-4113344Y-4304112D01*
X-4201158Y-4516113D01*
X-4260548Y-4737762D01*
X-4290500Y-4965266D01*
X-4290500Y-5194734D01*
X-4260548Y-5422238D01*
X-4201158Y-5643887D01*
X-4113344Y-5855888D01*
X-3998611Y-6054612D01*
X-3858919Y-6236661D01*
X-3858914Y-6236665D01*
X-3858911Y-6236670D01*
X-3696670Y-6398911D01*
X-3696665Y-6398914D01*
X-3696661Y-6398919D01*
X-3514612Y-6538611D01*
X-3315888Y-6653344D01*
X-3103887Y-6741158D01*
X-3093599Y-6743914D01*
X-3033940Y-6780276D01*
X-3003409Y-6843122D01*
X-3011701Y-6912497D01*
X-3049529Y-6961542D01*
X-3077039Y-6982954D01*
X-3077049Y-6982963D01*
X-3230149Y-7149272D01*
X-3230157Y-7149283D01*
X-3316192Y-7280968D01*
X-3369338Y-7326325D01*
X-3438570Y-7335748D01*
X-3501905Y-7306246D01*
X-3523808Y-7280968D01*
X-3609842Y-7149283D01*
X-3609850Y-7149272D01*
X-3762950Y-6982963D01*
X-3762955Y-6982959D01*
X-3941352Y-6844106D01*
X-4140167Y-6736512D01*
X-4140172Y-6736510D01*
X-4353982Y-6663109D01*
X-4532370Y-6633341D01*
X-4576967Y-6625900D01*
X-4803033Y-6625900D01*
X-4858778Y-6635202D01*
X-5026017Y-6663109D01*
X-5239827Y-6736510D01*
X-5239832Y-6736512D01*
X-5320700Y-6780276D01*
X-5438649Y-6844107D01*
X-5617046Y-6982960D01*
X-5617048Y-6982962D01*
X-5617049Y-6982963D01*
X-5770149Y-7149272D01*
X-5770157Y-7149283D01*
X-5856192Y-7280968D01*
X-5909338Y-7326325D01*
X-5978570Y-7335748D01*
X-6041905Y-7306246D01*
X-6063808Y-7280968D01*
X-6149842Y-7149283D01*
X-6149850Y-7149272D01*
X-6302950Y-6982963D01*
X-6302955Y-6982959D01*
X-6481352Y-6844106D01*
X-6680167Y-6736512D01*
X-6680172Y-6736510D01*
X-6893982Y-6663109D01*
X-7072370Y-6633341D01*
X-7116967Y-6625900D01*
X-7343033Y-6625900D01*
X-7398778Y-6635202D01*
X-7566017Y-6663109D01*
X-7779827Y-6736510D01*
X-7779832Y-6736512D01*
X-7860700Y-6780276D01*
X-7978649Y-6844107D01*
X-8157046Y-6982960D01*
X-8157048Y-6982962D01*
X-8157049Y-6982963D01*
X-8310149Y-7149272D01*
X-8310157Y-7149283D01*
X-8396192Y-7280968D01*
X-8449338Y-7326325D01*
X-8518570Y-7335748D01*
X-8581905Y-7306246D01*
X-8603808Y-7280968D01*
X-8689842Y-7149283D01*
X-8689850Y-7149272D01*
X-8842950Y-6982963D01*
X-8842955Y-6982959D01*
X-9021352Y-6844106D01*
X-9220167Y-6736512D01*
X-9220172Y-6736510D01*
X-9433982Y-6663109D01*
X-9612370Y-6633341D01*
X-9656967Y-6625900D01*
X-9883033Y-6625900D01*
X-9938778Y-6635202D01*
X-10106017Y-6663109D01*
X-10319827Y-6736510D01*
X-10319832Y-6736512D01*
X-10400700Y-6780276D01*
X-10518649Y-6844107D01*
X-10697046Y-6982960D01*
X-10697048Y-6982962D01*
X-10697049Y-6982963D01*
X-10850149Y-7149272D01*
X-10850157Y-7149283D01*
X-10936192Y-7280968D01*
X-10989338Y-7326325D01*
X-11058570Y-7335748D01*
X-11121905Y-7306246D01*
X-11143808Y-7280968D01*
X-11229842Y-7149283D01*
X-11229850Y-7149272D01*
X-11382950Y-6982963D01*
X-11382955Y-6982959D01*
X-11561352Y-6844106D01*
X-11760167Y-6736512D01*
X-11760172Y-6736510D01*
X-11973982Y-6663109D01*
X-12152370Y-6633341D01*
X-12196967Y-6625900D01*
X-12423033Y-6625900D01*
X-12478778Y-6635202D01*
X-12646017Y-6663109D01*
X-12859827Y-6736510D01*
X-12859832Y-6736512D01*
X-12940700Y-6780276D01*
X-13058649Y-6844107D01*
X-13237046Y-6982960D01*
X-13237048Y-6982962D01*
X-13237049Y-6982963D01*
X-13390149Y-7149272D01*
X-13390157Y-7149283D01*
X-13476192Y-7280968D01*
X-13529338Y-7326325D01*
X-13598570Y-7335748D01*
X-13661905Y-7306246D01*
X-13683808Y-7280968D01*
X-13769842Y-7149283D01*
X-13769850Y-7149272D01*
X-13922950Y-6982963D01*
X-13922955Y-6982959D01*
X-14101352Y-6844106D01*
X-14300167Y-6736512D01*
X-14300172Y-6736510D01*
X-14513982Y-6663109D01*
X-14692370Y-6633341D01*
X-14736967Y-6625900D01*
X-14963033Y-6625900D01*
X-15018778Y-6635202D01*
X-15186017Y-6663109D01*
X-15399827Y-6736510D01*
X-15399832Y-6736512D01*
X-15480700Y-6780276D01*
X-15598649Y-6844107D01*
X-15777046Y-6982960D01*
X-15777048Y-6982962D01*
X-15777049Y-6982963D01*
X-15930149Y-7149272D01*
X-15930157Y-7149283D01*
X-16016192Y-7280968D01*
X-16069338Y-7326325D01*
X-16138570Y-7335748D01*
X-16201905Y-7306246D01*
X-16223808Y-7280968D01*
X-16309842Y-7149283D01*
X-16309850Y-7149272D01*
X-16462950Y-6982963D01*
X-16462955Y-6982959D01*
X-16641352Y-6844106D01*
X-16840167Y-6736512D01*
X-16840172Y-6736510D01*
X-17053982Y-6663109D01*
X-17232370Y-6633341D01*
X-17276967Y-6625900D01*
X-17503033Y-6625900D01*
X-17558778Y-6635202D01*
X-17726017Y-6663109D01*
X-17939827Y-6736510D01*
X-17939832Y-6736512D01*
X-18020700Y-6780276D01*
X-18138649Y-6844107D01*
X-18317046Y-6982960D01*
X-18317048Y-6982962D01*
X-18317049Y-6982963D01*
X-18470149Y-7149272D01*
X-18470157Y-7149283D01*
X-18556192Y-7280968D01*
X-18609338Y-7326325D01*
X-18678570Y-7335748D01*
X-18741905Y-7306246D01*
X-18763808Y-7280968D01*
X-18849842Y-7149283D01*
X-18849850Y-7149272D01*
X-19002950Y-6982963D01*
X-19002955Y-6982959D01*
X-19181352Y-6844106D01*
X-19380167Y-6736512D01*
X-19380172Y-6736510D01*
X-19593982Y-6663109D01*
X-19772370Y-6633341D01*
X-19816967Y-6625900D01*
X-20043033Y-6625900D01*
X-20098778Y-6635202D01*
X-20266017Y-6663109D01*
X-20479827Y-6736510D01*
X-20479832Y-6736512D01*
X-20560700Y-6780276D01*
X-20678649Y-6844107D01*
X-20857046Y-6982960D01*
X-20857048Y-6982962D01*
X-20857049Y-6982963D01*
X-21010149Y-7149272D01*
X-21010157Y-7149283D01*
X-21082916Y-7260649D01*
X-21133802Y-7338535D01*
X-21224611Y-7545559D01*
X-21280107Y-7764707D01*
X-21285287Y-7827226D01*
X-21310439Y-7892408D01*
X-21366840Y-7933647D01*
X-21436584Y-7937847D01*
X-21497526Y-7903673D01*
X-21530318Y-7841977D01*
X-21530480Y-7841177D01*
X-21556025Y-7712754D01*
X-21556027Y-7712748D01*
X-21627676Y-7539771D01*
X-21627681Y-7539762D01*
X-21731697Y-7384092D01*
X-21731700Y-7384088D01*
X-21864088Y-7251700D01*
X-21864092Y-7251697D01*
X-22019762Y-7147681D01*
X-22019771Y-7147676D01*
X-22192748Y-7076027D01*
X-22192756Y-7076025D01*
X-22376379Y-7039500D01*
X-22376384Y-7039500D01*
X-22563616Y-7039500D01*
X-22563620Y-7039500D01*
X-22747243Y-7076025D01*
X-22747251Y-7076027D01*
X-22920228Y-7147676D01*
X-22920237Y-7147681D01*
X-23075907Y-7251697D01*
X-23075911Y-7251700D01*
X-23208299Y-7384088D01*
X-23208302Y-7384092D01*
X-23312318Y-7539762D01*
X-23312321Y-7539768D01*
X-23312322Y-7539769D01*
X-23383973Y-7712749D01*
X-23420500Y-7896384D01*
X-24499500Y-7896384D01*
X-24499500Y154467D01*
X-17250500Y154467D01*
X-17250500Y-154467D01*
X-17250499Y-154471D01*
X-17218464Y-438800D01*
X-17215911Y-461452D01*
X-17147168Y-762636D01*
X-17045135Y-1054229D01*
X-16911095Y-1332565D01*
X-16746735Y-1594143D01*
X-16554120Y-1835674D01*
X-16335674Y-2054120D01*
X-16094143Y-2246735D01*
X-15832565Y-2411095D01*
X-15554229Y-2545135D01*
X-15262636Y-2647168D01*
X-14961452Y-2715911D01*
X-14961442Y-2715912D01*
X-14961437Y-2715913D01*
X-14811356Y-2732822D01*
X-14654469Y-2750499D01*
X-14654468Y-2750500D01*
X-14654465Y-2750500D01*
X-14345532Y-2750500D01*
X-14345529Y-2750499D01*
X-14243206Y-2738970D01*
X-14038562Y-2715913D01*
X-14038554Y-2715911D01*
X-14038548Y-2715911D01*
X-13737364Y-2647168D01*
X-13737352Y-2647164D01*
X-13445777Y-2545137D01*
X-13445778Y-2545137D01*
X-13445771Y-2545135D01*
X-13196845Y-2425258D01*
X2059500Y-2425258D01*
X2059500Y-2654741D01*
X2072108Y-2750500D01*
X2089452Y-2882238D01*
X2089453Y-2882240D01*
X2148842Y-3103887D01*
X2236650Y-3315876D01*
X2236657Y-3315890D01*
X2351392Y-3514617D01*
X2491081Y-3696661D01*
X2491089Y-3696670D01*
X2653330Y-3858911D01*
X2653338Y-3858918D01*
X2835382Y-3998607D01*
X2835385Y-3998608D01*
X2835388Y-3998611D01*
X3034112Y-4113344D01*
X3034117Y-4113346D01*
X3034123Y-4113349D01*
X3125480Y-4151190D01*
X3246113Y-4201158D01*
X3467762Y-4260548D01*
X3695266Y-4290500D01*
X3695273Y-4290500D01*
X3924727Y-4290500D01*
X3924734Y-4290500D01*
X4152238Y-4260548D01*
X4373887Y-4201158D01*
X4585888Y-4113344D01*
X4784612Y-3998611D01*
X4966661Y-3858919D01*
X4966665Y-3858914D01*
X4966670Y-3858911D01*
X5128911Y-3696670D01*
X5128914Y-3696665D01*
X5128919Y-3696661D01*
X5268611Y-3514612D01*
X5383344Y-3315888D01*
X5471158Y-3103887D01*
X5530548Y-2882238D01*
X5560500Y-2654734D01*
X5560500Y-2425266D01*
X5530548Y-2197762D01*
X5471158Y-1976113D01*
X5383344Y-1764112D01*
X5268611Y-1565388D01*
X5268608Y-1565385D01*
X5268607Y-1565382D01*
X5128918Y-1383338D01*
X5128911Y-1383330D01*
X5058662Y-1313081D01*
X5025177Y-1251758D01*
X5030161Y-1182066D01*
X5072033Y-1126133D01*
X5137497Y-1101716D01*
X5146343Y-1101400D01*
X5166687Y-1101400D01*
X5249695Y-1088252D01*
X5337912Y-1074280D01*
X5502791Y-1020708D01*
X5657260Y-942002D01*
X5797514Y-840101D01*
X5920101Y-717514D01*
X6022002Y-577260D01*
X6100708Y-422791D01*
X6154280Y-257912D01*
X6171831Y-147099D01*
X6181400Y-86687D01*
X6181400Y86687D01*
X6170663Y154471D01*
X11749500Y154471D01*
X11749500Y-154471D01*
X11784086Y-461437D01*
X11784089Y-461455D01*
X11852831Y-762635D01*
X11852835Y-762647D01*
X11954862Y-1054222D01*
X11954868Y-1054236D01*
X12088903Y-1332562D01*
X12088905Y-1332565D01*
X12253265Y-1594143D01*
X12445880Y-1835674D01*
X12664326Y-2054120D01*
X12905857Y-2246735D01*
X13167435Y-2411095D01*
X13445771Y-2545135D01*
X13445777Y-2545137D01*
X13737352Y-2647164D01*
X13737364Y-2647168D01*
X14038548Y-2715911D01*
X14038554Y-2715911D01*
X14038562Y-2715913D01*
X14243206Y-2738970D01*
X14345529Y-2750499D01*
X14345532Y-2750500D01*
X14345535Y-2750500D01*
X14654468Y-2750500D01*
X14654469Y-2750499D01*
X14811356Y-2732822D01*
X14961437Y-2715913D01*
X14961442Y-2715912D01*
X14961452Y-2715911D01*
X15262636Y-2647168D01*
X15554229Y-2545135D01*
X15832565Y-2411095D01*
X16094143Y-2246735D01*
X16335674Y-2054120D01*
X16554120Y-1835674D01*
X16746735Y-1594143D01*
X16911095Y-1332565D01*
X17045135Y-1054229D01*
X17147168Y-762636D01*
X17215911Y-461452D01*
X17218464Y-438800D01*
X17250499Y-154471D01*
X17250500Y-154467D01*
X17250500Y154467D01*
X17250499Y154471D01*
X17215913Y461437D01*
X17215910Y461455D01*
X17189478Y577260D01*
X17147168Y762636D01*
X17045135Y1054229D01*
X16911095Y1332565D01*
X16746735Y1594143D01*
X16554120Y1835674D01*
X16335674Y2054120D01*
X16094143Y2246735D01*
X15832565Y2411095D01*
X15554229Y2545135D01*
X15262636Y2647168D01*
X14961452Y2715911D01*
X14961442Y2715912D01*
X14961437Y2715913D01*
X14811356Y2732822D01*
X14654468Y2750499D01*
X14654467Y2750500D01*
X14654465Y2750500D01*
X14345535Y2750500D01*
X14345533Y2750500D01*
X14345530Y2750499D01*
X14243206Y2738970D01*
X14038562Y2715913D01*
X14038554Y2715911D01*
X14038548Y2715911D01*
X14038544Y2715910D01*
X13737364Y2647168D01*
X13737352Y2647164D01*
X13542968Y2579146D01*
X13445771Y2545135D01*
X13167435Y2411095D01*
X12905857Y2246735D01*
X12664326Y2054120D01*
X12445880Y1835674D01*
X12253265Y1594143D01*
X12183436Y1483011D01*
X12088903Y1332562D01*
X11954868Y1054236D01*
X11954862Y1054222D01*
X11852835Y762647D01*
X11852831Y762635D01*
X11784089Y461455D01*
X11784086Y461437D01*
X11749500Y154471D01*
X6170663Y154471D01*
X6168252Y169695D01*
X6154280Y257912D01*
X6100708Y422791D01*
X6022002Y577260D01*
X5920101Y717514D01*
X5797514Y840101D01*
X5657260Y942002D01*
X5502791Y1020708D01*
X5337912Y1074280D01*
X5249695Y1088252D01*
X5166687Y1101400D01*
X5166682Y1101400D01*
X4993318Y1101400D01*
X4993313Y1101400D01*
X4901391Y1086840D01*
X4822088Y1074280D01*
X4739648Y1047494D01*
X4657211Y1020709D01*
X4657208Y1020708D01*
X4606350Y994794D01*
X4502740Y942002D01*
X4362486Y840101D01*
X4239899Y717514D01*
X4137998Y577260D01*
X4059291Y422791D01*
X4059290Y422788D01*
X4005720Y257913D01*
X3978600Y86687D01*
X3978600Y-86687D01*
X4005720Y-257913D01*
X4059290Y-422788D01*
X4059291Y-422791D01*
X4137998Y-577260D01*
X4161420Y-609497D01*
X4184900Y-675303D01*
X4169075Y-743357D01*
X4118970Y-792052D01*
X4050492Y-805928D01*
X4044917Y-805322D01*
X3924744Y-789501D01*
X3924739Y-789500D01*
X3924734Y-789500D01*
X3695266Y-789500D01*
X3695258Y-789500D01*
X3478715Y-818009D01*
X3467762Y-819452D01*
X3390709Y-840098D01*
X3246112Y-878842D01*
X3034123Y-966650D01*
X3034109Y-966657D01*
X2835382Y-1081392D01*
X2653338Y-1221081D01*
X2491081Y-1383338D01*
X2351392Y-1565382D01*
X2236657Y-1764109D01*
X2236650Y-1764123D01*
X2148842Y-1976112D01*
X2089453Y-2197759D01*
X2089451Y-2197770D01*
X2059500Y-2425258D01*
X-13196845Y-2425258D01*
X-13167435Y-2411095D01*
X-12905857Y-2246735D01*
X-12664326Y-2054120D01*
X-12445880Y-1835674D01*
X-12253265Y-1594143D01*
X-12088905Y-1332565D01*
X-12088903Y-1332562D01*
X-11954868Y-1054236D01*
X-11954862Y-1054222D01*
X-11852835Y-762647D01*
X-11852831Y-762635D01*
X-11784089Y-461455D01*
X-11784086Y-461437D01*
X-11749500Y-154471D01*
X-11749500Y86687D01*
X-6181400Y86687D01*
X-6181400Y-86687D01*
X-6171831Y-147099D01*
X-6154280Y-257912D01*
X-6100708Y-422791D01*
X-6022002Y-577260D01*
X-5920101Y-717514D01*
X-5797514Y-840101D01*
X-5657260Y-942002D01*
X-5502791Y-1020708D01*
X-5337912Y-1074280D01*
X-5249695Y-1088252D01*
X-5166687Y-1101400D01*
X-5166682Y-1101400D01*
X-4993313Y-1101400D01*
X-4901391Y-1086840D01*
X-4822088Y-1074280D01*
X-4739648Y-1047494D01*
X-4657211Y-1020709D01*
X-4657208Y-1020708D01*
X-4551126Y-966656D01*
X-4502740Y-942002D01*
X-4362486Y-840101D01*
X-4239899Y-717514D01*
X-4137998Y-577260D01*
X-4078992Y-461455D01*
X-4059291Y-422791D01*
X-4059290Y-422788D01*
X-4005720Y-257913D01*
X-3978600Y-86687D01*
X-3978600Y86687D01*
X-3988170Y147106D01*
X-2244400Y147106D01*
X-2244400Y-147106D01*
X-2205998Y-438800D01*
X-2129850Y-722987D01*
X-2113427Y-762635D01*
X-2028920Y-966657D01*
X-2017261Y-994803D01*
X-1870155Y-1249597D01*
X-1691050Y-1483011D01*
X-1483011Y-1691050D01*
X-1249597Y-1870155D01*
X-994803Y-2017261D01*
X-994797Y-2017263D01*
X-994794Y-2017265D01*
X-905817Y-2054120D01*
X-722987Y-2129850D01*
X-438800Y-2205998D01*
X-147106Y-2244400D01*
X-147099Y-2244400D01*
X147099Y-2244400D01*
X147106Y-2244400D01*
X438800Y-2205998D01*
X722987Y-2129850D01*
X905817Y-2054120D01*
X994794Y-2017265D01*
X994797Y-2017263D01*
X994803Y-2017261D01*
X1249597Y-1870155D01*
X1483011Y-1691050D01*
X1691050Y-1483011D01*
X1870155Y-1249597D01*
X2017261Y-994803D01*
X2028920Y-966657D01*
X2113427Y-762635D01*
X2129850Y-722987D01*
X2205998Y-438800D01*
X2244400Y-147106D01*
X2244400Y147106D01*
X2205998Y438800D01*
X2129850Y722987D01*
X2017261Y994803D01*
X1870155Y1249597D01*
X1691050Y1483011D01*
X1483011Y1691050D01*
X1249597Y1870155D01*
X994803Y2017261D01*
X994797Y2017263D01*
X994794Y2017265D01*
X722994Y2129847D01*
X722987Y2129850D01*
X438800Y2205998D01*
X147106Y2244400D01*
X-147106Y2244400D01*
X-438800Y2205998D01*
X-722987Y2129850D01*
X-722994Y2129847D01*
X-994794Y2017265D01*
X-994797Y2017263D01*
X-994803Y2017261D01*
X-1249597Y1870155D01*
X-1483011Y1691050D01*
X-1691050Y1483011D01*
X-1870155Y1249597D01*
X-2017261Y994803D01*
X-2129850Y722987D01*
X-2205998Y438800D01*
X-2244400Y147106D01*
X-3988170Y147106D01*
X-4005720Y257913D01*
X-4059290Y422788D01*
X-4059291Y422791D01*
X-4137998Y577260D01*
X-4239899Y717514D01*
X-4362486Y840101D01*
X-4502740Y942002D01*
X-4606350Y994794D01*
X-4657208Y1020708D01*
X-4657211Y1020709D01*
X-4739648Y1047494D01*
X-4822088Y1074280D01*
X-4901391Y1086840D01*
X-4993313Y1101400D01*
X-4993318Y1101400D01*
X-5166682Y1101400D01*
X-5166687Y1101400D01*
X-5249695Y1088252D01*
X-5337912Y1074280D01*
X-5502791Y1020708D01*
X-5657260Y942002D01*
X-5797514Y840101D01*
X-5920101Y717514D01*
X-6022002Y577260D01*
X-6100708Y422791D01*
X-6154280Y257912D01*
X-6168252Y169695D01*
X-6181400Y86687D01*
X-11749500Y86687D01*
X-11749500Y154471D01*
X-11784086Y461437D01*
X-11784089Y461455D01*
X-11852831Y762635D01*
X-11852835Y762647D01*
X-11954862Y1054222D01*
X-11954868Y1054236D01*
X-12088903Y1332562D01*
X-12183436Y1483011D01*
X-12253265Y1594143D01*
X-12445880Y1835674D01*
X-12664326Y2054120D01*
X-12905857Y2246735D01*
X-13167435Y2411095D01*
X-13445771Y2545135D01*
X-13542968Y2579146D01*
X-13737352Y2647164D01*
X-13737364Y2647168D01*
X-14038544Y2715910D01*
X-14038548Y2715911D01*
X-14038554Y2715911D01*
X-14038562Y2715913D01*
X-14243206Y2738970D01*
X-14345530Y2750499D01*
X-14345533Y2750500D01*
X-14345535Y2750500D01*
X-14654465Y2750500D01*
X-14654467Y2750500D01*
X-14654468Y2750499D01*
X-14811356Y2732822D01*
X-14961437Y2715913D01*
X-14961442Y2715912D01*
X-14961452Y2715911D01*
X-15262636Y2647168D01*
X-15554229Y2545135D01*
X-15832565Y2411095D01*
X-16094143Y2246735D01*
X-16335674Y2054120D01*
X-16554120Y1835674D01*
X-16746735Y1594143D01*
X-16911095Y1332565D01*
X-17045135Y1054229D01*
X-17147168Y762636D01*
X-17189478Y577260D01*
X-17215910Y461455D01*
X-17215913Y461437D01*
X-17250499Y154471D01*
X-17250500Y154467D01*
X-24499500Y154467D01*
X-24499500Y7343616D01*
X-23420500Y7343616D01*
X-23420500Y7156384D01*
X-23383973Y6972749D01*
X-23328554Y6838956D01*
X-23312323Y6799771D01*
X-23312318Y6799762D01*
X-23208302Y6644092D01*
X-23208299Y6644088D01*
X-23075911Y6511700D01*
X-23075907Y6511697D01*
X-22920237Y6407681D01*
X-22920228Y6407676D01*
X-22747251Y6336027D01*
X-22747243Y6336025D01*
X-22563620Y6299500D01*
X-22563616Y6299500D01*
X-22376379Y6299500D01*
X-22192756Y6336025D01*
X-22192748Y6336027D01*
X-22019771Y6407676D01*
X-22019762Y6407681D01*
X-21864092Y6511697D01*
X-21864088Y6511700D01*
X-21731700Y6644088D01*
X-21731697Y6644092D01*
X-21627681Y6799762D01*
X-21627676Y6799771D01*
X-21556027Y6972748D01*
X-21556025Y6972754D01*
X-21530480Y7101177D01*
X-21498095Y7163088D01*
X-21437379Y7197662D01*
X-21367609Y7193921D01*
X-21310938Y7153055D01*
X-21285356Y7088037D01*
X-21285317Y7087585D01*
X-21280107Y7024707D01*
X-21224611Y6805559D01*
X-21153785Y6644092D01*
X-21133801Y6598533D01*
X-21010157Y6409283D01*
X-21010149Y6409272D01*
X-20867027Y6253802D01*
X-20857046Y6242960D01*
X-20678649Y6104107D01*
X-20678647Y6104106D01*
X-20479832Y5996512D01*
X-20479827Y5996510D01*
X-20266017Y5923109D01*
X-20128003Y5900079D01*
X-20043033Y5885900D01*
X-20043032Y5885900D01*
X-19816968Y5885900D01*
X-19816967Y5885900D01*
X-19744144Y5898052D01*
X-19593982Y5923109D01*
X-19380172Y5996510D01*
X-19380167Y5996512D01*
X-19181352Y6104106D01*
X-19002955Y6242959D01*
X-19002950Y6242963D01*
X-18849850Y6409272D01*
X-18849842Y6409283D01*
X-18763808Y6540968D01*
X-18710662Y6586325D01*
X-18641430Y6595748D01*
X-18578095Y6566246D01*
X-18556192Y6540968D01*
X-18470157Y6409283D01*
X-18470149Y6409272D01*
X-18327027Y6253802D01*
X-18317046Y6242960D01*
X-18138649Y6104107D01*
X-18138647Y6104106D01*
X-17939832Y5996512D01*
X-17939827Y5996510D01*
X-17726017Y5923109D01*
X-17588003Y5900079D01*
X-17503033Y5885900D01*
X-17503032Y5885900D01*
X-17276968Y5885900D01*
X-17276967Y5885900D01*
X-17204144Y5898052D01*
X-17053982Y5923109D01*
X-16840172Y5996510D01*
X-16840167Y5996512D01*
X-16641352Y6104106D01*
X-16462955Y6242959D01*
X-16462950Y6242963D01*
X-16309850Y6409272D01*
X-16309842Y6409283D01*
X-16223808Y6540968D01*
X-16170662Y6586325D01*
X-16101430Y6595748D01*
X-16038095Y6566246D01*
X-16016192Y6540968D01*
X-15930157Y6409283D01*
X-15930149Y6409272D01*
X-15787027Y6253802D01*
X-15777046Y6242960D01*
X-15598649Y6104107D01*
X-15598647Y6104106D01*
X-15399832Y5996512D01*
X-15399827Y5996510D01*
X-15186017Y5923109D01*
X-15048003Y5900079D01*
X-14963033Y5885900D01*
X-14963032Y5885900D01*
X-14736968Y5885900D01*
X-14736967Y5885900D01*
X-14664144Y5898052D01*
X-14513982Y5923109D01*
X-14300172Y5996510D01*
X-14300167Y5996512D01*
X-14101352Y6104106D01*
X-13922955Y6242959D01*
X-13922950Y6242963D01*
X-13769850Y6409272D01*
X-13769842Y6409283D01*
X-13683808Y6540968D01*
X-13630662Y6586325D01*
X-13561430Y6595748D01*
X-13498095Y6566246D01*
X-13476192Y6540968D01*
X-13390157Y6409283D01*
X-13390149Y6409272D01*
X-13247027Y6253802D01*
X-13237046Y6242960D01*
X-13058649Y6104107D01*
X-13058647Y6104106D01*
X-12859832Y5996512D01*
X-12859827Y5996510D01*
X-12646017Y5923109D01*
X-12508003Y5900079D01*
X-12423033Y5885900D01*
X-12423032Y5885900D01*
X-12196968Y5885900D01*
X-12196967Y5885900D01*
X-12111997Y5900079D01*
X-11973984Y5923109D01*
X-11941747Y5934175D01*
X-11871948Y5937322D01*
X-11813808Y5904573D01*
X-11547590Y5638355D01*
X-11547588Y5638352D01*
X-11428717Y5519481D01*
X-11428714Y5519479D01*
X-11341904Y5469360D01*
X-11341904Y5469359D01*
X-11341900Y5469358D01*
X-11291785Y5440423D01*
X-11139057Y5399499D01*
X-11139054Y5399499D01*
X-10973347Y5399499D01*
X-10973331Y5399500D01*
X-9461090Y5399500D01*
X-9461074Y5399499D01*
X-9453478Y5399499D01*
X-9295367Y5399499D01*
X-9295364Y5399499D01*
X-9188008Y5428265D01*
X-9142631Y5440424D01*
X-9142630Y5440425D01*
X-9092517Y5469359D01*
X-9092516Y5469360D01*
X-9049110Y5494420D01*
X-9005706Y5519479D01*
X-9005703Y5519481D01*
X-8893899Y5631286D01*
X-8304867Y6220317D01*
X-8243544Y6253802D01*
X-8173852Y6248818D01*
X-8141024Y6230489D01*
X-7978649Y6104107D01*
X-7978647Y6104106D01*
X-7779832Y5996512D01*
X-7779827Y5996510D01*
X-7566017Y5923109D01*
X-7428003Y5900079D01*
X-7343033Y5885900D01*
X-7343032Y5885900D01*
X-7116968Y5885900D01*
X-7116967Y5885900D01*
X-7044144Y5898052D01*
X-6893982Y5923109D01*
X-6680172Y5996510D01*
X-6680167Y5996512D01*
X-6481352Y6104106D01*
X-6302955Y6242959D01*
X-6302950Y6242963D01*
X-6149850Y6409272D01*
X-6149842Y6409283D01*
X-6063808Y6540968D01*
X-6010662Y6586325D01*
X-5941430Y6595748D01*
X-5878095Y6566246D01*
X-5856192Y6540968D01*
X-5770157Y6409283D01*
X-5770149Y6409272D01*
X-5627027Y6253802D01*
X-5617046Y6242960D01*
X-5438649Y6104107D01*
X-5438647Y6104106D01*
X-5239832Y5996512D01*
X-5239827Y5996510D01*
X-5026017Y5923109D01*
X-4888003Y5900079D01*
X-4803033Y5885900D01*
X-4803032Y5885900D01*
X-4576968Y5885900D01*
X-4576967Y5885900D01*
X-4504144Y5898052D01*
X-4353982Y5923109D01*
X-4140172Y5996510D01*
X-4140167Y5996512D01*
X-3941352Y6104106D01*
X-3762955Y6242959D01*
X-3762950Y6242963D01*
X-3609850Y6409272D01*
X-3609842Y6409283D01*
X-3523808Y6540968D01*
X-3470662Y6586325D01*
X-3401430Y6595748D01*
X-3338095Y6566246D01*
X-3316192Y6540968D01*
X-3230157Y6409283D01*
X-3230149Y6409272D01*
X-3087027Y6253802D01*
X-3077046Y6242960D01*
X-2898649Y6104107D01*
X-2734894Y6015487D01*
X-2685305Y5966268D01*
X-2670197Y5898052D01*
X-2694367Y5832496D01*
X-2750143Y5790415D01*
X-2813707Y5785628D01*
X-2813825Y5784589D01*
X-2819310Y5785207D01*
X-2819816Y5785169D01*
X-2820693Y5785362D01*
X-2820744Y5785367D01*
X-2820745Y5785368D01*
X-2865539Y5790415D01*
X-2999996Y5805565D01*
X-3000004Y5805565D01*
X-3179249Y5785369D01*
X-3179252Y5785368D01*
X-3179255Y5785368D01*
X-3349522Y5725789D01*
X-3502262Y5629816D01*
X-3629816Y5502262D01*
X-3725789Y5349522D01*
X-3785368Y5179255D01*
X-3785368Y5179254D01*
X-3785369Y5179249D01*
X-3805565Y5000003D01*
X-3805565Y4999996D01*
X-3785369Y4820750D01*
X-3785368Y4820745D01*
X-3725788Y4650476D01*
X-3629815Y4497737D01*
X-3502262Y4370184D01*
X-3349523Y4274211D01*
X-3179254Y4214631D01*
X-3179249Y4214630D01*
X-3000004Y4194435D01*
X-3000000Y4194435D01*
X-2999996Y4194435D01*
X-2820750Y4214630D01*
X-2820745Y4214631D01*
X-2650476Y4274211D01*
X-2497736Y4370185D01*
X-2494903Y4372445D01*
X-2492724Y4373334D01*
X-2491842Y4373889D01*
X-2491744Y4373734D01*
X-2430217Y4398855D01*
X-2417588Y4399500D01*
X417588Y4399500D01*
X484627Y4379815D01*
X494903Y4372445D01*
X497736Y4370185D01*
X650476Y4274211D01*
X820745Y4214631D01*
X820750Y4214630D01*
X999996Y4194435D01*
X1000000Y4194435D01*
X1000004Y4194435D01*
X1179249Y4214630D01*
X1179254Y4214631D01*
X1349523Y4274211D01*
X1502262Y4370184D01*
X1629815Y4497737D01*
X1725788Y4650476D01*
X1785368Y4820745D01*
X1785369Y4820750D01*
X1805565Y4999996D01*
X1805565Y5000003D01*
X1785369Y5179249D01*
X1785368Y5179254D01*
X1785368Y5179255D01*
X1725789Y5349522D01*
X1629816Y5502262D01*
X1502262Y5629816D01*
X1349522Y5725789D01*
X1179255Y5785368D01*
X1179253Y5785368D01*
X1179250Y5785369D01*
X1105500Y5793678D01*
X1050762Y5799845D01*
X986350Y5826911D01*
X946795Y5884505D01*
X944656Y5954342D01*
X980614Y6014249D01*
X1005629Y6032120D01*
X1138647Y6104106D01*
X1138649Y6104107D01*
X1317046Y6242960D01*
X1327027Y6253802D01*
X1470149Y6409272D01*
X1470157Y6409283D01*
X1556192Y6540968D01*
X1609338Y6586325D01*
X1678570Y6595748D01*
X1741905Y6566246D01*
X1763808Y6540968D01*
X1849842Y6409283D01*
X1849850Y6409272D01*
X2002950Y6242963D01*
X2002955Y6242959D01*
X2181352Y6104106D01*
X2380167Y5996512D01*
X2380172Y5996510D01*
X2593982Y5923109D01*
X2744144Y5898052D01*
X2816967Y5885900D01*
X2816968Y5885900D01*
X3043032Y5885900D01*
X3043033Y5885900D01*
X3128003Y5900079D01*
X3266017Y5923109D01*
X3479827Y5996510D01*
X3479832Y5996512D01*
X3678647Y6104106D01*
X3678649Y6104107D01*
X3857046Y6242960D01*
X3867027Y6253802D01*
X4010149Y6409272D01*
X4010157Y6409283D01*
X4096192Y6540968D01*
X4149338Y6586325D01*
X4218570Y6595748D01*
X4281905Y6566246D01*
X4303808Y6540968D01*
X4389842Y6409283D01*
X4389850Y6409272D01*
X4542950Y6242963D01*
X4542955Y6242959D01*
X4721352Y6104106D01*
X4920167Y5996512D01*
X4920172Y5996510D01*
X5133982Y5923109D01*
X5284144Y5898052D01*
X5356967Y5885900D01*
X5356968Y5885900D01*
X5583032Y5885900D01*
X5583033Y5885900D01*
X5668003Y5900079D01*
X5806017Y5923109D01*
X6019827Y5996510D01*
X6019832Y5996512D01*
X6218647Y6104106D01*
X6218649Y6104107D01*
X6397046Y6242960D01*
X6407027Y6253802D01*
X6550149Y6409272D01*
X6550157Y6409283D01*
X6636192Y6540968D01*
X6689338Y6586325D01*
X6758570Y6595748D01*
X6821905Y6566246D01*
X6843808Y6540968D01*
X6929842Y6409283D01*
X6929850Y6409272D01*
X7082950Y6242963D01*
X7082955Y6242959D01*
X7261352Y6104106D01*
X7460167Y5996512D01*
X7460172Y5996510D01*
X7673982Y5923109D01*
X7824144Y5898052D01*
X7896967Y5885900D01*
X7896968Y5885900D01*
X8123032Y5885900D01*
X8123033Y5885900D01*
X8208003Y5900079D01*
X8346017Y5923109D01*
X8559827Y5996510D01*
X8559832Y5996512D01*
X8758647Y6104106D01*
X8758649Y6104107D01*
X8937046Y6242960D01*
X8947027Y6253802D01*
X9090149Y6409272D01*
X9090157Y6409283D01*
X9176192Y6540968D01*
X9229338Y6586325D01*
X9298570Y6595748D01*
X9361905Y6566246D01*
X9383808Y6540968D01*
X9469842Y6409283D01*
X9469850Y6409272D01*
X9622950Y6242963D01*
X9622955Y6242959D01*
X9801352Y6104106D01*
X10000167Y5996512D01*
X10000172Y5996510D01*
X10213982Y5923109D01*
X10364144Y5898052D01*
X10436967Y5885900D01*
X10436968Y5885900D01*
X10663032Y5885900D01*
X10663033Y5885900D01*
X10748003Y5900079D01*
X10886017Y5923109D01*
X11099827Y5996510D01*
X11099832Y5996512D01*
X11298647Y6104106D01*
X11298649Y6104107D01*
X11477046Y6242960D01*
X11487027Y6253802D01*
X11630149Y6409272D01*
X11630157Y6409283D01*
X11753801Y6598533D01*
X11773785Y6644092D01*
X11844611Y6805559D01*
X11900107Y7024707D01*
X11906510Y7101977D01*
X11918775Y7249993D01*
X11918775Y7250006D01*
X14261225Y7250006D01*
X14261225Y7249993D01*
X14279892Y7024710D01*
X14335388Y6805560D01*
X14426198Y6598533D01*
X14549842Y6409283D01*
X14549850Y6409272D01*
X14702950Y6242963D01*
X14702955Y6242959D01*
X14881352Y6104106D01*
X15080167Y5996512D01*
X15080172Y5996510D01*
X15293982Y5923109D01*
X15444144Y5898052D01*
X15516967Y5885900D01*
X15516968Y5885900D01*
X15743032Y5885900D01*
X15743033Y5885900D01*
X15828003Y5900079D01*
X15966017Y5923109D01*
X16179827Y5996510D01*
X16179832Y5996512D01*
X16378647Y6104106D01*
X16378649Y6104107D01*
X16557046Y6242960D01*
X16567027Y6253802D01*
X16710149Y6409272D01*
X16710157Y6409283D01*
X16796192Y6540968D01*
X16849338Y6586325D01*
X16918570Y6595748D01*
X16981905Y6566246D01*
X17003808Y6540968D01*
X17089842Y6409283D01*
X17089850Y6409272D01*
X17242950Y6242963D01*
X17242955Y6242959D01*
X17421352Y6104106D01*
X17620167Y5996512D01*
X17620172Y5996510D01*
X17833982Y5923109D01*
X17984144Y5898052D01*
X18056967Y5885900D01*
X18056968Y5885900D01*
X18283032Y5885900D01*
X18283033Y5885900D01*
X18368003Y5900079D01*
X18506017Y5923109D01*
X18719827Y5996510D01*
X18719832Y5996512D01*
X18918647Y6104106D01*
X18918649Y6104107D01*
X19097046Y6242960D01*
X19107027Y6253802D01*
X19250149Y6409272D01*
X19250157Y6409283D01*
X19336192Y6540968D01*
X19389338Y6586325D01*
X19458570Y6595748D01*
X19521905Y6566246D01*
X19543808Y6540968D01*
X19629842Y6409283D01*
X19629850Y6409272D01*
X19782950Y6242963D01*
X19782955Y6242959D01*
X19961352Y6104106D01*
X20160167Y5996512D01*
X20160172Y5996510D01*
X20373982Y5923109D01*
X20524144Y5898052D01*
X20596967Y5885900D01*
X20596968Y5885900D01*
X20823032Y5885900D01*
X20823033Y5885900D01*
X20908003Y5900079D01*
X21046017Y5923109D01*
X21259827Y5996510D01*
X21259832Y5996512D01*
X21458647Y6104106D01*
X21458649Y6104107D01*
X21637046Y6242960D01*
X21647027Y6253802D01*
X21790149Y6409272D01*
X21790157Y6409283D01*
X21913801Y6598533D01*
X21933785Y6644092D01*
X22004611Y6805559D01*
X22060107Y7024707D01*
X22065287Y7087226D01*
X22090439Y7152408D01*
X22146840Y7193647D01*
X22216584Y7197847D01*
X22277526Y7163673D01*
X22310318Y7101977D01*
X22310480Y7101177D01*
X22336025Y6972754D01*
X22336027Y6972748D01*
X22407676Y6799771D01*
X22407681Y6799762D01*
X22511697Y6644092D01*
X22511700Y6644088D01*
X22644088Y6511700D01*
X22644092Y6511697D01*
X22799762Y6407681D01*
X22799771Y6407676D01*
X22972748Y6336027D01*
X22972756Y6336025D01*
X23156379Y6299500D01*
X23156384Y6299500D01*
X23343620Y6299500D01*
X23527243Y6336025D01*
X23527251Y6336027D01*
X23700228Y6407676D01*
X23700237Y6407681D01*
X23855907Y6511697D01*
X23855911Y6511700D01*
X23988299Y6644088D01*
X23988302Y6644092D01*
X24092318Y6799762D01*
X24092323Y6799771D01*
X24108554Y6838956D01*
X24163973Y6972749D01*
X24200500Y7156384D01*
X24200500Y7343616D01*
X24163973Y7527251D01*
X24092322Y7700231D01*
X23988302Y7855908D01*
X23855908Y7988302D01*
X23700231Y8092322D01*
X23527251Y8163973D01*
X23343618Y8200499D01*
X23343617Y8200500D01*
X23343616Y8200500D01*
X23156384Y8200500D01*
X23156383Y8200500D01*
X23156379Y8200499D01*
X22972749Y8163973D01*
X22838956Y8108554D01*
X22799771Y8092323D01*
X22799762Y8092318D01*
X22644092Y7988302D01*
X22644088Y7988299D01*
X22511700Y7855911D01*
X22511697Y7855907D01*
X22407681Y7700237D01*
X22407676Y7700228D01*
X22336027Y7527251D01*
X22336025Y7527245D01*
X22310480Y7398822D01*
X22278095Y7336911D01*
X22217379Y7302337D01*
X22147610Y7306077D01*
X22090938Y7346944D01*
X22065356Y7411962D01*
X22065319Y7412386D01*
X22060107Y7475293D01*
X22004611Y7694441D01*
X21913802Y7901465D01*
X21790156Y8090719D01*
X21788680Y8092322D01*
X21736832Y8148643D01*
X21637046Y8257040D01*
X21458649Y8395893D01*
X21259831Y8503488D01*
X21046014Y8576891D01*
X20823033Y8614100D01*
X20596967Y8614100D01*
X20373986Y8576891D01*
X20373984Y8576890D01*
X20373982Y8576890D01*
X20268541Y8540692D01*
X20160169Y8503488D01*
X19961351Y8395893D01*
X19782954Y8257040D01*
X19782951Y8257036D01*
X19782950Y8257036D01*
X19629850Y8090727D01*
X19629849Y8090724D01*
X19629844Y8090719D01*
X19543806Y7959028D01*
X19490662Y7913675D01*
X19421431Y7904251D01*
X19358095Y7933753D01*
X19336195Y7959025D01*
X19250156Y8090719D01*
X19248680Y8092322D01*
X19196832Y8148643D01*
X19097046Y8257040D01*
X18918649Y8395893D01*
X18719831Y8503488D01*
X18506014Y8576891D01*
X18283033Y8614100D01*
X18056967Y8614100D01*
X17833986Y8576891D01*
X17833984Y8576890D01*
X17833982Y8576890D01*
X17728541Y8540692D01*
X17620169Y8503488D01*
X17421351Y8395893D01*
X17242954Y8257040D01*
X17242951Y8257036D01*
X17242950Y8257036D01*
X17089850Y8090727D01*
X17089849Y8090724D01*
X17089844Y8090719D01*
X17003806Y7959028D01*
X16950662Y7913675D01*
X16881431Y7904251D01*
X16818095Y7933753D01*
X16796195Y7959025D01*
X16710156Y8090719D01*
X16708680Y8092322D01*
X16656832Y8148643D01*
X16557046Y8257040D01*
X16378649Y8395893D01*
X16179831Y8503488D01*
X15966014Y8576891D01*
X15743033Y8614100D01*
X15516967Y8614100D01*
X15293986Y8576891D01*
X15293984Y8576890D01*
X15293982Y8576890D01*
X15188541Y8540692D01*
X15080169Y8503488D01*
X14881351Y8395893D01*
X14702954Y8257040D01*
X14702951Y8257036D01*
X14702950Y8257036D01*
X14549850Y8090727D01*
X14549842Y8090716D01*
X14426198Y7901466D01*
X14335388Y7694439D01*
X14279892Y7475289D01*
X14261225Y7250006D01*
X11918775Y7250006D01*
X11900107Y7475289D01*
X11900107Y7475293D01*
X11844611Y7694441D01*
X11753802Y7901465D01*
X11630156Y8090719D01*
X11628680Y8092322D01*
X11576832Y8148643D01*
X11477046Y8257040D01*
X11298649Y8395893D01*
X11099831Y8503488D01*
X10886014Y8576891D01*
X10663033Y8614100D01*
X10436967Y8614100D01*
X10213986Y8576891D01*
X10213984Y8576890D01*
X10213982Y8576890D01*
X10108541Y8540692D01*
X10000169Y8503488D01*
X9801351Y8395893D01*
X9622954Y8257040D01*
X9622951Y8257036D01*
X9622950Y8257036D01*
X9469850Y8090727D01*
X9469849Y8090724D01*
X9469844Y8090719D01*
X9383806Y7959028D01*
X9330662Y7913675D01*
X9261431Y7904251D01*
X9198095Y7933753D01*
X9176195Y7959025D01*
X9090156Y8090719D01*
X9088680Y8092322D01*
X9036832Y8148643D01*
X8937046Y8257040D01*
X8758649Y8395893D01*
X8559831Y8503488D01*
X8346014Y8576891D01*
X8123033Y8614100D01*
X7896967Y8614100D01*
X7673986Y8576891D01*
X7641754Y8565825D01*
X7571957Y8562674D01*
X7513811Y8595423D01*
X4386819Y11722416D01*
X4353334Y11783739D01*
X4350500Y11810097D01*
X4350500Y12525500D01*
X4370185Y12592539D01*
X4422989Y12638294D01*
X4474499Y12649500D01*
X4647869Y12649500D01*
X4647876Y12649501D01*
X4707483Y12655908D01*
X4842328Y12706202D01*
X4842335Y12706206D01*
X4957544Y12792452D01*
X4957547Y12792455D01*
X5043793Y12907664D01*
X5043797Y12907671D01*
X5094091Y13042517D01*
X5095124Y13052129D01*
X5100500Y13102127D01*
X5100499Y14897872D01*
X5094091Y14957483D01*
X5043796Y15092331D01*
X4957546Y15207546D01*
X4842331Y15293796D01*
X4707483Y15344091D01*
X4647873Y15350500D01*
X2852128Y15350499D01*
X2803757Y15345299D01*
X2792516Y15344091D01*
X2657671Y15293797D01*
X2657664Y15293793D01*
X2542455Y15207547D01*
X2542452Y15207544D01*
X2456206Y15092335D01*
X2456202Y15092328D01*
X2405908Y14957482D01*
X2400533Y14907483D01*
X2399501Y14897876D01*
X2399500Y14897864D01*
X2399500Y14009096D01*
X2379815Y13942057D01*
X2327011Y13896302D01*
X2257853Y13886358D01*
X2194297Y13915383D01*
X2187819Y13921415D01*
X2016651Y14092583D01*
X1800730Y14308504D01*
X1800728Y14308507D01*
X1790520Y14318714D01*
X1790520Y14318716D01*
X1678716Y14430520D01*
X1591904Y14480639D01*
X1541785Y14509577D01*
X1389057Y14550501D01*
X1230943Y14550501D01*
X1223347Y14550501D01*
X1223331Y14550500D01*
X-2300501Y14550500D01*
X-2367540Y14570185D01*
X-2413295Y14622989D01*
X-2424501Y14674500D01*
X-2424501Y14847876D01*
X-2430908Y14907483D01*
X-2481202Y15042328D01*
X-2481206Y15042335D01*
X-2567452Y15157544D01*
X-2567455Y15157547D01*
X-2682664Y15243793D01*
X-2682671Y15243797D01*
X-2817517Y15294091D01*
X-2817516Y15294091D01*
X-2823925Y15294779D01*
X-2877127Y15300500D01*
X-4672872Y15300499D01*
X-4732483Y15294091D01*
X-4867331Y15243796D01*
X-4982546Y15157546D01*
X-5068796Y15042331D01*
X-5119091Y14907483D01*
X-5125500Y14847873D01*
X-5125499Y13052128D01*
X-5120299Y13003757D01*
X-5119091Y12992516D01*
X-5068797Y12857671D01*
X-5068793Y12857664D01*
X-4982547Y12742455D01*
X-4982544Y12742452D01*
X-4867335Y12656206D01*
X-4867328Y12656202D01*
X-4732482Y12605908D01*
X-4732483Y12605908D01*
X-4672883Y12599501D01*
X-4672881Y12599500D01*
X-4672873Y12599500D01*
X-3549096Y12599500D01*
X-3482057Y12579815D01*
X-3436302Y12527011D01*
X-3426358Y12457853D01*
X-3455383Y12394297D01*
X-3461415Y12387819D01*
X-5048504Y10800730D01*
X-5048507Y10800728D01*
X-5058714Y10790520D01*
X-5058716Y10790520D01*
X-5170520Y10678716D01*
X-5220639Y10591904D01*
X-5249577Y10541785D01*
X-5290501Y10389057D01*
X-5290501Y10389054D01*
X-5290501Y10223348D01*
X-5290500Y10223330D01*
X-5290500Y8549955D01*
X-5310185Y8482916D01*
X-5355482Y8440900D01*
X-5438649Y8395893D01*
X-5617046Y8257040D01*
X-5716832Y8148643D01*
X-5768680Y8092322D01*
X-5770156Y8090719D01*
X-5856193Y7959028D01*
X-5909338Y7913675D01*
X-5978569Y7904251D01*
X-6041905Y7933753D01*
X-6063804Y7959025D01*
X-6149844Y8090719D01*
X-6149849Y8090724D01*
X-6149850Y8090727D01*
X-6302950Y8257036D01*
X-6302951Y8257036D01*
X-6302954Y8257040D01*
X-6481351Y8395893D01*
X-6680169Y8503488D01*
X-6788541Y8540692D01*
X-6893982Y8576890D01*
X-6893984Y8576890D01*
X-6893986Y8576891D01*
X-7116967Y8614100D01*
X-7343033Y8614100D01*
X-7566014Y8576891D01*
X-7566016Y8576890D01*
X-7566017Y8576890D01*
X-7735237Y8518797D01*
X-7805036Y8515647D01*
X-7865457Y8550733D01*
X-7897318Y8612916D01*
X-7899500Y8636078D01*
X-7899500Y14004902D01*
X-7879815Y14071941D01*
X-7863181Y14092583D01*
X-4258530Y17697233D01*
X-4197207Y17730718D01*
X-4138756Y17729327D01*
X-4010413Y17694938D01*
X-4010403Y17694936D01*
X-3775001Y17674341D01*
X-3775000Y17674341D01*
X-3774999Y17674341D01*
X-3539596Y17694936D01*
X-3539586Y17694938D01*
X-3334076Y17750003D01*
X-1805565Y17750003D01*
X-1805565Y17749996D01*
X-1785369Y17570750D01*
X-1785368Y17570745D01*
X-1725788Y17400476D01*
X-1629815Y17247737D01*
X-1502262Y17120184D01*
X-1349523Y17024211D01*
X-1179254Y16964631D01*
X-1179249Y16964630D01*
X-1000004Y16944435D01*
X-1000000Y16944435D01*
X-999996Y16944435D01*
X-820750Y16964630D01*
X-820745Y16964631D01*
X-650476Y17024211D01*
X-497736Y17120185D01*
X-494903Y17122445D01*
X-492724Y17123334D01*
X-491842Y17123889D01*
X-491744Y17123734D01*
X-430217Y17148855D01*
X-417588Y17149500D01*
X-206669Y17149500D01*
X-206653Y17149499D01*
X-199057Y17149499D01*
X-40946Y17149499D01*
X-40943Y17149499D01*
X111785Y17190423D01*
X161900Y17219358D01*
X161904Y17219359D01*
X161904Y17219360D01*
X248714Y17269479D01*
X248717Y17269481D01*
X367588Y17388352D01*
X367590Y17388355D01*
X2185568Y19206333D01*
X2246891Y19239818D01*
X2316583Y19234834D01*
X2372516Y19192962D01*
X2396933Y19127498D01*
X2396777Y19107844D01*
X2394341Y19080000D01*
X2394341Y19079999D01*
X2414936Y18844596D01*
X2414938Y18844586D01*
X2476094Y18616344D01*
X2476098Y18616335D01*
X2575965Y18402169D01*
X2575967Y18402165D01*
X2711501Y18208604D01*
X2711506Y18208597D01*
X2878597Y18041506D01*
X2878604Y18041501D01*
X3072165Y17905967D01*
X3072169Y17905965D01*
X3286335Y17806098D01*
X3286344Y17806094D01*
X3514586Y17744938D01*
X3514596Y17744936D01*
X3749999Y17724341D01*
X3750000Y17724341D01*
X3750001Y17724341D01*
X3985403Y17744936D01*
X3985413Y17744938D01*
X4213655Y17806094D01*
X4213659Y17806096D01*
X4213663Y17806097D01*
X4427830Y17905965D01*
X4427834Y17905967D01*
X4621395Y18041501D01*
X4621402Y18041506D01*
X4788493Y18208597D01*
X4788495Y18208599D01*
X4856265Y18305384D01*
X4924032Y18402165D01*
X4924034Y18402169D01*
X4924035Y18402170D01*
X5023903Y18616337D01*
X5085063Y18844592D01*
X5105659Y19080000D01*
X5085063Y19315408D01*
X5023903Y19543663D01*
X4924035Y19757829D01*
X4788495Y19951401D01*
X4621401Y20118495D01*
X4617412Y20121288D01*
X7149500Y20121288D01*
X7149500Y19878711D01*
X7181161Y19638214D01*
X7243947Y19403895D01*
X7336773Y19179794D01*
X7336777Y19179785D01*
X7458067Y18969706D01*
X7605733Y18777263D01*
X7605739Y18777256D01*
X7777256Y18605739D01*
X7777263Y18605733D01*
X7969706Y18458067D01*
X8179785Y18336777D01*
X8179794Y18336773D01*
X8403895Y18243947D01*
X8638214Y18181161D01*
X8878711Y18149500D01*
X8878712Y18149500D01*
X9121289Y18149500D01*
X9159049Y18154471D01*
X15249500Y18154471D01*
X15249500Y17845528D01*
X15284086Y17538562D01*
X15284089Y17538544D01*
X15352831Y17237364D01*
X15352835Y17237352D01*
X15454862Y16945777D01*
X15454868Y16945763D01*
X15588903Y16667437D01*
X15753264Y16405858D01*
X15945879Y16164326D01*
X16164326Y15945879D01*
X16405858Y15753264D01*
X16667437Y15588903D01*
X16945763Y15454868D01*
X16945777Y15454862D01*
X17237352Y15352835D01*
X17237364Y15352831D01*
X17538544Y15284089D01*
X17538562Y15284086D01*
X17845528Y15249500D01*
X17845535Y15249500D01*
X18154471Y15249500D01*
X18461437Y15284086D01*
X18461455Y15284089D01*
X18762635Y15352831D01*
X18762647Y15352835D01*
X19054222Y15454862D01*
X19054236Y15454868D01*
X19332562Y15588903D01*
X19413485Y15639750D01*
X19594143Y15753265D01*
X19835674Y15945880D01*
X20054120Y16164326D01*
X20246735Y16405857D01*
X20411095Y16667435D01*
X20545135Y16945771D01*
X20630743Y17190423D01*
X20647164Y17237352D01*
X20647168Y17237364D01*
X20715910Y17538544D01*
X20715913Y17538562D01*
X20746056Y17806097D01*
X20750500Y17845535D01*
X20750500Y18154465D01*
X20722591Y18402169D01*
X20715913Y18461437D01*
X20715910Y18461455D01*
X20712638Y18475789D01*
X20647168Y18762636D01*
X20545135Y19054229D01*
X20411095Y19332565D01*
X20246735Y19594143D01*
X20054120Y19835674D01*
X19835674Y20054120D01*
X19594143Y20246735D01*
X19332565Y20411095D01*
X19054229Y20545135D01*
X18762636Y20647168D01*
X18461452Y20715911D01*
X18461442Y20715912D01*
X18461437Y20715913D01*
X18311356Y20732822D01*
X18154468Y20750499D01*
X18154467Y20750500D01*
X18154465Y20750500D01*
X17845535Y20750500D01*
X17845533Y20750500D01*
X17845530Y20750499D01*
X17743206Y20738970D01*
X17538562Y20715913D01*
X17538554Y20715911D01*
X17538548Y20715911D01*
X17538544Y20715910D01*
X17237364Y20647168D01*
X17237352Y20647164D01*
X17108667Y20602135D01*
X16945771Y20545135D01*
X16667435Y20411095D01*
X16405857Y20246735D01*
X16164326Y20054120D01*
X15945880Y19835674D01*
X15753265Y19594143D01*
X15690130Y19493664D01*
X15588903Y19332562D01*
X15454868Y19054236D01*
X15454862Y19054222D01*
X15352835Y18762647D01*
X15352831Y18762635D01*
X15284089Y18461455D01*
X15284086Y18461437D01*
X15249500Y18154471D01*
X9159049Y18154471D01*
X9361785Y18181161D01*
X9596104Y18243947D01*
X9820205Y18336773D01*
X9820214Y18336777D01*
X9892766Y18378665D01*
X10030289Y18458064D01*
X10034708Y18461455D01*
X10222736Y18605733D01*
X10222743Y18605739D01*
X10394260Y18777256D01*
X10394266Y18777263D01*
X10541932Y18969706D01*
X10541936Y18969711D01*
X10663224Y19179788D01*
X10756054Y19403900D01*
X10818838Y19638211D01*
X10850500Y19878712D01*
X10850500Y20121288D01*
X10818838Y20361789D01*
X10756054Y20596100D01*
X10663224Y20820212D01*
X10541936Y21030289D01*
X10394265Y21222738D01*
X10222738Y21394265D01*
X10030289Y21541936D01*
X9820212Y21663224D01*
X9596100Y21756054D01*
X9361789Y21818838D01*
X9169388Y21844167D01*
X9121289Y21850500D01*
X9121288Y21850500D01*
X8878712Y21850500D01*
X8878711Y21850500D01*
X8818586Y21842584D01*
X8638211Y21818838D01*
X8403900Y21756054D01*
X8179788Y21663224D01*
X7969711Y21541936D01*
X7969706Y21541932D01*
X7777263Y21394266D01*
X7777256Y21394260D01*
X7605739Y21222743D01*
X7605733Y21222736D01*
X7516416Y21106335D01*
X7458064Y21030289D01*
X7378318Y20892165D01*
X7336777Y20820214D01*
X7336773Y20820205D01*
X7243947Y20596104D01*
X7181161Y20361785D01*
X7149500Y20121288D01*
X4617412Y20121288D01*
X4458026Y20232891D01*
X4435842Y20248425D01*
X4392217Y20303002D01*
X4385023Y20372500D01*
X4416546Y20434855D01*
X4435842Y20451575D01*
X4621396Y20581501D01*
X4621402Y20581506D01*
X4788493Y20748597D01*
X4788495Y20748599D01*
X4892859Y20897646D01*
X4924032Y20942165D01*
X4924034Y20942169D01*
X4924035Y20942170D01*
X5023903Y21156337D01*
X5085063Y21384592D01*
X5105659Y21620000D01*
X5085063Y21855408D01*
X5023903Y22083663D01*
X4924035Y22297829D01*
X4788495Y22491401D01*
X4621401Y22658495D01*
X4427830Y22794035D01*
X4213663Y22893903D01*
X3985408Y22955063D01*
X3789234Y22972226D01*
X3750001Y22975659D01*
X3749999Y22975659D01*
X3702918Y22971539D01*
X3514592Y22955063D01*
X3286337Y22893903D01*
X3072171Y22794035D01*
X3072169Y22794034D01*
X2878597Y22658494D01*
X2711505Y22491402D01*
X2575965Y22297830D01*
X2575964Y22297828D01*
X2552650Y22247830D01*
X2476097Y22083663D01*
X2476096Y22083659D01*
X2476094Y22083655D01*
X2414938Y21855413D01*
X2414936Y21855403D01*
X2394341Y21620000D01*
X2394341Y21619999D01*
X2414936Y21384596D01*
X2414939Y21384583D01*
X2449327Y21256241D01*
X2447664Y21186392D01*
X2417233Y21136468D01*
X-331304Y18387930D01*
X-392625Y18354447D01*
X-462317Y18359431D01*
X-491826Y18376135D01*
X-491842Y18376111D01*
X-492384Y18376451D01*
X-496294Y18378665D01*
X-497733Y18379812D01*
X-497735Y18379813D01*
X-497738Y18379816D01*
X-627661Y18461452D01*
X-650476Y18475788D01*
X-650478Y18475789D01*
X-820745Y18535368D01*
X-820750Y18535369D01*
X-999996Y18555565D01*
X-1000004Y18555565D01*
X-1179249Y18535369D01*
X-1179252Y18535368D01*
X-1179255Y18535368D01*
X-1349522Y18475789D01*
X-1502262Y18379816D01*
X-1629816Y18252262D01*
X-1725789Y18099522D01*
X-1763587Y17991501D01*
X-1785368Y17929254D01*
X-1785369Y17929249D01*
X-1805565Y17750003D01*
X-3334076Y17750003D01*
X-3311344Y17756094D01*
X-3311335Y17756098D01*
X-3097169Y17855965D01*
X-3097165Y17855967D01*
X-2903604Y17991501D01*
X-2903597Y17991506D01*
X-2736506Y18158597D01*
X-2736501Y18158604D01*
X-2600967Y18352165D01*
X-2600965Y18352169D01*
X-2501098Y18566335D01*
X-2501094Y18566344D01*
X-2439938Y18794586D01*
X-2439936Y18794596D01*
X-2419341Y19029999D01*
X-2419341Y19030000D01*
X-2439936Y19265403D01*
X-2439938Y19265413D01*
X-2501094Y19493655D01*
X-2501096Y19493659D01*
X-2501097Y19493663D01*
X-2568503Y19638214D01*
X-2600964Y19707828D01*
X-2600965Y19707830D01*
X-2736505Y19901402D01*
X-2903597Y20068493D01*
X-2903599Y20068495D01*
X-3089158Y20198425D01*
X-3132782Y20253002D01*
X-3139975Y20322501D01*
X-3108453Y20384855D01*
X-3089158Y20401575D01*
X-2903599Y20531505D01*
X-2903597Y20531506D01*
X-2736506Y20698597D01*
X-2736501Y20698604D01*
X-2600967Y20892165D01*
X-2600965Y20892169D01*
X-2501098Y21106335D01*
X-2501094Y21106344D01*
X-2439938Y21334586D01*
X-2439936Y21334596D01*
X-2419341Y21569999D01*
X-2419341Y21570000D01*
X-2439936Y21805403D01*
X-2439938Y21805413D01*
X-2501094Y22033655D01*
X-2501096Y22033659D01*
X-2501097Y22033663D01*
X-2551031Y22140746D01*
X-2600964Y22247828D01*
X-2600965Y22247830D01*
X-2706026Y22397873D01*
X-1350500Y22397873D01*
X-1350499Y20602128D01*
X-1345299Y20553757D01*
X-1344091Y20542516D01*
X-1293797Y20407671D01*
X-1293793Y20407664D01*
X-1207547Y20292455D01*
X-1207544Y20292452D01*
X-1092335Y20206206D01*
X-1092328Y20206202D01*
X-957482Y20155908D01*
X-957483Y20155908D01*
X-897883Y20149501D01*
X-897881Y20149500D01*
X-897873Y20149500D01*
X-897864Y20149500D01*
X897870Y20149500D01*
X897876Y20149501D01*
X957483Y20155908D01*
X1092328Y20206202D01*
X1092335Y20206206D01*
X1207544Y20292452D01*
X1207547Y20292455D01*
X1293793Y20407664D01*
X1293797Y20407671D01*
X1344091Y20542517D01*
X1348282Y20581501D01*
X1350500Y20602127D01*
X1350499Y22397872D01*
X1344091Y22457483D01*
X1293796Y22592331D01*
X1207546Y22707546D01*
X1092331Y22793796D01*
X957483Y22844091D01*
X897873Y22850500D01*
X-897872Y22850499D01*
X-957483Y22844091D01*
X-1092331Y22793796D01*
X-1207546Y22707546D01*
X-1293796Y22592331D01*
X-1344091Y22457483D01*
X-1350500Y22397873D01*
X-2706026Y22397873D01*
X-2736505Y22441402D01*
X-2903597Y22608493D01*
X-2903598Y22608494D01*
X-2903599Y22608495D01*
X-3045058Y22707546D01*
X-3097165Y22744032D01*
X-3097169Y22744034D01*
X-3097170Y22744035D01*
X-3311337Y22843903D01*
X-3312039Y22844091D01*
X-3366285Y22858626D01*
X-3539592Y22905063D01*
X-3727918Y22921539D01*
X-3774999Y22925659D01*
X-3775001Y22925659D01*
X-3814234Y22922226D01*
X-4010408Y22905063D01*
X-4238663Y22843903D01*
X-4452829Y22744035D01*
X-4646401Y22608495D01*
X-4813495Y22441401D01*
X-4949035Y22247829D01*
X-5048903Y22033663D01*
X-5110063Y21805408D01*
X-5130659Y21570000D01*
X-5110063Y21334592D01*
X-5080092Y21222738D01*
X-5056977Y21136468D01*
X-5048903Y21106337D01*
X-4988282Y20976336D01*
X-4977790Y20907258D01*
X-5006310Y20843474D01*
X-5012970Y20836263D01*
X-10128504Y15720730D01*
X-10128507Y15720728D01*
X-10138714Y15710520D01*
X-10138716Y15710520D01*
X-10250520Y15598716D01*
X-10300639Y15511904D01*
X-10329577Y15461785D01*
X-10370501Y15309057D01*
X-10370501Y15309054D01*
X-10370501Y15143348D01*
X-10370500Y15143330D01*
X-10370500Y8549955D01*
X-10390185Y8482916D01*
X-10435482Y8440900D01*
X-10518649Y8395893D01*
X-10697046Y8257040D01*
X-10796832Y8148643D01*
X-10848680Y8092322D01*
X-10850156Y8090719D01*
X-10936193Y7959028D01*
X-10989338Y7913675D01*
X-11058569Y7904251D01*
X-11121905Y7933753D01*
X-11143804Y7959025D01*
X-11229844Y8090719D01*
X-11229849Y8090724D01*
X-11229850Y8090727D01*
X-11382950Y8257036D01*
X-11382951Y8257036D01*
X-11382954Y8257040D01*
X-11561351Y8395893D01*
X-11760169Y8503488D01*
X-11868541Y8540692D01*
X-11973982Y8576890D01*
X-11973984Y8576890D01*
X-11973986Y8576891D01*
X-12196967Y8614100D01*
X-12423033Y8614100D01*
X-12646014Y8576891D01*
X-12859831Y8503488D01*
X-13058649Y8395893D01*
X-13237046Y8257040D01*
X-13336832Y8148643D01*
X-13388680Y8092322D01*
X-13390156Y8090719D01*
X-13476193Y7959028D01*
X-13529338Y7913675D01*
X-13598569Y7904251D01*
X-13661905Y7933753D01*
X-13683804Y7959025D01*
X-13769844Y8090719D01*
X-13769849Y8090724D01*
X-13769850Y8090727D01*
X-13922950Y8257036D01*
X-13922951Y8257036D01*
X-13922954Y8257040D01*
X-14101351Y8395893D01*
X-14300169Y8503488D01*
X-14408541Y8540692D01*
X-14513982Y8576890D01*
X-14513984Y8576890D01*
X-14513986Y8576891D01*
X-14736967Y8614100D01*
X-14963033Y8614100D01*
X-15186014Y8576891D01*
X-15399831Y8503488D01*
X-15598649Y8395893D01*
X-15777046Y8257040D01*
X-15876832Y8148643D01*
X-15928680Y8092322D01*
X-15930156Y8090719D01*
X-16016193Y7959028D01*
X-16069338Y7913675D01*
X-16138569Y7904251D01*
X-16201905Y7933753D01*
X-16223804Y7959025D01*
X-16309844Y8090719D01*
X-16309849Y8090724D01*
X-16309850Y8090727D01*
X-16462950Y8257036D01*
X-16462951Y8257036D01*
X-16462954Y8257040D01*
X-16641351Y8395893D01*
X-16840169Y8503488D01*
X-16948541Y8540692D01*
X-17053982Y8576890D01*
X-17053984Y8576890D01*
X-17053986Y8576891D01*
X-17276967Y8614100D01*
X-17503033Y8614100D01*
X-17726014Y8576891D01*
X-17939831Y8503488D01*
X-18138649Y8395893D01*
X-18317046Y8257040D01*
X-18416832Y8148643D01*
X-18468680Y8092322D01*
X-18470156Y8090719D01*
X-18556193Y7959028D01*
X-18609338Y7913675D01*
X-18678569Y7904251D01*
X-18741905Y7933753D01*
X-18763804Y7959025D01*
X-18849844Y8090719D01*
X-18849849Y8090724D01*
X-18849850Y8090727D01*
X-19002950Y8257036D01*
X-19002951Y8257036D01*
X-19002954Y8257040D01*
X-19181351Y8395893D01*
X-19380169Y8503488D01*
X-19488541Y8540692D01*
X-19593982Y8576890D01*
X-19593984Y8576890D01*
X-19593986Y8576891D01*
X-19816967Y8614100D01*
X-20043033Y8614100D01*
X-20266014Y8576891D01*
X-20479831Y8503488D01*
X-20678649Y8395893D01*
X-20857046Y8257040D01*
X-20956832Y8148643D01*
X-21008680Y8092322D01*
X-21010156Y8090719D01*
X-21133802Y7901465D01*
X-21224611Y7694441D01*
X-21280107Y7475293D01*
X-21285287Y7412771D01*
X-21310439Y7347591D01*
X-21366840Y7306352D01*
X-21436584Y7302152D01*
X-21497526Y7336326D01*
X-21530318Y7398022D01*
X-21530480Y7398822D01*
X-21556025Y7527245D01*
X-21556027Y7527251D01*
X-21627676Y7700228D01*
X-21627681Y7700237D01*
X-21731697Y7855907D01*
X-21731700Y7855911D01*
X-21864088Y7988299D01*
X-21864092Y7988302D01*
X-22019762Y8092318D01*
X-22019771Y8092323D01*
X-22058956Y8108554D01*
X-22192749Y8163973D01*
X-22376379Y8200499D01*
X-22376383Y8200500D01*
X-22376384Y8200500D01*
X-22563616Y8200500D01*
X-22563617Y8200500D01*
X-22563618Y8200499D01*
X-22747251Y8163973D01*
X-22920231Y8092322D01*
X-23075908Y7988302D01*
X-23208302Y7855908D01*
X-23312322Y7700231D01*
X-23383973Y7527251D01*
X-23420500Y7343616D01*
X-24499500Y7343616D01*
X-24499500Y18154465D01*
X-20750500Y18154465D01*
X-20750500Y17845535D01*
X-20746056Y17806097D01*
X-20715913Y17538562D01*
X-20715910Y17538544D01*
X-20647168Y17237364D01*
X-20647164Y17237352D01*
X-20630743Y17190423D01*
X-20545135Y16945771D01*
X-20411095Y16667435D01*
X-20246735Y16405857D01*
X-20054120Y16164326D01*
X-19835674Y15945880D01*
X-19594143Y15753265D01*
X-19413485Y15639750D01*
X-19332562Y15588903D01*
X-19054236Y15454868D01*
X-19054222Y15454862D01*
X-18762647Y15352835D01*
X-18762635Y15352831D01*
X-18461455Y15284089D01*
X-18461437Y15284086D01*
X-18154471Y15249500D01*
X-18154465Y15249500D01*
X-17845528Y15249500D01*
X-17538562Y15284086D01*
X-17538544Y15284089D01*
X-17237364Y15352831D01*
X-17237352Y15352835D01*
X-16945777Y15454862D01*
X-16945763Y15454868D01*
X-16667437Y15588903D01*
X-16405858Y15753264D01*
X-16164326Y15945879D01*
X-15945879Y16164326D01*
X-15753264Y16405858D01*
X-15588903Y16667437D01*
X-15454868Y16945763D01*
X-15454862Y16945777D01*
X-15352835Y17237352D01*
X-15352831Y17237364D01*
X-15284089Y17538544D01*
X-15284086Y17538562D01*
X-15249500Y17845528D01*
X-15249500Y18154471D01*
X-15284086Y18461437D01*
X-15284089Y18461455D01*
X-15352831Y18762635D01*
X-15352835Y18762647D01*
X-15454862Y19054222D01*
X-15454868Y19054236D01*
X-15588903Y19332562D01*
X-15690130Y19493664D01*
X-15753265Y19594143D01*
X-15945880Y19835674D01*
X-16164326Y20054120D01*
X-16248552Y20121288D01*
X-10850500Y20121288D01*
X-10850500Y19878712D01*
X-10818838Y19638211D01*
X-10756054Y19403900D01*
X-10663224Y19179788D01*
X-10541936Y18969711D01*
X-10541932Y18969706D01*
X-10394266Y18777263D01*
X-10394260Y18777256D01*
X-10222743Y18605739D01*
X-10222736Y18605733D01*
X-10034708Y18461455D01*
X-10030289Y18458064D01*
X-9892766Y18378665D01*
X-9820214Y18336777D01*
X-9820205Y18336773D01*
X-9596104Y18243947D01*
X-9361785Y18181161D01*
X-9121289Y18149500D01*
X-9121288Y18149500D01*
X-8878711Y18149500D01*
X-8638214Y18181161D01*
X-8403895Y18243947D01*
X-8179794Y18336773D01*
X-8179785Y18336777D01*
X-7969706Y18458067D01*
X-7777263Y18605733D01*
X-7777256Y18605739D01*
X-7605739Y18777256D01*
X-7605733Y18777263D01*
X-7458067Y18969706D01*
X-7336777Y19179785D01*
X-7336773Y19179794D01*
X-7243947Y19403895D01*
X-7181161Y19638214D01*
X-7149500Y19878711D01*
X-7149500Y20121288D01*
X-7181161Y20361785D01*
X-7243947Y20596104D01*
X-7336773Y20820205D01*
X-7336777Y20820214D01*
X-7378318Y20892165D01*
X-7458064Y21030289D01*
X-7516416Y21106335D01*
X-7605733Y21222736D01*
X-7605739Y21222743D01*
X-7777256Y21394260D01*
X-7777263Y21394266D01*
X-7969706Y21541932D01*
X-7969711Y21541936D01*
X-8179788Y21663224D01*
X-8403900Y21756054D01*
X-8638211Y21818838D01*
X-8818586Y21842584D01*
X-8878711Y21850500D01*
X-8878712Y21850500D01*
X-9121288Y21850500D01*
X-9121289Y21850500D01*
X-9169388Y21844167D01*
X-9361789Y21818838D01*
X-9596100Y21756054D01*
X-9820212Y21663224D01*
X-10030289Y21541936D01*
X-10222738Y21394265D01*
X-10394265Y21222738D01*
X-10541936Y21030289D01*
X-10663224Y20820212D01*
X-10756054Y20596100D01*
X-10818838Y20361789D01*
X-10850500Y20121288D01*
X-16248552Y20121288D01*
X-16405857Y20246735D01*
X-16667435Y20411095D01*
X-16945771Y20545135D01*
X-17108667Y20602135D01*
X-17237352Y20647164D01*
X-17237364Y20647168D01*
X-17538544Y20715910D01*
X-17538548Y20715911D01*
X-17538554Y20715911D01*
X-17538562Y20715913D01*
X-17743206Y20738970D01*
X-17845530Y20750499D01*
X-17845533Y20750500D01*
X-17845535Y20750500D01*
X-18154465Y20750500D01*
X-18154467Y20750500D01*
X-18154468Y20750499D01*
X-18311356Y20732822D01*
X-18461437Y20715913D01*
X-18461442Y20715912D01*
X-18461452Y20715911D01*
X-18762636Y20647168D01*
X-19054229Y20545135D01*
X-19332565Y20411095D01*
X-19594143Y20246735D01*
X-19835674Y20054120D01*
X-20054120Y19835674D01*
X-20246735Y19594143D01*
X-20411095Y19332565D01*
X-20545135Y19054229D01*
X-20647168Y18762636D01*
X-20712638Y18475789D01*
X-20715910Y18461455D01*
X-20715913Y18461437D01*
X-20722591Y18402169D01*
X-20750500Y18154465D01*
X-24499500Y18154465D01*
X-24499500Y24375500D01*
X-24479815Y24442539D01*
X-24427011Y24488294D01*
X-24375500Y24499500D01*
X24375500Y24499500D01*
X24442539Y24479815D01*
G37*
%TD.AperFunction*%
%TD*%
M02*
