%TF.GenerationSoftware,KiCad,Pcbnew,8.0.8*%
%TF.CreationDate,2025-02-27T23:17:26-05:00*%
%TF.ProjectId,modular_sdvx_pcb_nostabs,6d6f6475-6c61-4725-9f73-6476785f7063,rev?*%
%TF.SameCoordinates,Original*%
%TF.FileFunction,Copper,L1,Top*%
%TF.FilePolarity,Positive*%
%FSLAX46Y46*%
G04 Gerber Fmt 4.6, Leading zero omitted, Abs format (unit mm)*
G04 Created by KiCad (PCBNEW 8.0.8) date 2025-02-27 23:17:26*
%MOMM*%
%LPD*%
G01*
G04 APERTURE LIST*
%TA.AperFunction,ComponentPad*%
%ADD10R,1.700000X1.700000*%
%TD*%
%TA.AperFunction,ComponentPad*%
%ADD11O,1.700000X1.700000*%
%TD*%
%TA.AperFunction,ComponentPad*%
%ADD12O,1.727200X1.727200*%
%TD*%
%TA.AperFunction,ComponentPad*%
%ADD13R,1.727200X1.727200*%
%TD*%
%TA.AperFunction,ComponentPad*%
%ADD14C,1.727200*%
%TD*%
%TA.AperFunction,ViaPad*%
%ADD15C,0.600000*%
%TD*%
%TA.AperFunction,Conductor*%
%ADD16C,0.200000*%
%TD*%
G04 APERTURE END LIST*
D10*
%TO.P,ENC_R1,1,Pin_1*%
%TO.N,/5V*%
X3750000Y14000000D03*
D11*
%TO.P,ENC_R1,2,Pin_2*%
%TO.N,GND*%
X3750000Y16540000D03*
%TO.P,ENC_R1,3,Pin_3*%
%TO.N,/ENC_R_A*%
X3750000Y19080000D03*
%TO.P,ENC_R1,4,Pin_4*%
%TO.N,/ENC_R_B*%
X3750000Y21620000D03*
%TD*%
D10*
%TO.P,SW_D_in1,1,Pin_1*%
%TO.N,Net-(SW_D_in1-Pin_1)*%
X-2000000Y-21000000D03*
%TD*%
%TO.P,SW_B_in1,1,Pin_1*%
%TO.N,Net-(SW_B_in1-Pin_1)*%
X6000000Y-21000000D03*
%TD*%
%TO.P,ENC_L1,1,Pin_1*%
%TO.N,/5V*%
X-3775000Y13950000D03*
D11*
%TO.P,ENC_L1,2,Pin_2*%
%TO.N,GND*%
X-3775000Y16490000D03*
%TO.P,ENC_L1,3,Pin_3*%
%TO.N,/ENC_L_A*%
X-3775000Y19030000D03*
%TO.P,ENC_L1,4,Pin_4*%
%TO.N,/ENC_L_B*%
X-3775000Y21570000D03*
%TD*%
D10*
%TO.P,SW_C_in1,1,Pin_1*%
%TO.N,Net-(A1-D7_INT4)*%
X2000000Y-21000000D03*
%TD*%
%TO.P,SW_L_in1,1,Pin_1*%
%TO.N,Net-(SW_L_in1-Pin_1)*%
X-6000000Y-21000000D03*
%TD*%
%TO.P,SW_R_in1,1,Pin_1*%
%TO.N,Net-(SW_R_in1-Pin_1)*%
X-10000000Y-21000000D03*
%TD*%
%TO.P,SW_OUT1,1,Pin_1*%
%TO.N,Net-(SW_OUT1-Pin_1)*%
X0Y21500000D03*
%TD*%
%TO.P,SW_A_in1,1,Pin_1*%
%TO.N,Net-(SW_A_in1-Pin_1)*%
X10000000Y-21000000D03*
%TD*%
D12*
%TO.P,A1,*%
%TO.N,*%
X2930000Y7250000D03*
X5470000Y7250000D03*
%TO.P,A1,3V3,3.3V*%
%TO.N,unconnected-(A1-3.3V-Pad3V3)*%
X-17390000Y7250000D03*
%TO.P,A1,5V,5V*%
%TO.N,/5V*%
X8010000Y7250000D03*
%TO.P,A1,A0,A0*%
%TO.N,/ENC_L_A*%
X-12310000Y7250000D03*
%TO.P,A1,A1,A1*%
%TO.N,/ENC_L_B*%
X-9770000Y7250000D03*
%TO.P,A1,A2,A2*%
%TO.N,/ENC_R_A*%
X-7230000Y7250000D03*
%TO.P,A1,A3,A3*%
%TO.N,/ENC_R_B*%
X-4690000Y7250000D03*
%TO.P,A1,A4,A4*%
%TO.N,unconnected-(A1-PadA4)*%
X-2150000Y7250000D03*
%TO.P,A1,A5,A5*%
%TO.N,unconnected-(A1-PadA5)*%
X390000Y7250000D03*
%TO.P,A1,AREF,AREF*%
%TO.N,unconnected-(A1-PadAREF)*%
X-14850000Y7250000D03*
%TO.P,A1,D0,D0/RX*%
%TO.N,unconnected-(A1-D0{slash}RX-PadD0)*%
X13090000Y-7990000D03*
%TO.P,A1,D1,D1/TX*%
%TO.N,unconnected-(A1-D1{slash}TX-PadD1)*%
X15630000Y-7990000D03*
%TO.P,A1,D2,D2/SDA*%
%TO.N,unconnected-(A1-D2{slash}SDA-PadD2)*%
X5470000Y-7990000D03*
%TO.P,A1,D3,D3/SCL*%
%TO.N,unconnected-(A1-D3{slash}SCL-PadD3)*%
X2930000Y-7990000D03*
%TO.P,A1,D4,D4*%
%TO.N,unconnected-(A1-PadD4)*%
X390000Y-7990000D03*
%TO.P,A1,D5,D5*%
%TO.N,Net-(SW_A_in1-Pin_1)*%
X-2150000Y-7990000D03*
%TO.P,A1,D6,D6*%
%TO.N,Net-(SW_B_in1-Pin_1)*%
X-4690000Y-7990000D03*
%TO.P,A1,D7,D7_INT4*%
%TO.N,Net-(A1-D7_INT4)*%
X-7230000Y-7990000D03*
%TO.P,A1,D8,D8*%
%TO.N,Net-(SW_D_in1-Pin_1)*%
X-9770000Y-7990000D03*
%TO.P,A1,D9,D9*%
%TO.N,Net-(SW_L_in1-Pin_1)*%
X-12310000Y-7990000D03*
%TO.P,A1,D10,D10*%
%TO.N,Net-(SW_R_in1-Pin_1)*%
X-14850000Y-7990000D03*
%TO.P,A1,D11,D11*%
%TO.N,unconnected-(A1-PadD11)*%
X-17390000Y-7990000D03*
%TO.P,A1,D12,D12*%
%TO.N,unconnected-(A1-PadD12)*%
X-19930000Y-7990000D03*
%TO.P,A1,D13,D13*%
%TO.N,unconnected-(A1-PadD13)*%
X-19930000Y7250000D03*
D13*
%TO.P,A1,GND1,GND*%
%TO.N,GND*%
X13090000Y7250000D03*
%TO.P,A1,GND2,GND*%
X8010000Y-7990000D03*
D12*
%TO.P,A1,MISO,SPI_MISO*%
%TO.N,unconnected-(A1-SPI_MISO-PadMISO)*%
X18170000Y7250000D03*
D14*
%TO.P,A1,MOSI,SPI_MOSI*%
%TO.N,unconnected-(A1-SPI_MOSI-PadMOSI)*%
X20710000Y-7990000D03*
D12*
%TO.P,A1,RST1,RESET*%
%TO.N,unconnected-(A1-RESET-PadRST1)*%
X10550000Y7250000D03*
%TO.P,A1,RST2,RESET*%
%TO.N,unconnected-(A1-RESET-PadRST2)*%
X10550000Y-7990000D03*
%TO.P,A1,SCK,SPI_SCK*%
%TO.N,unconnected-(A1-SPI_SCK-PadSCK)*%
X20710000Y7250000D03*
%TO.P,A1,SS,SPI_CS*%
%TO.N,unconnected-(A1-SPI_CS-PadSS)*%
X18170000Y-7990000D03*
%TO.P,A1,VIN,VIN*%
%TO.N,unconnected-(A1-PadVIN)*%
X15630000Y7250000D03*
%TD*%
D15*
%TO.N,/ENC_R_B*%
X1500000Y19680000D03*
X1500000Y12500000D03*
%TO.N,/ENC_R_A*%
X-1000000Y13350000D03*
X-1000000Y17090000D03*
%TD*%
D16*
%TO.N,Net-(SW_A_in1-Pin_1)*%
X-2150000Y-9350000D02*
X-2150000Y-7990000D01*
X7000000Y-18500000D02*
X-2150000Y-9350000D01*
X8000000Y-18500000D02*
X7000000Y-18500000D01*
X10000000Y-20500000D02*
X8000000Y-18500000D01*
X10000000Y-21000000D02*
X10000000Y-20500000D01*
%TO.N,Net-(SW_B_in1-Pin_1)*%
X6000000Y-18680000D02*
X-4690000Y-7990000D01*
X6000000Y-21000000D02*
X6000000Y-18680000D01*
%TO.N,Net-(A1-D7_INT4)*%
X2000000Y-17220000D02*
X-7230000Y-7990000D01*
X2000000Y-21000000D02*
X2000000Y-17220000D01*
%TO.N,Net-(SW_D_in1-Pin_1)*%
X-9770000Y-9230000D02*
X-9770000Y-7990000D01*
X-7500000Y-10500000D02*
X-8500000Y-10500000D01*
X-2000000Y-16000000D02*
X-7500000Y-10500000D01*
X-2000000Y-21000000D02*
X-2000000Y-16000000D01*
X-8500000Y-10500000D02*
X-9770000Y-9230000D01*
%TO.N,Net-(SW_L_in1-Pin_1)*%
X-12310000Y-9690000D02*
X-12310000Y-7990000D01*
X-7500000Y-11500000D02*
X-10500000Y-11500000D01*
X-5500000Y-16500000D02*
X-5500000Y-13500000D01*
X-6000000Y-17000000D02*
X-5500000Y-16500000D01*
X-5500000Y-13500000D02*
X-7500000Y-11500000D01*
X-6000000Y-21000000D02*
X-6000000Y-17000000D01*
X-10500000Y-11500000D02*
X-12310000Y-9690000D01*
%TO.N,Net-(SW_R_in1-Pin_1)*%
X-14850000Y-9650000D02*
X-14850000Y-7990000D01*
X-12500000Y-16500000D02*
X-12500000Y-12000000D01*
X-10000000Y-19000000D02*
X-12500000Y-16500000D01*
X-10000000Y-21000000D02*
X-10000000Y-19000000D01*
X-12500000Y-12000000D02*
X-14850000Y-9650000D01*
%TO.N,/ENC_R_B*%
X560000Y12500000D02*
X-4690000Y7250000D01*
X1500000Y12500000D02*
X560000Y12500000D01*
X1810000Y19680000D02*
X1500000Y19680000D01*
X3750000Y21620000D02*
X1810000Y19680000D01*
%TO.N,/ENC_R_A*%
X-1130000Y13350000D02*
X-7230000Y7250000D01*
X-1000000Y13350000D02*
X-1130000Y13350000D01*
X990000Y19080000D02*
X-1000000Y17090000D01*
X3750000Y19080000D02*
X990000Y19080000D01*
%TO.N,/ENC_L_B*%
X-12500000Y9980000D02*
X-9770000Y7250000D01*
X-12500000Y18000000D02*
X-12500000Y9980000D01*
X-4931346Y19500000D02*
X-11000000Y19500000D01*
X-11000000Y19500000D02*
X-12500000Y18000000D01*
X-3775000Y20656346D02*
X-4931346Y19500000D01*
X-3775000Y21570000D02*
X-3775000Y20656346D01*
%TO.N,GND*%
X3700000Y16490000D02*
X3750000Y16540000D01*
X-3775000Y16490000D02*
X3700000Y16490000D01*
X13040000Y7250000D02*
X13090000Y7250000D01*
X3750000Y16540000D02*
X13040000Y7250000D01*
%TO.N,/5V*%
X3750000Y11510000D02*
X8010000Y7250000D01*
X3750000Y14000000D02*
X3750000Y11510000D01*
X3700000Y13950000D02*
X3750000Y14000000D01*
X-3775000Y13950000D02*
X3700000Y13950000D01*
%TD*%
%TA.AperFunction,Conductor*%
%TO.N,GND*%
G36*
X24442539Y24479815D02*
G01*
X24488294Y24427011D01*
X24499500Y24375500D01*
X24499500Y-24375500D01*
X24479815Y-24442539D01*
X24427011Y-24488294D01*
X24375500Y-24499500D01*
X-24375500Y-24499500D01*
X-24442539Y-24479815D01*
X-24488294Y-24427011D01*
X-24499500Y-24375500D01*
X-24499500Y-14845535D01*
X-20750500Y-14845535D01*
X-20750500Y-15154465D01*
X-20715911Y-15461452D01*
X-20647168Y-15762636D01*
X-20545135Y-16054229D01*
X-20411095Y-16332565D01*
X-20246735Y-16594143D01*
X-20054120Y-16835674D01*
X-19835674Y-17054120D01*
X-19594143Y-17246735D01*
X-19332565Y-17411095D01*
X-19054229Y-17545135D01*
X-18762636Y-17647168D01*
X-18461452Y-17715911D01*
X-18461442Y-17715912D01*
X-18461437Y-17715913D01*
X-18311356Y-17732822D01*
X-18154469Y-17750499D01*
X-18154468Y-17750500D01*
X-18154465Y-17750500D01*
X-17845532Y-17750500D01*
X-17845529Y-17750499D01*
X-17743206Y-17738970D01*
X-17538562Y-17715913D01*
X-17538554Y-17715911D01*
X-17538548Y-17715911D01*
X-17237364Y-17647168D01*
X-17237352Y-17647164D01*
X-16945777Y-17545137D01*
X-16945778Y-17545137D01*
X-16945771Y-17545135D01*
X-16667435Y-17411095D01*
X-16405857Y-17246735D01*
X-16164326Y-17054120D01*
X-15945880Y-16835674D01*
X-15753265Y-16594143D01*
X-15588905Y-16332565D01*
X-15588903Y-16332562D01*
X-15454868Y-16054236D01*
X-15454862Y-16054222D01*
X-15352835Y-15762647D01*
X-15352831Y-15762635D01*
X-15284089Y-15461455D01*
X-15284086Y-15461437D01*
X-15249500Y-15154471D01*
X-15249500Y-14845528D01*
X-15284086Y-14538562D01*
X-15284089Y-14538544D01*
X-15352831Y-14237364D01*
X-15352835Y-14237352D01*
X-15454862Y-13945777D01*
X-15454868Y-13945763D01*
X-15588903Y-13667437D01*
X-15753264Y-13405858D01*
X-15945879Y-13164326D01*
X-16164326Y-12945879D01*
X-16405858Y-12753264D01*
X-16667437Y-12588903D01*
X-16945763Y-12454868D01*
X-16945777Y-12454862D01*
X-17237352Y-12352835D01*
X-17237364Y-12352831D01*
X-17538544Y-12284089D01*
X-17538562Y-12284086D01*
X-17845528Y-12249500D01*
X-17845535Y-12249500D01*
X-18154465Y-12249500D01*
X-18154471Y-12249500D01*
X-18461437Y-12284086D01*
X-18461455Y-12284089D01*
X-18762635Y-12352831D01*
X-18762647Y-12352835D01*
X-19054222Y-12454862D01*
X-19054236Y-12454868D01*
X-19332562Y-12588903D01*
X-19332565Y-12588905D01*
X-19594143Y-12753265D01*
X-19835674Y-12945880D01*
X-20054120Y-13164326D01*
X-20246735Y-13405857D01*
X-20411095Y-13667435D01*
X-20545135Y-13945771D01*
X-20647168Y-14237364D01*
X-20715911Y-14538548D01*
X-20750500Y-14845535D01*
X-24499500Y-14845535D01*
X-24499500Y-7896384D01*
X-23420500Y-7896384D01*
X-23420500Y-8083616D01*
X-23383973Y-8267251D01*
X-23312322Y-8440231D01*
X-23208302Y-8595908D01*
X-23075908Y-8728302D01*
X-22920231Y-8832322D01*
X-22747251Y-8903973D01*
X-22563618Y-8940499D01*
X-22563617Y-8940500D01*
X-22563616Y-8940500D01*
X-22376383Y-8940500D01*
X-22376379Y-8940499D01*
X-22192749Y-8903973D01*
X-22019769Y-8832322D01*
X-22019768Y-8832321D01*
X-22019762Y-8832318D01*
X-21864092Y-8728302D01*
X-21864088Y-8728299D01*
X-21731700Y-8595911D01*
X-21731697Y-8595907D01*
X-21627681Y-8440237D01*
X-21627676Y-8440228D01*
X-21556027Y-8267251D01*
X-21556025Y-8267245D01*
X-21530480Y-8138822D01*
X-21498095Y-8076911D01*
X-21437379Y-8042337D01*
X-21367610Y-8046077D01*
X-21310938Y-8086944D01*
X-21285356Y-8151962D01*
X-21285319Y-8152386D01*
X-21280107Y-8215293D01*
X-21224611Y-8434441D01*
X-21133802Y-8641465D01*
X-21010156Y-8830719D01*
X-21010151Y-8830724D01*
X-21010149Y-8830727D01*
X-20956832Y-8888643D01*
X-20857046Y-8997040D01*
X-20678649Y-9135893D01*
X-20479831Y-9243488D01*
X-20266014Y-9316891D01*
X-20043033Y-9354100D01*
X-20043032Y-9354100D01*
X-19816968Y-9354100D01*
X-19816967Y-9354100D01*
X-19593986Y-9316891D01*
X-19593984Y-9316890D01*
X-19593982Y-9316890D01*
X-19380172Y-9243489D01*
X-19380169Y-9243488D01*
X-19181351Y-9135893D01*
X-19002954Y-8997040D01*
X-19002950Y-8997036D01*
X-18849850Y-8830727D01*
X-18849849Y-8830724D01*
X-18849844Y-8830719D01*
X-18763806Y-8699028D01*
X-18710662Y-8653675D01*
X-18641431Y-8644251D01*
X-18578095Y-8673753D01*
X-18556195Y-8699025D01*
X-18470156Y-8830719D01*
X-18470149Y-8830726D01*
X-18470149Y-8830727D01*
X-18416832Y-8888643D01*
X-18317046Y-8997040D01*
X-18138649Y-9135893D01*
X-17939831Y-9243488D01*
X-17726014Y-9316891D01*
X-17503033Y-9354100D01*
X-17503032Y-9354100D01*
X-17276968Y-9354100D01*
X-17276967Y-9354100D01*
X-17053986Y-9316891D01*
X-17053984Y-9316890D01*
X-17053982Y-9316890D01*
X-16840172Y-9243489D01*
X-16840169Y-9243488D01*
X-16641351Y-9135893D01*
X-16462954Y-8997040D01*
X-16462950Y-8997036D01*
X-16309850Y-8830727D01*
X-16309849Y-8830724D01*
X-16309844Y-8830719D01*
X-16223806Y-8699028D01*
X-16170662Y-8653675D01*
X-16101431Y-8644251D01*
X-16038095Y-8673753D01*
X-16016195Y-8699025D01*
X-15930156Y-8830719D01*
X-15930149Y-8830726D01*
X-15930149Y-8830727D01*
X-15876832Y-8888643D01*
X-15777046Y-8997040D01*
X-15598649Y-9135893D01*
X-15598643Y-9135896D01*
X-15515483Y-9180900D01*
X-15465892Y-9230119D01*
X-15450500Y-9289955D01*
X-15450500Y-9563330D01*
X-15450501Y-9563348D01*
X-15450501Y-9570943D01*
X-15450501Y-9729057D01*
X-15409577Y-9881785D01*
X-15399349Y-9899500D01*
X-15330520Y-10018716D01*
X-15218716Y-10130520D01*
X-15218714Y-10130520D01*
X-15208511Y-10140724D01*
X-15208506Y-10140727D01*
X-13136817Y-12212417D01*
X-13103334Y-12273738D01*
X-13100500Y-12300096D01*
X-13100500Y-16413330D01*
X-13100501Y-16413348D01*
X-13100501Y-16420942D01*
X-13100501Y-16420943D01*
X-13100501Y-16579057D01*
X-13059577Y-16731785D01*
X-13055139Y-16739471D01*
X-13055136Y-16739481D01*
X-13055134Y-16739480D01*
X-12980520Y-16868716D01*
X-12868716Y-16980520D01*
X-12868714Y-16980520D01*
X-12858511Y-16990724D01*
X-12858506Y-16990727D01*
X-10636817Y-19212417D01*
X-10603334Y-19273738D01*
X-10600500Y-19300096D01*
X-10600500Y-19525500D01*
X-10620185Y-19592539D01*
X-10672989Y-19638294D01*
X-10724499Y-19649500D01*
X-10897869Y-19649500D01*
X-10897876Y-19649501D01*
X-10957483Y-19655908D01*
X-11092328Y-19706202D01*
X-11092335Y-19706206D01*
X-11207544Y-19792452D01*
X-11207547Y-19792455D01*
X-11293793Y-19907664D01*
X-11293795Y-19907668D01*
X-11293796Y-19907669D01*
X-11344091Y-20042517D01*
X-11350500Y-20102127D01*
X-11350499Y-21897872D01*
X-11344091Y-21957483D01*
X-11293796Y-22092331D01*
X-11207546Y-22207546D01*
X-11092331Y-22293796D01*
X-10957483Y-22344091D01*
X-10897873Y-22350500D01*
X-9102128Y-22350499D01*
X-9053757Y-22345299D01*
X-9042516Y-22344091D01*
X-8907671Y-22293797D01*
X-8907664Y-22293793D01*
X-8792455Y-22207547D01*
X-8792452Y-22207544D01*
X-8706206Y-22092335D01*
X-8706202Y-22092328D01*
X-8655908Y-21957482D01*
X-8649501Y-21897883D01*
X-8649500Y-21897881D01*
X-8649500Y-21897873D01*
X-8649500Y-21897864D01*
X-8649500Y-20102129D01*
X-8649501Y-20102123D01*
X-8655908Y-20042516D01*
X-8706202Y-19907671D01*
X-8706206Y-19907664D01*
X-8792452Y-19792455D01*
X-8792455Y-19792452D01*
X-8907664Y-19706206D01*
X-8907671Y-19706202D01*
X-9042517Y-19655908D01*
X-9042516Y-19655908D01*
X-9102116Y-19649501D01*
X-9102119Y-19649500D01*
X-9102127Y-19649500D01*
X-9102135Y-19649500D01*
X-9275500Y-19649500D01*
X-9342539Y-19629815D01*
X-9388294Y-19577011D01*
X-9399500Y-19525500D01*
X-9399500Y-19089059D01*
X-9399499Y-19089046D01*
X-9399499Y-18920945D01*
X-9399498Y-18920945D01*
X-9440424Y-18768210D01*
X-9440425Y-18768209D01*
X-9469359Y-18718096D01*
X-9469361Y-18718094D01*
X-9519479Y-18631285D01*
X-9519481Y-18631282D01*
X-11863181Y-16287583D01*
X-11896666Y-16226260D01*
X-11899500Y-16199902D01*
X-11899500Y-14878712D01*
X-10850500Y-14878712D01*
X-10850500Y-15121288D01*
X-10818838Y-15361789D01*
X-10756054Y-15596100D01*
X-10663224Y-15820212D01*
X-10541936Y-16030289D01*
X-10394265Y-16222738D01*
X-10222738Y-16394265D01*
X-10030289Y-16541936D01*
X-9820212Y-16663224D01*
X-9596100Y-16756054D01*
X-9361789Y-16818838D01*
X-9169388Y-16844167D01*
X-9121289Y-16850500D01*
X-9121288Y-16850500D01*
X-8878711Y-16850500D01*
X-8818586Y-16842584D01*
X-8638211Y-16818838D01*
X-8403900Y-16756054D01*
X-8179788Y-16663224D01*
X-7969711Y-16541936D01*
X-7890321Y-16481018D01*
X-7777263Y-16394266D01*
X-7777256Y-16394260D01*
X-7605739Y-16222743D01*
X-7605733Y-16222736D01*
X-7458067Y-16030293D01*
X-7458066Y-16030292D01*
X-7458064Y-16030289D01*
X-7336776Y-15820212D01*
X-7336773Y-15820205D01*
X-7243947Y-15596104D01*
X-7181161Y-15361785D01*
X-7149500Y-15121288D01*
X-7149500Y-14878711D01*
X-7181161Y-14638214D01*
X-7243947Y-14403895D01*
X-7336773Y-14179794D01*
X-7336777Y-14179785D01*
X-7458067Y-13969706D01*
X-7605733Y-13777263D01*
X-7605739Y-13777256D01*
X-7777256Y-13605739D01*
X-7777263Y-13605733D01*
X-7969706Y-13458067D01*
X-8179785Y-13336777D01*
X-8179794Y-13336773D01*
X-8403895Y-13243947D01*
X-8638214Y-13181161D01*
X-8878711Y-13149500D01*
X-8878712Y-13149500D01*
X-9121288Y-13149500D01*
X-9121289Y-13149500D01*
X-9361785Y-13181161D01*
X-9596104Y-13243947D01*
X-9820205Y-13336773D01*
X-9820212Y-13336776D01*
X-10030289Y-13458064D01*
X-10030292Y-13458066D01*
X-10030293Y-13458067D01*
X-10222736Y-13605733D01*
X-10222743Y-13605739D01*
X-10394260Y-13777256D01*
X-10394265Y-13777262D01*
X-10541936Y-13969711D01*
X-10663224Y-14179788D01*
X-10756054Y-14403900D01*
X-10818838Y-14638211D01*
X-10850500Y-14878712D01*
X-11899500Y-14878712D01*
X-11899500Y-12089059D01*
X-11899499Y-12089046D01*
X-11899499Y-11920945D01*
X-11899498Y-11920945D01*
X-11940424Y-11768210D01*
X-11940425Y-11768209D01*
X-11969359Y-11718096D01*
X-11969361Y-11718094D01*
X-12019479Y-11631285D01*
X-12019481Y-11631282D01*
X-14213181Y-9437583D01*
X-14246666Y-9376260D01*
X-14249500Y-9349902D01*
X-14249500Y-9289955D01*
X-14229815Y-9222916D01*
X-14184517Y-9180900D01*
X-14101356Y-9135896D01*
X-14101353Y-9135894D01*
X-14101351Y-9135893D01*
X-13922954Y-8997040D01*
X-13922950Y-8997036D01*
X-13769850Y-8830727D01*
X-13769849Y-8830724D01*
X-13769844Y-8830719D01*
X-13683806Y-8699028D01*
X-13630662Y-8653675D01*
X-13561431Y-8644251D01*
X-13498095Y-8673753D01*
X-13476195Y-8699025D01*
X-13390156Y-8830719D01*
X-13390149Y-8830726D01*
X-13390149Y-8830727D01*
X-13336832Y-8888643D01*
X-13237046Y-8997040D01*
X-13058649Y-9135893D01*
X-13058643Y-9135896D01*
X-12975483Y-9180900D01*
X-12925892Y-9230119D01*
X-12910500Y-9289955D01*
X-12910500Y-9603330D01*
X-12910501Y-9603348D01*
X-12910501Y-9610943D01*
X-12910501Y-9769057D01*
X-12869577Y-9921785D01*
X-12858816Y-9940421D01*
X-12858816Y-9940424D01*
X-12813614Y-10018716D01*
X-12790520Y-10058716D01*
X-12678716Y-10170520D01*
X-12678714Y-10170520D01*
X-12668511Y-10180724D01*
X-12668506Y-10180727D01*
X-10868716Y-11980520D01*
X-10731784Y-12059577D01*
X-10579057Y-12100501D01*
X-10579055Y-12100501D01*
X-10413346Y-12100501D01*
X-10413330Y-12100500D01*
X-7800097Y-12100500D01*
X-7733058Y-12120185D01*
X-7712416Y-12136819D01*
X-6136819Y-13712416D01*
X-6103334Y-13773739D01*
X-6100500Y-13800097D01*
X-6100500Y-16199902D01*
X-6120185Y-16266941D01*
X-6136819Y-16287583D01*
X-6368714Y-16519478D01*
X-6368716Y-16519480D01*
X-6480520Y-16631284D01*
X-6497343Y-16660423D01*
X-6559577Y-16768215D01*
X-6600501Y-16920943D01*
X-6600501Y-16920945D01*
X-6600501Y-17089046D01*
X-6600500Y-17089059D01*
X-6600500Y-19525500D01*
X-6620185Y-19592539D01*
X-6672989Y-19638294D01*
X-6724499Y-19649500D01*
X-6897869Y-19649500D01*
X-6897876Y-19649501D01*
X-6957483Y-19655908D01*
X-7092328Y-19706202D01*
X-7092335Y-19706206D01*
X-7207544Y-19792452D01*
X-7207547Y-19792455D01*
X-7293793Y-19907664D01*
X-7293795Y-19907668D01*
X-7293796Y-19907669D01*
X-7344091Y-20042517D01*
X-7350500Y-20102127D01*
X-7350499Y-21897872D01*
X-7344091Y-21957483D01*
X-7293796Y-22092331D01*
X-7207546Y-22207546D01*
X-7092331Y-22293796D01*
X-6957483Y-22344091D01*
X-6897873Y-22350500D01*
X-5102128Y-22350499D01*
X-5053757Y-22345299D01*
X-5042516Y-22344091D01*
X-4907671Y-22293797D01*
X-4907664Y-22293793D01*
X-4792455Y-22207547D01*
X-4792452Y-22207544D01*
X-4706206Y-22092335D01*
X-4706202Y-22092328D01*
X-4655908Y-21957482D01*
X-4649501Y-21897883D01*
X-4649500Y-21897881D01*
X-4649500Y-21897873D01*
X-4649500Y-21897864D01*
X-4649500Y-20102129D01*
X-4649501Y-20102123D01*
X-4655908Y-20042516D01*
X-4706202Y-19907671D01*
X-4706206Y-19907664D01*
X-4792452Y-19792455D01*
X-4792455Y-19792452D01*
X-4907664Y-19706206D01*
X-4907671Y-19706202D01*
X-5042517Y-19655908D01*
X-5042516Y-19655908D01*
X-5102116Y-19649501D01*
X-5102119Y-19649500D01*
X-5102127Y-19649500D01*
X-5102135Y-19649500D01*
X-5275500Y-19649500D01*
X-5342539Y-19629815D01*
X-5388294Y-19577011D01*
X-5399500Y-19525500D01*
X-5399500Y-17300097D01*
X-5379815Y-17233058D01*
X-5363181Y-17212416D01*
X-5204884Y-17054120D01*
X-5019480Y-16868716D01*
X-5019479Y-16868714D01*
X-5019475Y-16868709D01*
X-4940426Y-16731790D01*
X-4940423Y-16731785D01*
X-4922052Y-16663224D01*
X-4899499Y-16579057D01*
X-4899499Y-16420942D01*
X-4899499Y-16413339D01*
X-4899500Y-16413329D01*
X-4899500Y-14249097D01*
X-4879815Y-14182058D01*
X-4827011Y-14136303D01*
X-4757853Y-14126359D01*
X-4694297Y-14155384D01*
X-4687819Y-14161416D01*
X-2636819Y-16212416D01*
X-2603334Y-16273739D01*
X-2600500Y-16300097D01*
X-2600500Y-19525500D01*
X-2620185Y-19592539D01*
X-2672989Y-19638294D01*
X-2724499Y-19649500D01*
X-2897869Y-19649500D01*
X-2897876Y-19649501D01*
X-2957483Y-19655908D01*
X-3092328Y-19706202D01*
X-3092335Y-19706206D01*
X-3207544Y-19792452D01*
X-3207547Y-19792455D01*
X-3293793Y-19907664D01*
X-3293795Y-19907668D01*
X-3293796Y-19907669D01*
X-3344091Y-20042517D01*
X-3350500Y-20102127D01*
X-3350499Y-21897872D01*
X-3344091Y-21957483D01*
X-3293796Y-22092331D01*
X-3207546Y-22207546D01*
X-3092331Y-22293796D01*
X-2957483Y-22344091D01*
X-2897873Y-22350500D01*
X-1102128Y-22350499D01*
X-1053757Y-22345299D01*
X-1042516Y-22344091D01*
X-907671Y-22293797D01*
X-907664Y-22293793D01*
X-792455Y-22207547D01*
X-792452Y-22207544D01*
X-706206Y-22092335D01*
X-706202Y-22092328D01*
X-655908Y-21957482D01*
X-649501Y-21897883D01*
X-649500Y-21897881D01*
X-649500Y-21897873D01*
X-649500Y-21897864D01*
X-649500Y-20102129D01*
X-649501Y-20102123D01*
X-655908Y-20042516D01*
X-706202Y-19907671D01*
X-706206Y-19907664D01*
X-792452Y-19792455D01*
X-792455Y-19792452D01*
X-907664Y-19706206D01*
X-907671Y-19706202D01*
X-1042517Y-19655908D01*
X-1042516Y-19655908D01*
X-1102116Y-19649501D01*
X-1102119Y-19649500D01*
X-1102127Y-19649500D01*
X-1102135Y-19649500D01*
X-1275500Y-19649500D01*
X-1342539Y-19629815D01*
X-1388294Y-19577011D01*
X-1399500Y-19525500D01*
X-1399500Y-16089060D01*
X-1399499Y-16089047D01*
X-1399499Y-15920944D01*
X-1440423Y-15768214D01*
X-1440426Y-15768209D01*
X-1519475Y-15631290D01*
X-1519481Y-15631282D01*
X-7131282Y-10019481D01*
X-7131285Y-10019479D01*
X-7174689Y-9994420D01*
X-7218095Y-9969360D01*
X-7218096Y-9969359D01*
X-7268210Y-9940424D01*
X-7313587Y-9928265D01*
X-7420943Y-9899499D01*
X-7579057Y-9899499D01*
X-7586653Y-9899499D01*
X-7586669Y-9899500D01*
X-8199903Y-9899500D01*
X-8266942Y-9879815D01*
X-8287584Y-9863181D01*
X-8918418Y-9232345D01*
X-8951903Y-9171022D01*
X-8946919Y-9101330D01*
X-8906899Y-9046811D01*
X-8842960Y-8997045D01*
X-8842950Y-8997036D01*
X-8689850Y-8830727D01*
X-8689849Y-8830724D01*
X-8689844Y-8830719D01*
X-8603806Y-8699028D01*
X-8550662Y-8653675D01*
X-8481431Y-8644251D01*
X-8418095Y-8673753D01*
X-8396195Y-8699025D01*
X-8310156Y-8830719D01*
X-8310149Y-8830726D01*
X-8310149Y-8830727D01*
X-8256832Y-8888643D01*
X-8157046Y-8997040D01*
X-7978649Y-9135893D01*
X-7779831Y-9243488D01*
X-7566014Y-9316891D01*
X-7343033Y-9354100D01*
X-7343032Y-9354100D01*
X-7116968Y-9354100D01*
X-7116967Y-9354100D01*
X-6893986Y-9316891D01*
X-6861751Y-9305824D01*
X-6791955Y-9302674D01*
X-6733810Y-9335423D01*
X1363182Y-17432417D01*
X1396666Y-17493738D01*
X1399500Y-17520096D01*
X1399500Y-19525500D01*
X1379815Y-19592539D01*
X1327011Y-19638294D01*
X1275501Y-19649500D01*
X1102130Y-19649500D01*
X1102123Y-19649501D01*
X1042516Y-19655908D01*
X907671Y-19706202D01*
X907664Y-19706206D01*
X792455Y-19792452D01*
X792452Y-19792455D01*
X706206Y-19907664D01*
X706202Y-19907671D01*
X655908Y-20042517D01*
X653195Y-20067758D01*
X649501Y-20102123D01*
X649500Y-20102135D01*
X649500Y-21897870D01*
X649501Y-21897876D01*
X655908Y-21957483D01*
X706202Y-22092328D01*
X706206Y-22092335D01*
X792452Y-22207544D01*
X792455Y-22207547D01*
X907664Y-22293793D01*
X907671Y-22293797D01*
X1042517Y-22344091D01*
X1042516Y-22344091D01*
X1049444Y-22344835D01*
X1102127Y-22350500D01*
X2897872Y-22350499D01*
X2957483Y-22344091D01*
X3092331Y-22293796D01*
X3207546Y-22207546D01*
X3293796Y-22092331D01*
X3344091Y-21957483D01*
X3350500Y-21897873D01*
X3350499Y-20102128D01*
X3344091Y-20042517D01*
X3333938Y-20015296D01*
X3293797Y-19907671D01*
X3293793Y-19907664D01*
X3207547Y-19792455D01*
X3207544Y-19792452D01*
X3092335Y-19706206D01*
X3092328Y-19706202D01*
X2957482Y-19655908D01*
X2957483Y-19655908D01*
X2897883Y-19649501D01*
X2897881Y-19649500D01*
X2897873Y-19649500D01*
X2897865Y-19649500D01*
X2724500Y-19649500D01*
X2657461Y-19629815D01*
X2611706Y-19577011D01*
X2600500Y-19525500D01*
X2600500Y-17140945D01*
X2600500Y-17140943D01*
X2559577Y-16988216D01*
X2559577Y-16988215D01*
X2543160Y-16959782D01*
X2520737Y-16920942D01*
X2480522Y-16851287D01*
X2480521Y-16851286D01*
X2480520Y-16851284D01*
X2368716Y-16739480D01*
X2368715Y-16739479D01*
X2364385Y-16735149D01*
X2364374Y-16735139D01*
X-4804983Y-9565781D01*
X-4838468Y-9504458D01*
X-4833484Y-9434766D01*
X-4791612Y-9378833D01*
X-4726148Y-9354416D01*
X-4717302Y-9354100D01*
X-4576968Y-9354100D01*
X-4576967Y-9354100D01*
X-4353986Y-9316891D01*
X-4321751Y-9305824D01*
X-4251955Y-9302674D01*
X-4193810Y-9335423D01*
X5363182Y-18892417D01*
X5396666Y-18953738D01*
X5399500Y-18980096D01*
X5399500Y-19525500D01*
X5379815Y-19592539D01*
X5327011Y-19638294D01*
X5275501Y-19649500D01*
X5102130Y-19649500D01*
X5102123Y-19649501D01*
X5042516Y-19655908D01*
X4907671Y-19706202D01*
X4907664Y-19706206D01*
X4792455Y-19792452D01*
X4792452Y-19792455D01*
X4706206Y-19907664D01*
X4706202Y-19907671D01*
X4655908Y-20042517D01*
X4653195Y-20067758D01*
X4649501Y-20102123D01*
X4649500Y-20102135D01*
X4649500Y-21897870D01*
X4649501Y-21897876D01*
X4655908Y-21957483D01*
X4706202Y-22092328D01*
X4706206Y-22092335D01*
X4792452Y-22207544D01*
X4792455Y-22207547D01*
X4907664Y-22293793D01*
X4907671Y-22293797D01*
X5042517Y-22344091D01*
X5042516Y-22344091D01*
X5049444Y-22344835D01*
X5102127Y-22350500D01*
X6897872Y-22350499D01*
X6957483Y-22344091D01*
X7092331Y-22293796D01*
X7207546Y-22207546D01*
X7293796Y-22092331D01*
X7344091Y-21957483D01*
X7350500Y-21897873D01*
X7350499Y-20102128D01*
X7344091Y-20042517D01*
X7333938Y-20015296D01*
X7293797Y-19907671D01*
X7293793Y-19907664D01*
X7207547Y-19792455D01*
X7207544Y-19792452D01*
X7092335Y-19706206D01*
X7092328Y-19706202D01*
X6957482Y-19655908D01*
X6957483Y-19655908D01*
X6897883Y-19649501D01*
X6897881Y-19649500D01*
X6897873Y-19649500D01*
X6897865Y-19649500D01*
X6724500Y-19649500D01*
X6657461Y-19629815D01*
X6611706Y-19577011D01*
X6600500Y-19525500D01*
X6600500Y-19175686D01*
X6620185Y-19108647D01*
X6672989Y-19062892D01*
X6742147Y-19052948D01*
X6760246Y-19057913D01*
X6760364Y-19057473D01*
X6768213Y-19059576D01*
X6768215Y-19059577D01*
X6920943Y-19100500D01*
X7699903Y-19100500D01*
X7766942Y-19120185D01*
X7787584Y-19136819D01*
X8617587Y-19966822D01*
X8651072Y-20028145D01*
X8653195Y-20067758D01*
X8649501Y-20102123D01*
X8649500Y-20102135D01*
X8649500Y-21897870D01*
X8649501Y-21897876D01*
X8655908Y-21957483D01*
X8706202Y-22092328D01*
X8706206Y-22092335D01*
X8792452Y-22207544D01*
X8792455Y-22207547D01*
X8907664Y-22293793D01*
X8907671Y-22293797D01*
X9042517Y-22344091D01*
X9042516Y-22344091D01*
X9049444Y-22344835D01*
X9102127Y-22350500D01*
X10897872Y-22350499D01*
X10957483Y-22344091D01*
X11092331Y-22293796D01*
X11207546Y-22207546D01*
X11293796Y-22092331D01*
X11344091Y-21957483D01*
X11350500Y-21897873D01*
X11350499Y-20102128D01*
X11344091Y-20042517D01*
X11333938Y-20015296D01*
X11293797Y-19907671D01*
X11293793Y-19907664D01*
X11207547Y-19792455D01*
X11207544Y-19792452D01*
X11092335Y-19706206D01*
X11092328Y-19706202D01*
X10957482Y-19655908D01*
X10957483Y-19655908D01*
X10897883Y-19649501D01*
X10897881Y-19649500D01*
X10897873Y-19649500D01*
X10897865Y-19649500D01*
X10050097Y-19649500D01*
X9983058Y-19629815D01*
X9962416Y-19613181D01*
X8487590Y-18138355D01*
X8487588Y-18138352D01*
X8368717Y-18019481D01*
X8368716Y-18019480D01*
X8281904Y-17969360D01*
X8281904Y-17969359D01*
X8281900Y-17969358D01*
X8231785Y-17940423D01*
X8079057Y-17899499D01*
X7920943Y-17899499D01*
X7913347Y-17899499D01*
X7913331Y-17899500D01*
X7300097Y-17899500D01*
X7233058Y-17879815D01*
X7212416Y-17863181D01*
X4227947Y-14878711D01*
X7149500Y-14878711D01*
X7149500Y-15121288D01*
X7181161Y-15361785D01*
X7243947Y-15596104D01*
X7336773Y-15820205D01*
X7336776Y-15820212D01*
X7458064Y-16030289D01*
X7458066Y-16030292D01*
X7458067Y-16030293D01*
X7605733Y-16222736D01*
X7605739Y-16222743D01*
X7777256Y-16394260D01*
X7777263Y-16394266D01*
X7890321Y-16481018D01*
X7969711Y-16541936D01*
X8179788Y-16663224D01*
X8403900Y-16756054D01*
X8638211Y-16818838D01*
X8818586Y-16842584D01*
X8878711Y-16850500D01*
X8878712Y-16850500D01*
X9121289Y-16850500D01*
X9169388Y-16844167D01*
X9361789Y-16818838D01*
X9596100Y-16756054D01*
X9820212Y-16663224D01*
X10030289Y-16541936D01*
X10222738Y-16394265D01*
X10394265Y-16222738D01*
X10541936Y-16030289D01*
X10663224Y-15820212D01*
X10756054Y-15596100D01*
X10818838Y-15361789D01*
X10850500Y-15121288D01*
X10850500Y-14878712D01*
X10846131Y-14845528D01*
X15249500Y-14845528D01*
X15249500Y-15154471D01*
X15284086Y-15461437D01*
X15284089Y-15461455D01*
X15352831Y-15762635D01*
X15352835Y-15762647D01*
X15454862Y-16054222D01*
X15454868Y-16054236D01*
X15588903Y-16332562D01*
X15588905Y-16332565D01*
X15753265Y-16594143D01*
X15945880Y-16835674D01*
X16164326Y-17054120D01*
X16405857Y-17246735D01*
X16667435Y-17411095D01*
X16945771Y-17545135D01*
X16945777Y-17545137D01*
X17237352Y-17647164D01*
X17237364Y-17647168D01*
X17538548Y-17715911D01*
X17538554Y-17715911D01*
X17538562Y-17715913D01*
X17743206Y-17738970D01*
X17845529Y-17750499D01*
X17845532Y-17750500D01*
X17845535Y-17750500D01*
X18154468Y-17750500D01*
X18154469Y-17750499D01*
X18311356Y-17732822D01*
X18461437Y-17715913D01*
X18461442Y-17715912D01*
X18461452Y-17715911D01*
X18762636Y-17647168D01*
X19054229Y-17545135D01*
X19332565Y-17411095D01*
X19594143Y-17246735D01*
X19835674Y-17054120D01*
X20054120Y-16835674D01*
X20246735Y-16594143D01*
X20411095Y-16332565D01*
X20545135Y-16054229D01*
X20647168Y-15762636D01*
X20715911Y-15461452D01*
X20750500Y-15154465D01*
X20750500Y-14845535D01*
X20715911Y-14538548D01*
X20647168Y-14237364D01*
X20545135Y-13945771D01*
X20411095Y-13667435D01*
X20246735Y-13405857D01*
X20054120Y-13164326D01*
X19835674Y-12945880D01*
X19594143Y-12753265D01*
X19332565Y-12588905D01*
X19332562Y-12588903D01*
X19054236Y-12454868D01*
X19054222Y-12454862D01*
X18762647Y-12352835D01*
X18762635Y-12352831D01*
X18461455Y-12284089D01*
X18461437Y-12284086D01*
X18154471Y-12249500D01*
X18154465Y-12249500D01*
X17845535Y-12249500D01*
X17845528Y-12249500D01*
X17538562Y-12284086D01*
X17538544Y-12284089D01*
X17237364Y-12352831D01*
X17237352Y-12352835D01*
X16945777Y-12454862D01*
X16945763Y-12454868D01*
X16667437Y-12588903D01*
X16405858Y-12753264D01*
X16164326Y-12945879D01*
X15945879Y-13164326D01*
X15753264Y-13405858D01*
X15588903Y-13667437D01*
X15454868Y-13945763D01*
X15454862Y-13945777D01*
X15352835Y-14237352D01*
X15352831Y-14237364D01*
X15284089Y-14538544D01*
X15284086Y-14538562D01*
X15249500Y-14845528D01*
X10846131Y-14845528D01*
X10818838Y-14638211D01*
X10756054Y-14403900D01*
X10663224Y-14179788D01*
X10541936Y-13969711D01*
X10394265Y-13777262D01*
X10394260Y-13777256D01*
X10222743Y-13605739D01*
X10222736Y-13605733D01*
X10030293Y-13458067D01*
X10030292Y-13458066D01*
X10030289Y-13458064D01*
X9820212Y-13336776D01*
X9820205Y-13336773D01*
X9596104Y-13243947D01*
X9361785Y-13181161D01*
X9121289Y-13149500D01*
X9121288Y-13149500D01*
X8878712Y-13149500D01*
X8878711Y-13149500D01*
X8638214Y-13181161D01*
X8403895Y-13243947D01*
X8179794Y-13336773D01*
X8179785Y-13336777D01*
X7969706Y-13458067D01*
X7777263Y-13605733D01*
X7777256Y-13605739D01*
X7605739Y-13777256D01*
X7605733Y-13777263D01*
X7458067Y-13969706D01*
X7336777Y-14179785D01*
X7336773Y-14179794D01*
X7243947Y-14403895D01*
X7181161Y-14638214D01*
X7149500Y-14878711D01*
X4227947Y-14878711D01*
X-1365897Y-9284866D01*
X-1399382Y-9223543D01*
X-1394398Y-9153851D01*
X-1354378Y-9099332D01*
X-1222960Y-8997045D01*
X-1222950Y-8997036D01*
X-1069850Y-8830727D01*
X-1069849Y-8830724D01*
X-1069844Y-8830719D01*
X-983806Y-8699028D01*
X-930662Y-8653675D01*
X-861431Y-8644251D01*
X-798095Y-8673753D01*
X-776195Y-8699025D01*
X-690156Y-8830719D01*
X-690149Y-8830726D01*
X-690149Y-8830727D01*
X-636832Y-8888643D01*
X-537046Y-8997040D01*
X-358649Y-9135893D01*
X-159831Y-9243488D01*
X-52922Y-9280189D01*
X53982Y-9316890D01*
X53984Y-9316890D01*
X53986Y-9316891D01*
X276967Y-9354100D01*
X276968Y-9354100D01*
X503032Y-9354100D01*
X503033Y-9354100D01*
X726014Y-9316891D01*
X939831Y-9243488D01*
X1138649Y-9135893D01*
X1317046Y-8997040D01*
X1416832Y-8888643D01*
X1470149Y-8830727D01*
X1470149Y-8830726D01*
X1470156Y-8830719D01*
X1556193Y-8699028D01*
X1609338Y-8653675D01*
X1678569Y-8644251D01*
X1741905Y-8673753D01*
X1763804Y-8699025D01*
X1849844Y-8830719D01*
X1849849Y-8830724D01*
X1849850Y-8830727D01*
X2002950Y-8997036D01*
X2002954Y-8997040D01*
X2181351Y-9135893D01*
X2380169Y-9243488D01*
X2380172Y-9243489D01*
X2593982Y-9316890D01*
X2593984Y-9316890D01*
X2593986Y-9316891D01*
X2816967Y-9354100D01*
X2816968Y-9354100D01*
X3043032Y-9354100D01*
X3043033Y-9354100D01*
X3266014Y-9316891D01*
X3479831Y-9243488D01*
X3678649Y-9135893D01*
X3857046Y-8997040D01*
X3956832Y-8888643D01*
X4010149Y-8830727D01*
X4010149Y-8830726D01*
X4010156Y-8830719D01*
X4096193Y-8699028D01*
X4149338Y-8653675D01*
X4218569Y-8644251D01*
X4281905Y-8673753D01*
X4303804Y-8699025D01*
X4389844Y-8830719D01*
X4389849Y-8830724D01*
X4389850Y-8830727D01*
X4542950Y-8997036D01*
X4542954Y-8997040D01*
X4721351Y-9135893D01*
X4920169Y-9243488D01*
X4920172Y-9243489D01*
X5133982Y-9316890D01*
X5133984Y-9316890D01*
X5133986Y-9316891D01*
X5356967Y-9354100D01*
X5356968Y-9354100D01*
X5583032Y-9354100D01*
X5583033Y-9354100D01*
X5806014Y-9316891D01*
X6019831Y-9243488D01*
X6218649Y-9135893D01*
X6397046Y-8997040D01*
X6496832Y-8888643D01*
X6550149Y-8830727D01*
X6550151Y-8830724D01*
X6550156Y-8830719D01*
X6673802Y-8641465D01*
X6764611Y-8434441D01*
X6820107Y-8215293D01*
X6831018Y-8083616D01*
X6838775Y-7990006D01*
X6838775Y-7989993D01*
X9181225Y-7989993D01*
X9181225Y-7990006D01*
X9199892Y-8215289D01*
X9255388Y-8434439D01*
X9346198Y-8641466D01*
X9469842Y-8830716D01*
X9469850Y-8830727D01*
X9622950Y-8997036D01*
X9622954Y-8997040D01*
X9801351Y-9135893D01*
X10000169Y-9243488D01*
X10000172Y-9243489D01*
X10213982Y-9316890D01*
X10213984Y-9316890D01*
X10213986Y-9316891D01*
X10436967Y-9354100D01*
X10436968Y-9354100D01*
X10663032Y-9354100D01*
X10663033Y-9354100D01*
X10886014Y-9316891D01*
X11099831Y-9243488D01*
X11298649Y-9135893D01*
X11477046Y-8997040D01*
X11576832Y-8888643D01*
X11630149Y-8830727D01*
X11630149Y-8830726D01*
X11630156Y-8830719D01*
X11716193Y-8699028D01*
X11769338Y-8653675D01*
X11838569Y-8644251D01*
X11901905Y-8673753D01*
X11923804Y-8699025D01*
X12009844Y-8830719D01*
X12009849Y-8830724D01*
X12009850Y-8830727D01*
X12162950Y-8997036D01*
X12162954Y-8997040D01*
X12341351Y-9135893D01*
X12540169Y-9243488D01*
X12540172Y-9243489D01*
X12753982Y-9316890D01*
X12753984Y-9316890D01*
X12753986Y-9316891D01*
X12976967Y-9354100D01*
X12976968Y-9354100D01*
X13203032Y-9354100D01*
X13203033Y-9354100D01*
X13426014Y-9316891D01*
X13639831Y-9243488D01*
X13838649Y-9135893D01*
X14017046Y-8997040D01*
X14116832Y-8888643D01*
X14170149Y-8830727D01*
X14170149Y-8830726D01*
X14170156Y-8830719D01*
X14256193Y-8699028D01*
X14309338Y-8653675D01*
X14378569Y-8644251D01*
X14441905Y-8673753D01*
X14463804Y-8699025D01*
X14549844Y-8830719D01*
X14549849Y-8830724D01*
X14549850Y-8830727D01*
X14702950Y-8997036D01*
X14702954Y-8997040D01*
X14881351Y-9135893D01*
X15080169Y-9243488D01*
X15080172Y-9243489D01*
X15293982Y-9316890D01*
X15293984Y-9316890D01*
X15293986Y-9316891D01*
X15516967Y-9354100D01*
X15516968Y-9354100D01*
X15743032Y-9354100D01*
X15743033Y-9354100D01*
X15966014Y-9316891D01*
X16179831Y-9243488D01*
X16378649Y-9135893D01*
X16557046Y-8997040D01*
X16656832Y-8888643D01*
X16710149Y-8830727D01*
X16710149Y-8830726D01*
X16710156Y-8830719D01*
X16796193Y-8699028D01*
X16849338Y-8653675D01*
X16918569Y-8644251D01*
X16981905Y-8673753D01*
X17003804Y-8699025D01*
X17089844Y-8830719D01*
X17089849Y-8830724D01*
X17089850Y-8830727D01*
X17242950Y-8997036D01*
X17242954Y-8997040D01*
X17421351Y-9135893D01*
X17620169Y-9243488D01*
X17620172Y-9243489D01*
X17833982Y-9316890D01*
X17833984Y-9316890D01*
X17833986Y-9316891D01*
X18056967Y-9354100D01*
X18056968Y-9354100D01*
X18283032Y-9354100D01*
X18283033Y-9354100D01*
X18506014Y-9316891D01*
X18719831Y-9243488D01*
X18918649Y-9135893D01*
X19097046Y-8997040D01*
X19196832Y-8888643D01*
X19250149Y-8830727D01*
X19250149Y-8830726D01*
X19250156Y-8830719D01*
X19336193Y-8699028D01*
X19389338Y-8653675D01*
X19458569Y-8644251D01*
X19521905Y-8673753D01*
X19543804Y-8699025D01*
X19629844Y-8830719D01*
X19629849Y-8830724D01*
X19629850Y-8830727D01*
X19782950Y-8997036D01*
X19782954Y-8997040D01*
X19961351Y-9135893D01*
X20160169Y-9243488D01*
X20160172Y-9243489D01*
X20373982Y-9316890D01*
X20373984Y-9316890D01*
X20373986Y-9316891D01*
X20596967Y-9354100D01*
X20596968Y-9354100D01*
X20823032Y-9354100D01*
X20823033Y-9354100D01*
X21046014Y-9316891D01*
X21259831Y-9243488D01*
X21458649Y-9135893D01*
X21637046Y-8997040D01*
X21736832Y-8888643D01*
X21790149Y-8830727D01*
X21790151Y-8830724D01*
X21790156Y-8830719D01*
X21913802Y-8641465D01*
X22004611Y-8434441D01*
X22060107Y-8215293D01*
X22071018Y-8083616D01*
X22072585Y-8064708D01*
X22491499Y-8064708D01*
X22520647Y-8211240D01*
X22520650Y-8211250D01*
X22577822Y-8349277D01*
X22577829Y-8349290D01*
X22660834Y-8473515D01*
X22660837Y-8473519D01*
X22766480Y-8579162D01*
X22766484Y-8579165D01*
X22890709Y-8662170D01*
X22890722Y-8662177D01*
X23028749Y-8719349D01*
X23028754Y-8719351D01*
X23028758Y-8719351D01*
X23028759Y-8719352D01*
X23175291Y-8748500D01*
X23175294Y-8748500D01*
X23324708Y-8748500D01*
X23426262Y-8728299D01*
X23471246Y-8719351D01*
X23609284Y-8662174D01*
X23733516Y-8579165D01*
X23839165Y-8473516D01*
X23922174Y-8349284D01*
X23979351Y-8211246D01*
X23990982Y-8152776D01*
X24008500Y-8064708D01*
X24008500Y-7915291D01*
X23979352Y-7768759D01*
X23979351Y-7768758D01*
X23979351Y-7768754D01*
X23956153Y-7712748D01*
X23922177Y-7630722D01*
X23922170Y-7630709D01*
X23839165Y-7506484D01*
X23839162Y-7506480D01*
X23733519Y-7400837D01*
X23733515Y-7400834D01*
X23609290Y-7317829D01*
X23609277Y-7317822D01*
X23471250Y-7260650D01*
X23471240Y-7260647D01*
X23324708Y-7231500D01*
X23324706Y-7231500D01*
X23175294Y-7231500D01*
X23175292Y-7231500D01*
X23028759Y-7260647D01*
X23028749Y-7260650D01*
X22890722Y-7317822D01*
X22890709Y-7317829D01*
X22766484Y-7400834D01*
X22766480Y-7400837D01*
X22660837Y-7506480D01*
X22660834Y-7506484D01*
X22577829Y-7630709D01*
X22577822Y-7630722D01*
X22520650Y-7768749D01*
X22520647Y-7768759D01*
X22491500Y-7915291D01*
X22491500Y-7915294D01*
X22491500Y-8064706D01*
X22491500Y-8064708D01*
X22491499Y-8064708D01*
X22072585Y-8064708D01*
X22078775Y-7990006D01*
X22078775Y-7989993D01*
X22060107Y-7764710D01*
X22060107Y-7764707D01*
X22004611Y-7545559D01*
X21913802Y-7338535D01*
X21862916Y-7260649D01*
X21790157Y-7149283D01*
X21790149Y-7149272D01*
X21637049Y-6982963D01*
X21637048Y-6982962D01*
X21637046Y-6982960D01*
X21458649Y-6844107D01*
X21340700Y-6780276D01*
X21259832Y-6736512D01*
X21259827Y-6736510D01*
X21046017Y-6663109D01*
X20878778Y-6635202D01*
X20823033Y-6625900D01*
X20596967Y-6625900D01*
X20552370Y-6633341D01*
X20373982Y-6663109D01*
X20160172Y-6736510D01*
X20160167Y-6736512D01*
X19961352Y-6844106D01*
X19782955Y-6982959D01*
X19782950Y-6982963D01*
X19629850Y-7149272D01*
X19629842Y-7149283D01*
X19543808Y-7280968D01*
X19490662Y-7326325D01*
X19421430Y-7335748D01*
X19358095Y-7306246D01*
X19336192Y-7280968D01*
X19250157Y-7149283D01*
X19250149Y-7149272D01*
X19097049Y-6982963D01*
X19097048Y-6982962D01*
X19097046Y-6982960D01*
X18918649Y-6844107D01*
X18800700Y-6780276D01*
X18719832Y-6736512D01*
X18719827Y-6736510D01*
X18506017Y-6663109D01*
X18338778Y-6635202D01*
X18283033Y-6625900D01*
X18056967Y-6625900D01*
X18012370Y-6633341D01*
X17833982Y-6663109D01*
X17620172Y-6736510D01*
X17620167Y-6736512D01*
X17421352Y-6844106D01*
X17242955Y-6982959D01*
X17242950Y-6982963D01*
X17089850Y-7149272D01*
X17089842Y-7149283D01*
X17003808Y-7280968D01*
X16950662Y-7326325D01*
X16881430Y-7335748D01*
X16818095Y-7306246D01*
X16796192Y-7280968D01*
X16710157Y-7149283D01*
X16710149Y-7149272D01*
X16557049Y-6982963D01*
X16557048Y-6982962D01*
X16557046Y-6982960D01*
X16378649Y-6844107D01*
X16260700Y-6780276D01*
X16179832Y-6736512D01*
X16179827Y-6736510D01*
X15966017Y-6663109D01*
X15798778Y-6635202D01*
X15743033Y-6625900D01*
X15516967Y-6625900D01*
X15472370Y-6633341D01*
X15293982Y-6663109D01*
X15080172Y-6736510D01*
X15080167Y-6736512D01*
X14881352Y-6844106D01*
X14702955Y-6982959D01*
X14702950Y-6982963D01*
X14549850Y-7149272D01*
X14549842Y-7149283D01*
X14463808Y-7280968D01*
X14410662Y-7326325D01*
X14341430Y-7335748D01*
X14278095Y-7306246D01*
X14256192Y-7280968D01*
X14170157Y-7149283D01*
X14170149Y-7149272D01*
X14017049Y-6982963D01*
X14017048Y-6982962D01*
X14017046Y-6982960D01*
X13838649Y-6844107D01*
X13720700Y-6780276D01*
X13639832Y-6736512D01*
X13639827Y-6736510D01*
X13426017Y-6663109D01*
X13258778Y-6635202D01*
X13203033Y-6625900D01*
X12976967Y-6625900D01*
X12932370Y-6633341D01*
X12753982Y-6663109D01*
X12540172Y-6736510D01*
X12540167Y-6736512D01*
X12341352Y-6844106D01*
X12162955Y-6982959D01*
X12162950Y-6982963D01*
X12009850Y-7149272D01*
X12009842Y-7149283D01*
X11923808Y-7280968D01*
X11870662Y-7326325D01*
X11801430Y-7335748D01*
X11738095Y-7306246D01*
X11716192Y-7280968D01*
X11630157Y-7149283D01*
X11630149Y-7149272D01*
X11477049Y-6982963D01*
X11477048Y-6982962D01*
X11477046Y-6982960D01*
X11298649Y-6844107D01*
X11180700Y-6780276D01*
X11099832Y-6736512D01*
X11099827Y-6736510D01*
X10886017Y-6663109D01*
X10718778Y-6635202D01*
X10663033Y-6625900D01*
X10436967Y-6625900D01*
X10392370Y-6633341D01*
X10213982Y-6663109D01*
X10000172Y-6736510D01*
X10000167Y-6736512D01*
X9801352Y-6844106D01*
X9622955Y-6982959D01*
X9622950Y-6982963D01*
X9469850Y-7149272D01*
X9469842Y-7149283D01*
X9346198Y-7338533D01*
X9255388Y-7545560D01*
X9199892Y-7764710D01*
X9181225Y-7989993D01*
X6838775Y-7989993D01*
X6820107Y-7764710D01*
X6820107Y-7764707D01*
X6764611Y-7545559D01*
X6673802Y-7338535D01*
X6622916Y-7260649D01*
X6550157Y-7149283D01*
X6550149Y-7149272D01*
X6397049Y-6982963D01*
X6397048Y-6982962D01*
X6397046Y-6982960D01*
X6218649Y-6844107D01*
X6100700Y-6780276D01*
X6019832Y-6736512D01*
X6019827Y-6736510D01*
X5806017Y-6663109D01*
X5638778Y-6635202D01*
X5583033Y-6625900D01*
X5356967Y-6625900D01*
X5312370Y-6633341D01*
X5133982Y-6663109D01*
X4920172Y-6736510D01*
X4920167Y-6736512D01*
X4721352Y-6844106D01*
X4542955Y-6982959D01*
X4542950Y-6982963D01*
X4389850Y-7149272D01*
X4389842Y-7149283D01*
X4303808Y-7280968D01*
X4250662Y-7326325D01*
X4181430Y-7335748D01*
X4118095Y-7306246D01*
X4096192Y-7280968D01*
X4010157Y-7149283D01*
X4010149Y-7149272D01*
X3857049Y-6982963D01*
X3857048Y-6982962D01*
X3857046Y-6982960D01*
X3678649Y-6844107D01*
X3560700Y-6780276D01*
X3479832Y-6736512D01*
X3479827Y-6736510D01*
X3266017Y-6663109D01*
X3098778Y-6635202D01*
X3043033Y-6625900D01*
X2816967Y-6625900D01*
X2772370Y-6633341D01*
X2593982Y-6663109D01*
X2380172Y-6736510D01*
X2380167Y-6736512D01*
X2181352Y-6844106D01*
X2002955Y-6982959D01*
X2002950Y-6982963D01*
X1849850Y-7149272D01*
X1849842Y-7149283D01*
X1763808Y-7280968D01*
X1710662Y-7326325D01*
X1641430Y-7335748D01*
X1578095Y-7306246D01*
X1556192Y-7280968D01*
X1470157Y-7149283D01*
X1470149Y-7149272D01*
X1317049Y-6982963D01*
X1317048Y-6982962D01*
X1317046Y-6982960D01*
X1138649Y-6844107D01*
X1020700Y-6780276D01*
X939832Y-6736512D01*
X939827Y-6736510D01*
X726017Y-6663109D01*
X558778Y-6635202D01*
X503033Y-6625900D01*
X276967Y-6625900D01*
X232370Y-6633341D01*
X53982Y-6663109D01*
X-159827Y-6736510D01*
X-159832Y-6736512D01*
X-240700Y-6780276D01*
X-358649Y-6844107D01*
X-537046Y-6982960D01*
X-537048Y-6982962D01*
X-537049Y-6982963D01*
X-690149Y-7149272D01*
X-690157Y-7149283D01*
X-776192Y-7280968D01*
X-829338Y-7326325D01*
X-898570Y-7335748D01*
X-961905Y-7306246D01*
X-983808Y-7280968D01*
X-1069842Y-7149283D01*
X-1069850Y-7149272D01*
X-1222950Y-6982963D01*
X-1222955Y-6982959D01*
X-1401352Y-6844106D01*
X-1564101Y-6756031D01*
X-1613691Y-6706811D01*
X-1628799Y-6638595D01*
X-1604629Y-6573039D01*
X-1568662Y-6540996D01*
X-1568754Y-6540860D01*
X-1567777Y-6540207D01*
X-1567084Y-6539590D01*
X-1565388Y-6538611D01*
X-1565385Y-6538608D01*
X-1565382Y-6538607D01*
X-1383338Y-6398918D01*
X-1383330Y-6398911D01*
X-1221089Y-6236670D01*
X-1221081Y-6236661D01*
X-1081392Y-6054617D01*
X-966657Y-5855890D01*
X-966650Y-5855876D01*
X-878842Y-5643887D01*
X-819453Y-5422240D01*
X-819452Y-5422238D01*
X-814446Y-5384215D01*
X-789500Y-5194741D01*
X-789500Y-4965258D01*
X-819451Y-4737770D01*
X-819453Y-4737759D01*
X-878842Y-4516112D01*
X-966650Y-4304123D01*
X-966657Y-4304109D01*
X-1081392Y-4105382D01*
X-1221081Y-3923338D01*
X-1383338Y-3761081D01*
X-1565382Y-3621392D01*
X-1764109Y-3506657D01*
X-1764123Y-3506650D01*
X-1976112Y-3418842D01*
X-2104076Y-3384554D01*
X-2197762Y-3359452D01*
X-2208715Y-3358009D01*
X-2425258Y-3329500D01*
X-2425266Y-3329500D01*
X-2654734Y-3329500D01*
X-2654741Y-3329500D01*
X-2844215Y-3354446D01*
X-2882238Y-3359452D01*
X-3103887Y-3418842D01*
X-3315876Y-3506650D01*
X-3315890Y-3506657D01*
X-3514617Y-3621392D01*
X-3696661Y-3761081D01*
X-3696670Y-3761089D01*
X-3858911Y-3923330D01*
X-3858918Y-3923338D01*
X-3998607Y-4105382D01*
X-3998608Y-4105385D01*
X-3998611Y-4105388D01*
X-4113344Y-4304112D01*
X-4201158Y-4516113D01*
X-4260548Y-4737762D01*
X-4290500Y-4965266D01*
X-4290500Y-5194734D01*
X-4260548Y-5422238D01*
X-4201158Y-5643887D01*
X-4113344Y-5855888D01*
X-3998611Y-6054612D01*
X-3858919Y-6236661D01*
X-3858914Y-6236665D01*
X-3858911Y-6236670D01*
X-3696670Y-6398911D01*
X-3696665Y-6398914D01*
X-3696661Y-6398919D01*
X-3514612Y-6538611D01*
X-3315888Y-6653344D01*
X-3103887Y-6741158D01*
X-3093599Y-6743914D01*
X-3033940Y-6780276D01*
X-3003409Y-6843122D01*
X-3011701Y-6912497D01*
X-3049529Y-6961542D01*
X-3077039Y-6982954D01*
X-3077049Y-6982963D01*
X-3230149Y-7149272D01*
X-3230157Y-7149283D01*
X-3316192Y-7280968D01*
X-3369338Y-7326325D01*
X-3438570Y-7335748D01*
X-3501905Y-7306246D01*
X-3523808Y-7280968D01*
X-3609842Y-7149283D01*
X-3609850Y-7149272D01*
X-3762950Y-6982963D01*
X-3762955Y-6982959D01*
X-3941352Y-6844106D01*
X-4140167Y-6736512D01*
X-4140172Y-6736510D01*
X-4353982Y-6663109D01*
X-4532370Y-6633341D01*
X-4576967Y-6625900D01*
X-4803033Y-6625900D01*
X-4858778Y-6635202D01*
X-5026017Y-6663109D01*
X-5239827Y-6736510D01*
X-5239832Y-6736512D01*
X-5320700Y-6780276D01*
X-5438649Y-6844107D01*
X-5617046Y-6982960D01*
X-5617048Y-6982962D01*
X-5617049Y-6982963D01*
X-5770149Y-7149272D01*
X-5770157Y-7149283D01*
X-5856192Y-7280968D01*
X-5909338Y-7326325D01*
X-5978570Y-7335748D01*
X-6041905Y-7306246D01*
X-6063808Y-7280968D01*
X-6149842Y-7149283D01*
X-6149850Y-7149272D01*
X-6302950Y-6982963D01*
X-6302955Y-6982959D01*
X-6481352Y-6844106D01*
X-6680167Y-6736512D01*
X-6680172Y-6736510D01*
X-6893982Y-6663109D01*
X-7072370Y-6633341D01*
X-7116967Y-6625900D01*
X-7343033Y-6625900D01*
X-7398778Y-6635202D01*
X-7566017Y-6663109D01*
X-7779827Y-6736510D01*
X-7779832Y-6736512D01*
X-7860700Y-6780276D01*
X-7978649Y-6844107D01*
X-8157046Y-6982960D01*
X-8157048Y-6982962D01*
X-8157049Y-6982963D01*
X-8310149Y-7149272D01*
X-8310157Y-7149283D01*
X-8396192Y-7280968D01*
X-8449338Y-7326325D01*
X-8518570Y-7335748D01*
X-8581905Y-7306246D01*
X-8603808Y-7280968D01*
X-8689842Y-7149283D01*
X-8689850Y-7149272D01*
X-8842950Y-6982963D01*
X-8842955Y-6982959D01*
X-9021352Y-6844106D01*
X-9220167Y-6736512D01*
X-9220172Y-6736510D01*
X-9433982Y-6663109D01*
X-9612370Y-6633341D01*
X-9656967Y-6625900D01*
X-9883033Y-6625900D01*
X-9938778Y-6635202D01*
X-10106017Y-6663109D01*
X-10319827Y-6736510D01*
X-10319832Y-6736512D01*
X-10400700Y-6780276D01*
X-10518649Y-6844107D01*
X-10697046Y-6982960D01*
X-10697048Y-6982962D01*
X-10697049Y-6982963D01*
X-10850149Y-7149272D01*
X-10850157Y-7149283D01*
X-10936192Y-7280968D01*
X-10989338Y-7326325D01*
X-11058570Y-7335748D01*
X-11121905Y-7306246D01*
X-11143808Y-7280968D01*
X-11229842Y-7149283D01*
X-11229850Y-7149272D01*
X-11382950Y-6982963D01*
X-11382955Y-6982959D01*
X-11561352Y-6844106D01*
X-11760167Y-6736512D01*
X-11760172Y-6736510D01*
X-11973982Y-6663109D01*
X-12152370Y-6633341D01*
X-12196967Y-6625900D01*
X-12423033Y-6625900D01*
X-12478778Y-6635202D01*
X-12646017Y-6663109D01*
X-12859827Y-6736510D01*
X-12859832Y-6736512D01*
X-12940700Y-6780276D01*
X-13058649Y-6844107D01*
X-13237046Y-6982960D01*
X-13237048Y-6982962D01*
X-13237049Y-6982963D01*
X-13390149Y-7149272D01*
X-13390157Y-7149283D01*
X-13476192Y-7280968D01*
X-13529338Y-7326325D01*
X-13598570Y-7335748D01*
X-13661905Y-7306246D01*
X-13683808Y-7280968D01*
X-13769842Y-7149283D01*
X-13769850Y-7149272D01*
X-13922950Y-6982963D01*
X-13922955Y-6982959D01*
X-14101352Y-6844106D01*
X-14300167Y-6736512D01*
X-14300172Y-6736510D01*
X-14513982Y-6663109D01*
X-14692370Y-6633341D01*
X-14736967Y-6625900D01*
X-14963033Y-6625900D01*
X-15018778Y-6635202D01*
X-15186017Y-6663109D01*
X-15399827Y-6736510D01*
X-15399832Y-6736512D01*
X-15480700Y-6780276D01*
X-15598649Y-6844107D01*
X-15777046Y-6982960D01*
X-15777048Y-6982962D01*
X-15777049Y-6982963D01*
X-15930149Y-7149272D01*
X-15930157Y-7149283D01*
X-16016192Y-7280968D01*
X-16069338Y-7326325D01*
X-16138570Y-7335748D01*
X-16201905Y-7306246D01*
X-16223808Y-7280968D01*
X-16309842Y-7149283D01*
X-16309850Y-7149272D01*
X-16462950Y-6982963D01*
X-16462955Y-6982959D01*
X-16641352Y-6844106D01*
X-16840167Y-6736512D01*
X-16840172Y-6736510D01*
X-17053982Y-6663109D01*
X-17232370Y-6633341D01*
X-17276967Y-6625900D01*
X-17503033Y-6625900D01*
X-17558778Y-6635202D01*
X-17726017Y-6663109D01*
X-17939827Y-6736510D01*
X-17939832Y-6736512D01*
X-18020700Y-6780276D01*
X-18138649Y-6844107D01*
X-18317046Y-6982960D01*
X-18317048Y-6982962D01*
X-18317049Y-6982963D01*
X-18470149Y-7149272D01*
X-18470157Y-7149283D01*
X-18556192Y-7280968D01*
X-18609338Y-7326325D01*
X-18678570Y-7335748D01*
X-18741905Y-7306246D01*
X-18763808Y-7280968D01*
X-18849842Y-7149283D01*
X-18849850Y-7149272D01*
X-19002950Y-6982963D01*
X-19002955Y-6982959D01*
X-19181352Y-6844106D01*
X-19380167Y-6736512D01*
X-19380172Y-6736510D01*
X-19593982Y-6663109D01*
X-19772370Y-6633341D01*
X-19816967Y-6625900D01*
X-20043033Y-6625900D01*
X-20098778Y-6635202D01*
X-20266017Y-6663109D01*
X-20479827Y-6736510D01*
X-20479832Y-6736512D01*
X-20560700Y-6780276D01*
X-20678649Y-6844107D01*
X-20857046Y-6982960D01*
X-20857048Y-6982962D01*
X-20857049Y-6982963D01*
X-21010149Y-7149272D01*
X-21010157Y-7149283D01*
X-21082916Y-7260649D01*
X-21133802Y-7338535D01*
X-21224611Y-7545559D01*
X-21280107Y-7764707D01*
X-21285287Y-7827226D01*
X-21310439Y-7892408D01*
X-21366840Y-7933647D01*
X-21436584Y-7937847D01*
X-21497526Y-7903673D01*
X-21530318Y-7841977D01*
X-21530480Y-7841177D01*
X-21556025Y-7712754D01*
X-21556027Y-7712748D01*
X-21627676Y-7539771D01*
X-21627681Y-7539762D01*
X-21731697Y-7384092D01*
X-21731700Y-7384088D01*
X-21864088Y-7251700D01*
X-21864092Y-7251697D01*
X-22019762Y-7147681D01*
X-22019771Y-7147676D01*
X-22192748Y-7076027D01*
X-22192756Y-7076025D01*
X-22376379Y-7039500D01*
X-22376384Y-7039500D01*
X-22563616Y-7039500D01*
X-22563620Y-7039500D01*
X-22747243Y-7076025D01*
X-22747251Y-7076027D01*
X-22920228Y-7147676D01*
X-22920237Y-7147681D01*
X-23075907Y-7251697D01*
X-23075911Y-7251700D01*
X-23208299Y-7384088D01*
X-23208302Y-7384092D01*
X-23312318Y-7539762D01*
X-23312321Y-7539768D01*
X-23312322Y-7539769D01*
X-23383973Y-7712749D01*
X-23420500Y-7896384D01*
X-24499500Y-7896384D01*
X-24499500Y154467D01*
X-17250500Y154467D01*
X-17250500Y-154467D01*
X-17250499Y-154471D01*
X-17218464Y-438800D01*
X-17215911Y-461452D01*
X-17147168Y-762636D01*
X-17045135Y-1054229D01*
X-16911095Y-1332565D01*
X-16746735Y-1594143D01*
X-16554120Y-1835674D01*
X-16335674Y-2054120D01*
X-16094143Y-2246735D01*
X-15832565Y-2411095D01*
X-15554229Y-2545135D01*
X-15262636Y-2647168D01*
X-14961452Y-2715911D01*
X-14961442Y-2715912D01*
X-14961437Y-2715913D01*
X-14811356Y-2732822D01*
X-14654469Y-2750499D01*
X-14654468Y-2750500D01*
X-14654465Y-2750500D01*
X-14345532Y-2750500D01*
X-14345529Y-2750499D01*
X-14243206Y-2738970D01*
X-14038562Y-2715913D01*
X-14038554Y-2715911D01*
X-14038548Y-2715911D01*
X-13737364Y-2647168D01*
X-13737352Y-2647164D01*
X-13445777Y-2545137D01*
X-13445778Y-2545137D01*
X-13445771Y-2545135D01*
X-13196845Y-2425258D01*
X2059500Y-2425258D01*
X2059500Y-2654741D01*
X2072108Y-2750500D01*
X2089452Y-2882238D01*
X2089453Y-2882240D01*
X2148842Y-3103887D01*
X2236650Y-3315876D01*
X2236657Y-3315890D01*
X2351392Y-3514617D01*
X2491081Y-3696661D01*
X2491089Y-3696670D01*
X2653330Y-3858911D01*
X2653338Y-3858918D01*
X2835382Y-3998607D01*
X2835385Y-3998608D01*
X2835388Y-3998611D01*
X3034112Y-4113344D01*
X3034117Y-4113346D01*
X3034123Y-4113349D01*
X3125480Y-4151190D01*
X3246113Y-4201158D01*
X3467762Y-4260548D01*
X3695266Y-4290500D01*
X3695273Y-4290500D01*
X3924727Y-4290500D01*
X3924734Y-4290500D01*
X4152238Y-4260548D01*
X4373887Y-4201158D01*
X4585888Y-4113344D01*
X4784612Y-3998611D01*
X4966661Y-3858919D01*
X4966665Y-3858914D01*
X4966670Y-3858911D01*
X5128911Y-3696670D01*
X5128914Y-3696665D01*
X5128919Y-3696661D01*
X5268611Y-3514612D01*
X5383344Y-3315888D01*
X5471158Y-3103887D01*
X5530548Y-2882238D01*
X5560500Y-2654734D01*
X5560500Y-2425266D01*
X5530548Y-2197762D01*
X5471158Y-1976113D01*
X5383344Y-1764112D01*
X5268611Y-1565388D01*
X5268608Y-1565385D01*
X5268607Y-1565382D01*
X5128918Y-1383338D01*
X5128911Y-1383330D01*
X5058662Y-1313081D01*
X5025177Y-1251758D01*
X5030161Y-1182066D01*
X5072033Y-1126133D01*
X5137497Y-1101716D01*
X5146343Y-1101400D01*
X5166687Y-1101400D01*
X5249695Y-1088252D01*
X5337912Y-1074280D01*
X5502791Y-1020708D01*
X5657260Y-942002D01*
X5797514Y-840101D01*
X5920101Y-717514D01*
X6022002Y-577260D01*
X6100708Y-422791D01*
X6154280Y-257912D01*
X6171831Y-147099D01*
X6181400Y-86687D01*
X6181400Y86687D01*
X6170663Y154471D01*
X11749500Y154471D01*
X11749500Y-154471D01*
X11784086Y-461437D01*
X11784089Y-461455D01*
X11852831Y-762635D01*
X11852835Y-762647D01*
X11954862Y-1054222D01*
X11954868Y-1054236D01*
X12088903Y-1332562D01*
X12088905Y-1332565D01*
X12253265Y-1594143D01*
X12445880Y-1835674D01*
X12664326Y-2054120D01*
X12905857Y-2246735D01*
X13167435Y-2411095D01*
X13445771Y-2545135D01*
X13445777Y-2545137D01*
X13737352Y-2647164D01*
X13737364Y-2647168D01*
X14038548Y-2715911D01*
X14038554Y-2715911D01*
X14038562Y-2715913D01*
X14243206Y-2738970D01*
X14345529Y-2750499D01*
X14345532Y-2750500D01*
X14345535Y-2750500D01*
X14654468Y-2750500D01*
X14654469Y-2750499D01*
X14811356Y-2732822D01*
X14961437Y-2715913D01*
X14961442Y-2715912D01*
X14961452Y-2715911D01*
X15262636Y-2647168D01*
X15554229Y-2545135D01*
X15832565Y-2411095D01*
X16094143Y-2246735D01*
X16335674Y-2054120D01*
X16554120Y-1835674D01*
X16746735Y-1594143D01*
X16911095Y-1332565D01*
X17045135Y-1054229D01*
X17147168Y-762636D01*
X17215911Y-461452D01*
X17218464Y-438800D01*
X17250499Y-154471D01*
X17250500Y-154467D01*
X17250500Y154467D01*
X17250499Y154471D01*
X17215913Y461437D01*
X17215910Y461455D01*
X17189478Y577260D01*
X17147168Y762636D01*
X17045135Y1054229D01*
X16911095Y1332565D01*
X16746735Y1594143D01*
X16554120Y1835674D01*
X16335674Y2054120D01*
X16094143Y2246735D01*
X15832565Y2411095D01*
X15554229Y2545135D01*
X15262636Y2647168D01*
X14961452Y2715911D01*
X14961442Y2715912D01*
X14961437Y2715913D01*
X14811356Y2732822D01*
X14654468Y2750499D01*
X14654467Y2750500D01*
X14654465Y2750500D01*
X14345535Y2750500D01*
X14345533Y2750500D01*
X14345530Y2750499D01*
X14243206Y2738970D01*
X14038562Y2715913D01*
X14038554Y2715911D01*
X14038548Y2715911D01*
X14038544Y2715910D01*
X13737364Y2647168D01*
X13737352Y2647164D01*
X13542968Y2579146D01*
X13445771Y2545135D01*
X13167435Y2411095D01*
X12905857Y2246735D01*
X12664326Y2054120D01*
X12445880Y1835674D01*
X12253265Y1594143D01*
X12183436Y1483011D01*
X12088903Y1332562D01*
X11954868Y1054236D01*
X11954862Y1054222D01*
X11852835Y762647D01*
X11852831Y762635D01*
X11784089Y461455D01*
X11784086Y461437D01*
X11749500Y154471D01*
X6170663Y154471D01*
X6168252Y169695D01*
X6154280Y257912D01*
X6100708Y422791D01*
X6022002Y577260D01*
X5920101Y717514D01*
X5797514Y840101D01*
X5657260Y942002D01*
X5502791Y1020708D01*
X5337912Y1074280D01*
X5249695Y1088252D01*
X5166687Y1101400D01*
X5166682Y1101400D01*
X4993318Y1101400D01*
X4993313Y1101400D01*
X4901391Y1086840D01*
X4822088Y1074280D01*
X4739648Y1047494D01*
X4657211Y1020709D01*
X4657208Y1020708D01*
X4606350Y994794D01*
X4502740Y942002D01*
X4362486Y840101D01*
X4239899Y717514D01*
X4137998Y577260D01*
X4059291Y422791D01*
X4059290Y422788D01*
X4005720Y257913D01*
X3978600Y86687D01*
X3978600Y-86687D01*
X4005720Y-257913D01*
X4059290Y-422788D01*
X4059291Y-422791D01*
X4137998Y-577260D01*
X4161420Y-609497D01*
X4184900Y-675303D01*
X4169075Y-743357D01*
X4118970Y-792052D01*
X4050492Y-805928D01*
X4044917Y-805322D01*
X3924744Y-789501D01*
X3924739Y-789500D01*
X3924734Y-789500D01*
X3695266Y-789500D01*
X3695258Y-789500D01*
X3478715Y-818009D01*
X3467762Y-819452D01*
X3390709Y-840098D01*
X3246112Y-878842D01*
X3034123Y-966650D01*
X3034109Y-966657D01*
X2835382Y-1081392D01*
X2653338Y-1221081D01*
X2491081Y-1383338D01*
X2351392Y-1565382D01*
X2236657Y-1764109D01*
X2236650Y-1764123D01*
X2148842Y-1976112D01*
X2089453Y-2197759D01*
X2089451Y-2197770D01*
X2059500Y-2425258D01*
X-13196845Y-2425258D01*
X-13167435Y-2411095D01*
X-12905857Y-2246735D01*
X-12664326Y-2054120D01*
X-12445880Y-1835674D01*
X-12253265Y-1594143D01*
X-12088905Y-1332565D01*
X-12088903Y-1332562D01*
X-11954868Y-1054236D01*
X-11954862Y-1054222D01*
X-11852835Y-762647D01*
X-11852831Y-762635D01*
X-11784089Y-461455D01*
X-11784086Y-461437D01*
X-11749500Y-154471D01*
X-11749500Y86687D01*
X-6181400Y86687D01*
X-6181400Y-86687D01*
X-6171831Y-147099D01*
X-6154280Y-257912D01*
X-6100708Y-422791D01*
X-6022002Y-577260D01*
X-5920101Y-717514D01*
X-5797514Y-840101D01*
X-5657260Y-942002D01*
X-5502791Y-1020708D01*
X-5337912Y-1074280D01*
X-5249695Y-1088252D01*
X-5166687Y-1101400D01*
X-5166682Y-1101400D01*
X-4993313Y-1101400D01*
X-4901391Y-1086840D01*
X-4822088Y-1074280D01*
X-4739648Y-1047494D01*
X-4657211Y-1020709D01*
X-4657208Y-1020708D01*
X-4551126Y-966656D01*
X-4502740Y-942002D01*
X-4362486Y-840101D01*
X-4239899Y-717514D01*
X-4137998Y-577260D01*
X-4078992Y-461455D01*
X-4059291Y-422791D01*
X-4059290Y-422788D01*
X-4005720Y-257913D01*
X-3978600Y-86687D01*
X-3978600Y86687D01*
X-3988170Y147106D01*
X-2244400Y147106D01*
X-2244400Y-147106D01*
X-2205998Y-438800D01*
X-2129850Y-722987D01*
X-2113427Y-762635D01*
X-2028920Y-966657D01*
X-2017261Y-994803D01*
X-1870155Y-1249597D01*
X-1691050Y-1483011D01*
X-1483011Y-1691050D01*
X-1249597Y-1870155D01*
X-994803Y-2017261D01*
X-994797Y-2017263D01*
X-994794Y-2017265D01*
X-905817Y-2054120D01*
X-722987Y-2129850D01*
X-438800Y-2205998D01*
X-147106Y-2244400D01*
X-147099Y-2244400D01*
X147099Y-2244400D01*
X147106Y-2244400D01*
X438800Y-2205998D01*
X722987Y-2129850D01*
X905817Y-2054120D01*
X994794Y-2017265D01*
X994797Y-2017263D01*
X994803Y-2017261D01*
X1249597Y-1870155D01*
X1483011Y-1691050D01*
X1691050Y-1483011D01*
X1870155Y-1249597D01*
X2017261Y-994803D01*
X2028920Y-966657D01*
X2113427Y-762635D01*
X2129850Y-722987D01*
X2205998Y-438800D01*
X2244400Y-147106D01*
X2244400Y147106D01*
X2205998Y438800D01*
X2129850Y722987D01*
X2017261Y994803D01*
X1870155Y1249597D01*
X1691050Y1483011D01*
X1483011Y1691050D01*
X1249597Y1870155D01*
X994803Y2017261D01*
X994797Y2017263D01*
X994794Y2017265D01*
X722994Y2129847D01*
X722987Y2129850D01*
X438800Y2205998D01*
X147106Y2244400D01*
X-147106Y2244400D01*
X-438800Y2205998D01*
X-722987Y2129850D01*
X-722994Y2129847D01*
X-994794Y2017265D01*
X-994797Y2017263D01*
X-994803Y2017261D01*
X-1249597Y1870155D01*
X-1483011Y1691050D01*
X-1691050Y1483011D01*
X-1870155Y1249597D01*
X-2017261Y994803D01*
X-2129850Y722987D01*
X-2205998Y438800D01*
X-2244400Y147106D01*
X-3988170Y147106D01*
X-4005720Y257913D01*
X-4059290Y422788D01*
X-4059291Y422791D01*
X-4137998Y577260D01*
X-4239899Y717514D01*
X-4362486Y840101D01*
X-4502740Y942002D01*
X-4606350Y994794D01*
X-4657208Y1020708D01*
X-4657211Y1020709D01*
X-4739648Y1047494D01*
X-4822088Y1074280D01*
X-4901391Y1086840D01*
X-4993313Y1101400D01*
X-4993318Y1101400D01*
X-5166682Y1101400D01*
X-5166687Y1101400D01*
X-5249695Y1088252D01*
X-5337912Y1074280D01*
X-5502791Y1020708D01*
X-5657260Y942002D01*
X-5797514Y840101D01*
X-5920101Y717514D01*
X-6022002Y577260D01*
X-6100708Y422791D01*
X-6154280Y257912D01*
X-6168252Y169695D01*
X-6181400Y86687D01*
X-11749500Y86687D01*
X-11749500Y154471D01*
X-11784086Y461437D01*
X-11784089Y461455D01*
X-11852831Y762635D01*
X-11852835Y762647D01*
X-11954862Y1054222D01*
X-11954868Y1054236D01*
X-12088903Y1332562D01*
X-12183436Y1483011D01*
X-12253265Y1594143D01*
X-12445880Y1835674D01*
X-12664326Y2054120D01*
X-12905857Y2246735D01*
X-13167435Y2411095D01*
X-13445771Y2545135D01*
X-13542968Y2579146D01*
X-13737352Y2647164D01*
X-13737364Y2647168D01*
X-14038544Y2715910D01*
X-14038548Y2715911D01*
X-14038554Y2715911D01*
X-14038562Y2715913D01*
X-14243206Y2738970D01*
X-14345530Y2750499D01*
X-14345533Y2750500D01*
X-14345535Y2750500D01*
X-14654465Y2750500D01*
X-14654467Y2750500D01*
X-14654468Y2750499D01*
X-14811356Y2732822D01*
X-14961437Y2715913D01*
X-14961442Y2715912D01*
X-14961452Y2715911D01*
X-15262636Y2647168D01*
X-15554229Y2545135D01*
X-15832565Y2411095D01*
X-16094143Y2246735D01*
X-16335674Y2054120D01*
X-16554120Y1835674D01*
X-16746735Y1594143D01*
X-16911095Y1332565D01*
X-17045135Y1054229D01*
X-17147168Y762636D01*
X-17189478Y577260D01*
X-17215910Y461455D01*
X-17215913Y461437D01*
X-17250499Y154471D01*
X-17250500Y154467D01*
X-24499500Y154467D01*
X-24499500Y7343616D01*
X-23420500Y7343616D01*
X-23420500Y7156384D01*
X-23383973Y6972749D01*
X-23328554Y6838956D01*
X-23312323Y6799771D01*
X-23312318Y6799762D01*
X-23208302Y6644092D01*
X-23208299Y6644088D01*
X-23075911Y6511700D01*
X-23075907Y6511697D01*
X-22920237Y6407681D01*
X-22920228Y6407676D01*
X-22747251Y6336027D01*
X-22747243Y6336025D01*
X-22563620Y6299500D01*
X-22563616Y6299500D01*
X-22376379Y6299500D01*
X-22192756Y6336025D01*
X-22192748Y6336027D01*
X-22019771Y6407676D01*
X-22019762Y6407681D01*
X-21864092Y6511697D01*
X-21864088Y6511700D01*
X-21731700Y6644088D01*
X-21731697Y6644092D01*
X-21627681Y6799762D01*
X-21627676Y6799771D01*
X-21556027Y6972748D01*
X-21556025Y6972754D01*
X-21530480Y7101177D01*
X-21498095Y7163088D01*
X-21437379Y7197662D01*
X-21367609Y7193921D01*
X-21310938Y7153055D01*
X-21285356Y7088037D01*
X-21285317Y7087585D01*
X-21280107Y7024707D01*
X-21224611Y6805559D01*
X-21153785Y6644092D01*
X-21133801Y6598533D01*
X-21010157Y6409283D01*
X-21010149Y6409272D01*
X-20857049Y6242963D01*
X-20857046Y6242960D01*
X-20678649Y6104107D01*
X-20678647Y6104106D01*
X-20479832Y5996512D01*
X-20479827Y5996510D01*
X-20266017Y5923109D01*
X-20098778Y5895202D01*
X-20043033Y5885900D01*
X-20043032Y5885900D01*
X-19816968Y5885900D01*
X-19816967Y5885900D01*
X-19772370Y5893341D01*
X-19593982Y5923109D01*
X-19380172Y5996510D01*
X-19380167Y5996512D01*
X-19181352Y6104106D01*
X-19002955Y6242959D01*
X-19002950Y6242963D01*
X-18849850Y6409272D01*
X-18849842Y6409283D01*
X-18763808Y6540968D01*
X-18710662Y6586325D01*
X-18641430Y6595748D01*
X-18578095Y6566246D01*
X-18556192Y6540968D01*
X-18470157Y6409283D01*
X-18470149Y6409272D01*
X-18317049Y6242963D01*
X-18317046Y6242960D01*
X-18138649Y6104107D01*
X-18138647Y6104106D01*
X-17939832Y5996512D01*
X-17939827Y5996510D01*
X-17726017Y5923109D01*
X-17558778Y5895202D01*
X-17503033Y5885900D01*
X-17503032Y5885900D01*
X-17276968Y5885900D01*
X-17276967Y5885900D01*
X-17232370Y5893341D01*
X-17053982Y5923109D01*
X-16840172Y5996510D01*
X-16840167Y5996512D01*
X-16641352Y6104106D01*
X-16462955Y6242959D01*
X-16462950Y6242963D01*
X-16309850Y6409272D01*
X-16309842Y6409283D01*
X-16223808Y6540968D01*
X-16170662Y6586325D01*
X-16101430Y6595748D01*
X-16038095Y6566246D01*
X-16016192Y6540968D01*
X-15930157Y6409283D01*
X-15930149Y6409272D01*
X-15777049Y6242963D01*
X-15777046Y6242960D01*
X-15598649Y6104107D01*
X-15598647Y6104106D01*
X-15399832Y5996512D01*
X-15399827Y5996510D01*
X-15186017Y5923109D01*
X-15018778Y5895202D01*
X-14963033Y5885900D01*
X-14963032Y5885900D01*
X-14736968Y5885900D01*
X-14736967Y5885900D01*
X-14692370Y5893341D01*
X-14513982Y5923109D01*
X-14300172Y5996510D01*
X-14300167Y5996512D01*
X-14101352Y6104106D01*
X-13922955Y6242959D01*
X-13922950Y6242963D01*
X-13769850Y6409272D01*
X-13769842Y6409283D01*
X-13683808Y6540968D01*
X-13630662Y6586325D01*
X-13561430Y6595748D01*
X-13498095Y6566246D01*
X-13476192Y6540968D01*
X-13390157Y6409283D01*
X-13390149Y6409272D01*
X-13237049Y6242963D01*
X-13237046Y6242960D01*
X-13058649Y6104107D01*
X-13058647Y6104106D01*
X-12859832Y5996512D01*
X-12859827Y5996510D01*
X-12646017Y5923109D01*
X-12478778Y5895202D01*
X-12423033Y5885900D01*
X-12423032Y5885900D01*
X-12196968Y5885900D01*
X-12196967Y5885900D01*
X-12152370Y5893341D01*
X-11973982Y5923109D01*
X-11760172Y5996510D01*
X-11760167Y5996512D01*
X-11561352Y6104106D01*
X-11382955Y6242959D01*
X-11382950Y6242963D01*
X-11229850Y6409272D01*
X-11229842Y6409283D01*
X-11143808Y6540968D01*
X-11090662Y6586325D01*
X-11021430Y6595748D01*
X-10958095Y6566246D01*
X-10936192Y6540968D01*
X-10850157Y6409283D01*
X-10850149Y6409272D01*
X-10697049Y6242963D01*
X-10697046Y6242960D01*
X-10518649Y6104107D01*
X-10518647Y6104106D01*
X-10319832Y5996512D01*
X-10319827Y5996510D01*
X-10106017Y5923109D01*
X-9938778Y5895202D01*
X-9883033Y5885900D01*
X-9883032Y5885900D01*
X-9656968Y5885900D01*
X-9656967Y5885900D01*
X-9612370Y5893341D01*
X-9433982Y5923109D01*
X-9220172Y5996510D01*
X-9220167Y5996512D01*
X-9021352Y6104106D01*
X-8842955Y6242959D01*
X-8842950Y6242963D01*
X-8689850Y6409272D01*
X-8689842Y6409283D01*
X-8603808Y6540968D01*
X-8550662Y6586325D01*
X-8481430Y6595748D01*
X-8418095Y6566246D01*
X-8396192Y6540968D01*
X-8310157Y6409283D01*
X-8310149Y6409272D01*
X-8157049Y6242963D01*
X-8157046Y6242960D01*
X-7978649Y6104107D01*
X-7978647Y6104106D01*
X-7779832Y5996512D01*
X-7779827Y5996510D01*
X-7566017Y5923109D01*
X-7398778Y5895202D01*
X-7343033Y5885900D01*
X-7343032Y5885900D01*
X-7116968Y5885900D01*
X-7116967Y5885900D01*
X-7072370Y5893341D01*
X-6893982Y5923109D01*
X-6680172Y5996510D01*
X-6680167Y5996512D01*
X-6481352Y6104106D01*
X-6302955Y6242959D01*
X-6302950Y6242963D01*
X-6149850Y6409272D01*
X-6149842Y6409283D01*
X-6063808Y6540968D01*
X-6010662Y6586325D01*
X-5941430Y6595748D01*
X-5878095Y6566246D01*
X-5856192Y6540968D01*
X-5770157Y6409283D01*
X-5770149Y6409272D01*
X-5617049Y6242963D01*
X-5617046Y6242960D01*
X-5438649Y6104107D01*
X-5438647Y6104106D01*
X-5239832Y5996512D01*
X-5239827Y5996510D01*
X-5026017Y5923109D01*
X-4858778Y5895202D01*
X-4803033Y5885900D01*
X-4803032Y5885900D01*
X-4576968Y5885900D01*
X-4576967Y5885900D01*
X-4532370Y5893341D01*
X-4353982Y5923109D01*
X-4140172Y5996510D01*
X-4140167Y5996512D01*
X-3941352Y6104106D01*
X-3762955Y6242959D01*
X-3762950Y6242963D01*
X-3609850Y6409272D01*
X-3609842Y6409283D01*
X-3523808Y6540968D01*
X-3470662Y6586325D01*
X-3401430Y6595748D01*
X-3338095Y6566246D01*
X-3316192Y6540968D01*
X-3230157Y6409283D01*
X-3230149Y6409272D01*
X-3077049Y6242963D01*
X-3077046Y6242960D01*
X-2898649Y6104107D01*
X-2898647Y6104106D01*
X-2699832Y5996512D01*
X-2699827Y5996510D01*
X-2486017Y5923109D01*
X-2318778Y5895202D01*
X-2263033Y5885900D01*
X-2263032Y5885900D01*
X-2036968Y5885900D01*
X-2036967Y5885900D01*
X-1992370Y5893341D01*
X-1813982Y5923109D01*
X-1600172Y5996510D01*
X-1600167Y5996512D01*
X-1401352Y6104106D01*
X-1222955Y6242959D01*
X-1222950Y6242963D01*
X-1069850Y6409272D01*
X-1069842Y6409283D01*
X-983808Y6540968D01*
X-930662Y6586325D01*
X-861430Y6595748D01*
X-798095Y6566246D01*
X-776192Y6540968D01*
X-690157Y6409283D01*
X-690149Y6409272D01*
X-537049Y6242963D01*
X-537046Y6242960D01*
X-358649Y6104107D01*
X-358647Y6104106D01*
X-159832Y5996512D01*
X-159827Y5996510D01*
X53982Y5923109D01*
X232370Y5893341D01*
X276967Y5885900D01*
X276968Y5885900D01*
X503032Y5885900D01*
X503033Y5885900D01*
X558778Y5895202D01*
X726017Y5923109D01*
X939827Y5996510D01*
X939832Y5996512D01*
X1138647Y6104106D01*
X1138649Y6104107D01*
X1317046Y6242960D01*
X1317049Y6242963D01*
X1470149Y6409272D01*
X1470157Y6409283D01*
X1556192Y6540968D01*
X1609338Y6586325D01*
X1678570Y6595748D01*
X1741905Y6566246D01*
X1763808Y6540968D01*
X1849842Y6409283D01*
X1849850Y6409272D01*
X2002950Y6242963D01*
X2002955Y6242959D01*
X2181352Y6104106D01*
X2380167Y5996512D01*
X2380172Y5996510D01*
X2593982Y5923109D01*
X2772370Y5893341D01*
X2816967Y5885900D01*
X2816968Y5885900D01*
X3043032Y5885900D01*
X3043033Y5885900D01*
X3098778Y5895202D01*
X3266017Y5923109D01*
X3479827Y5996510D01*
X3479832Y5996512D01*
X3678647Y6104106D01*
X3678649Y6104107D01*
X3857046Y6242960D01*
X3857049Y6242963D01*
X4010149Y6409272D01*
X4010157Y6409283D01*
X4096192Y6540968D01*
X4149338Y6586325D01*
X4218570Y6595748D01*
X4281905Y6566246D01*
X4303808Y6540968D01*
X4389842Y6409283D01*
X4389850Y6409272D01*
X4542950Y6242963D01*
X4542955Y6242959D01*
X4721352Y6104106D01*
X4920167Y5996512D01*
X4920172Y5996510D01*
X5133982Y5923109D01*
X5312370Y5893341D01*
X5356967Y5885900D01*
X5356968Y5885900D01*
X5583032Y5885900D01*
X5583033Y5885900D01*
X5638778Y5895202D01*
X5806017Y5923109D01*
X6019827Y5996510D01*
X6019832Y5996512D01*
X6218647Y6104106D01*
X6218649Y6104107D01*
X6397046Y6242960D01*
X6397049Y6242963D01*
X6550149Y6409272D01*
X6550157Y6409283D01*
X6636192Y6540968D01*
X6689338Y6586325D01*
X6758570Y6595748D01*
X6821905Y6566246D01*
X6843808Y6540968D01*
X6929842Y6409283D01*
X6929850Y6409272D01*
X7082950Y6242963D01*
X7082955Y6242959D01*
X7261352Y6104106D01*
X7460167Y5996512D01*
X7460172Y5996510D01*
X7673982Y5923109D01*
X7852370Y5893341D01*
X7896967Y5885900D01*
X7896968Y5885900D01*
X8123032Y5885900D01*
X8123033Y5885900D01*
X8178778Y5895202D01*
X8346017Y5923109D01*
X8559827Y5996510D01*
X8559832Y5996512D01*
X8758647Y6104106D01*
X8758649Y6104107D01*
X8937046Y6242960D01*
X8937049Y6242963D01*
X9090149Y6409272D01*
X9090157Y6409283D01*
X9176192Y6540968D01*
X9229338Y6586325D01*
X9298570Y6595748D01*
X9361905Y6566246D01*
X9383808Y6540968D01*
X9469842Y6409283D01*
X9469850Y6409272D01*
X9622950Y6242963D01*
X9622955Y6242959D01*
X9801352Y6104106D01*
X10000167Y5996512D01*
X10000172Y5996510D01*
X10213982Y5923109D01*
X10392370Y5893341D01*
X10436967Y5885900D01*
X10436968Y5885900D01*
X10663032Y5885900D01*
X10663033Y5885900D01*
X10718778Y5895202D01*
X10886017Y5923109D01*
X11099827Y5996510D01*
X11099832Y5996512D01*
X11298647Y6104106D01*
X11298649Y6104107D01*
X11477046Y6242960D01*
X11477049Y6242963D01*
X11630149Y6409272D01*
X11630157Y6409283D01*
X11753801Y6598533D01*
X11773785Y6644092D01*
X11844611Y6805559D01*
X11900107Y7024707D01*
X11906510Y7101977D01*
X11918775Y7249993D01*
X11918775Y7250006D01*
X14261225Y7250006D01*
X14261225Y7249993D01*
X14279892Y7024710D01*
X14335388Y6805560D01*
X14426198Y6598533D01*
X14549842Y6409283D01*
X14549850Y6409272D01*
X14702950Y6242963D01*
X14702955Y6242959D01*
X14881352Y6104106D01*
X15080167Y5996512D01*
X15080172Y5996510D01*
X15293982Y5923109D01*
X15472370Y5893341D01*
X15516967Y5885900D01*
X15516968Y5885900D01*
X15743032Y5885900D01*
X15743033Y5885900D01*
X15798778Y5895202D01*
X15966017Y5923109D01*
X16179827Y5996510D01*
X16179832Y5996512D01*
X16378647Y6104106D01*
X16378649Y6104107D01*
X16557046Y6242960D01*
X16557049Y6242963D01*
X16710149Y6409272D01*
X16710157Y6409283D01*
X16796192Y6540968D01*
X16849338Y6586325D01*
X16918570Y6595748D01*
X16981905Y6566246D01*
X17003808Y6540968D01*
X17089842Y6409283D01*
X17089850Y6409272D01*
X17242950Y6242963D01*
X17242955Y6242959D01*
X17421352Y6104106D01*
X17620167Y5996512D01*
X17620172Y5996510D01*
X17833982Y5923109D01*
X18012370Y5893341D01*
X18056967Y5885900D01*
X18056968Y5885900D01*
X18283032Y5885900D01*
X18283033Y5885900D01*
X18338778Y5895202D01*
X18506017Y5923109D01*
X18719827Y5996510D01*
X18719832Y5996512D01*
X18918647Y6104106D01*
X18918649Y6104107D01*
X19097046Y6242960D01*
X19097049Y6242963D01*
X19250149Y6409272D01*
X19250157Y6409283D01*
X19336192Y6540968D01*
X19389338Y6586325D01*
X19458570Y6595748D01*
X19521905Y6566246D01*
X19543808Y6540968D01*
X19629842Y6409283D01*
X19629850Y6409272D01*
X19782950Y6242963D01*
X19782955Y6242959D01*
X19961352Y6104106D01*
X20160167Y5996512D01*
X20160172Y5996510D01*
X20373982Y5923109D01*
X20552370Y5893341D01*
X20596967Y5885900D01*
X20596968Y5885900D01*
X20823032Y5885900D01*
X20823033Y5885900D01*
X20878778Y5895202D01*
X21046017Y5923109D01*
X21259827Y5996510D01*
X21259832Y5996512D01*
X21458647Y6104106D01*
X21458649Y6104107D01*
X21637046Y6242960D01*
X21637049Y6242963D01*
X21790149Y6409272D01*
X21790157Y6409283D01*
X21913801Y6598533D01*
X21933785Y6644092D01*
X22004611Y6805559D01*
X22060107Y7024707D01*
X22065287Y7087226D01*
X22090439Y7152408D01*
X22146840Y7193647D01*
X22216584Y7197847D01*
X22277526Y7163673D01*
X22310318Y7101977D01*
X22310480Y7101177D01*
X22336025Y6972754D01*
X22336027Y6972748D01*
X22407676Y6799771D01*
X22407681Y6799762D01*
X22511697Y6644092D01*
X22511700Y6644088D01*
X22644088Y6511700D01*
X22644092Y6511697D01*
X22799762Y6407681D01*
X22799771Y6407676D01*
X22972748Y6336027D01*
X22972756Y6336025D01*
X23156379Y6299500D01*
X23156384Y6299500D01*
X23343620Y6299500D01*
X23527243Y6336025D01*
X23527251Y6336027D01*
X23700228Y6407676D01*
X23700237Y6407681D01*
X23855907Y6511697D01*
X23855911Y6511700D01*
X23988299Y6644088D01*
X23988302Y6644092D01*
X24092318Y6799762D01*
X24092323Y6799771D01*
X24108554Y6838956D01*
X24163973Y6972749D01*
X24200500Y7156384D01*
X24200500Y7343616D01*
X24163973Y7527251D01*
X24092322Y7700231D01*
X23988302Y7855908D01*
X23855908Y7988302D01*
X23700231Y8092322D01*
X23527251Y8163973D01*
X23343618Y8200499D01*
X23343617Y8200500D01*
X23343616Y8200500D01*
X23156384Y8200500D01*
X23156383Y8200500D01*
X23156379Y8200499D01*
X22972749Y8163973D01*
X22838956Y8108554D01*
X22799771Y8092323D01*
X22799762Y8092318D01*
X22644092Y7988302D01*
X22644088Y7988299D01*
X22511700Y7855911D01*
X22511697Y7855907D01*
X22407681Y7700237D01*
X22407676Y7700228D01*
X22336027Y7527251D01*
X22336025Y7527245D01*
X22310480Y7398822D01*
X22278095Y7336911D01*
X22217379Y7302337D01*
X22147610Y7306077D01*
X22090938Y7346944D01*
X22065356Y7411962D01*
X22065319Y7412386D01*
X22060107Y7475293D01*
X22004611Y7694441D01*
X21913802Y7901465D01*
X21790156Y8090719D01*
X21788680Y8092322D01*
X21736832Y8148643D01*
X21637046Y8257040D01*
X21458649Y8395893D01*
X21259831Y8503488D01*
X21046014Y8576891D01*
X20823033Y8614100D01*
X20596967Y8614100D01*
X20373986Y8576891D01*
X20373984Y8576890D01*
X20373982Y8576890D01*
X20268541Y8540692D01*
X20160169Y8503488D01*
X19961351Y8395893D01*
X19782954Y8257040D01*
X19782951Y8257036D01*
X19782950Y8257036D01*
X19629850Y8090727D01*
X19629849Y8090724D01*
X19629844Y8090719D01*
X19543806Y7959028D01*
X19490662Y7913675D01*
X19421431Y7904251D01*
X19358095Y7933753D01*
X19336195Y7959025D01*
X19250156Y8090719D01*
X19248680Y8092322D01*
X19196832Y8148643D01*
X19097046Y8257040D01*
X18918649Y8395893D01*
X18719831Y8503488D01*
X18506014Y8576891D01*
X18283033Y8614100D01*
X18056967Y8614100D01*
X17833986Y8576891D01*
X17833984Y8576890D01*
X17833982Y8576890D01*
X17728541Y8540692D01*
X17620169Y8503488D01*
X17421351Y8395893D01*
X17242954Y8257040D01*
X17242951Y8257036D01*
X17242950Y8257036D01*
X17089850Y8090727D01*
X17089849Y8090724D01*
X17089844Y8090719D01*
X17003806Y7959028D01*
X16950662Y7913675D01*
X16881431Y7904251D01*
X16818095Y7933753D01*
X16796195Y7959025D01*
X16710156Y8090719D01*
X16708680Y8092322D01*
X16656832Y8148643D01*
X16557046Y8257040D01*
X16378649Y8395893D01*
X16179831Y8503488D01*
X15966014Y8576891D01*
X15743033Y8614100D01*
X15516967Y8614100D01*
X15293986Y8576891D01*
X15293984Y8576890D01*
X15293982Y8576890D01*
X15188541Y8540692D01*
X15080169Y8503488D01*
X14881351Y8395893D01*
X14702954Y8257040D01*
X14702951Y8257036D01*
X14702950Y8257036D01*
X14549850Y8090727D01*
X14549842Y8090716D01*
X14426198Y7901466D01*
X14335388Y7694439D01*
X14279892Y7475289D01*
X14261225Y7250006D01*
X11918775Y7250006D01*
X11900107Y7475289D01*
X11900107Y7475293D01*
X11844611Y7694441D01*
X11753802Y7901465D01*
X11630156Y8090719D01*
X11628680Y8092322D01*
X11576832Y8148643D01*
X11477046Y8257040D01*
X11298649Y8395893D01*
X11099831Y8503488D01*
X10886014Y8576891D01*
X10663033Y8614100D01*
X10436967Y8614100D01*
X10213986Y8576891D01*
X10213984Y8576890D01*
X10213982Y8576890D01*
X10108541Y8540692D01*
X10000169Y8503488D01*
X9801351Y8395893D01*
X9622954Y8257040D01*
X9622951Y8257036D01*
X9622950Y8257036D01*
X9469850Y8090727D01*
X9469849Y8090724D01*
X9469844Y8090719D01*
X9383806Y7959028D01*
X9330662Y7913675D01*
X9261431Y7904251D01*
X9198095Y7933753D01*
X9176195Y7959025D01*
X9090156Y8090719D01*
X9088680Y8092322D01*
X9036832Y8148643D01*
X8937046Y8257040D01*
X8758649Y8395893D01*
X8559831Y8503488D01*
X8346014Y8576891D01*
X8123033Y8614100D01*
X7896967Y8614100D01*
X7673986Y8576891D01*
X7641754Y8565825D01*
X7571957Y8562674D01*
X7513811Y8595423D01*
X4386819Y11722416D01*
X4353334Y11783739D01*
X4350500Y11810097D01*
X4350500Y12525500D01*
X4370185Y12592539D01*
X4422989Y12638294D01*
X4474499Y12649500D01*
X4647869Y12649500D01*
X4647876Y12649501D01*
X4707483Y12655908D01*
X4842328Y12706202D01*
X4842335Y12706206D01*
X4957544Y12792452D01*
X4957547Y12792455D01*
X5043793Y12907664D01*
X5043797Y12907671D01*
X5094091Y13042517D01*
X5095925Y13059577D01*
X5100500Y13102127D01*
X5100499Y14897872D01*
X5094091Y14957483D01*
X5043796Y15092331D01*
X5022119Y15121288D01*
X7149500Y15121288D01*
X7149500Y14878711D01*
X7181161Y14638214D01*
X7243947Y14403895D01*
X7336773Y14179794D01*
X7336777Y14179785D01*
X7458067Y13969706D01*
X7605733Y13777263D01*
X7605739Y13777256D01*
X7777256Y13605739D01*
X7777263Y13605733D01*
X7969706Y13458067D01*
X8179785Y13336777D01*
X8179794Y13336773D01*
X8403895Y13243947D01*
X8638214Y13181161D01*
X8878711Y13149500D01*
X8878712Y13149500D01*
X9121289Y13149500D01*
X9361785Y13181161D01*
X9596104Y13243947D01*
X9820205Y13336773D01*
X9820214Y13336777D01*
X9858661Y13358974D01*
X10030289Y13458064D01*
X10030293Y13458067D01*
X10222736Y13605733D01*
X10222743Y13605739D01*
X10394260Y13777256D01*
X10394266Y13777263D01*
X10541932Y13969706D01*
X10541936Y13969711D01*
X10663224Y14179788D01*
X10756054Y14403900D01*
X10818838Y14638211D01*
X10850500Y14878712D01*
X10850500Y15121288D01*
X10846131Y15154471D01*
X15249500Y15154471D01*
X15249500Y14845528D01*
X15284086Y14538562D01*
X15284089Y14538544D01*
X15352831Y14237364D01*
X15352835Y14237352D01*
X15454862Y13945777D01*
X15454868Y13945763D01*
X15588903Y13667437D01*
X15753264Y13405858D01*
X15945879Y13164326D01*
X16164326Y12945879D01*
X16405858Y12753264D01*
X16667437Y12588903D01*
X16945763Y12454868D01*
X16945777Y12454862D01*
X17237352Y12352835D01*
X17237364Y12352831D01*
X17538544Y12284089D01*
X17538562Y12284086D01*
X17845528Y12249500D01*
X17845535Y12249500D01*
X18154471Y12249500D01*
X18461437Y12284086D01*
X18461455Y12284089D01*
X18762635Y12352831D01*
X18762647Y12352835D01*
X19054222Y12454862D01*
X19054236Y12454868D01*
X19332562Y12588903D01*
X19476347Y12679249D01*
X19594143Y12753265D01*
X19835674Y12945880D01*
X20054120Y13164326D01*
X20246735Y13405857D01*
X20411095Y13667435D01*
X20545135Y13945771D01*
X20647168Y14237364D01*
X20715911Y14538548D01*
X20718521Y14561706D01*
X20750499Y14845528D01*
X20750500Y14845532D01*
X20750500Y15154467D01*
X20750499Y15154471D01*
X20750152Y15157547D01*
X20729134Y15344091D01*
X20715913Y15461437D01*
X20715910Y15461455D01*
X20685178Y15596100D01*
X20647168Y15762636D01*
X20545135Y16054229D01*
X20411095Y16332565D01*
X20246735Y16594143D01*
X20054120Y16835674D01*
X19835674Y17054120D01*
X19594143Y17246735D01*
X19332565Y17411095D01*
X19054229Y17545135D01*
X18762636Y17647168D01*
X18461452Y17715911D01*
X18461442Y17715912D01*
X18461437Y17715913D01*
X18311356Y17732822D01*
X18154468Y17750499D01*
X18154467Y17750500D01*
X18154465Y17750500D01*
X17845535Y17750500D01*
X17845533Y17750500D01*
X17845530Y17750499D01*
X17743206Y17738970D01*
X17538562Y17715913D01*
X17538554Y17715911D01*
X17538548Y17715911D01*
X17538544Y17715910D01*
X17237364Y17647168D01*
X17237352Y17647164D01*
X17080452Y17592262D01*
X16945771Y17545135D01*
X16667435Y17411095D01*
X16405857Y17246735D01*
X16164326Y17054120D01*
X15945880Y16835674D01*
X15753265Y16594143D01*
X15749240Y16587737D01*
X15588903Y16332562D01*
X15454868Y16054236D01*
X15454862Y16054222D01*
X15352835Y15762647D01*
X15352831Y15762635D01*
X15284089Y15461455D01*
X15284086Y15461437D01*
X15249500Y15154471D01*
X10846131Y15154471D01*
X10818838Y15361789D01*
X10756054Y15596100D01*
X10663224Y15820212D01*
X10541936Y16030289D01*
X10394265Y16222738D01*
X10222738Y16394265D01*
X10030289Y16541936D01*
X9820212Y16663224D01*
X9596100Y16756054D01*
X9361789Y16818838D01*
X9169388Y16844167D01*
X9121289Y16850500D01*
X9121288Y16850500D01*
X8878712Y16850500D01*
X8878711Y16850500D01*
X8818586Y16842584D01*
X8638211Y16818838D01*
X8403900Y16756054D01*
X8179788Y16663224D01*
X7969711Y16541936D01*
X7969706Y16541932D01*
X7777263Y16394266D01*
X7777256Y16394260D01*
X7605739Y16222743D01*
X7605735Y16222738D01*
X7458064Y16030289D01*
X7358974Y15858661D01*
X7336777Y15820214D01*
X7336773Y15820205D01*
X7243947Y15596104D01*
X7181161Y15361785D01*
X7149500Y15121288D01*
X5022119Y15121288D01*
X4957546Y15207546D01*
X4842331Y15293796D01*
X4707483Y15344091D01*
X4647873Y15350500D01*
X2852128Y15350499D01*
X2803757Y15345299D01*
X2792516Y15344091D01*
X2657671Y15293797D01*
X2657664Y15293793D01*
X2542455Y15207547D01*
X2542452Y15207544D01*
X2456206Y15092335D01*
X2456202Y15092328D01*
X2405908Y14957482D01*
X2400533Y14907483D01*
X2399501Y14897876D01*
X2399500Y14897864D01*
X2399500Y14674500D01*
X2379815Y14607461D01*
X2327011Y14561706D01*
X2275500Y14550500D01*
X-2300501Y14550500D01*
X-2367540Y14570185D01*
X-2413295Y14622989D01*
X-2424501Y14674500D01*
X-2424501Y14847876D01*
X-2430908Y14907483D01*
X-2481202Y15042328D01*
X-2481206Y15042335D01*
X-2567452Y15157544D01*
X-2567455Y15157547D01*
X-2682664Y15243793D01*
X-2682671Y15243797D01*
X-2817517Y15294091D01*
X-2817516Y15294091D01*
X-2823925Y15294779D01*
X-2877127Y15300500D01*
X-4672872Y15300499D01*
X-4732483Y15294091D01*
X-4867331Y15243796D01*
X-4982546Y15157546D01*
X-5068796Y15042331D01*
X-5119091Y14907483D01*
X-5125500Y14847873D01*
X-5125499Y13052128D01*
X-5120299Y13003757D01*
X-5119091Y12992516D01*
X-5068797Y12857671D01*
X-5068793Y12857664D01*
X-4982547Y12742455D01*
X-4982544Y12742452D01*
X-4867335Y12656206D01*
X-4867328Y12656202D01*
X-4732482Y12605908D01*
X-4732483Y12605908D01*
X-4672883Y12599501D01*
X-4672881Y12599500D01*
X-4672873Y12599500D01*
X-4672864Y12599500D01*
X-3029095Y12599500D01*
X-2962056Y12579815D01*
X-2916301Y12527011D01*
X-2906357Y12457853D01*
X-2935382Y12394297D01*
X-2941400Y12387833D01*
X-6733810Y8595423D01*
X-6795131Y8561940D01*
X-6861751Y8565824D01*
X-6893986Y8576891D01*
X-7116967Y8614100D01*
X-7343033Y8614100D01*
X-7566014Y8576891D01*
X-7779831Y8503488D01*
X-7978649Y8395893D01*
X-8157046Y8257040D01*
X-8256832Y8148643D01*
X-8308680Y8092322D01*
X-8310156Y8090719D01*
X-8396193Y7959028D01*
X-8449338Y7913675D01*
X-8518569Y7904251D01*
X-8581905Y7933753D01*
X-8603804Y7959025D01*
X-8689844Y8090719D01*
X-8689849Y8090724D01*
X-8689850Y8090727D01*
X-8842950Y8257036D01*
X-8842951Y8257036D01*
X-8842954Y8257040D01*
X-9021351Y8395893D01*
X-9220169Y8503488D01*
X-9328541Y8540692D01*
X-9433982Y8576890D01*
X-9433984Y8576890D01*
X-9433986Y8576891D01*
X-9656967Y8614100D01*
X-9883033Y8614100D01*
X-10106014Y8576891D01*
X-10138245Y8565825D01*
X-10208041Y8562674D01*
X-10266190Y8595425D01*
X-11863181Y10192416D01*
X-11896666Y10253739D01*
X-11899500Y10280097D01*
X-11899500Y15121288D01*
X-10850500Y15121288D01*
X-10850500Y14878712D01*
X-10818838Y14638211D01*
X-10756054Y14403900D01*
X-10663224Y14179788D01*
X-10541936Y13969711D01*
X-10541932Y13969706D01*
X-10394266Y13777263D01*
X-10394260Y13777256D01*
X-10222743Y13605739D01*
X-10222736Y13605733D01*
X-10030293Y13458067D01*
X-10030289Y13458064D01*
X-9858661Y13358974D01*
X-9820214Y13336777D01*
X-9820205Y13336773D01*
X-9596104Y13243947D01*
X-9361785Y13181161D01*
X-9121289Y13149500D01*
X-9121288Y13149500D01*
X-8878711Y13149500D01*
X-8638214Y13181161D01*
X-8403895Y13243947D01*
X-8179794Y13336773D01*
X-8179785Y13336777D01*
X-7969706Y13458067D01*
X-7777263Y13605733D01*
X-7777256Y13605739D01*
X-7605739Y13777256D01*
X-7605733Y13777263D01*
X-7458067Y13969706D01*
X-7336777Y14179785D01*
X-7336773Y14179794D01*
X-7243947Y14403895D01*
X-7181161Y14638214D01*
X-7149500Y14878711D01*
X-7149500Y15121288D01*
X-7181161Y15361785D01*
X-7243947Y15596104D01*
X-7336773Y15820205D01*
X-7336777Y15820214D01*
X-7358974Y15858661D01*
X-7458064Y16030289D01*
X-7605735Y16222738D01*
X-7605739Y16222743D01*
X-7777256Y16394260D01*
X-7777263Y16394266D01*
X-7969706Y16541932D01*
X-7969711Y16541936D01*
X-8179788Y16663224D01*
X-8403900Y16756054D01*
X-8638211Y16818838D01*
X-8818586Y16842584D01*
X-8878711Y16850500D01*
X-8878712Y16850500D01*
X-9121288Y16850500D01*
X-9121289Y16850500D01*
X-9169388Y16844167D01*
X-9361789Y16818838D01*
X-9596100Y16756054D01*
X-9820212Y16663224D01*
X-10030289Y16541936D01*
X-10222738Y16394265D01*
X-10394265Y16222738D01*
X-10541936Y16030289D01*
X-10663224Y15820212D01*
X-10756054Y15596100D01*
X-10818838Y15361789D01*
X-10850500Y15121288D01*
X-11899500Y15121288D01*
X-11899500Y17090003D01*
X-1805565Y17090003D01*
X-1805565Y17089996D01*
X-1800020Y17040784D01*
X-1785368Y16910745D01*
X-1725789Y16740478D01*
X-1633841Y16594143D01*
X-1629815Y16587737D01*
X-1502262Y16460184D01*
X-1349523Y16364211D01*
X-1179254Y16304631D01*
X-1179249Y16304630D01*
X-1000004Y16284435D01*
X-1000000Y16284435D01*
X-999996Y16284435D01*
X-820750Y16304630D01*
X-820745Y16304631D01*
X-650476Y16364211D01*
X-497737Y16460184D01*
X-370184Y16587737D01*
X-274210Y16740478D01*
X-214630Y16910750D01*
X-204837Y16997668D01*
X-177770Y17062082D01*
X-169298Y17071465D01*
X1202416Y18443181D01*
X1263739Y18476666D01*
X1290097Y18479500D01*
X2460909Y18479500D01*
X2527948Y18459815D01*
X2573293Y18407901D01*
X2575966Y18402168D01*
X2711501Y18208604D01*
X2711506Y18208597D01*
X2878597Y18041506D01*
X2878604Y18041501D01*
X3072165Y17905967D01*
X3072169Y17905965D01*
X3179395Y17855965D01*
X3265552Y17815789D01*
X3286335Y17806098D01*
X3286344Y17806094D01*
X3514586Y17744938D01*
X3514596Y17744936D01*
X3749999Y17724341D01*
X3750000Y17724341D01*
X3750001Y17724341D01*
X3985403Y17744936D01*
X3985413Y17744938D01*
X4213655Y17806094D01*
X4213659Y17806096D01*
X4213663Y17806097D01*
X4427830Y17905965D01*
X4427834Y17905967D01*
X4621395Y18041501D01*
X4621402Y18041506D01*
X4788493Y18208597D01*
X4788495Y18208599D01*
X4900609Y18368714D01*
X4924032Y18402165D01*
X4924034Y18402169D01*
X4924035Y18402170D01*
X5023903Y18616337D01*
X5085063Y18844592D01*
X5105659Y19080000D01*
X5085063Y19315408D01*
X5023903Y19543663D01*
X4924035Y19757829D01*
X4788495Y19951401D01*
X4621401Y20118495D01*
X4435842Y20248425D01*
X4392217Y20303002D01*
X4385023Y20372500D01*
X4416546Y20434855D01*
X4435842Y20451575D01*
X4621396Y20581501D01*
X4621402Y20581506D01*
X4788493Y20748597D01*
X4788495Y20748599D01*
X4889025Y20892170D01*
X4924032Y20942165D01*
X4924034Y20942169D01*
X4924035Y20942170D01*
X5023903Y21156337D01*
X5085063Y21384592D01*
X5105659Y21620000D01*
X5085063Y21855408D01*
X5023903Y22083663D01*
X4924035Y22297829D01*
X4788495Y22491401D01*
X4621401Y22658495D01*
X4427830Y22794035D01*
X4213663Y22893903D01*
X3985408Y22955063D01*
X3789234Y22972226D01*
X3750001Y22975659D01*
X3749999Y22975659D01*
X3702918Y22971539D01*
X3514592Y22955063D01*
X3286337Y22893903D01*
X3072171Y22794035D01*
X3072169Y22794034D01*
X2878597Y22658494D01*
X2711505Y22491402D01*
X2575965Y22297830D01*
X2575964Y22297828D01*
X2552650Y22247830D01*
X2476097Y22083663D01*
X2476096Y22083659D01*
X2476094Y22083655D01*
X2414938Y21855413D01*
X2414936Y21855403D01*
X2394341Y21620000D01*
X2394341Y21619999D01*
X2414936Y21384596D01*
X2414939Y21384583D01*
X2449327Y21256241D01*
X2447664Y21186392D01*
X2417233Y21136468D01*
X1781586Y20500821D01*
X1720263Y20467336D01*
X1680022Y20465282D01*
X1500004Y20485565D01*
X1500001Y20485565D01*
X1500000Y20485564D01*
X1500000Y20485565D01*
X1488383Y20484256D01*
X1419563Y20496309D01*
X1368183Y20543657D01*
X1350499Y20607472D01*
X1350499Y22397872D01*
X1344091Y22457483D01*
X1293796Y22592331D01*
X1207546Y22707546D01*
X1092331Y22793796D01*
X957483Y22844091D01*
X897873Y22850500D01*
X-897872Y22850499D01*
X-957483Y22844091D01*
X-1092331Y22793796D01*
X-1207546Y22707546D01*
X-1293796Y22592331D01*
X-1344091Y22457483D01*
X-1350500Y22397873D01*
X-1350499Y20602128D01*
X-1345299Y20553757D01*
X-1344091Y20542516D01*
X-1293797Y20407671D01*
X-1293793Y20407664D01*
X-1207547Y20292455D01*
X-1207544Y20292452D01*
X-1092335Y20206206D01*
X-1092328Y20206202D01*
X-957482Y20155908D01*
X-957483Y20155908D01*
X-897883Y20149501D01*
X-897881Y20149500D01*
X-897873Y20149500D01*
X641431Y20149500D01*
X708470Y20129815D01*
X754225Y20077011D01*
X764169Y20007853D01*
X758472Y19984545D01*
X714633Y19859262D01*
X714630Y19859249D01*
X694435Y19680003D01*
X694435Y19674345D01*
X674750Y19607306D01*
X632433Y19566957D01*
X621284Y19560520D01*
X554428Y19493664D01*
X505149Y19444385D01*
X505139Y19444374D01*
X-1018535Y17920698D01*
X-1079856Y17887215D01*
X-1092311Y17885163D01*
X-1179255Y17875368D01*
X-1349522Y17815789D01*
X-1502262Y17719816D01*
X-1629816Y17592262D01*
X-1725789Y17439522D01*
X-1785368Y17269255D01*
X-1785368Y17269254D01*
X-1785369Y17269249D01*
X-1805565Y17090003D01*
X-11899500Y17090003D01*
X-11899500Y17699903D01*
X-11879815Y17766942D01*
X-11863181Y17787584D01*
X-10787584Y18863181D01*
X-10726261Y18896666D01*
X-10699903Y18899500D01*
X-5232609Y18899500D01*
X-5165570Y18879815D01*
X-5119815Y18827011D01*
X-5110492Y18797026D01*
X-5110063Y18794592D01*
X-5048903Y18566337D01*
X-4949035Y18352170D01*
X-4949034Y18352169D01*
X-4949032Y18352165D01*
X-4914508Y18302860D01*
X-4813495Y18158599D01*
X-4813493Y18158597D01*
X-4646402Y17991506D01*
X-4646395Y17991501D01*
X-4452834Y17855967D01*
X-4452830Y17855965D01*
X-4238663Y17756097D01*
X-4238659Y17756096D01*
X-4238655Y17756094D01*
X-4010413Y17694938D01*
X-4010403Y17694936D01*
X-3775001Y17674341D01*
X-3775000Y17674341D01*
X-3774999Y17674341D01*
X-3539596Y17694936D01*
X-3539586Y17694938D01*
X-3311344Y17756094D01*
X-3311335Y17756098D01*
X-3097169Y17855965D01*
X-3097165Y17855967D01*
X-2903604Y17991501D01*
X-2903597Y17991506D01*
X-2736506Y18158597D01*
X-2736501Y18158604D01*
X-2600967Y18352165D01*
X-2600965Y18352169D01*
X-2501098Y18566335D01*
X-2501094Y18566344D01*
X-2439938Y18794586D01*
X-2439936Y18794596D01*
X-2419341Y19029999D01*
X-2419341Y19030000D01*
X-2439936Y19265403D01*
X-2439938Y19265413D01*
X-2501094Y19493655D01*
X-2501096Y19493659D01*
X-2501097Y19493663D01*
X-2587989Y19680003D01*
X-2600964Y19707828D01*
X-2600965Y19707830D01*
X-2736505Y19901402D01*
X-2903597Y20068493D01*
X-2903599Y20068495D01*
X-3089158Y20198425D01*
X-3132782Y20253002D01*
X-3139975Y20322501D01*
X-3108453Y20384855D01*
X-3089158Y20401575D01*
X-2903599Y20531505D01*
X-2903597Y20531506D01*
X-2736506Y20698597D01*
X-2736501Y20698604D01*
X-2600967Y20892165D01*
X-2600965Y20892169D01*
X-2501098Y21106335D01*
X-2501094Y21106344D01*
X-2439938Y21334586D01*
X-2439936Y21334596D01*
X-2419341Y21569999D01*
X-2419341Y21570000D01*
X-2439936Y21805403D01*
X-2439938Y21805413D01*
X-2501094Y22033655D01*
X-2501096Y22033659D01*
X-2501097Y22033663D01*
X-2551031Y22140746D01*
X-2600964Y22247828D01*
X-2600965Y22247830D01*
X-2736505Y22441402D01*
X-2903597Y22608493D01*
X-2903598Y22608494D01*
X-2903599Y22608495D01*
X-3045058Y22707546D01*
X-3097165Y22744032D01*
X-3097169Y22744034D01*
X-3097170Y22744035D01*
X-3311337Y22843903D01*
X-3312039Y22844091D01*
X-3366285Y22858626D01*
X-3539592Y22905063D01*
X-3727918Y22921539D01*
X-3774999Y22925659D01*
X-3775001Y22925659D01*
X-3814234Y22922226D01*
X-4010408Y22905063D01*
X-4238663Y22843903D01*
X-4452829Y22744035D01*
X-4646401Y22608495D01*
X-4813495Y22441401D01*
X-4949035Y22247829D01*
X-5048903Y22033663D01*
X-5110063Y21805408D01*
X-5130659Y21570000D01*
X-5110063Y21334592D01*
X-5110061Y21334586D01*
X-5056977Y21136468D01*
X-5048903Y21106337D01*
X-4949035Y20892170D01*
X-4949034Y20892169D01*
X-4949032Y20892165D01*
X-4881265Y20795384D01*
X-4813495Y20698599D01*
X-4813493Y20698597D01*
X-4785419Y20670523D01*
X-4751934Y20609200D01*
X-4756918Y20539508D01*
X-4785418Y20495161D01*
X-4970609Y20309972D01*
X-5143762Y20136819D01*
X-5205085Y20103334D01*
X-5231443Y20100500D01*
X-10920943Y20100500D01*
X-11079058Y20100500D01*
X-11119981Y20089534D01*
X-11231784Y20059577D01*
X-11368716Y19980520D01*
X-11480520Y19868716D01*
X-11480520Y19868714D01*
X-11490724Y19858511D01*
X-11490728Y19858506D01*
X-12858506Y18490728D01*
X-12858511Y18490724D01*
X-12868714Y18480520D01*
X-12868716Y18480520D01*
X-12980520Y18368716D01*
X-13018541Y18302861D01*
X-13059577Y18231785D01*
X-13100501Y18079057D01*
X-13100501Y18079054D01*
X-13100501Y17913348D01*
X-13100500Y17913330D01*
X-13100500Y10069059D01*
X-13100501Y10069046D01*
X-13100501Y10059057D01*
X-13100501Y9900943D01*
X-13059577Y9748215D01*
X-13030639Y9698095D01*
X-12980520Y9611284D01*
X-12868716Y9499480D01*
X-12864385Y9495149D01*
X-12864374Y9495139D01*
X-12195016Y8825781D01*
X-12161531Y8764458D01*
X-12166515Y8694766D01*
X-12208387Y8638833D01*
X-12273851Y8614416D01*
X-12282697Y8614100D01*
X-12423033Y8614100D01*
X-12646014Y8576891D01*
X-12859831Y8503488D01*
X-13058649Y8395893D01*
X-13237046Y8257040D01*
X-13336832Y8148643D01*
X-13388680Y8092322D01*
X-13390156Y8090719D01*
X-13476193Y7959028D01*
X-13529338Y7913675D01*
X-13598569Y7904251D01*
X-13661905Y7933753D01*
X-13683804Y7959025D01*
X-13769844Y8090719D01*
X-13769849Y8090724D01*
X-13769850Y8090727D01*
X-13922950Y8257036D01*
X-13922951Y8257036D01*
X-13922954Y8257040D01*
X-14101351Y8395893D01*
X-14300169Y8503488D01*
X-14408541Y8540692D01*
X-14513982Y8576890D01*
X-14513984Y8576890D01*
X-14513986Y8576891D01*
X-14736967Y8614100D01*
X-14963033Y8614100D01*
X-15186014Y8576891D01*
X-15399831Y8503488D01*
X-15598649Y8395893D01*
X-15777046Y8257040D01*
X-15876832Y8148643D01*
X-15928680Y8092322D01*
X-15930156Y8090719D01*
X-16016193Y7959028D01*
X-16069338Y7913675D01*
X-16138569Y7904251D01*
X-16201905Y7933753D01*
X-16223804Y7959025D01*
X-16309844Y8090719D01*
X-16309849Y8090724D01*
X-16309850Y8090727D01*
X-16462950Y8257036D01*
X-16462951Y8257036D01*
X-16462954Y8257040D01*
X-16641351Y8395893D01*
X-16840169Y8503488D01*
X-16948541Y8540692D01*
X-17053982Y8576890D01*
X-17053984Y8576890D01*
X-17053986Y8576891D01*
X-17276967Y8614100D01*
X-17503033Y8614100D01*
X-17726014Y8576891D01*
X-17939831Y8503488D01*
X-18138649Y8395893D01*
X-18317046Y8257040D01*
X-18416832Y8148643D01*
X-18468680Y8092322D01*
X-18470156Y8090719D01*
X-18556193Y7959028D01*
X-18609338Y7913675D01*
X-18678569Y7904251D01*
X-18741905Y7933753D01*
X-18763804Y7959025D01*
X-18849844Y8090719D01*
X-18849849Y8090724D01*
X-18849850Y8090727D01*
X-19002950Y8257036D01*
X-19002951Y8257036D01*
X-19002954Y8257040D01*
X-19181351Y8395893D01*
X-19380169Y8503488D01*
X-19488541Y8540692D01*
X-19593982Y8576890D01*
X-19593984Y8576890D01*
X-19593986Y8576891D01*
X-19816967Y8614100D01*
X-20043033Y8614100D01*
X-20266014Y8576891D01*
X-20479831Y8503488D01*
X-20678649Y8395893D01*
X-20857046Y8257040D01*
X-20956832Y8148643D01*
X-21008680Y8092322D01*
X-21010156Y8090719D01*
X-21133802Y7901465D01*
X-21224611Y7694441D01*
X-21280107Y7475293D01*
X-21285287Y7412771D01*
X-21310439Y7347591D01*
X-21366840Y7306352D01*
X-21436584Y7302152D01*
X-21497526Y7336326D01*
X-21530318Y7398022D01*
X-21530480Y7398822D01*
X-21556025Y7527245D01*
X-21556027Y7527251D01*
X-21627676Y7700228D01*
X-21627681Y7700237D01*
X-21731697Y7855907D01*
X-21731700Y7855911D01*
X-21864088Y7988299D01*
X-21864092Y7988302D01*
X-22019762Y8092318D01*
X-22019771Y8092323D01*
X-22058956Y8108554D01*
X-22192749Y8163973D01*
X-22376379Y8200499D01*
X-22376383Y8200500D01*
X-22376384Y8200500D01*
X-22563616Y8200500D01*
X-22563617Y8200500D01*
X-22563618Y8200499D01*
X-22747251Y8163973D01*
X-22920231Y8092322D01*
X-23075908Y7988302D01*
X-23208302Y7855908D01*
X-23312322Y7700231D01*
X-23383973Y7527251D01*
X-23420500Y7343616D01*
X-24499500Y7343616D01*
X-24499500Y15154467D01*
X-20750500Y15154467D01*
X-20750500Y14845532D01*
X-20750499Y14845528D01*
X-20718521Y14561706D01*
X-20715911Y14538548D01*
X-20647168Y14237364D01*
X-20545135Y13945771D01*
X-20411095Y13667435D01*
X-20246735Y13405857D01*
X-20054120Y13164326D01*
X-19835674Y12945880D01*
X-19594143Y12753265D01*
X-19476347Y12679249D01*
X-19332562Y12588903D01*
X-19054236Y12454868D01*
X-19054222Y12454862D01*
X-18762647Y12352835D01*
X-18762635Y12352831D01*
X-18461455Y12284089D01*
X-18461437Y12284086D01*
X-18154471Y12249500D01*
X-18154465Y12249500D01*
X-17845528Y12249500D01*
X-17538562Y12284086D01*
X-17538544Y12284089D01*
X-17237364Y12352831D01*
X-17237352Y12352835D01*
X-16945777Y12454862D01*
X-16945763Y12454868D01*
X-16667437Y12588903D01*
X-16405858Y12753264D01*
X-16164326Y12945879D01*
X-15945879Y13164326D01*
X-15753264Y13405858D01*
X-15588903Y13667437D01*
X-15454868Y13945763D01*
X-15454862Y13945777D01*
X-15352835Y14237352D01*
X-15352831Y14237364D01*
X-15284089Y14538544D01*
X-15284086Y14538562D01*
X-15249500Y14845528D01*
X-15249500Y15154471D01*
X-15284086Y15461437D01*
X-15284089Y15461455D01*
X-15352831Y15762635D01*
X-15352835Y15762647D01*
X-15454862Y16054222D01*
X-15454868Y16054236D01*
X-15588903Y16332562D01*
X-15749240Y16587737D01*
X-15753265Y16594143D01*
X-15945880Y16835674D01*
X-16164326Y17054120D01*
X-16405857Y17246735D01*
X-16667435Y17411095D01*
X-16945771Y17545135D01*
X-17080452Y17592262D01*
X-17237352Y17647164D01*
X-17237364Y17647168D01*
X-17538544Y17715910D01*
X-17538548Y17715911D01*
X-17538554Y17715911D01*
X-17538562Y17715913D01*
X-17743206Y17738970D01*
X-17845530Y17750499D01*
X-17845533Y17750500D01*
X-17845535Y17750500D01*
X-18154465Y17750500D01*
X-18154467Y17750500D01*
X-18154468Y17750499D01*
X-18311356Y17732822D01*
X-18461437Y17715913D01*
X-18461442Y17715912D01*
X-18461452Y17715911D01*
X-18762636Y17647168D01*
X-19054229Y17545135D01*
X-19332565Y17411095D01*
X-19594143Y17246735D01*
X-19835674Y17054120D01*
X-20054120Y16835674D01*
X-20246735Y16594143D01*
X-20411095Y16332565D01*
X-20545135Y16054229D01*
X-20647168Y15762636D01*
X-20685178Y15596100D01*
X-20715910Y15461455D01*
X-20715913Y15461437D01*
X-20729134Y15344091D01*
X-20750152Y15157547D01*
X-20750499Y15154471D01*
X-20750500Y15154467D01*
X-24499500Y15154467D01*
X-24499500Y24375500D01*
X-24479815Y24442539D01*
X-24427011Y24488294D01*
X-24375500Y24499500D01*
X24375500Y24499500D01*
X24442539Y24479815D01*
G37*
%TD.AperFunction*%
%TD*%
M02*
