%TF.GenerationSoftware,KiCad,Pcbnew,8.0.8*%
%TF.CreationDate,2025-02-27T23:17:26-05:00*%
%TF.ProjectId,modular_sdvx_pcb_nostabs,6d6f6475-6c61-4725-9f73-6476785f7063,rev?*%
%TF.SameCoordinates,Original*%
%TF.FileFunction,Legend,Top*%
%TF.FilePolarity,Positive*%
%FSLAX46Y46*%
G04 Gerber Fmt 4.6, Leading zero omitted, Abs format (unit mm)*
G04 Created by KiCad (PCBNEW 8.0.8) date 2025-02-27 23:17:26*
%MOMM*%
%LPD*%
G01*
G04 APERTURE LIST*
%ADD10C,0.100000*%
%ADD11C,0.150000*%
%ADD12C,0.120000*%
G04 APERTURE END LIST*
D10*
X13250000Y-3250000D02*
X18250000Y-3250000D01*
X12707107Y-4500000D02*
G75*
G02*
X11292893Y-4500000I-707107J0D01*
G01*
X11292893Y-4500000D02*
G75*
G02*
X12707107Y-4500000I707107J0D01*
G01*
X15250000Y-5750000D02*
X13000000Y-6500000D01*
X20207107Y-4500000D02*
G75*
G02*
X18792893Y-4500000I-707107J0D01*
G01*
X18792893Y-4500000D02*
G75*
G02*
X20207107Y-4500000I707107J0D01*
G01*
X17250000Y-5000000D02*
X18500000Y-4750000D01*
X22035788Y-4878230D02*
G75*
G02*
X22280695Y-6247965I-6035888J-1785970D01*
G01*
X19500000Y-2000000D02*
X21000000Y-3500000D01*
X12500000Y-4750000D02*
G75*
G02*
X12000000Y-4750000I-250000J0D01*
G01*
X12000000Y-4750000D02*
G75*
G02*
X12500000Y-4750000I250000J0D01*
G01*
X15000000Y-5250000D02*
X13000000Y-5500000D01*
X15250000Y-4750000D02*
X13250000Y-4500000D01*
X9667591Y-6260680D02*
G75*
G02*
X10499995Y-3499997I6332409J-403520D01*
G01*
X19500000Y-4250000D02*
G75*
G02*
X19000000Y-4250000I-250000J0D01*
G01*
X19000000Y-4250000D02*
G75*
G02*
X19500000Y-4250000I250000J0D01*
G01*
X17000000Y-6250000D02*
G75*
G02*
X15000000Y-6250000I-1000000J999999D01*
G01*
X16000000Y-5250000D02*
G75*
G02*
X14000000Y-5250000I-1000000J0D01*
G01*
X18250000Y-3250000D02*
X19500000Y-2000000D01*
X10500000Y-3500000D02*
X12000000Y-1750000D01*
X17250000Y-5500000D02*
X19000000Y-5750000D01*
X17000000Y-6000000D02*
X19000000Y-6250000D01*
X22035789Y-4878230D02*
X21000000Y-3500000D01*
X18000000Y-5250000D02*
G75*
G02*
X16000000Y-5250000I-1000000J0D01*
G01*
X12000000Y-1750000D02*
X13250000Y-3250000D01*
G36*
X-21991625Y4201577D02*
G01*
X-22037993Y4221135D01*
X-22057571Y4251646D01*
X-22082717Y4294602D01*
X-22093230Y4303670D01*
X-22141835Y4310647D01*
X-22164794Y4310997D01*
X-22215886Y4301182D01*
X-22262871Y4276490D01*
X-22304837Y4243362D01*
X-22341002Y4207321D01*
X-22378253Y4163611D01*
X-22385833Y4153949D01*
X-22415296Y4114621D01*
X-22450072Y4062784D01*
X-22479696Y4011634D01*
X-22504168Y3961172D01*
X-22523488Y3911396D01*
X-22537656Y3862307D01*
X-22546672Y3813905D01*
X-22550697Y3754368D01*
X-22546196Y3705014D01*
X-22530635Y3654935D01*
X-22503959Y3609864D01*
X-22493789Y3597320D01*
X-22454944Y3561513D01*
X-22411376Y3538969D01*
X-22363085Y3529686D01*
X-22352861Y3529420D01*
X-22299784Y3534332D01*
X-22250888Y3547463D01*
X-22210711Y3564347D01*
X-22167742Y3588997D01*
X-22122567Y3618664D01*
X-22088590Y3642260D01*
X-22045503Y3666814D01*
X-22029483Y3670104D01*
X-21983941Y3652051D01*
X-21980146Y3648122D01*
X-21960196Y3602856D01*
X-21960118Y3599518D01*
X-21978723Y3553627D01*
X-21986252Y3546273D01*
X-22031628Y3509350D01*
X-22077141Y3477351D01*
X-22122792Y3450274D01*
X-22168579Y3428121D01*
X-22214505Y3410890D01*
X-22272104Y3396275D01*
X-22329919Y3389352D01*
X-22353105Y3388736D01*
X-22404865Y3392661D01*
X-22453534Y3404433D01*
X-22499112Y3424053D01*
X-22541599Y3451522D01*
X-22580995Y3486839D01*
X-22593440Y3500355D01*
X-22625646Y3542221D01*
X-22651188Y3586852D01*
X-22670067Y3634247D01*
X-22682283Y3684408D01*
X-22687836Y3737333D01*
X-22688206Y3755589D01*
X-22685157Y3815249D01*
X-22676009Y3875283D01*
X-22660763Y3935692D01*
X-22639419Y3996474D01*
X-22619408Y4042306D01*
X-22595967Y4088348D01*
X-22569096Y4134601D01*
X-22538794Y4181064D01*
X-22505062Y4227738D01*
X-22493056Y4243342D01*
X-22452344Y4292172D01*
X-22411540Y4334491D01*
X-22370645Y4370299D01*
X-22329658Y4399596D01*
X-22278295Y4427063D01*
X-22226789Y4444357D01*
X-22175141Y4451478D01*
X-22164794Y4451681D01*
X-22114698Y4449585D01*
X-22104466Y4448506D01*
X-22057083Y4438736D01*
X-22015006Y4465052D01*
X-21994556Y4467313D01*
X-21948971Y4443747D01*
X-21934717Y4406985D01*
X-21927204Y4355293D01*
X-21924112Y4303544D01*
X-21923726Y4275094D01*
X-21938869Y4227466D01*
X-21981321Y4202209D01*
X-21991625Y4201577D01*
G37*
G36*
X-21276971Y3941946D02*
G01*
X-21287285Y3893972D01*
X-21323767Y3860645D01*
X-21345603Y3857683D01*
X-21391723Y3876639D01*
X-21404710Y3924849D01*
X-21406908Y3972477D01*
X-21408862Y4029630D01*
X-21460397Y4020959D01*
X-21511952Y4005950D01*
X-21556705Y3985376D01*
X-21582763Y3968569D01*
X-21622318Y3932501D01*
X-21654069Y3890445D01*
X-21679220Y3845050D01*
X-21684368Y3833991D01*
X-21682903Y3458101D01*
X-21695899Y3410684D01*
X-21742580Y3389007D01*
X-21750802Y3388736D01*
X-21798065Y3408175D01*
X-21811374Y3457613D01*
X-21811374Y3935352D01*
X-21810246Y3986700D01*
X-21809665Y4002763D01*
X-21808157Y4052070D01*
X-21807955Y4070174D01*
X-21794646Y4119612D01*
X-21747383Y4139050D01*
X-21701328Y4118340D01*
X-21682983Y4073011D01*
X-21679483Y4030851D01*
X-21637563Y4066525D01*
X-21594237Y4096152D01*
X-21549502Y4119734D01*
X-21503361Y4137268D01*
X-21455812Y4148756D01*
X-21406857Y4154198D01*
X-21386880Y4154682D01*
X-21338276Y4144363D01*
X-21303838Y4113405D01*
X-21284027Y4065706D01*
X-21276912Y4014255D01*
X-21276238Y3989330D01*
X-21276971Y3941946D01*
G37*
G36*
X-20761179Y4133931D02*
G01*
X-20709882Y4120118D01*
X-20678087Y4108032D01*
X-20632986Y4085049D01*
X-20595811Y4050439D01*
X-20584787Y4014731D01*
X-20598709Y3981758D01*
X-20606422Y3932621D01*
X-20609455Y3895296D01*
X-20611756Y3845642D01*
X-20613081Y3791738D01*
X-20613607Y3741667D01*
X-20612777Y3691617D01*
X-20608381Y3640875D01*
X-20601884Y3606357D01*
X-20586277Y3557014D01*
X-20567289Y3506793D01*
X-20558653Y3484968D01*
X-20543021Y3448332D01*
X-20538869Y3436608D01*
X-20558164Y3391179D01*
X-20602861Y3373105D01*
X-20643975Y3401990D01*
X-20650244Y3408276D01*
X-20682606Y3446630D01*
X-20696161Y3466894D01*
X-20739652Y3442586D01*
X-20786287Y3419587D01*
X-20812421Y3408520D01*
X-20861002Y3393083D01*
X-20896196Y3388736D01*
X-20953398Y3391905D01*
X-21004468Y3401410D01*
X-21056302Y3420509D01*
X-21099791Y3448233D01*
X-21130425Y3478862D01*
X-21157453Y3520254D01*
X-21177843Y3570271D01*
X-21190036Y3620008D01*
X-21197352Y3676081D01*
X-21199722Y3727650D01*
X-21199772Y3735561D01*
X-21064235Y3735561D01*
X-21061086Y3681661D01*
X-21050200Y3631333D01*
X-21026873Y3584227D01*
X-21024424Y3580956D01*
X-20985466Y3547588D01*
X-20937770Y3531886D01*
X-20904745Y3529420D01*
X-20854469Y3533048D01*
X-20804674Y3546250D01*
X-20792882Y3551402D01*
X-20749496Y3579171D01*
X-20723517Y3599274D01*
X-20729849Y3649283D01*
X-20736032Y3703894D01*
X-20740668Y3752615D01*
X-20744125Y3802011D01*
X-20745498Y3848646D01*
X-20742890Y3897699D01*
X-20741835Y3907508D01*
X-20734141Y3957471D01*
X-20730600Y3975163D01*
X-20774075Y3992749D01*
X-20803140Y3998367D01*
X-20854568Y3993390D01*
X-20902363Y3978461D01*
X-20946526Y3953579D01*
X-20987055Y3918743D01*
X-21020821Y3877527D01*
X-21044940Y3833258D01*
X-21059412Y3785936D01*
X-21064235Y3735561D01*
X-21199772Y3735561D01*
X-21199790Y3738492D01*
X-21196999Y3789066D01*
X-21188627Y3837291D01*
X-21171214Y3892060D01*
X-21145763Y3943445D01*
X-21112275Y3991448D01*
X-21085484Y4021570D01*
X-21048608Y4055414D01*
X-21001508Y4088456D01*
X-20951299Y4113237D01*
X-20897981Y4129758D01*
X-20841555Y4138018D01*
X-20812177Y4139050D01*
X-20761179Y4133931D01*
G37*
G36*
X-19856454Y3983712D02*
G01*
X-19889137Y3944603D01*
X-19921266Y3903920D01*
X-19951428Y3864250D01*
X-19984012Y3820149D01*
X-20013014Y3780013D01*
X-20046147Y3733829D01*
X-20076393Y3692057D01*
X-20108879Y3647756D01*
X-20141527Y3604102D01*
X-20171913Y3564802D01*
X-20175191Y3560683D01*
X-20123729Y3560683D01*
X-20073791Y3560683D01*
X-20049406Y3560683D01*
X-20000228Y3556989D01*
X-19969783Y3552868D01*
X-19920915Y3546769D01*
X-19890160Y3545052D01*
X-19843463Y3527449D01*
X-19841067Y3525024D01*
X-19822091Y3478484D01*
X-19822016Y3474710D01*
X-19837663Y3427674D01*
X-19841067Y3423907D01*
X-19886204Y3404444D01*
X-19889916Y3404368D01*
X-19939210Y3404368D01*
X-19969783Y3404368D01*
X-20020943Y3404368D01*
X-20049406Y3404368D01*
X-20106825Y3403870D01*
X-20163128Y3402376D01*
X-20218315Y3399886D01*
X-20272385Y3396400D01*
X-20325339Y3391917D01*
X-20342742Y3390202D01*
X-20368143Y3388736D01*
X-20416003Y3401831D01*
X-20434822Y3448332D01*
X-20418544Y3495086D01*
X-20400383Y3515498D01*
X-20355072Y3556970D01*
X-20320443Y3591615D01*
X-20285260Y3629296D01*
X-20249523Y3670011D01*
X-20213232Y3713763D01*
X-20176388Y3760549D01*
X-20138989Y3810371D01*
X-20101037Y3863228D01*
X-20062531Y3919121D01*
X-20023471Y3978049D01*
X-20010327Y3998367D01*
X-20062530Y3998367D01*
X-20112264Y3998367D01*
X-20142951Y3998367D01*
X-20194105Y3999344D01*
X-20245961Y4002274D01*
X-20298519Y4007159D01*
X-20351779Y4013998D01*
X-20397575Y4033354D01*
X-20412840Y4075303D01*
X-20394277Y4120732D01*
X-20347627Y4139050D01*
X-20295547Y4136295D01*
X-20246022Y4131235D01*
X-20196137Y4126174D01*
X-20145167Y4123427D01*
X-20142951Y4123419D01*
X-20093036Y4124915D01*
X-20041354Y4128189D01*
X-20002756Y4131235D01*
X-19953846Y4135013D01*
X-19904143Y4137951D01*
X-19862561Y4139050D01*
X-19815360Y4124908D01*
X-19804187Y4094354D01*
X-19815671Y4044254D01*
X-19841397Y4001934D01*
X-19856454Y3983712D01*
G37*
G36*
X-19070969Y4032072D02*
G01*
X-19308618Y3522337D01*
X-19329955Y3476755D01*
X-19354812Y3422440D01*
X-19377654Y3371082D01*
X-19398480Y3322682D01*
X-19417291Y3277240D01*
X-19437203Y3226613D01*
X-19443196Y3210683D01*
X-19488625Y3078548D01*
X-19516952Y3038654D01*
X-19550418Y3029211D01*
X-19597588Y3045096D01*
X-19600244Y3047285D01*
X-19621004Y3091737D01*
X-19611738Y3140677D01*
X-19596536Y3187854D01*
X-19579163Y3234783D01*
X-19557156Y3289879D01*
X-19537611Y3336560D01*
X-19515459Y3387835D01*
X-19490702Y3443704D01*
X-19472749Y3483503D01*
X-19718702Y3958799D01*
X-19749476Y4009113D01*
X-19767585Y4055391D01*
X-19768039Y4062358D01*
X-19751583Y4109989D01*
X-19746545Y4115847D01*
X-19702933Y4138847D01*
X-19697941Y4139050D01*
X-19652669Y4118790D01*
X-19649337Y4114382D01*
X-19619879Y4070407D01*
X-19589879Y4022012D01*
X-19559337Y3969199D01*
X-19528253Y3911966D01*
X-19504585Y3866141D01*
X-19480611Y3817830D01*
X-19456333Y3767034D01*
X-19431751Y3713751D01*
X-19406863Y3657983D01*
X-19398499Y3638841D01*
X-19296894Y3880886D01*
X-19276432Y3925808D01*
X-19252929Y3975548D01*
X-19229823Y4022413D01*
X-19207114Y4066403D01*
X-19191137Y4096064D01*
X-19158317Y4133005D01*
X-19133496Y4139050D01*
X-19087760Y4121799D01*
X-19083670Y4118046D01*
X-19062124Y4073555D01*
X-19061933Y4068220D01*
X-19070969Y4032072D01*
G37*
G36*
X-17618213Y4387934D02*
G01*
X-17627259Y4338431D01*
X-17628471Y4303182D01*
X-17627602Y4254128D01*
X-17627250Y4241877D01*
X-17625876Y4192189D01*
X-17625785Y4180572D01*
X-17626953Y4130941D01*
X-17629571Y4081756D01*
X-17633089Y4031808D01*
X-17637752Y3975408D01*
X-17641820Y3926670D01*
X-17645501Y3875800D01*
X-17648306Y3825562D01*
X-17649709Y3774614D01*
X-17649720Y3770244D01*
X-17648471Y3719109D01*
X-17645809Y3667981D01*
X-17642149Y3613196D01*
X-17638836Y3564133D01*
X-17636027Y3511821D01*
X-17634607Y3462271D01*
X-17634577Y3455415D01*
X-17652456Y3409246D01*
X-17653628Y3408032D01*
X-17698776Y3388755D01*
X-17700523Y3388736D01*
X-17745959Y3406844D01*
X-17747173Y3408032D01*
X-17766450Y3453897D01*
X-17766468Y3455659D01*
X-17767718Y3507426D01*
X-17770380Y3558822D01*
X-17774040Y3613684D01*
X-17777353Y3662914D01*
X-17780162Y3715221D01*
X-17781582Y3764452D01*
X-17781612Y3771221D01*
X-17780757Y3821901D01*
X-17778192Y3873314D01*
X-17832255Y3870963D01*
X-17882836Y3866567D01*
X-17937333Y3859972D01*
X-17985737Y3852798D01*
X-18036861Y3844097D01*
X-18068841Y3838143D01*
X-18357292Y3781479D01*
X-18358764Y3732287D01*
X-18362158Y3682809D01*
X-18366829Y3631853D01*
X-18369748Y3603914D01*
X-18375091Y3549631D01*
X-18379277Y3496300D01*
X-18381662Y3446650D01*
X-18381960Y3425617D01*
X-18399839Y3378502D01*
X-18401011Y3377257D01*
X-18446160Y3357493D01*
X-18447906Y3357473D01*
X-18493845Y3375811D01*
X-18495045Y3377013D01*
X-18513833Y3423122D01*
X-18513852Y3424884D01*
X-18512683Y3477387D01*
X-18510065Y3529487D01*
X-18506547Y3582438D01*
X-18502620Y3633294D01*
X-18501884Y3642260D01*
X-18497816Y3694050D01*
X-18494135Y3748089D01*
X-18491330Y3801433D01*
X-18489963Y3850716D01*
X-18489916Y3860125D01*
X-18490743Y3911171D01*
X-18492323Y3960235D01*
X-18492847Y3974187D01*
X-18494484Y4026050D01*
X-18495468Y4076003D01*
X-18495533Y4088981D01*
X-18494405Y4142065D01*
X-18492000Y4195188D01*
X-18489115Y4245380D01*
X-18488695Y4252135D01*
X-18485596Y4303288D01*
X-18483168Y4352625D01*
X-18481674Y4404884D01*
X-18481612Y4415533D01*
X-18463962Y4462434D01*
X-18462805Y4463649D01*
X-18417413Y4482926D01*
X-18415666Y4482944D01*
X-18369956Y4465066D01*
X-18368771Y4463893D01*
X-18349739Y4418516D01*
X-18349720Y4416755D01*
X-18350930Y4363871D01*
X-18353506Y4311178D01*
X-18356597Y4261501D01*
X-18357048Y4254822D01*
X-18360146Y4204309D01*
X-18362574Y4155475D01*
X-18364068Y4103525D01*
X-18364131Y4092889D01*
X-18359979Y3921919D01*
X-18065422Y3978583D01*
X-18011598Y3988329D01*
X-17960493Y3996500D01*
X-17902756Y4004228D01*
X-17848935Y4009690D01*
X-17799029Y4012884D01*
X-17767934Y4013754D01*
X-17764621Y4068373D01*
X-17762758Y4117391D01*
X-17761427Y4173313D01*
X-17760725Y4225189D01*
X-17760392Y4281858D01*
X-17760362Y4305868D01*
X-17756088Y4357770D01*
X-17744317Y4407093D01*
X-17743265Y4410404D01*
X-17721746Y4457371D01*
X-17679274Y4482944D01*
X-17632868Y4463893D01*
X-17612127Y4418058D01*
X-17612107Y4416266D01*
X-17618213Y4387934D01*
G37*
G36*
X-17070181Y4133931D02*
G01*
X-17018884Y4120118D01*
X-16987090Y4108032D01*
X-16941988Y4085049D01*
X-16904814Y4050439D01*
X-16893789Y4014731D01*
X-16907711Y3981758D01*
X-16915424Y3932621D01*
X-16918457Y3895296D01*
X-16920759Y3845642D01*
X-16922083Y3791738D01*
X-16922609Y3741667D01*
X-16921779Y3691617D01*
X-16917383Y3640875D01*
X-16910886Y3606357D01*
X-16895279Y3557014D01*
X-16876291Y3506793D01*
X-16867655Y3484968D01*
X-16852023Y3448332D01*
X-16847871Y3436608D01*
X-16867166Y3391179D01*
X-16911863Y3373105D01*
X-16952978Y3401990D01*
X-16959246Y3408276D01*
X-16991608Y3446630D01*
X-17005163Y3466894D01*
X-17048654Y3442586D01*
X-17095289Y3419587D01*
X-17121423Y3408520D01*
X-17170004Y3393083D01*
X-17205198Y3388736D01*
X-17262400Y3391905D01*
X-17313470Y3401410D01*
X-17365304Y3420509D01*
X-17408793Y3448233D01*
X-17439427Y3478862D01*
X-17466455Y3520254D01*
X-17486845Y3570271D01*
X-17499038Y3620008D01*
X-17506354Y3676081D01*
X-17508725Y3727650D01*
X-17508774Y3735561D01*
X-17373237Y3735561D01*
X-17370088Y3681661D01*
X-17359202Y3631333D01*
X-17335875Y3584227D01*
X-17333426Y3580956D01*
X-17294468Y3547588D01*
X-17246772Y3531886D01*
X-17213747Y3529420D01*
X-17163471Y3533048D01*
X-17113676Y3546250D01*
X-17101884Y3551402D01*
X-17058498Y3579171D01*
X-17032519Y3599274D01*
X-17038851Y3649283D01*
X-17045034Y3703894D01*
X-17049671Y3752615D01*
X-17053127Y3802011D01*
X-17054501Y3848646D01*
X-17051892Y3897699D01*
X-17050837Y3907508D01*
X-17043143Y3957471D01*
X-17039602Y3975163D01*
X-17083077Y3992749D01*
X-17112142Y3998367D01*
X-17163570Y3993390D01*
X-17211366Y3978461D01*
X-17255528Y3953579D01*
X-17296057Y3918743D01*
X-17329823Y3877527D01*
X-17353942Y3833258D01*
X-17368414Y3785936D01*
X-17373237Y3735561D01*
X-17508774Y3735561D01*
X-17508792Y3738492D01*
X-17506002Y3789066D01*
X-17497630Y3837291D01*
X-17480216Y3892060D01*
X-17454765Y3943445D01*
X-17421277Y3991448D01*
X-17394487Y4021570D01*
X-17357610Y4055414D01*
X-17310510Y4088456D01*
X-17260301Y4113237D01*
X-17206983Y4129758D01*
X-17150557Y4138018D01*
X-17121179Y4139050D01*
X-17070181Y4133931D01*
G37*
G36*
X-15859665Y3357473D02*
G01*
X-15906376Y3374362D01*
X-15925610Y3417313D01*
X-15933371Y3470669D01*
X-15939546Y3522044D01*
X-15944924Y3573334D01*
X-15949515Y3622003D01*
X-15950279Y3630537D01*
X-15973726Y3843761D01*
X-15983681Y3893554D01*
X-15996929Y3936573D01*
X-16019823Y3980927D01*
X-16047976Y3998367D01*
X-16096901Y3981766D01*
X-16142742Y3955868D01*
X-16185813Y3928723D01*
X-16224958Y3897675D01*
X-16229204Y3893098D01*
X-16228993Y3841542D01*
X-16227170Y3790067D01*
X-16225785Y3766336D01*
X-16205024Y3586085D01*
X-16199361Y3535145D01*
X-16194923Y3483348D01*
X-16192395Y3432639D01*
X-16192079Y3409986D01*
X-16208823Y3363560D01*
X-16211130Y3361137D01*
X-16257653Y3341861D01*
X-16259490Y3341842D01*
X-16305672Y3358586D01*
X-16308094Y3360893D01*
X-16326883Y3407660D01*
X-16326901Y3409497D01*
X-16328234Y3461096D01*
X-16331657Y3517246D01*
X-16336381Y3574315D01*
X-16341713Y3629130D01*
X-16343754Y3648611D01*
X-16349398Y3705248D01*
X-16353875Y3756459D01*
X-16357621Y3809346D01*
X-16359957Y3860744D01*
X-16360362Y3887969D01*
X-16363748Y3940359D01*
X-16376070Y3987986D01*
X-16380879Y3998367D01*
X-16426431Y3972313D01*
X-16466257Y3940183D01*
X-16478576Y3928513D01*
X-16559665Y3839853D01*
X-16591865Y3800827D01*
X-16594836Y3797599D01*
X-16596728Y3747712D01*
X-16600632Y3697715D01*
X-16602407Y3678653D01*
X-16606718Y3629571D01*
X-16609712Y3578176D01*
X-16609979Y3562637D01*
X-16604563Y3512855D01*
X-16603384Y3506217D01*
X-16596847Y3457148D01*
X-16596789Y3453949D01*
X-16616502Y3408727D01*
X-16617794Y3407543D01*
X-16663404Y3388810D01*
X-16666887Y3388736D01*
X-16711107Y3409603D01*
X-16733634Y3457716D01*
X-16742660Y3514452D01*
X-16744556Y3565324D01*
X-16742663Y3616493D01*
X-16738759Y3668173D01*
X-16736985Y3687934D01*
X-16732674Y3739395D01*
X-16729776Y3791033D01*
X-16729413Y3811032D01*
X-16731274Y3859970D01*
X-16735209Y3911253D01*
X-16736008Y3920209D01*
X-16739878Y3969783D01*
X-16742259Y4020280D01*
X-16742358Y4030118D01*
X-16739894Y4083075D01*
X-16728941Y4136640D01*
X-16699574Y4178489D01*
X-16672260Y4185945D01*
X-16627376Y4162476D01*
X-16623168Y4157369D01*
X-16602005Y4113314D01*
X-16600942Y4101193D01*
X-16604361Y4060648D01*
X-16607780Y4018883D01*
X-16606315Y3946587D01*
X-16580736Y3991152D01*
X-16548574Y4032950D01*
X-16514000Y4068202D01*
X-16501290Y4079455D01*
X-16459941Y4110882D01*
X-16415611Y4133231D01*
X-16383077Y4139050D01*
X-16333419Y4132776D01*
X-16287590Y4110719D01*
X-16252387Y4072781D01*
X-16234822Y4038667D01*
X-16201724Y4075237D01*
X-16160852Y4105424D01*
X-16144940Y4113893D01*
X-16096307Y4131091D01*
X-16045957Y4138436D01*
X-16025261Y4139050D01*
X-15972520Y4131265D01*
X-15928846Y4107909D01*
X-15894240Y4068983D01*
X-15871398Y4022150D01*
X-15868702Y4014487D01*
X-15859238Y3965059D01*
X-15851857Y3912005D01*
X-15845380Y3860373D01*
X-15840614Y3820314D01*
X-15832992Y3770062D01*
X-15826049Y3719697D01*
X-15818571Y3661617D01*
X-15812201Y3609597D01*
X-15805488Y3552639D01*
X-15798432Y3490742D01*
X-15792914Y3441079D01*
X-15791032Y3423907D01*
X-15809595Y3377013D01*
X-15856006Y3357550D01*
X-15859665Y3357473D01*
G37*
G36*
X-15509829Y4475297D02*
G01*
X-15502581Y4438981D01*
X-15506001Y4410893D01*
X-15509420Y4382805D01*
X-15511374Y4232840D01*
X-15512840Y4057962D01*
X-15468819Y4085519D01*
X-15423067Y4108939D01*
X-15399267Y4118778D01*
X-15350112Y4133329D01*
X-15300874Y4139031D01*
X-15297906Y4139050D01*
X-15244451Y4135066D01*
X-15194912Y4123114D01*
X-15149288Y4103193D01*
X-15107580Y4075303D01*
X-15069787Y4039445D01*
X-15058060Y4025722D01*
X-15028676Y3984071D01*
X-15005372Y3938985D01*
X-14988147Y3890465D01*
X-14977001Y3838510D01*
X-14971935Y3783120D01*
X-14971598Y3763893D01*
X-14975152Y3706841D01*
X-14985817Y3653103D01*
X-15003591Y3602679D01*
X-15028476Y3555570D01*
X-15060470Y3511775D01*
X-15072714Y3497913D01*
X-15112284Y3460810D01*
X-15155341Y3431384D01*
X-15201883Y3409633D01*
X-15251912Y3395560D01*
X-15305427Y3389163D01*
X-15324040Y3388736D01*
X-15375362Y3391774D01*
X-15424302Y3400887D01*
X-15470860Y3416076D01*
X-15515038Y3437341D01*
X-15553369Y3406429D01*
X-15568527Y3404368D01*
X-15612979Y3422442D01*
X-15631053Y3467871D01*
X-15629449Y3517988D01*
X-15629344Y3520139D01*
X-15627649Y3569202D01*
X-15627634Y3572651D01*
X-15628015Y3624849D01*
X-15628870Y3676704D01*
X-15630019Y3729441D01*
X-15631301Y3780114D01*
X-15631542Y3789050D01*
X-15631548Y3789295D01*
X-15513572Y3789295D01*
X-15512840Y3686713D01*
X-15512107Y3578757D01*
X-15466512Y3559995D01*
X-15419295Y3541877D01*
X-15371245Y3532157D01*
X-15324040Y3529420D01*
X-15270826Y3534714D01*
X-15223293Y3550595D01*
X-15181439Y3577063D01*
X-15160642Y3596343D01*
X-15129708Y3636732D01*
X-15108898Y3682338D01*
X-15098212Y3733161D01*
X-15096650Y3763649D01*
X-15100726Y3816191D01*
X-15112956Y3863632D01*
X-15136107Y3910363D01*
X-15148185Y3927292D01*
X-15186734Y3964773D01*
X-15232773Y3988372D01*
X-15286302Y3998089D01*
X-15297906Y3998367D01*
X-15347621Y3992570D01*
X-15394789Y3976805D01*
X-15413189Y3968080D01*
X-15455460Y3942203D01*
X-15499326Y3912149D01*
X-15512107Y3903112D01*
X-15513572Y3789295D01*
X-15631548Y3789295D01*
X-15632787Y3840648D01*
X-15633914Y3894441D01*
X-15634772Y3947477D01*
X-15635191Y3996375D01*
X-15635205Y4005694D01*
X-15635102Y4055565D01*
X-15634890Y4109378D01*
X-15634644Y4160956D01*
X-15634473Y4194249D01*
X-15634224Y4243165D01*
X-15633998Y4292375D01*
X-15633811Y4343213D01*
X-15633740Y4383293D01*
X-15626377Y4433572D01*
X-15616643Y4457055D01*
X-15581571Y4492737D01*
X-15554117Y4498576D01*
X-15509829Y4475297D01*
G37*
G36*
X-14253768Y3825687D02*
G01*
X-14253628Y3775157D01*
X-14253321Y3722730D01*
X-14253035Y3683538D01*
X-14252681Y3633980D01*
X-14252405Y3583589D01*
X-14252302Y3541388D01*
X-14250104Y3497180D01*
X-14247662Y3453217D01*
X-14266457Y3407950D01*
X-14267690Y3406810D01*
X-14314502Y3388754D01*
X-14316294Y3388736D01*
X-14363710Y3402879D01*
X-14383705Y3433433D01*
X-14434014Y3411827D01*
X-14482237Y3398557D01*
X-14533757Y3390875D01*
X-14581542Y3388736D01*
X-14634712Y3392553D01*
X-14686258Y3405566D01*
X-14730530Y3427815D01*
X-14769130Y3462044D01*
X-14795262Y3505624D01*
X-14808199Y3553356D01*
X-14815869Y3608120D01*
X-14822238Y3660976D01*
X-14827308Y3711923D01*
X-14831078Y3760963D01*
X-14833886Y3817291D01*
X-14834822Y3870872D01*
X-14833199Y3924695D01*
X-14829031Y3975944D01*
X-14822299Y4030399D01*
X-14814305Y4080676D01*
X-14791156Y4126224D01*
X-14749092Y4139050D01*
X-14702266Y4122950D01*
X-14699755Y4120732D01*
X-14679747Y4075384D01*
X-14679727Y4073593D01*
X-14683258Y4024133D01*
X-14689741Y3975408D01*
X-14696067Y3925917D01*
X-14699473Y3877133D01*
X-14699511Y3872581D01*
X-14699038Y3818879D01*
X-14697618Y3769145D01*
X-14694890Y3717938D01*
X-14691939Y3681584D01*
X-14685868Y3630705D01*
X-14676461Y3580101D01*
X-14669469Y3554089D01*
X-14624773Y3535771D01*
X-14581542Y3529420D01*
X-14528936Y3531700D01*
X-14474706Y3538539D01*
X-14425140Y3548446D01*
X-14387124Y3558241D01*
X-14387613Y3694773D01*
X-14389078Y3825198D01*
X-14388623Y3878264D01*
X-14387258Y3928650D01*
X-14384515Y3984049D01*
X-14380533Y4035801D01*
X-14376133Y4077257D01*
X-14355678Y4123602D01*
X-14309455Y4139050D01*
X-14262629Y4122736D01*
X-14260118Y4120488D01*
X-14241311Y4074570D01*
X-14253768Y3825687D01*
G37*
G36*
X-13552058Y3941946D02*
G01*
X-13562372Y3893972D01*
X-13598854Y3860645D01*
X-13620690Y3857683D01*
X-13666810Y3876639D01*
X-13679797Y3924849D01*
X-13681995Y3972477D01*
X-13683949Y4029630D01*
X-13735484Y4020959D01*
X-13787039Y4005950D01*
X-13831793Y3985376D01*
X-13857850Y3968569D01*
X-13897405Y3932501D01*
X-13929157Y3890445D01*
X-13954307Y3845050D01*
X-13959455Y3833991D01*
X-13957990Y3458101D01*
X-13970986Y3410684D01*
X-14017667Y3389007D01*
X-14025889Y3388736D01*
X-14073152Y3408175D01*
X-14086461Y3457613D01*
X-14086461Y3935352D01*
X-14085333Y3986700D01*
X-14084752Y4002763D01*
X-14083244Y4052070D01*
X-14083042Y4070174D01*
X-14069733Y4119612D01*
X-14022470Y4139050D01*
X-13976415Y4118340D01*
X-13958070Y4073011D01*
X-13954570Y4030851D01*
X-13912651Y4066525D01*
X-13869324Y4096152D01*
X-13824590Y4119734D01*
X-13778448Y4137268D01*
X-13730900Y4148756D01*
X-13681944Y4154198D01*
X-13661967Y4154682D01*
X-13613363Y4144363D01*
X-13578925Y4113405D01*
X-13559115Y4065706D01*
X-13551999Y4014255D01*
X-13551325Y3989330D01*
X-13552058Y3941946D01*
G37*
G36*
X-13010576Y4135825D02*
G01*
X-12960858Y4124238D01*
X-12955373Y4122198D01*
X-12911269Y4096448D01*
X-12889427Y4071884D01*
X-12841828Y4057236D01*
X-12817705Y4012249D01*
X-12815910Y3988841D01*
X-12818668Y3939006D01*
X-12825423Y3886021D01*
X-12830321Y3855973D01*
X-12838207Y3806574D01*
X-12845477Y3755855D01*
X-12848883Y3724570D01*
X-12864759Y3489853D01*
X-12867011Y3439174D01*
X-12871397Y3384608D01*
X-12877677Y3334950D01*
X-12887172Y3284208D01*
X-12892847Y3261242D01*
X-12908182Y3214512D01*
X-12930031Y3168091D01*
X-12960120Y3124771D01*
X-12991765Y3094180D01*
X-13037622Y3065756D01*
X-13085259Y3047547D01*
X-13139910Y3035556D01*
X-13192334Y3030226D01*
X-13230146Y3029211D01*
X-13279210Y3030332D01*
X-13328288Y3034205D01*
X-13379625Y3042505D01*
X-13383531Y3043377D01*
X-13432756Y3062029D01*
X-13465855Y3100377D01*
X-13469993Y3125687D01*
X-13456844Y3173722D01*
X-13410153Y3192609D01*
X-13360649Y3186953D01*
X-13327843Y3180642D01*
X-13278954Y3172976D01*
X-13230176Y3169908D01*
X-13200104Y3169895D01*
X-13146305Y3176840D01*
X-13100314Y3195754D01*
X-13062129Y3226635D01*
X-13031752Y3269485D01*
X-13017899Y3299344D01*
X-13003351Y3347551D01*
X-12993803Y3399099D01*
X-12987981Y3450241D01*
X-12984340Y3507806D01*
X-12982972Y3560683D01*
X-13007559Y3515651D01*
X-13037800Y3474931D01*
X-13071388Y3443447D01*
X-13115323Y3418145D01*
X-13164175Y3405742D01*
X-13188381Y3404368D01*
X-13240550Y3408505D01*
X-13288278Y3420917D01*
X-13337386Y3445235D01*
X-13380693Y3480360D01*
X-13390614Y3490830D01*
X-13420972Y3531123D01*
X-13443875Y3576348D01*
X-13459320Y3626506D01*
X-13467310Y3681595D01*
X-13468527Y3715289D01*
X-13467962Y3727745D01*
X-13335415Y3727745D01*
X-13331718Y3675219D01*
X-13319111Y3627633D01*
X-13297557Y3590725D01*
X-13257232Y3559503D01*
X-13206895Y3546167D01*
X-13184228Y3545052D01*
X-13132754Y3555115D01*
X-13086535Y3582021D01*
X-13049406Y3616615D01*
X-13017450Y3657712D01*
X-12993813Y3702643D01*
X-12982240Y3747285D01*
X-12973018Y3797130D01*
X-12965332Y3847895D01*
X-12958382Y3900253D01*
X-12952257Y3951029D01*
X-12951221Y3960020D01*
X-12995537Y3984290D01*
X-13008374Y3988841D01*
X-13057688Y3998032D01*
X-13069434Y3998367D01*
X-13123762Y3994428D01*
X-13172410Y3982612D01*
X-13221053Y3959462D01*
X-13262276Y3926024D01*
X-13271423Y3916057D01*
X-13302357Y3871241D01*
X-13321354Y3826052D01*
X-13332353Y3775826D01*
X-13335415Y3727745D01*
X-13467962Y3727745D01*
X-13465927Y3772576D01*
X-13458128Y3826286D01*
X-13445128Y3876418D01*
X-13426929Y3922972D01*
X-13403531Y3965948D01*
X-13368589Y4012797D01*
X-13362037Y4020104D01*
X-13325747Y4054371D01*
X-13285568Y4082830D01*
X-13241502Y4105481D01*
X-13193548Y4122324D01*
X-13141706Y4133359D01*
X-13085976Y4138586D01*
X-13062595Y4139050D01*
X-13010576Y4135825D01*
G37*
G36*
X-12315273Y4136623D02*
G01*
X-12266120Y4129342D01*
X-12217098Y4115348D01*
X-12183565Y4100216D01*
X-12140707Y4069093D01*
X-12109538Y4024996D01*
X-12096291Y3976743D01*
X-12094905Y3952693D01*
X-12105828Y3902272D01*
X-12135029Y3859191D01*
X-12172575Y3826175D01*
X-12217267Y3801224D01*
X-12261600Y3780050D01*
X-12311258Y3757854D01*
X-12318143Y3754856D01*
X-12580460Y3639574D01*
X-12546042Y3599556D01*
X-12505497Y3568406D01*
X-12484717Y3557020D01*
X-12434978Y3539150D01*
X-12383555Y3530741D01*
X-12351116Y3529420D01*
X-12299581Y3533695D01*
X-12251594Y3543462D01*
X-12239741Y3546517D01*
X-12190833Y3563049D01*
X-12148371Y3588681D01*
X-12135450Y3603426D01*
X-12098355Y3636628D01*
X-12085136Y3638841D01*
X-12042393Y3619790D01*
X-12023342Y3575338D01*
X-12035340Y3527591D01*
X-12066653Y3488331D01*
X-12110804Y3456385D01*
X-12146196Y3437829D01*
X-12191971Y3418700D01*
X-12243598Y3402592D01*
X-12294492Y3392620D01*
X-12344653Y3388784D01*
X-12350872Y3388736D01*
X-12407046Y3391467D01*
X-12459064Y3399659D01*
X-12506926Y3413311D01*
X-12557512Y3436142D01*
X-12602442Y3466406D01*
X-12638134Y3501067D01*
X-12670441Y3547626D01*
X-12690133Y3592781D01*
X-12702441Y3642778D01*
X-12707364Y3697618D01*
X-12707466Y3707229D01*
X-12705544Y3756810D01*
X-12592184Y3756810D01*
X-12381402Y3849867D01*
X-12330425Y3873647D01*
X-12286273Y3896049D01*
X-12239536Y3922824D01*
X-12204082Y3947320D01*
X-12245651Y3974239D01*
X-12296474Y3991188D01*
X-12350128Y3997918D01*
X-12369678Y3998367D01*
X-12419295Y3992475D01*
X-12467537Y3972385D01*
X-12505633Y3941750D01*
X-12509141Y3938039D01*
X-12541179Y3894523D01*
X-12565282Y3845163D01*
X-12582944Y3793177D01*
X-12592184Y3756810D01*
X-12705544Y3756810D01*
X-12705355Y3761686D01*
X-12699023Y3813317D01*
X-12688468Y3862122D01*
X-12670230Y3916956D01*
X-12645913Y3967721D01*
X-12621004Y4006915D01*
X-12590075Y4044981D01*
X-12548881Y4082144D01*
X-12503240Y4110017D01*
X-12453152Y4128598D01*
X-12398615Y4137889D01*
X-12369678Y4139050D01*
X-12315273Y4136623D01*
G37*
G36*
X-11370481Y3941946D02*
G01*
X-11380795Y3893972D01*
X-11417277Y3860645D01*
X-11439113Y3857683D01*
X-11485233Y3876639D01*
X-11498220Y3924849D01*
X-11500418Y3972477D01*
X-11502372Y4029630D01*
X-11553907Y4020959D01*
X-11605462Y4005950D01*
X-11650215Y3985376D01*
X-11676273Y3968569D01*
X-11715828Y3932501D01*
X-11747580Y3890445D01*
X-11772730Y3845050D01*
X-11777878Y3833991D01*
X-11776413Y3458101D01*
X-11789409Y3410684D01*
X-11836090Y3389007D01*
X-11844312Y3388736D01*
X-11891575Y3408175D01*
X-11904884Y3457613D01*
X-11904884Y3935352D01*
X-11903756Y3986700D01*
X-11903175Y4002763D01*
X-11901667Y4052070D01*
X-11901465Y4070174D01*
X-11888156Y4119612D01*
X-11840893Y4139050D01*
X-11794838Y4118340D01*
X-11776493Y4073011D01*
X-11772993Y4030851D01*
X-11731074Y4066525D01*
X-11687747Y4096152D01*
X-11643013Y4119734D01*
X-11596871Y4137268D01*
X-11549323Y4148756D01*
X-11500367Y4154198D01*
X-11480390Y4154682D01*
X-11431786Y4144363D01*
X-11397348Y4113405D01*
X-11377538Y4065706D01*
X-11370422Y4014255D01*
X-11369748Y3989330D01*
X-11370481Y3941946D01*
G37*
G36*
X-21055617Y-2967927D02*
G01*
X-21293265Y-3477662D01*
X-21314602Y-3523244D01*
X-21339459Y-3577559D01*
X-21362301Y-3628917D01*
X-21383127Y-3677317D01*
X-21401938Y-3722759D01*
X-21421851Y-3773386D01*
X-21427843Y-3789316D01*
X-21473272Y-3921451D01*
X-21501600Y-3961345D01*
X-21535066Y-3970788D01*
X-21582235Y-3954903D01*
X-21584891Y-3952714D01*
X-21605652Y-3908262D01*
X-21596386Y-3859322D01*
X-21581184Y-3812145D01*
X-21563810Y-3765216D01*
X-21541804Y-3710120D01*
X-21522258Y-3663439D01*
X-21500107Y-3612164D01*
X-21475349Y-3556295D01*
X-21457397Y-3516496D01*
X-21703349Y-3041200D01*
X-21734124Y-2990886D01*
X-21752233Y-2944608D01*
X-21752686Y-2937641D01*
X-21736230Y-2890010D01*
X-21731193Y-2884152D01*
X-21687581Y-2861152D01*
X-21682588Y-2860949D01*
X-21637316Y-2881209D01*
X-21633984Y-2885617D01*
X-21604526Y-2929592D01*
X-21574526Y-2977987D01*
X-21543984Y-3030800D01*
X-21512901Y-3088033D01*
X-21489232Y-3133858D01*
X-21465259Y-3182169D01*
X-21440981Y-3232965D01*
X-21416398Y-3286248D01*
X-21391510Y-3342016D01*
X-21383147Y-3361158D01*
X-21281542Y-3119113D01*
X-21261080Y-3074191D01*
X-21237576Y-3024451D01*
X-21214470Y-2977586D01*
X-21191762Y-2933596D01*
X-21175785Y-2903935D01*
X-21142964Y-2866994D01*
X-21118143Y-2860949D01*
X-21072408Y-2878200D01*
X-21068318Y-2881953D01*
X-21046771Y-2926444D01*
X-21046580Y-2931779D01*
X-21055617Y-2967927D01*
G37*
G36*
X-20365143Y-3174312D02*
G01*
X-20365002Y-3224842D01*
X-20364695Y-3277269D01*
X-20364410Y-3316461D01*
X-20364056Y-3366019D01*
X-20363780Y-3416410D01*
X-20363677Y-3458611D01*
X-20361479Y-3502819D01*
X-20359036Y-3546782D01*
X-20377832Y-3592049D01*
X-20379064Y-3593189D01*
X-20425876Y-3611245D01*
X-20427669Y-3611263D01*
X-20475084Y-3597120D01*
X-20495080Y-3566566D01*
X-20545389Y-3588172D01*
X-20593612Y-3601442D01*
X-20645132Y-3609124D01*
X-20692916Y-3611263D01*
X-20746087Y-3607446D01*
X-20797632Y-3594433D01*
X-20841905Y-3572184D01*
X-20880505Y-3537955D01*
X-20906637Y-3494375D01*
X-20919574Y-3446643D01*
X-20927243Y-3391879D01*
X-20933613Y-3339023D01*
X-20938683Y-3288076D01*
X-20942453Y-3239036D01*
X-20945260Y-3182708D01*
X-20946196Y-3129127D01*
X-20944573Y-3075304D01*
X-20940406Y-3024055D01*
X-20933674Y-2969600D01*
X-20925680Y-2919323D01*
X-20902531Y-2873775D01*
X-20860467Y-2860949D01*
X-20813641Y-2877049D01*
X-20811130Y-2879267D01*
X-20791122Y-2924615D01*
X-20791102Y-2926406D01*
X-20794632Y-2975866D01*
X-20801116Y-3024591D01*
X-20807442Y-3074082D01*
X-20810848Y-3122866D01*
X-20810886Y-3127418D01*
X-20810413Y-3181120D01*
X-20808993Y-3230854D01*
X-20806264Y-3282061D01*
X-20803314Y-3318415D01*
X-20797243Y-3369294D01*
X-20787835Y-3419898D01*
X-20780844Y-3445910D01*
X-20736147Y-3464228D01*
X-20692916Y-3470579D01*
X-20640310Y-3468299D01*
X-20586081Y-3461460D01*
X-20536515Y-3451553D01*
X-20498499Y-3441758D01*
X-20498988Y-3305226D01*
X-20500453Y-3174801D01*
X-20499998Y-3121735D01*
X-20498633Y-3071349D01*
X-20495890Y-3015950D01*
X-20491907Y-2964198D01*
X-20487508Y-2922742D01*
X-20467053Y-2876397D01*
X-20420830Y-2860949D01*
X-20374004Y-2877263D01*
X-20371493Y-2879511D01*
X-20352686Y-2925429D01*
X-20365143Y-3174312D01*
G37*
G36*
X-19325401Y-3642526D02*
G01*
X-19372112Y-3625637D01*
X-19391346Y-3582686D01*
X-19399108Y-3529330D01*
X-19405282Y-3477955D01*
X-19410660Y-3426665D01*
X-19415251Y-3377996D01*
X-19416015Y-3369462D01*
X-19439462Y-3156238D01*
X-19449417Y-3106445D01*
X-19462665Y-3063426D01*
X-19485559Y-3019072D01*
X-19513712Y-3001632D01*
X-19562637Y-3018233D01*
X-19608478Y-3044131D01*
X-19651549Y-3071276D01*
X-19690694Y-3102324D01*
X-19694940Y-3106901D01*
X-19694729Y-3158457D01*
X-19692906Y-3209932D01*
X-19691521Y-3233663D01*
X-19670760Y-3413914D01*
X-19665097Y-3464854D01*
X-19660660Y-3516651D01*
X-19658131Y-3567360D01*
X-19657815Y-3590013D01*
X-19674559Y-3636439D01*
X-19676866Y-3638862D01*
X-19723390Y-3658138D01*
X-19725226Y-3658157D01*
X-19771408Y-3641413D01*
X-19773831Y-3639106D01*
X-19792619Y-3592339D01*
X-19792637Y-3590502D01*
X-19793970Y-3538903D01*
X-19797394Y-3482753D01*
X-19802117Y-3425684D01*
X-19807449Y-3370869D01*
X-19809490Y-3351388D01*
X-19815134Y-3294751D01*
X-19819611Y-3243540D01*
X-19823358Y-3190653D01*
X-19825693Y-3139255D01*
X-19826099Y-3112030D01*
X-19829485Y-3059640D01*
X-19841806Y-3012013D01*
X-19846615Y-3001632D01*
X-19892167Y-3027686D01*
X-19931993Y-3059816D01*
X-19944312Y-3071486D01*
X-20025401Y-3160146D01*
X-20057601Y-3199172D01*
X-20060572Y-3202400D01*
X-20062465Y-3252287D01*
X-20066369Y-3302284D01*
X-20068143Y-3321346D01*
X-20072454Y-3370428D01*
X-20075449Y-3421823D01*
X-20075715Y-3437362D01*
X-20070299Y-3487144D01*
X-20069120Y-3493782D01*
X-20062584Y-3542851D01*
X-20062526Y-3546050D01*
X-20082238Y-3591272D01*
X-20083531Y-3592456D01*
X-20129140Y-3611189D01*
X-20132623Y-3611263D01*
X-20176843Y-3590396D01*
X-20199370Y-3542283D01*
X-20208396Y-3485547D01*
X-20210293Y-3434675D01*
X-20208400Y-3383506D01*
X-20204496Y-3331826D01*
X-20202721Y-3312065D01*
X-20198410Y-3260604D01*
X-20195512Y-3208966D01*
X-20195150Y-3188967D01*
X-20197011Y-3140029D01*
X-20200946Y-3088746D01*
X-20201744Y-3079790D01*
X-20205614Y-3030216D01*
X-20207995Y-2979719D01*
X-20208094Y-2969881D01*
X-20205630Y-2916924D01*
X-20194677Y-2863359D01*
X-20165310Y-2821510D01*
X-20137997Y-2814054D01*
X-20093112Y-2837523D01*
X-20088904Y-2842630D01*
X-20067741Y-2886685D01*
X-20066678Y-2898806D01*
X-20070097Y-2939351D01*
X-20073517Y-2981116D01*
X-20072051Y-3053412D01*
X-20046472Y-3008847D01*
X-20014311Y-2967049D01*
X-19979736Y-2931797D01*
X-19967027Y-2920544D01*
X-19925677Y-2889117D01*
X-19881347Y-2866768D01*
X-19848813Y-2860949D01*
X-19799156Y-2867223D01*
X-19753326Y-2889280D01*
X-19718123Y-2927218D01*
X-19700558Y-2961332D01*
X-19667460Y-2924762D01*
X-19626588Y-2894575D01*
X-19610676Y-2886106D01*
X-19562043Y-2868908D01*
X-19511694Y-2861563D01*
X-19490997Y-2860949D01*
X-19438256Y-2868734D01*
X-19394583Y-2892090D01*
X-19359976Y-2931016D01*
X-19337134Y-2977849D01*
X-19334438Y-2985512D01*
X-19324974Y-3034940D01*
X-19317594Y-3087994D01*
X-19311116Y-3139626D01*
X-19306350Y-3179685D01*
X-19298728Y-3229937D01*
X-19291786Y-3280302D01*
X-19284307Y-3338382D01*
X-19277938Y-3390402D01*
X-19271225Y-3447360D01*
X-19264168Y-3509257D01*
X-19258651Y-3558920D01*
X-19256769Y-3576092D01*
X-19275331Y-3622986D01*
X-19321742Y-3642449D01*
X-19325401Y-3642526D01*
G37*
G36*
X-18238032Y-3642526D02*
G01*
X-18284743Y-3625637D01*
X-18303977Y-3582686D01*
X-18311739Y-3529330D01*
X-18317913Y-3477955D01*
X-18323291Y-3426665D01*
X-18327882Y-3377996D01*
X-18328646Y-3369462D01*
X-18352093Y-3156238D01*
X-18362048Y-3106445D01*
X-18375296Y-3063426D01*
X-18398190Y-3019072D01*
X-18426343Y-3001632D01*
X-18475268Y-3018233D01*
X-18521109Y-3044131D01*
X-18564180Y-3071276D01*
X-18603325Y-3102324D01*
X-18607571Y-3106901D01*
X-18607360Y-3158457D01*
X-18605537Y-3209932D01*
X-18604152Y-3233663D01*
X-18583391Y-3413914D01*
X-18577728Y-3464854D01*
X-18573290Y-3516651D01*
X-18570762Y-3567360D01*
X-18570446Y-3590013D01*
X-18587190Y-3636439D01*
X-18589497Y-3638862D01*
X-18636021Y-3658138D01*
X-18637857Y-3658157D01*
X-18684039Y-3641413D01*
X-18686461Y-3639106D01*
X-18705250Y-3592339D01*
X-18705268Y-3590502D01*
X-18706601Y-3538903D01*
X-18710024Y-3482753D01*
X-18714748Y-3425684D01*
X-18720080Y-3370869D01*
X-18722121Y-3351388D01*
X-18727765Y-3294751D01*
X-18732242Y-3243540D01*
X-18735988Y-3190653D01*
X-18738324Y-3139255D01*
X-18738729Y-3112030D01*
X-18742115Y-3059640D01*
X-18754437Y-3012013D01*
X-18759246Y-3001632D01*
X-18804798Y-3027686D01*
X-18844624Y-3059816D01*
X-18856943Y-3071486D01*
X-18938032Y-3160146D01*
X-18970232Y-3199172D01*
X-18973203Y-3202400D01*
X-18975095Y-3252287D01*
X-18979000Y-3302284D01*
X-18980774Y-3321346D01*
X-18985085Y-3370428D01*
X-18988079Y-3421823D01*
X-18988346Y-3437362D01*
X-18982930Y-3487144D01*
X-18981751Y-3493782D01*
X-18975214Y-3542851D01*
X-18975157Y-3546050D01*
X-18994869Y-3591272D01*
X-18996161Y-3592456D01*
X-19041771Y-3611189D01*
X-19045254Y-3611263D01*
X-19089474Y-3590396D01*
X-19112001Y-3542283D01*
X-19121027Y-3485547D01*
X-19122923Y-3434675D01*
X-19121031Y-3383506D01*
X-19117126Y-3331826D01*
X-19115352Y-3312065D01*
X-19111041Y-3260604D01*
X-19108143Y-3208966D01*
X-19107780Y-3188967D01*
X-19109642Y-3140029D01*
X-19113576Y-3088746D01*
X-19114375Y-3079790D01*
X-19118245Y-3030216D01*
X-19120626Y-2979719D01*
X-19120725Y-2969881D01*
X-19118261Y-2916924D01*
X-19107308Y-2863359D01*
X-19077941Y-2821510D01*
X-19050628Y-2814054D01*
X-19005743Y-2837523D01*
X-19001535Y-2842630D01*
X-18980372Y-2886685D01*
X-18979309Y-2898806D01*
X-18982728Y-2939351D01*
X-18986147Y-2981116D01*
X-18984682Y-3053412D01*
X-18959103Y-3008847D01*
X-18926941Y-2967049D01*
X-18892367Y-2931797D01*
X-18879658Y-2920544D01*
X-18838308Y-2889117D01*
X-18793978Y-2866768D01*
X-18761444Y-2860949D01*
X-18711786Y-2867223D01*
X-18665957Y-2889280D01*
X-18630754Y-2927218D01*
X-18613189Y-2961332D01*
X-18580091Y-2924762D01*
X-18539219Y-2894575D01*
X-18523307Y-2886106D01*
X-18474674Y-2868908D01*
X-18424324Y-2861563D01*
X-18403628Y-2860949D01*
X-18350887Y-2868734D01*
X-18307213Y-2892090D01*
X-18272607Y-2931016D01*
X-18249765Y-2977849D01*
X-18247069Y-2985512D01*
X-18237605Y-3034940D01*
X-18230224Y-3087994D01*
X-18223747Y-3139626D01*
X-18218981Y-3179685D01*
X-18211359Y-3229937D01*
X-18204416Y-3280302D01*
X-18196938Y-3338382D01*
X-18190568Y-3390402D01*
X-18183855Y-3447360D01*
X-18176799Y-3509257D01*
X-18171282Y-3558920D01*
X-18169399Y-3576092D01*
X-18187962Y-3622986D01*
X-18234373Y-3642449D01*
X-18238032Y-3642526D01*
G37*
G36*
X-17424214Y-2967927D02*
G01*
X-17661863Y-3477662D01*
X-17683200Y-3523244D01*
X-17708057Y-3577559D01*
X-17730899Y-3628917D01*
X-17751725Y-3677317D01*
X-17770536Y-3722759D01*
X-17790448Y-3773386D01*
X-17796441Y-3789316D01*
X-17841870Y-3921451D01*
X-17870197Y-3961345D01*
X-17903663Y-3970788D01*
X-17950833Y-3954903D01*
X-17953489Y-3952714D01*
X-17974249Y-3908262D01*
X-17964983Y-3859322D01*
X-17949781Y-3812145D01*
X-17932408Y-3765216D01*
X-17910401Y-3710120D01*
X-17890856Y-3663439D01*
X-17868704Y-3612164D01*
X-17843947Y-3556295D01*
X-17825994Y-3516496D01*
X-18071946Y-3041200D01*
X-18102721Y-2990886D01*
X-18120830Y-2944608D01*
X-18121284Y-2937641D01*
X-18104828Y-2890010D01*
X-18099790Y-2884152D01*
X-18056178Y-2861152D01*
X-18051186Y-2860949D01*
X-18005914Y-2881209D01*
X-18002581Y-2885617D01*
X-17973124Y-2929592D01*
X-17943124Y-2977987D01*
X-17912582Y-3030800D01*
X-17881498Y-3088033D01*
X-17857830Y-3133858D01*
X-17833856Y-3182169D01*
X-17809578Y-3232965D01*
X-17784995Y-3286248D01*
X-17760108Y-3342016D01*
X-17751744Y-3361158D01*
X-17650139Y-3119113D01*
X-17629677Y-3074191D01*
X-17606174Y-3024451D01*
X-17583068Y-2977586D01*
X-17560359Y-2933596D01*
X-17544382Y-2903935D01*
X-17511562Y-2866994D01*
X-17486741Y-2860949D01*
X-17441005Y-2878200D01*
X-17436915Y-2881953D01*
X-17415369Y-2926444D01*
X-17415177Y-2931779D01*
X-17424214Y-2967927D01*
G37*
D11*
X1154762Y11298990D02*
X1488095Y11298990D01*
X1630952Y10775180D02*
X1154762Y10775180D01*
X1154762Y10775180D02*
X1154762Y11775180D01*
X1154762Y11775180D02*
X1630952Y11775180D01*
X2059524Y10775180D02*
X2059524Y11775180D01*
X2059524Y11775180D02*
X2630952Y10775180D01*
X2630952Y10775180D02*
X2630952Y11775180D01*
X3678571Y10870419D02*
X3630952Y10822800D01*
X3630952Y10822800D02*
X3488095Y10775180D01*
X3488095Y10775180D02*
X3392857Y10775180D01*
X3392857Y10775180D02*
X3250000Y10822800D01*
X3250000Y10822800D02*
X3154762Y10918038D01*
X3154762Y10918038D02*
X3107143Y11013276D01*
X3107143Y11013276D02*
X3059524Y11203752D01*
X3059524Y11203752D02*
X3059524Y11346609D01*
X3059524Y11346609D02*
X3107143Y11537085D01*
X3107143Y11537085D02*
X3154762Y11632323D01*
X3154762Y11632323D02*
X3250000Y11727561D01*
X3250000Y11727561D02*
X3392857Y11775180D01*
X3392857Y11775180D02*
X3488095Y11775180D01*
X3488095Y11775180D02*
X3630952Y11727561D01*
X3630952Y11727561D02*
X3678571Y11679942D01*
X3869048Y10679942D02*
X4630952Y10679942D01*
X5440476Y10775180D02*
X5107143Y11251371D01*
X4869048Y10775180D02*
X4869048Y11775180D01*
X4869048Y11775180D02*
X5250000Y11775180D01*
X5250000Y11775180D02*
X5345238Y11727561D01*
X5345238Y11727561D02*
X5392857Y11679942D01*
X5392857Y11679942D02*
X5440476Y11584704D01*
X5440476Y11584704D02*
X5440476Y11441847D01*
X5440476Y11441847D02*
X5392857Y11346609D01*
X5392857Y11346609D02*
X5345238Y11298990D01*
X5345238Y11298990D02*
X5250000Y11251371D01*
X5250000Y11251371D02*
X4869048Y11251371D01*
X6392857Y10775180D02*
X5821429Y10775180D01*
X6107143Y10775180D02*
X6107143Y11775180D01*
X6107143Y11775180D02*
X6011905Y11632323D01*
X6011905Y11632323D02*
X5916667Y11537085D01*
X5916667Y11537085D02*
X5821429Y11489466D01*
X-5285713Y-18907200D02*
X-5142856Y-18954819D01*
X-5142856Y-18954819D02*
X-4904761Y-18954819D01*
X-4904761Y-18954819D02*
X-4809523Y-18907200D01*
X-4809523Y-18907200D02*
X-4761904Y-18859580D01*
X-4761904Y-18859580D02*
X-4714285Y-18764342D01*
X-4714285Y-18764342D02*
X-4714285Y-18669104D01*
X-4714285Y-18669104D02*
X-4761904Y-18573866D01*
X-4761904Y-18573866D02*
X-4809523Y-18526247D01*
X-4809523Y-18526247D02*
X-4904761Y-18478628D01*
X-4904761Y-18478628D02*
X-5095237Y-18431009D01*
X-5095237Y-18431009D02*
X-5190475Y-18383390D01*
X-5190475Y-18383390D02*
X-5238094Y-18335771D01*
X-5238094Y-18335771D02*
X-5285713Y-18240533D01*
X-5285713Y-18240533D02*
X-5285713Y-18145295D01*
X-5285713Y-18145295D02*
X-5238094Y-18050057D01*
X-5238094Y-18050057D02*
X-5190475Y-18002438D01*
X-5190475Y-18002438D02*
X-5095237Y-17954819D01*
X-5095237Y-17954819D02*
X-4857142Y-17954819D01*
X-4857142Y-17954819D02*
X-4714285Y-18002438D01*
X-4380951Y-17954819D02*
X-4142856Y-18954819D01*
X-4142856Y-18954819D02*
X-3952380Y-18240533D01*
X-3952380Y-18240533D02*
X-3761904Y-18954819D01*
X-3761904Y-18954819D02*
X-3523809Y-17954819D01*
X-3380952Y-19050057D02*
X-2619047Y-19050057D01*
X-2380951Y-18954819D02*
X-2380951Y-17954819D01*
X-2380951Y-17954819D02*
X-2142856Y-17954819D01*
X-2142856Y-17954819D02*
X-1999999Y-18002438D01*
X-1999999Y-18002438D02*
X-1904761Y-18097676D01*
X-1904761Y-18097676D02*
X-1857142Y-18192914D01*
X-1857142Y-18192914D02*
X-1809523Y-18383390D01*
X-1809523Y-18383390D02*
X-1809523Y-18526247D01*
X-1809523Y-18526247D02*
X-1857142Y-18716723D01*
X-1857142Y-18716723D02*
X-1904761Y-18811961D01*
X-1904761Y-18811961D02*
X-1999999Y-18907200D01*
X-1999999Y-18907200D02*
X-2142856Y-18954819D01*
X-2142856Y-18954819D02*
X-2380951Y-18954819D01*
X-1619047Y-19050057D02*
X-857142Y-19050057D01*
X-619046Y-18954819D02*
X-619046Y-18288152D01*
X-619046Y-17954819D02*
X-666665Y-18002438D01*
X-666665Y-18002438D02*
X-619046Y-18050057D01*
X-619046Y-18050057D02*
X-571427Y-18002438D01*
X-571427Y-18002438D02*
X-619046Y-17954819D01*
X-619046Y-17954819D02*
X-619046Y-18050057D01*
X-142856Y-18288152D02*
X-142856Y-18954819D01*
X-142856Y-18383390D02*
X-95237Y-18335771D01*
X-95237Y-18335771D02*
X0Y-18288152D01*
X0Y-18288152D02*
X142857Y-18288152D01*
X142857Y-18288152D02*
X238095Y-18335771D01*
X238095Y-18335771D02*
X285714Y-18431009D01*
X285714Y-18431009D02*
X285714Y-18954819D01*
X1285714Y-18954819D02*
X714286Y-18954819D01*
X1000000Y-18954819D02*
X1000000Y-17954819D01*
X1000000Y-17954819D02*
X904762Y-18097676D01*
X904762Y-18097676D02*
X809524Y-18192914D01*
X809524Y-18192914D02*
X714286Y-18240533D01*
X2714286Y-18907200D02*
X2857143Y-18954819D01*
X2857143Y-18954819D02*
X3095238Y-18954819D01*
X3095238Y-18954819D02*
X3190476Y-18907200D01*
X3190476Y-18907200D02*
X3238095Y-18859580D01*
X3238095Y-18859580D02*
X3285714Y-18764342D01*
X3285714Y-18764342D02*
X3285714Y-18669104D01*
X3285714Y-18669104D02*
X3238095Y-18573866D01*
X3238095Y-18573866D02*
X3190476Y-18526247D01*
X3190476Y-18526247D02*
X3095238Y-18478628D01*
X3095238Y-18478628D02*
X2904762Y-18431009D01*
X2904762Y-18431009D02*
X2809524Y-18383390D01*
X2809524Y-18383390D02*
X2761905Y-18335771D01*
X2761905Y-18335771D02*
X2714286Y-18240533D01*
X2714286Y-18240533D02*
X2714286Y-18145295D01*
X2714286Y-18145295D02*
X2761905Y-18050057D01*
X2761905Y-18050057D02*
X2809524Y-18002438D01*
X2809524Y-18002438D02*
X2904762Y-17954819D01*
X2904762Y-17954819D02*
X3142857Y-17954819D01*
X3142857Y-17954819D02*
X3285714Y-18002438D01*
X3619048Y-17954819D02*
X3857143Y-18954819D01*
X3857143Y-18954819D02*
X4047619Y-18240533D01*
X4047619Y-18240533D02*
X4238095Y-18954819D01*
X4238095Y-18954819D02*
X4476191Y-17954819D01*
X4619048Y-19050057D02*
X5380952Y-19050057D01*
X5952381Y-18431009D02*
X6095238Y-18478628D01*
X6095238Y-18478628D02*
X6142857Y-18526247D01*
X6142857Y-18526247D02*
X6190476Y-18621485D01*
X6190476Y-18621485D02*
X6190476Y-18764342D01*
X6190476Y-18764342D02*
X6142857Y-18859580D01*
X6142857Y-18859580D02*
X6095238Y-18907200D01*
X6095238Y-18907200D02*
X6000000Y-18954819D01*
X6000000Y-18954819D02*
X5619048Y-18954819D01*
X5619048Y-18954819D02*
X5619048Y-17954819D01*
X5619048Y-17954819D02*
X5952381Y-17954819D01*
X5952381Y-17954819D02*
X6047619Y-18002438D01*
X6047619Y-18002438D02*
X6095238Y-18050057D01*
X6095238Y-18050057D02*
X6142857Y-18145295D01*
X6142857Y-18145295D02*
X6142857Y-18240533D01*
X6142857Y-18240533D02*
X6095238Y-18335771D01*
X6095238Y-18335771D02*
X6047619Y-18383390D01*
X6047619Y-18383390D02*
X5952381Y-18431009D01*
X5952381Y-18431009D02*
X5619048Y-18431009D01*
X6380953Y-19050057D02*
X7142857Y-19050057D01*
X7380953Y-18954819D02*
X7380953Y-18288152D01*
X7380953Y-17954819D02*
X7333334Y-18002438D01*
X7333334Y-18002438D02*
X7380953Y-18050057D01*
X7380953Y-18050057D02*
X7428572Y-18002438D01*
X7428572Y-18002438D02*
X7380953Y-17954819D01*
X7380953Y-17954819D02*
X7380953Y-18050057D01*
X7857143Y-18288152D02*
X7857143Y-18954819D01*
X7857143Y-18383390D02*
X7904762Y-18335771D01*
X7904762Y-18335771D02*
X8000000Y-18288152D01*
X8000000Y-18288152D02*
X8142857Y-18288152D01*
X8142857Y-18288152D02*
X8238095Y-18335771D01*
X8238095Y-18335771D02*
X8285714Y-18431009D01*
X8285714Y-18431009D02*
X8285714Y-18954819D01*
X9285714Y-18954819D02*
X8714286Y-18954819D01*
X9000000Y-18954819D02*
X9000000Y-17954819D01*
X9000000Y-17954819D02*
X8904762Y-18097676D01*
X8904762Y-18097676D02*
X8809524Y-18192914D01*
X8809524Y-18192914D02*
X8714286Y-18240533D01*
X-6274999Y11248990D02*
X-5941666Y11248990D01*
X-5798809Y10725180D02*
X-6274999Y10725180D01*
X-6274999Y10725180D02*
X-6274999Y11725180D01*
X-6274999Y11725180D02*
X-5798809Y11725180D01*
X-5370237Y10725180D02*
X-5370237Y11725180D01*
X-5370237Y11725180D02*
X-4798809Y10725180D01*
X-4798809Y10725180D02*
X-4798809Y11725180D01*
X-3751190Y10820419D02*
X-3798809Y10772800D01*
X-3798809Y10772800D02*
X-3941666Y10725180D01*
X-3941666Y10725180D02*
X-4036904Y10725180D01*
X-4036904Y10725180D02*
X-4179761Y10772800D01*
X-4179761Y10772800D02*
X-4274999Y10868038D01*
X-4274999Y10868038D02*
X-4322618Y10963276D01*
X-4322618Y10963276D02*
X-4370237Y11153752D01*
X-4370237Y11153752D02*
X-4370237Y11296609D01*
X-4370237Y11296609D02*
X-4322618Y11487085D01*
X-4322618Y11487085D02*
X-4274999Y11582323D01*
X-4274999Y11582323D02*
X-4179761Y11677561D01*
X-4179761Y11677561D02*
X-4036904Y11725180D01*
X-4036904Y11725180D02*
X-3941666Y11725180D01*
X-3941666Y11725180D02*
X-3798809Y11677561D01*
X-3798809Y11677561D02*
X-3751190Y11629942D01*
X-3560714Y10629942D02*
X-2798809Y10629942D01*
X-2084523Y10725180D02*
X-2560713Y10725180D01*
X-2560713Y10725180D02*
X-2560713Y11725180D01*
X-1227380Y10725180D02*
X-1798808Y10725180D01*
X-1513094Y10725180D02*
X-1513094Y11725180D01*
X-1513094Y11725180D02*
X-1608332Y11582323D01*
X-1608332Y11582323D02*
X-1703570Y11487085D01*
X-1703570Y11487085D02*
X-1798808Y11439466D01*
X-1285713Y-23907200D02*
X-1142856Y-23954819D01*
X-1142856Y-23954819D02*
X-904761Y-23954819D01*
X-904761Y-23954819D02*
X-809523Y-23907200D01*
X-809523Y-23907200D02*
X-761904Y-23859580D01*
X-761904Y-23859580D02*
X-714285Y-23764342D01*
X-714285Y-23764342D02*
X-714285Y-23669104D01*
X-714285Y-23669104D02*
X-761904Y-23573866D01*
X-761904Y-23573866D02*
X-809523Y-23526247D01*
X-809523Y-23526247D02*
X-904761Y-23478628D01*
X-904761Y-23478628D02*
X-1095237Y-23431009D01*
X-1095237Y-23431009D02*
X-1190475Y-23383390D01*
X-1190475Y-23383390D02*
X-1238094Y-23335771D01*
X-1238094Y-23335771D02*
X-1285713Y-23240533D01*
X-1285713Y-23240533D02*
X-1285713Y-23145295D01*
X-1285713Y-23145295D02*
X-1238094Y-23050057D01*
X-1238094Y-23050057D02*
X-1190475Y-23002438D01*
X-1190475Y-23002438D02*
X-1095237Y-22954819D01*
X-1095237Y-22954819D02*
X-857142Y-22954819D01*
X-857142Y-22954819D02*
X-714285Y-23002438D01*
X-380951Y-22954819D02*
X-142856Y-23954819D01*
X-142856Y-23954819D02*
X47619Y-23240533D01*
X47619Y-23240533D02*
X238095Y-23954819D01*
X238095Y-23954819D02*
X476191Y-22954819D01*
X619048Y-24050057D02*
X1380952Y-24050057D01*
X2190476Y-23859580D02*
X2142857Y-23907200D01*
X2142857Y-23907200D02*
X2000000Y-23954819D01*
X2000000Y-23954819D02*
X1904762Y-23954819D01*
X1904762Y-23954819D02*
X1761905Y-23907200D01*
X1761905Y-23907200D02*
X1666667Y-23811961D01*
X1666667Y-23811961D02*
X1619048Y-23716723D01*
X1619048Y-23716723D02*
X1571429Y-23526247D01*
X1571429Y-23526247D02*
X1571429Y-23383390D01*
X1571429Y-23383390D02*
X1619048Y-23192914D01*
X1619048Y-23192914D02*
X1666667Y-23097676D01*
X1666667Y-23097676D02*
X1761905Y-23002438D01*
X1761905Y-23002438D02*
X1904762Y-22954819D01*
X1904762Y-22954819D02*
X2000000Y-22954819D01*
X2000000Y-22954819D02*
X2142857Y-23002438D01*
X2142857Y-23002438D02*
X2190476Y-23050057D01*
X2380953Y-24050057D02*
X3142857Y-24050057D01*
X3380953Y-23954819D02*
X3380953Y-23288152D01*
X3380953Y-22954819D02*
X3333334Y-23002438D01*
X3333334Y-23002438D02*
X3380953Y-23050057D01*
X3380953Y-23050057D02*
X3428572Y-23002438D01*
X3428572Y-23002438D02*
X3380953Y-22954819D01*
X3380953Y-22954819D02*
X3380953Y-23050057D01*
X3857143Y-23288152D02*
X3857143Y-23954819D01*
X3857143Y-23383390D02*
X3904762Y-23335771D01*
X3904762Y-23335771D02*
X4000000Y-23288152D01*
X4000000Y-23288152D02*
X4142857Y-23288152D01*
X4142857Y-23288152D02*
X4238095Y-23335771D01*
X4238095Y-23335771D02*
X4285714Y-23431009D01*
X4285714Y-23431009D02*
X4285714Y-23954819D01*
X5285714Y-23954819D02*
X4714286Y-23954819D01*
X5000000Y-23954819D02*
X5000000Y-22954819D01*
X5000000Y-22954819D02*
X4904762Y-23097676D01*
X4904762Y-23097676D02*
X4809524Y-23192914D01*
X4809524Y-23192914D02*
X4714286Y-23240533D01*
X-9190475Y-23907200D02*
X-9047618Y-23954819D01*
X-9047618Y-23954819D02*
X-8809523Y-23954819D01*
X-8809523Y-23954819D02*
X-8714285Y-23907200D01*
X-8714285Y-23907200D02*
X-8666666Y-23859580D01*
X-8666666Y-23859580D02*
X-8619047Y-23764342D01*
X-8619047Y-23764342D02*
X-8619047Y-23669104D01*
X-8619047Y-23669104D02*
X-8666666Y-23573866D01*
X-8666666Y-23573866D02*
X-8714285Y-23526247D01*
X-8714285Y-23526247D02*
X-8809523Y-23478628D01*
X-8809523Y-23478628D02*
X-8999999Y-23431009D01*
X-8999999Y-23431009D02*
X-9095237Y-23383390D01*
X-9095237Y-23383390D02*
X-9142856Y-23335771D01*
X-9142856Y-23335771D02*
X-9190475Y-23240533D01*
X-9190475Y-23240533D02*
X-9190475Y-23145295D01*
X-9190475Y-23145295D02*
X-9142856Y-23050057D01*
X-9142856Y-23050057D02*
X-9095237Y-23002438D01*
X-9095237Y-23002438D02*
X-8999999Y-22954819D01*
X-8999999Y-22954819D02*
X-8761904Y-22954819D01*
X-8761904Y-22954819D02*
X-8619047Y-23002438D01*
X-8285713Y-22954819D02*
X-8047618Y-23954819D01*
X-8047618Y-23954819D02*
X-7857142Y-23240533D01*
X-7857142Y-23240533D02*
X-7666666Y-23954819D01*
X-7666666Y-23954819D02*
X-7428571Y-22954819D01*
X-7285714Y-24050057D02*
X-6523809Y-24050057D01*
X-5809523Y-23954819D02*
X-6285713Y-23954819D01*
X-6285713Y-23954819D02*
X-6285713Y-22954819D01*
X-5714285Y-24050057D02*
X-4952380Y-24050057D01*
X-4714284Y-23954819D02*
X-4714284Y-23288152D01*
X-4714284Y-22954819D02*
X-4761903Y-23002438D01*
X-4761903Y-23002438D02*
X-4714284Y-23050057D01*
X-4714284Y-23050057D02*
X-4666665Y-23002438D01*
X-4666665Y-23002438D02*
X-4714284Y-22954819D01*
X-4714284Y-22954819D02*
X-4714284Y-23050057D01*
X-4238094Y-23288152D02*
X-4238094Y-23954819D01*
X-4238094Y-23383390D02*
X-4190475Y-23335771D01*
X-4190475Y-23335771D02*
X-4095237Y-23288152D01*
X-4095237Y-23288152D02*
X-3952380Y-23288152D01*
X-3952380Y-23288152D02*
X-3857142Y-23335771D01*
X-3857142Y-23335771D02*
X-3809523Y-23431009D01*
X-3809523Y-23431009D02*
X-3809523Y-23954819D01*
X-2809523Y-23954819D02*
X-3380951Y-23954819D01*
X-3095237Y-23954819D02*
X-3095237Y-22954819D01*
X-3095237Y-22954819D02*
X-3190475Y-23097676D01*
X-3190475Y-23097676D02*
X-3285713Y-23192914D01*
X-3285713Y-23192914D02*
X-3380951Y-23240533D01*
X-13285713Y-18907200D02*
X-13142856Y-18954819D01*
X-13142856Y-18954819D02*
X-12904761Y-18954819D01*
X-12904761Y-18954819D02*
X-12809523Y-18907200D01*
X-12809523Y-18907200D02*
X-12761904Y-18859580D01*
X-12761904Y-18859580D02*
X-12714285Y-18764342D01*
X-12714285Y-18764342D02*
X-12714285Y-18669104D01*
X-12714285Y-18669104D02*
X-12761904Y-18573866D01*
X-12761904Y-18573866D02*
X-12809523Y-18526247D01*
X-12809523Y-18526247D02*
X-12904761Y-18478628D01*
X-12904761Y-18478628D02*
X-13095237Y-18431009D01*
X-13095237Y-18431009D02*
X-13190475Y-18383390D01*
X-13190475Y-18383390D02*
X-13238094Y-18335771D01*
X-13238094Y-18335771D02*
X-13285713Y-18240533D01*
X-13285713Y-18240533D02*
X-13285713Y-18145295D01*
X-13285713Y-18145295D02*
X-13238094Y-18050057D01*
X-13238094Y-18050057D02*
X-13190475Y-18002438D01*
X-13190475Y-18002438D02*
X-13095237Y-17954819D01*
X-13095237Y-17954819D02*
X-12857142Y-17954819D01*
X-12857142Y-17954819D02*
X-12714285Y-18002438D01*
X-12380951Y-17954819D02*
X-12142856Y-18954819D01*
X-12142856Y-18954819D02*
X-11952380Y-18240533D01*
X-11952380Y-18240533D02*
X-11761904Y-18954819D01*
X-11761904Y-18954819D02*
X-11523809Y-17954819D01*
X-11380952Y-19050057D02*
X-10619047Y-19050057D01*
X-9809523Y-18954819D02*
X-10142856Y-18478628D01*
X-10380951Y-18954819D02*
X-10380951Y-17954819D01*
X-10380951Y-17954819D02*
X-9999999Y-17954819D01*
X-9999999Y-17954819D02*
X-9904761Y-18002438D01*
X-9904761Y-18002438D02*
X-9857142Y-18050057D01*
X-9857142Y-18050057D02*
X-9809523Y-18145295D01*
X-9809523Y-18145295D02*
X-9809523Y-18288152D01*
X-9809523Y-18288152D02*
X-9857142Y-18383390D01*
X-9857142Y-18383390D02*
X-9904761Y-18431009D01*
X-9904761Y-18431009D02*
X-9999999Y-18478628D01*
X-9999999Y-18478628D02*
X-10380951Y-18478628D01*
X-9619047Y-19050057D02*
X-8857142Y-19050057D01*
X-8619046Y-18954819D02*
X-8619046Y-18288152D01*
X-8619046Y-17954819D02*
X-8666665Y-18002438D01*
X-8666665Y-18002438D02*
X-8619046Y-18050057D01*
X-8619046Y-18050057D02*
X-8571427Y-18002438D01*
X-8571427Y-18002438D02*
X-8619046Y-17954819D01*
X-8619046Y-17954819D02*
X-8619046Y-18050057D01*
X-8142856Y-18288152D02*
X-8142856Y-18954819D01*
X-8142856Y-18383390D02*
X-8095237Y-18335771D01*
X-8095237Y-18335771D02*
X-7999999Y-18288152D01*
X-7999999Y-18288152D02*
X-7857142Y-18288152D01*
X-7857142Y-18288152D02*
X-7761904Y-18335771D01*
X-7761904Y-18335771D02*
X-7714285Y-18431009D01*
X-7714285Y-18431009D02*
X-7714285Y-18954819D01*
X-6714285Y-18954819D02*
X-7285713Y-18954819D01*
X-6999999Y-18954819D02*
X-6999999Y-17954819D01*
X-6999999Y-17954819D02*
X-7095237Y-18097676D01*
X-7095237Y-18097676D02*
X-7190475Y-18192914D01*
X-7190475Y-18192914D02*
X-7285713Y-18240533D01*
X-3142856Y23862800D02*
X-2999999Y23815180D01*
X-2999999Y23815180D02*
X-2761904Y23815180D01*
X-2761904Y23815180D02*
X-2666666Y23862800D01*
X-2666666Y23862800D02*
X-2619047Y23910419D01*
X-2619047Y23910419D02*
X-2571428Y24005657D01*
X-2571428Y24005657D02*
X-2571428Y24100895D01*
X-2571428Y24100895D02*
X-2619047Y24196133D01*
X-2619047Y24196133D02*
X-2666666Y24243752D01*
X-2666666Y24243752D02*
X-2761904Y24291371D01*
X-2761904Y24291371D02*
X-2952380Y24338990D01*
X-2952380Y24338990D02*
X-3047618Y24386609D01*
X-3047618Y24386609D02*
X-3095237Y24434228D01*
X-3095237Y24434228D02*
X-3142856Y24529466D01*
X-3142856Y24529466D02*
X-3142856Y24624704D01*
X-3142856Y24624704D02*
X-3095237Y24719942D01*
X-3095237Y24719942D02*
X-3047618Y24767561D01*
X-3047618Y24767561D02*
X-2952380Y24815180D01*
X-2952380Y24815180D02*
X-2714285Y24815180D01*
X-2714285Y24815180D02*
X-2571428Y24767561D01*
X-2238094Y24815180D02*
X-1999999Y23815180D01*
X-1999999Y23815180D02*
X-1809523Y24529466D01*
X-1809523Y24529466D02*
X-1619047Y23815180D01*
X-1619047Y23815180D02*
X-1380952Y24815180D01*
X-1238095Y23719942D02*
X-476190Y23719942D01*
X-47618Y24815180D02*
X142857Y24815180D01*
X142857Y24815180D02*
X238095Y24767561D01*
X238095Y24767561D02*
X333333Y24672323D01*
X333333Y24672323D02*
X380952Y24481847D01*
X380952Y24481847D02*
X380952Y24148514D01*
X380952Y24148514D02*
X333333Y23958038D01*
X333333Y23958038D02*
X238095Y23862800D01*
X238095Y23862800D02*
X142857Y23815180D01*
X142857Y23815180D02*
X-47618Y23815180D01*
X-47618Y23815180D02*
X-142856Y23862800D01*
X-142856Y23862800D02*
X-238094Y23958038D01*
X-238094Y23958038D02*
X-285713Y24148514D01*
X-285713Y24148514D02*
X-285713Y24481847D01*
X-285713Y24481847D02*
X-238094Y24672323D01*
X-238094Y24672323D02*
X-142856Y24767561D01*
X-142856Y24767561D02*
X-47618Y24815180D01*
X809524Y24815180D02*
X809524Y24005657D01*
X809524Y24005657D02*
X857143Y23910419D01*
X857143Y23910419D02*
X904762Y23862800D01*
X904762Y23862800D02*
X1000000Y23815180D01*
X1000000Y23815180D02*
X1190476Y23815180D01*
X1190476Y23815180D02*
X1285714Y23862800D01*
X1285714Y23862800D02*
X1333333Y23910419D01*
X1333333Y23910419D02*
X1380952Y24005657D01*
X1380952Y24005657D02*
X1380952Y24815180D01*
X1714286Y24815180D02*
X2285714Y24815180D01*
X2000000Y23815180D02*
X2000000Y24815180D01*
X3142857Y23815180D02*
X2571429Y23815180D01*
X2857143Y23815180D02*
X2857143Y24815180D01*
X2857143Y24815180D02*
X2761905Y24672323D01*
X2761905Y24672323D02*
X2666667Y24577085D01*
X2666667Y24577085D02*
X2571429Y24529466D01*
X6785714Y-23907200D02*
X6928571Y-23954819D01*
X6928571Y-23954819D02*
X7166666Y-23954819D01*
X7166666Y-23954819D02*
X7261904Y-23907200D01*
X7261904Y-23907200D02*
X7309523Y-23859580D01*
X7309523Y-23859580D02*
X7357142Y-23764342D01*
X7357142Y-23764342D02*
X7357142Y-23669104D01*
X7357142Y-23669104D02*
X7309523Y-23573866D01*
X7309523Y-23573866D02*
X7261904Y-23526247D01*
X7261904Y-23526247D02*
X7166666Y-23478628D01*
X7166666Y-23478628D02*
X6976190Y-23431009D01*
X6976190Y-23431009D02*
X6880952Y-23383390D01*
X6880952Y-23383390D02*
X6833333Y-23335771D01*
X6833333Y-23335771D02*
X6785714Y-23240533D01*
X6785714Y-23240533D02*
X6785714Y-23145295D01*
X6785714Y-23145295D02*
X6833333Y-23050057D01*
X6833333Y-23050057D02*
X6880952Y-23002438D01*
X6880952Y-23002438D02*
X6976190Y-22954819D01*
X6976190Y-22954819D02*
X7214285Y-22954819D01*
X7214285Y-22954819D02*
X7357142Y-23002438D01*
X7690476Y-22954819D02*
X7928571Y-23954819D01*
X7928571Y-23954819D02*
X8119047Y-23240533D01*
X8119047Y-23240533D02*
X8309523Y-23954819D01*
X8309523Y-23954819D02*
X8547619Y-22954819D01*
X8690476Y-24050057D02*
X9452380Y-24050057D01*
X9642857Y-23669104D02*
X10119047Y-23669104D01*
X9547619Y-23954819D02*
X9880952Y-22954819D01*
X9880952Y-22954819D02*
X10214285Y-23954819D01*
X10309524Y-24050057D02*
X11071428Y-24050057D01*
X11309524Y-23954819D02*
X11309524Y-23288152D01*
X11309524Y-22954819D02*
X11261905Y-23002438D01*
X11261905Y-23002438D02*
X11309524Y-23050057D01*
X11309524Y-23050057D02*
X11357143Y-23002438D01*
X11357143Y-23002438D02*
X11309524Y-22954819D01*
X11309524Y-22954819D02*
X11309524Y-23050057D01*
X11785714Y-23288152D02*
X11785714Y-23954819D01*
X11785714Y-23383390D02*
X11833333Y-23335771D01*
X11833333Y-23335771D02*
X11928571Y-23288152D01*
X11928571Y-23288152D02*
X12071428Y-23288152D01*
X12071428Y-23288152D02*
X12166666Y-23335771D01*
X12166666Y-23335771D02*
X12214285Y-23431009D01*
X12214285Y-23431009D02*
X12214285Y-23954819D01*
X13214285Y-23954819D02*
X12642857Y-23954819D01*
X12928571Y-23954819D02*
X12928571Y-22954819D01*
X12928571Y-22954819D02*
X12833333Y-23097676D01*
X12833333Y-23097676D02*
X12738095Y-23192914D01*
X12738095Y-23192914D02*
X12642857Y-23240533D01*
D12*
%TO.C,ENC_R1*%
X2420000Y15270000D02*
X2420000Y22950000D01*
X2420000Y12670000D02*
X2420000Y14000000D01*
X3750000Y12670000D02*
X2420000Y12670000D01*
X5080000Y22950000D02*
X2420000Y22950000D01*
X5080000Y15270000D02*
X2420000Y15270000D01*
X5080000Y15270000D02*
X5080000Y22950000D01*
D11*
%TO.C,Key1*%
X-7000000Y-7000000D02*
X-7000000Y-6000000D01*
X-7000000Y-7000000D02*
X-6000000Y-7000000D01*
X6000000Y-7000000D02*
X7000000Y-7000000D01*
X7000000Y-6000000D02*
X7000000Y-7000000D01*
D12*
%TO.C,SW_D_in1*%
X-670000Y-22210000D02*
X-670000Y-22330000D01*
X-670000Y-19670000D02*
X-670000Y-21000000D01*
X-2000000Y-19670000D02*
X-670000Y-19670000D01*
X-3330000Y-22330000D02*
X-670000Y-22330000D01*
X-3330000Y-22210000D02*
X-3330000Y-22330000D01*
%TO.C,SW_B_in1*%
X4670000Y-22210000D02*
X4670000Y-22330000D01*
X4670000Y-22330000D02*
X7330000Y-22330000D01*
X6000000Y-19670000D02*
X7330000Y-19670000D01*
X7330000Y-19670000D02*
X7330000Y-21000000D01*
X7330000Y-22210000D02*
X7330000Y-22330000D01*
%TO.C,ENC_L1*%
X-5105000Y15220000D02*
X-5105000Y22900000D01*
X-5105000Y12620000D02*
X-5105000Y13950000D01*
X-3775000Y12620000D02*
X-5105000Y12620000D01*
X-2445000Y22900000D02*
X-5105000Y22900000D01*
X-2445000Y15220000D02*
X-5105000Y15220000D01*
X-2445000Y15220000D02*
X-2445000Y22900000D01*
%TO.C,SW_C_in1*%
X3330000Y-22210000D02*
X3330000Y-22330000D01*
X3330000Y-19670000D02*
X3330000Y-21000000D01*
X2000000Y-19670000D02*
X3330000Y-19670000D01*
X670000Y-22330000D02*
X3330000Y-22330000D01*
X670000Y-22210000D02*
X670000Y-22330000D01*
%TO.C,SW_L_in1*%
X-4670000Y-22210000D02*
X-4670000Y-22330000D01*
X-4670000Y-19670000D02*
X-4670000Y-21000000D01*
X-6000000Y-19670000D02*
X-4670000Y-19670000D01*
X-7330000Y-22330000D02*
X-4670000Y-22330000D01*
X-7330000Y-22210000D02*
X-7330000Y-22330000D01*
%TO.C,SW_R_in1*%
X-11330000Y-22210000D02*
X-11330000Y-22330000D01*
X-11330000Y-22330000D02*
X-8670000Y-22330000D01*
X-10000000Y-19670000D02*
X-8670000Y-19670000D01*
X-8670000Y-19670000D02*
X-8670000Y-21000000D01*
X-8670000Y-22210000D02*
X-8670000Y-22330000D01*
%TO.C,SW_OUT1*%
X-1330000Y20290000D02*
X-1330000Y20170000D01*
X-1330000Y20170000D02*
X1330000Y20170000D01*
X0Y22830000D02*
X1330000Y22830000D01*
X1330000Y22830000D02*
X1330000Y21500000D01*
X1330000Y20290000D02*
X1330000Y20170000D01*
%TO.C,SW_A_in1*%
X8670000Y-22210000D02*
X8670000Y-22330000D01*
X8670000Y-22330000D02*
X11330000Y-22330000D01*
X10000000Y-19670000D02*
X11330000Y-19670000D01*
X11330000Y-19670000D02*
X11330000Y-21000000D01*
X11330000Y-22210000D02*
X11330000Y-22330000D01*
%TD*%
M02*
