%TF.GenerationSoftware,KiCad,Pcbnew,8.0.8*%
%TF.CreationDate,2025-02-27T23:17:26-05:00*%
%TF.ProjectId,modular_sdvx_pcb_nostabs,6d6f6475-6c61-4725-9f73-6476785f7063,rev?*%
%TF.SameCoordinates,Original*%
%TF.FileFunction,Soldermask,Bot*%
%TF.FilePolarity,Negative*%
%FSLAX46Y46*%
G04 Gerber Fmt 4.6, Leading zero omitted, Abs format (unit mm)*
G04 Created by KiCad (PCBNEW 8.0.8) date 2025-02-27 23:17:26*
%MOMM*%
%LPD*%
G01*
G04 APERTURE LIST*
%ADD10C,5.000000*%
%ADD11R,1.700000X1.700000*%
%ADD12O,1.700000X1.700000*%
%ADD13C,1.701800*%
%ADD14C,3.000000*%
%ADD15C,3.987800*%
%ADD16R,2.550000X2.500000*%
%ADD17C,3.200000*%
%ADD18C,1.400000*%
%ADD19O,1.727200X1.727200*%
%ADD20C,1.016000*%
%ADD21R,1.727200X1.727200*%
%ADD22C,1.727200*%
G04 APERTURE END LIST*
D10*
%TO.C,REF\u002A\u002A*%
X18000000Y-15000000D03*
%TD*%
%TO.C,REF\u002A\u002A*%
X18000000Y15000000D03*
%TD*%
D11*
%TO.C,ENC_R1*%
X3750000Y14000000D03*
D12*
X3750000Y16540000D03*
X3750000Y19080000D03*
X3750000Y21620000D03*
%TD*%
D13*
%TO.C,Key1*%
X5080000Y0D03*
D14*
X3810000Y-2540000D03*
D15*
X0Y0D03*
D14*
X-2540000Y-5080000D03*
D13*
X-5080000Y0D03*
D16*
X-6290000Y-5080000D03*
X7560000Y-2540000D03*
%TD*%
D10*
%TO.C,REF\u002A\u002A*%
X14500000Y0D03*
%TD*%
D11*
%TO.C,SW_D_in1*%
X-2000000Y-21000000D03*
%TD*%
%TO.C,SW_B_in1*%
X6000000Y-21000000D03*
%TD*%
D10*
%TO.C,REF\u002A\u002A*%
X-18000000Y15000000D03*
%TD*%
D11*
%TO.C,ENC_L1*%
X-3775000Y13950000D03*
D12*
X-3775000Y16490000D03*
X-3775000Y19030000D03*
X-3775000Y21570000D03*
%TD*%
D17*
%TO.C,REF\u002A\u002A*%
X9000000Y-15000000D03*
%TD*%
D11*
%TO.C,SW_C_in1*%
X2000000Y-21000000D03*
%TD*%
%TO.C,SW_L_in1*%
X-6000000Y-21000000D03*
%TD*%
%TO.C,SW_R_in1*%
X-10000000Y-21000000D03*
%TD*%
%TO.C,SW_OUT1*%
X0Y21500000D03*
%TD*%
D10*
%TO.C,REF\u002A\u002A*%
X-14500000Y0D03*
%TD*%
D17*
%TO.C,REF\u002A\u002A*%
X-9000000Y15000000D03*
%TD*%
D10*
%TO.C,REF\u002A\u002A*%
X-18000000Y-15000000D03*
%TD*%
D17*
%TO.C,REF\u002A\u002A*%
X9000000Y15000000D03*
%TD*%
%TO.C,REF\u002A\u002A*%
X-9000000Y-15000000D03*
%TD*%
D11*
%TO.C,SW_A_in1*%
X10000000Y-21000000D03*
%TD*%
D18*
%TO.C,A1*%
X-22470000Y7250000D03*
X-22470000Y-7990000D03*
D19*
X2930000Y7250000D03*
X5470000Y7250000D03*
D18*
X23250000Y7250000D03*
D20*
X23250000Y-7990000D03*
D19*
X-17390000Y7250000D03*
X8010000Y7250000D03*
X-12310000Y7250000D03*
X-9770000Y7250000D03*
X-7230000Y7250000D03*
X-4690000Y7250000D03*
X-2150000Y7250000D03*
X390000Y7250000D03*
X-14850000Y7250000D03*
X13090000Y-7990000D03*
X15630000Y-7990000D03*
X5470000Y-7990000D03*
X2930000Y-7990000D03*
X390000Y-7990000D03*
X-2150000Y-7990000D03*
X-4690000Y-7990000D03*
X-7230000Y-7990000D03*
X-9770000Y-7990000D03*
X-12310000Y-7990000D03*
X-14850000Y-7990000D03*
X-17390000Y-7990000D03*
X-19930000Y-7990000D03*
X-19930000Y7250000D03*
D21*
X13090000Y7250000D03*
X8010000Y-7990000D03*
D19*
X18170000Y7250000D03*
D22*
X20710000Y-7990000D03*
D19*
X10550000Y7250000D03*
X10550000Y-7990000D03*
X20710000Y7250000D03*
X18170000Y-7990000D03*
X15630000Y7250000D03*
%TD*%
M02*
